<svg xmlns="http://www.w3.org/2000/svg" xmlns:xlink="http://www.w3.org/1999/xlink" width="85" height="71" viewBox="0 0 85 71">
  <defs>
    <clipPath id="clip-path">
      <rect id="Rectángulo_337093" data-name="Rectángulo 337093" width="52.188" height="52.186" fill="none"/>
    </clipPath>
  </defs>
  <g id="Grupo_902468" data-name="Grupo 902468" transform="translate(-1073 -4071)">
    <g id="Grupo_902008" data-name="Grupo 902008" transform="translate(893 2166)">
      <path id="Trazado_632511" data-name="Trazado 632511" d="M8,0H77a8,8,0,0,1,8,8V63a8,8,0,0,1-8,8H8a8,8,0,0,1-8-8V8A8,8,0,0,1,8,0Z" transform="translate(180 1905)" fill="#fff"/>
      <g id="Grupo_902408" data-name="Grupo 902408" transform="translate(196 1914)">
        <g id="Grupo_902408-2" data-name="Grupo 902408" transform="translate(0 0)" clip-path="url(#clip-path)">
          <path id="Trazado_632548" data-name="Trazado 632548" d="M27.927,0a15.331,15.331,0,0,0,2.025.293A25.74,25.74,0,0,1,49.231,14.078a25.176,25.176,0,0,1,2.951,12.584A25.807,25.807,0,0,1,49.2,38.221c-.311.6-.617.713-1.3.524-.528-.222-.686-.679-.414-1.3.287-.652.637-1.275.913-1.935a24.362,24.362,0,0,0,1.824-7.539,24.222,24.222,0,0,0-12-22.82A24.049,24.049,0,0,0,19.21,2.9,23.552,23.552,0,0,0,10.953,7.2,24.165,24.165,0,0,0,3.365,34.44a23.283,23.283,0,0,0,4.52,7.623,24.54,24.54,0,0,0,6.377,5.178,2.142,2.142,0,0,1,.429.273.868.868,0,0,1,.108,1.218.88.88,0,0,1-1.337.2A25.842,25.842,0,0,1,.617,31.7,22.92,22.92,0,0,1,.1,28.335c-.007-.081.008-.173-.1-.2V24.054c.121-.834.114-1.68.261-2.515a26.313,26.313,0,0,1,3.557-9.262,25.672,25.672,0,0,1,7.305-7.7A25.9,25.9,0,0,1,22.6.118C23.113.048,23.641.091,24.156,0Z" transform="translate(0 0)"/>
          <path id="Trazado_632549" data-name="Trazado 632549" d="M16.109,50.051c.235-.668.119-.978-.514-1.335A24.035,24.035,0,0,1,4.942,36.8a23.588,23.588,0,0,1-1.82-11.088,23.942,23.942,0,0,1,8.09-16.473A23.374,23.374,0,0,1,23.241,3.449,23.718,23.718,0,0,1,42.633,8.441a23.557,23.557,0,0,1,8.731,14.722,23.885,23.885,0,0,1-2.337,15.457c-.352.692-.32.932.189,1.445l-1.027,1.728c-.169.02-.241-.111-.309-.22-.589-.944-1.236-1.851-1.8-2.81a.412.412,0,0,1-.062-.241A15.561,15.561,0,0,1,47.1,36.627c.749-.01,1.068-.473,1.3-1.122a24.561,24.561,0,0,0,1.413-6.341,21.909,21.909,0,0,0-3.181-13.4A22.041,22.041,0,0,0,34.75,6.17a21.56,21.56,0,0,0-8.259-1.235A22.545,22.545,0,0,0,6.448,19.277,21.738,21.738,0,0,0,5,25.76a22.193,22.193,0,0,0,5.527,16.5,21.222,21.222,0,0,0,5.691,4.656,1.16,1.16,0,0,0,1.525-.06.972.972,0,0,1,.514.153,9.9,9.9,0,0,1,1.122.587.471.471,0,0,1-.084.383,11.262,11.262,0,0,0-1.476,2.782,9.267,9.267,0,0,0-1.709-.7" transform="translate(-1.311 -1.32)" fill="#9d9d9d"/>
          <path id="Trazado_632550" data-name="Trazado 632550" d="M28.943,67.027a3.836,3.836,0,0,1,.819-1.993c.257-.377.485-.773.727-1.161a.562.562,0,0,1,.147-.419c1.833-2.789,3.617-5.61,5.464-8.389.273-.33.425-.74.7-1.072,1.165-1.854,2.374-3.679,3.562-5.519,1.289-2,2.589-3.985,3.878-5.982a3.954,3.954,0,0,1,.452-.615,2.832,2.832,0,0,1,4.569.5c2.188,3.311,4.326,6.655,6.489,9.982.429.633.814,1.292,1.243,1.926.1.149.248.289.2.5l2.123,3.274q2.359,3.648,4.72,7.294a2.875,2.875,0,0,1,.549,2.156,2.739,2.739,0,0,1-2.888,2.262q-11.3,0-22.608,0-3.59,0-7.18,0a2.754,2.754,0,0,1-2.963-2.749" transform="translate(-12.435 -17.591)"/>
          <path id="Trazado_632551" data-name="Trazado 632551" d="M47.089,38.733q-3.228-4.962-6.452-9.926a2.78,2.78,0,0,0-4.461-.563,1.131,1.131,0,0,1-.589.124,1.714,1.714,0,0,0-1.453.8q-2.186,3.342-4.346,6.7c-.386.6-.775,1.2-1.183,1.779-.1.144-.2.464-.481.168a2.244,2.244,0,0,1,.03-1.209c.3-.3.728-.446.741-1.007.03-1.375-.542-2.011-1.924-2.019-.678,0-1.355-.008-2.033,0a1.622,1.622,0,0,0-1.775,1.764c-.006,1.846,0,3.692,0,5.539a2.4,2.4,0,0,0,.026.456.641.641,0,0,0,.5.574.673.673,0,0,0,.757-.281,1.49,1.49,0,0,1,.3-.406,2.278,2.278,0,0,1,1.2-.046c.342.229.077.457-.035.64-.415.677-.857,1.338-1.291,2q-1.8,2.759-3.587,5.53a.738.738,0,0,1-.264.3.626.626,0,0,1-.432-.242c-.066-.808-.676-1.134-1.28-1.5a20.593,20.593,0,0,1-7.515-7.849,20.229,20.229,0,0,1-2.5-8.17,20.7,20.7,0,0,1,4.72-15.256A20.437,20.437,0,0,1,22.9,10.228a20.118,20.118,0,0,1,6.527-1.2,21.014,21.014,0,0,1,7.019,1,2.046,2.046,0,0,1,.6.263c1.1.7,2.266,1.3,3.311,2.089A21.66,21.66,0,0,1,49,26.914a21.055,21.055,0,0,1-1.446,11.364c-.082.2-.077.544-.465.455" transform="translate(-3.854 -3.878)" fill="#f4f4f4"/>
          <path id="Trazado_632552" data-name="Trazado 632552" d="M35.756,9.124a18.134,18.134,0,0,0-6.348-1.239,20.847,20.847,0,0,0-11.286,38.79c.147.085.289.179.44.254a.955.955,0,0,1,.554,1.217c-.428.575-.784.665-1.387.314a22.115,22.115,0,0,1-11.426-17,22.6,22.6,0,0,1,44.557-7.367,22.385,22.385,0,0,1-1.188,13.128c-.289.723-.5.846-1.28.753a.841.841,0,0,1-.536-1.245,26.88,26.88,0,0,0,.881-2.6,19.332,19.332,0,0,0,.729-6.093A20.9,20.9,0,0,0,44.3,15.038,21.432,21.432,0,0,0,36.9,9.66c-.384-.176-.756-.375-1.146-.537" transform="translate(-2.629 -2.606)"/>
          <path id="Trazado_632553" data-name="Trazado 632553" d="M58.083,11.427a16.8,16.8,0,0,1,4.574,2.266A20.582,20.582,0,0,1,71.71,28.1a20.26,20.26,0,0,1-1.339,10.815c-.274.68-.208.9.348,1.363a6.729,6.729,0,0,1-1.011,1.83L68.19,39.765c.446-.322.5-.861.663-1.315a22.853,22.853,0,0,0,1.276-6.172,21.681,21.681,0,0,0-1.563-9.509,21.023,21.023,0,0,0-3.248-5.479,22.211,22.211,0,0,0-7-5.684,1.872,1.872,0,0,1-.238-.179" transform="translate(-24.955 -4.909)" fill="#ced7db"/>
          <path id="Trazado_632554" data-name="Trazado 632554" d="M29.666,73.825a2.871,2.871,0,0,1,.452-.835q2.29-3.517,4.58-7.033c.1-.155.176-.327.264-.491a1.372,1.372,0,0,1,1.556.093q-2.712,4.179-5.425,8.359c-.091.14-.2.273-.294.409a3.215,3.215,0,0,1-1.134-.5" transform="translate(-12.746 -28.044)" fill="#ced7db"/>
          <path id="Trazado_632555" data-name="Trazado 632555" d="M62.19,69.78c-.135.006-.271.017-.406.017H33.305a1.566,1.566,0,0,1-.651-.079.984.984,0,0,1-.358-1.566q1.988-3.076,3.987-6.146,5.371-8.281,10.742-16.561c.091-.141.2-.273.3-.41.216-.035.294.139.383.272q1.318,1.979,2.595,3.984c.2.315.1.5-.2.633a8.338,8.338,0,0,0-1.637,1.662c-1.444,1.6-2.88,3.2-4.324,4.8q-.989,1.1-1.975,2.194c-.624.694-.53,1.175.294,1.613q1.035.55,2.1,1.045a.622.622,0,0,1,.385.848c-.451,1.743-.881,3.491-1.316,5.238q-.05.2-.1.4a.764.764,0,0,0,.329.933.785.785,0,0,0,.976-.19c.481-.456.9-.972,1.34-1.464,1.429-1.59,2.849-3.187,4.285-4.77.661-.729,1.324-1.456,1.98-2.19.5-.564.423-1.048-.238-1.406-.7-.38-1.422-.726-2.13-1.092-.618-.319-.629-.371-.46-1.042.42-1.681.836-3.362,1.263-5.041.052-.2.038-.453.287-.562.246.015.327.225.433.388,2.4,3.657,4.766,7.332,7.146,11q1.6,2.473,3.216,4.944a3.911,3.911,0,0,1,.591,1.176,1.186,1.186,0,0,1-.354,1.372" transform="translate(-13.775 -19.347)" fill="#fedb00"/>
          <path id="Trazado_632556" data-name="Trazado 632556" d="M73.687,69.429a1.859,1.859,0,0,0-.171-2.225q-2.842-4.383-5.7-8.757-2.419-3.72-4.835-7.441a1.233,1.233,0,0,0-.347-.428,1.3,1.3,0,0,0-1.08-1.12c.076-.116.4-.062.187-.376-.962-1.437-1.9-2.892-2.843-4.339-.017-.026-.054-.038-.082-.057a.971.971,0,0,1,1.729.132q2.36,3.62,4.707,7.249,5.065,7.8,10.132,15.607c.26.4.478.793.2,1.269a1.146,1.146,0,0,1-1.19.506c-.237-.013-.474-.013-.711-.019" transform="translate(-25.271 -18.997)" fill="#fdc008"/>
          <path id="Trazado_632557" data-name="Trazado 632557" d="M39.391,60.965a4,4,0,0,0-1.556-.093l-1.32-.013a.785.785,0,0,1-.159-.621q-.009-2.416,0-4.832c0-.713.11-.812.836-.822.458-.007.916,0,1.373,0,.376,0,.631.149.657.548.034.512.481.707.756,1.035l.013,1.321a5.283,5.283,0,0,1,.113,2.093,2.31,2.31,0,0,0-.029.351l-.684,1.032" transform="translate(-15.618 -23.451)" fill="#37474f"/>
          <path id="Trazado_632558" data-name="Trazado 632558" d="M42.791,54.818c-.212-.376-.07-.783-.092-1.173-.023-.422,0-.847.008-1.271a30.316,30.316,0,0,0,1.92-2.847c1.2-1.837,2.422-3.662,3.568-5.533A2.329,2.329,0,0,1,50.656,42.7L42.791,54.818" transform="translate(-18.334 -18.336)" fill="#ced7db"/>
          <path id="Trazado_632559" data-name="Trazado 632559" d="M35.262,32.868q-5.5,0-11,0a2.631,2.631,0,0,1-2.916-2.934c0-.543-.022-1.089.026-1.629a2.568,2.568,0,0,1,2.579-2.386c.917-.015,1.834,0,2.751,0H46.261a2.645,2.645,0,0,1,2.917,2.892c0,.476.014.951,0,1.426a2.573,2.573,0,0,1-2.7,2.63c-3.329.011-6.657,0-9.986,0H35.262" transform="translate(-9.167 -11.133)"/>
          <path id="Trazado_632560" data-name="Trazado 632560" d="M24.262,45.964q-4.634,0-9.267,0a2.55,2.55,0,0,1-.606-.047.852.852,0,0,1,.013-1.653,2.472,2.472,0,0,1,.556-.043q9.343,0,18.686,0a2.372,2.372,0,0,1,.556.046.85.85,0,0,1-.013,1.653,2.754,2.754,0,0,1-.606.044q-4.659,0-9.318,0" transform="translate(-5.907 -18.998)" fill="#010101"/>
          <path id="Trazado_632561" data-name="Trazado 632561" d="M19.83,56.2c0-.866-.008-1.732,0-2.6a1.72,1.72,0,0,1,1.724-1.765c.866-.021,1.732-.017,2.6,0a1.7,1.7,0,0,1,1.753,1.685q.056,2.673,0,5.348a1.666,1.666,0,0,1-1.722,1.654c-.882.025-1.766.028-2.648,0a1.7,1.7,0,0,1-1.7-1.776c-.009-.849,0-1.7,0-2.547" transform="translate(-8.519 -22.265)"/>
          <path id="Trazado_632562" data-name="Trazado 632562" d="M38.779,54.975c-.686-.212-.862-.392-.9-1.051-.015-.29-.11-.383-.392-.376-.577.016-1.156.025-1.732,0-.364-.017-.46.116-.457.465.017,1.884.011,3.769.013,5.654a2.5,2.5,0,0,1-.212.51.791.791,0,0,1-.95.293.813.813,0,0,1-.59-.853c0-2.038-.011-4.076.007-6.113a1.687,1.687,0,0,1,1.7-1.675c.882-.022,1.768-.046,2.648,0,1.519.087,1.932,1.391,1.644,2.577-.088.362-.439.493-.786.564" transform="translate(-14.419 -22.257)"/>
          <path id="Trazado_632563" data-name="Trazado 632563" d="M71.988,45.958c-.424,0-.849.009-1.272,0a.907.907,0,0,1-1-.858.889.889,0,0,1,.973-.881q1.323-.022,2.646,0c.615.011.97.354.963.881s-.363.841-.987.859c-.441.013-.882,0-1.323,0" transform="translate(-29.953 -18.992)" fill="#010101"/>
          <path id="Trazado_632564" data-name="Trazado 632564" d="M57.244,53.4c.846.007,1.15.323,1.08,1.12-.492,1.951-.979,3.9-1.481,5.852a.393.393,0,0,0,.254.545c.8.374,1.579.774,2.362,1.175a.891.891,0,0,1,.306,1.56q-3.791,4.225-7.591,8.442A.9.9,0,0,1,51,72.407a.874.874,0,0,1-.406-1.13c.48-1.869.927-3.747,1.413-5.615.1-.374.058-.564-.322-.732-.757-.335-1.489-.728-2.228-1.1-.794-.4-.9-.951-.3-1.622q3.758-4.187,7.524-8.366a1.6,1.6,0,0,1,.557-.433" transform="translate(-20.957 -22.945)"/>
          <path id="Trazado_632565" data-name="Trazado 632565" d="M35.348,28.96c.457,0,.914.01,1.371,0,.24-.007.325.072.322.317q-.016,1.422,0,2.844c0,.241-.074.325-.318.322q-1.422-.015-2.844,0c-.239,0-.325-.072-.322-.317q.016-1.422,0-2.844c0-.238.07-.331.317-.323.491.015.982,0,1.473,0" transform="translate(-14.418 -12.44)" fill="#00bbd3"/>
          <path id="Trazado_632566" data-name="Trazado 632566" d="M44.466,28.959c.457,0,.915.015,1.371-.006.275-.013.343.092.34.35q-.019,1.4,0,2.794c0,.269-.083.346-.347.343q-1.4-.021-2.794,0c-.273,0-.344-.088-.34-.349q.021-1.4,0-2.794c0-.267.079-.355.347-.344.473.019.948.006,1.422.006" transform="translate(-18.345 -12.439)" fill="#00bbd3"/>
          <path id="Trazado_632567" data-name="Trazado 632567" d="M55.31,30.7c0,.457-.009.914,0,1.371.007.242-.038.37-.326.365-.948-.015-1.9-.013-2.844,0-.249,0-.315-.092-.313-.327q.015-1.422,0-2.844c0-.251.093-.315.327-.313.948.01,1.9.011,2.844,0,.253,0,.318.095.312.328-.013.473,0,.948,0,1.422" transform="translate(-22.269 -12.44)" fill="#00bbd3"/>
          <path id="Trazado_632568" data-name="Trazado 632568" d="M27.889,30.711c0,.457-.011.915,0,1.372.009.258-.068.362-.342.357-.762-.015-1.525.006-2.287-.012a.8.8,0,0,1-.845-.825c-.025-.591-.024-1.186,0-1.778a.827.827,0,0,1,.877-.859c.762-.02,1.525,0,2.287-.011.254,0,.317.1.311.333-.011.474,0,.948,0,1.423" transform="translate(-10.484 -12.441)" fill="#00bbd3"/>
          <path id="Trazado_632569" data-name="Trazado 632569" d="M60.977,30.633c0-.44.011-.881,0-1.321-.009-.254.058-.365.338-.359.745.017,1.491-.007,2.236.011a.837.837,0,0,1,.9.886c.021.575.02,1.152,0,1.728a.8.8,0,0,1-.823.848c-.779.022-1.558,0-2.337.013-.251,0-.32-.1-.314-.331.012-.491,0-.983,0-1.474" transform="translate(-26.197 -12.44)" fill="#00bbd3"/>
          <path id="Trazado_632570" data-name="Trazado 632570" d="M22.869,57.446c0-.712.012-1.425-.006-2.137-.008-.313.06-.466.416-.451.61.026,1.221.015,1.831,0,.265-.006.4.051.4.36q-.018,2.238,0,4.477c0,.294-.113.382-.392.375-.627-.014-1.255-.016-1.882,0-.3.008-.377-.114-.372-.391.013-.746,0-1.493,0-2.239" transform="translate(-9.823 -23.569)" fill="#37474e"/>
          <path id="Trazado_632571" data-name="Trazado 632571" d="M57.522,60.825q-.392,1.576-.783,3.151a.922.922,0,0,0,.594,1.272q1,.5,2,1c.141.071.293.115.112.315-1.478,1.634-2.95,3.273-4.51,4.87q.377-1.537.756-3.074c.2-.8.088-1.045-.653-1.417-.635-.319-1.268-.642-1.9-.961-.136-.068-.311-.1-.12-.306q2.216-2.452,4.423-4.911l.088.06" transform="translate(-22.74 -26.107)" fill="#f4f4f4"/>
        </g>
      </g>
    </g>
  </g>
</svg>
