<svg xmlns="http://www.w3.org/2000/svg" xmlns:xlink="http://www.w3.org/1999/xlink" width="1030" height="275" viewBox="0 0 1030 275">
  <defs>
    <linearGradient id="linear-gradient" x1="1.008" y1="1" x2="0.246" y2="0.268" gradientUnits="objectBoundingBox">
      <stop offset="0" stop-color="#7de5d2"/>
      <stop offset="1" stop-color="#b4fff1"/>
    </linearGradient>
    <clipPath id="clip-path">
      <rect id="Rectángulo_336964" data-name="Rectángulo 336964" width="441.038" height="135.633" fill="none"/>
    </clipPath>
  </defs>
  <g id="Grupo_902426" data-name="Grupo 902426" transform="translate(-390 -782)">
    <g id="Grupo_902241" data-name="Grupo 902241" transform="translate(390 782)">
      <rect id="Rectángulo_336771" data-name="Rectángulo 336771" width="1030" height="275" rx="13" fill="url(#linear-gradient)"/>
      <g id="Grupo_902425" data-name="Grupo 902425" transform="translate(35 240)">
        <rect id="Rectángulo_36236" data-name="Rectángulo 36236" width="976" height="21" fill="#fff"/>
        <text id="Nota._Adaptado_de_Adeltatec_2018_." data-name="Nota. Adaptado de Adeltatec (2018)." transform="translate(7 16)" fill="#12263f" font-size="14" font-family="Roboto-Regular, Roboto"><tspan x="0" y="0">Nota. Adaptado de Adeltatec (2018).</tspan></text>
      </g>
      <g id="Grupo_902240" data-name="Grupo 902240" transform="translate(31 52.019)">
        <g id="Grupo_902232" data-name="Grupo 902232" transform="translate(0 34.845)">
          <rect id="Rectángulo_336944" data-name="Rectángulo 336944" width="354.212" height="5.328" transform="translate(85.737 86.063)" fill="#2db051"/>
          <g id="Grupo_902231" data-name="Grupo 902231">
            <g id="Grupo_902230" data-name="Grupo 902230" clip-path="url(#clip-path)">
              <rect id="Rectángulo_336945" data-name="Rectángulo 336945" width="354.212" height="5.328" transform="translate(85.737 86.063)" fill="none" stroke="#000" stroke-miterlimit="10" stroke-width="2"/>
              <path id="Trazado_630857" data-name="Trazado 630857" d="M136.694,50.96H114.917V38.876a16.117,16.117,0,0,0-16.1-16.1H11.632V1H98.818a37.919,37.919,0,0,1,37.877,37.876Z" transform="translate(1.034 0.089)" fill="#7f7f7f"/>
              <path id="Trazado_630858" data-name="Trazado 630858" d="M136.694,50.96H114.917V38.876a16.117,16.117,0,0,0-16.1-16.1H11.632V1H98.818a37.919,37.919,0,0,1,37.877,37.876Z" transform="translate(1.034 0.089)" fill="none" stroke="#000" stroke-miterlimit="10" stroke-width="2"/>
              <path id="Trazado_630859" data-name="Trazado 630859" d="M152.137,89.065V75.927c0-6.2,4.7-11.219,10.5-11.219h3.206" transform="translate(13.522 5.751)" fill="none" stroke="#000" stroke-miterlimit="10" stroke-width="2"/>
              <path id="Trazado_630860" data-name="Trazado 630860" d="M215.235,89.065V75.927c0-6.2-4.7-11.219-10.5-11.219h-3.206" transform="translate(17.912 5.751)" fill="none" stroke="#000" stroke-miterlimit="10" stroke-width="2"/>
              <line id="Línea_180" data-name="Línea 180" y2="12.432" transform="translate(186.59 64.243)" fill="none" stroke="#2e3dc5" stroke-miterlimit="10" stroke-width="7"/>
              <line id="Línea_181" data-name="Línea 181" y2="12.432" transform="translate(195.344 64.243)" fill="none" stroke="#c43030" stroke-miterlimit="10" stroke-width="7"/>
              <line id="Línea_182" data-name="Línea 182" y2="12.432" transform="translate(204.108 64.243)" fill="none" stroke="#db7028" stroke-miterlimit="10" stroke-width="7"/>
              <line id="Línea_183" data-name="Línea 183" y2="12.432" transform="translate(213.411 64.243)" fill="none" stroke="#ff0" stroke-miterlimit="10" stroke-width="7"/>
              <rect id="Rectángulo_336946" data-name="Rectángulo 336946" width="98.365" height="15.509" transform="translate(273.362 63.482)"/>
              <rect id="Rectángulo_336947" data-name="Rectángulo 336947" width="6.089" height="12.399" transform="translate(282.116 73.664)" fill="#737373"/>
              <rect id="Rectángulo_336948" data-name="Rectángulo 336948" width="6.089" height="12.399" transform="translate(282.116 73.664)" fill="none" stroke="#000" stroke-miterlimit="10" stroke-width="1"/>
              <rect id="Rectángulo_336949" data-name="Rectángulo 336949" width="6.089" height="12.399" transform="translate(300.479 73.664)" fill="#737373"/>
              <rect id="Rectángulo_336950" data-name="Rectángulo 336950" width="6.089" height="12.399" transform="translate(300.479 73.664)" fill="none" stroke="#000" stroke-miterlimit="10" stroke-width="1"/>
              <rect id="Rectángulo_336951" data-name="Rectángulo 336951" width="6.089" height="12.399" transform="translate(318.842 73.664)" fill="#737373"/>
              <rect id="Rectángulo_336952" data-name="Rectángulo 336952" width="6.089" height="12.399" transform="translate(318.842 73.664)" fill="none" stroke="#000" stroke-miterlimit="10" stroke-width="1"/>
              <rect id="Rectángulo_336953" data-name="Rectángulo 336953" width="6.089" height="12.399" transform="translate(337.205 73.664)" fill="#737373"/>
              <rect id="Rectángulo_336954" data-name="Rectángulo 336954" width="6.089" height="12.399" transform="translate(337.205 73.664)" fill="none" stroke="#000" stroke-miterlimit="10" stroke-width="1"/>
              <rect id="Rectángulo_336955" data-name="Rectángulo 336955" width="6.089" height="12.399" transform="translate(355.567 73.664)" fill="#737373"/>
              <rect id="Rectángulo_336956" data-name="Rectángulo 336956" width="6.089" height="12.399" transform="translate(355.567 73.664)" fill="none" stroke="#000" stroke-miterlimit="10" stroke-width="1"/>
              <path id="Trazado_630861" data-name="Trazado 630861" d="M234.622,79.36s8.753,1.493,11.8-5.247,1.141-7.882,9.515-9.4" transform="translate(20.853 5.751)" fill="none" stroke="#000" stroke-miterlimit="10" stroke-width="2"/>
              <path id="Trazado_630862" data-name="Trazado 630862" d="M361.23,79.36s-8.754,1.493-11.8-5.247-1.141-7.882-9.515-9.4" transform="translate(30.212 5.751)" fill="none" stroke="#000" stroke-miterlimit="10" stroke-width="2"/>
              <rect id="Rectángulo_336957" data-name="Rectángulo 336957" width="36.028" height="45.162" transform="translate(108.826 40.901)" fill="#fff035"/>
              <rect id="Rectángulo_336958" data-name="Rectángulo 336958" width="36.028" height="45.162" transform="translate(108.826 40.901)" fill="none" stroke="#000" stroke-miterlimit="10" stroke-width="2"/>
              <rect id="Rectángulo_336959" data-name="Rectángulo 336959" width="40.087" height="12.432" transform="translate(179.36 64.244)" fill="none" stroke="#000" stroke-miterlimit="10" stroke-width="2"/>
              <path id="Trazado_630863" data-name="Trazado 630863" d="M96.116,127.11H3.967A3.467,3.467,0,0,1,.5,123.644v-30.4a3.468,3.468,0,0,1,3.467-3.467H96.116a3.467,3.467,0,0,1,3.466,3.467v30.4a3.466,3.466,0,0,1-3.466,3.466" transform="translate(0.044 7.979)" fill="#adadad"/>
              <path id="Trazado_630864" data-name="Trazado 630864" d="M96.16,127.7H4.011A4.016,4.016,0,0,1,0,123.688v-30.4a4.016,4.016,0,0,1,4.011-4.01H96.16a4.016,4.016,0,0,1,4.011,4.01v30.4a4.016,4.016,0,0,1-4.011,4.01M4.011,90.364a2.926,2.926,0,0,0-2.923,2.921v30.4a2.926,2.926,0,0,0,2.923,2.921H96.16a2.926,2.926,0,0,0,2.923-2.921v-30.4a2.926,2.926,0,0,0-2.923-2.921Z" transform="translate(0 7.935)"/>
              <path id="Trazado_630865" data-name="Trazado 630865" d="M96.116,124.943H3.967A3.467,3.467,0,0,1,.5,121.477v-7.324H99.582v7.324a3.466,3.466,0,0,1-3.466,3.466" transform="translate(0.044 10.146)"/>
              <path id="Trazado_630866" data-name="Trazado 630866" d="M18.816,124.525a16.366,16.366,0,1,1,16.366-16.366,16.384,16.384,0,0,1-16.366,16.366m0-27.287a10.921,10.921,0,1,0,10.921,10.921A10.935,10.935,0,0,0,18.816,97.237" transform="translate(0.218 8.159)" fill="#adadad"/>
              <path id="Trazado_630867" data-name="Trazado 630867" d="M32.237,107.937A13.644,13.644,0,1,1,18.594,94.293a13.644,13.644,0,0,1,13.644,13.644" transform="translate(0.44 8.381)" fill="#fff"/>
              <path id="Trazado_630868" data-name="Trazado 630868" d="M18.681,122.757a14.733,14.733,0,1,1,14.733-14.733,14.749,14.749,0,0,1-14.733,14.733m0-27.287a12.555,12.555,0,1,0,12.555,12.555A12.569,12.569,0,0,0,18.681,95.47" transform="translate(0.351 8.292)"/>
              <path id="Trazado_630869" data-name="Trazado 630869" d="M50.568,102.639a9.029,9.029,0,1,1-9.029-9.029,9.028,9.028,0,0,1,9.029,9.029" transform="translate(2.89 8.32)" fill="#fff"/>
              <path id="Trazado_630870" data-name="Trazado 630870" d="M41.606,112.551a9.846,9.846,0,1,1,9.846-9.846,9.858,9.858,0,0,1-9.846,9.846m0-18.058a8.212,8.212,0,1,0,8.212,8.212,8.223,8.223,0,0,0-8.212-8.212" transform="translate(2.823 8.253)"/>
              <path id="Trazado_630871" data-name="Trazado 630871" d="M70.259,102.639A9.029,9.029,0,1,1,61.23,93.61a9.028,9.028,0,0,1,9.029,9.029" transform="translate(4.64 8.32)" fill="#fff"/>
              <path id="Trazado_630872" data-name="Trazado 630872" d="M61.3,112.551a9.846,9.846,0,1,1,9.846-9.846,9.858,9.858,0,0,1-9.846,9.846m0-18.058a8.212,8.212,0,1,0,8.212,8.212A8.223,8.223,0,0,0,61.3,94.493" transform="translate(4.573 8.253)"/>
              <path id="Trazado_630873" data-name="Trazado 630873" d="M89.95,102.639a9.029,9.029,0,1,1-9.029-9.029,9.028,9.028,0,0,1,9.029,9.029" transform="translate(6.39 8.32)" fill="#fff"/>
              <path id="Trazado_630874" data-name="Trazado 630874" d="M80.988,112.551a9.846,9.846,0,1,1,9.846-9.846,9.858,9.858,0,0,1-9.846,9.846m0-18.058a8.212,8.212,0,1,0,8.212,8.212,8.223,8.223,0,0,0-8.212-8.212" transform="translate(6.323 8.253)"/>
              <path id="Trazado_630875" data-name="Trazado 630875" d="M18.135,105.165l-2.674.482a1.942,1.942,0,0,0-.613-1.206,1.852,1.852,0,0,0-1.24-.405,2.03,2.03,0,0,0-1.617.7,3.583,3.583,0,0,0-.6,2.341A4.143,4.143,0,0,0,12,109.654a2.011,2.011,0,0,0,1.645.752,1.83,1.83,0,0,0,1.265-.439,2.639,2.639,0,0,0,.695-1.511l2.664.454a4.731,4.731,0,0,1-1.593,2.77,4.927,4.927,0,0,1-3.157.938,4.691,4.691,0,0,1-3.586-1.42,6.467,6.467,0,0,1,0-7.881,4.769,4.769,0,0,1,3.63-1.414,4.954,4.954,0,0,1,2.977.806,4.471,4.471,0,0,1,1.589,2.458" transform="translate(0.764 9.057)"/>
              <path id="Trazado_630876" data-name="Trazado 630876" d="M28.233,105.165l-2.674.482a1.942,1.942,0,0,0-.613-1.206,1.852,1.852,0,0,0-1.24-.405,2.03,2.03,0,0,0-1.617.7,3.583,3.583,0,0,0-.6,2.341,4.143,4.143,0,0,0,.613,2.577,2.011,2.011,0,0,0,1.645.752,1.83,1.83,0,0,0,1.265-.439,2.639,2.639,0,0,0,.695-1.511l2.664.454a4.731,4.731,0,0,1-1.593,2.77,4.927,4.927,0,0,1-3.157.938,4.691,4.691,0,0,1-3.586-1.42,6.467,6.467,0,0,1,0-7.881,4.769,4.769,0,0,1,3.63-1.414,4.954,4.954,0,0,1,2.977.806,4.471,4.471,0,0,1,1.589,2.458" transform="translate(1.662 9.057)"/>
              <path id="Trazado_630877" data-name="Trazado 630877" d="M34.985,116.262h2.464a7.53,7.53,0,0,1,1.091.059,1.655,1.655,0,0,1,.644.241,1.527,1.527,0,0,1,.473.486,1.267,1.267,0,0,1,.188.682,1.3,1.3,0,0,1-.233.751,1.407,1.407,0,0,1-.633.512,1.625,1.625,0,0,1,.866.529,1.349,1.349,0,0,1,.3.878,1.653,1.653,0,0,1-.2.773,1.581,1.581,0,0,1-.534.6,1.828,1.828,0,0,1-.835.277q-.31.031-1.5.039h-2.1Zm1.245.97v1.347h.816c.485,0,.787-.007.9-.02a.846.846,0,0,0,.5-.209.6.6,0,0,0,.183-.455.622.622,0,0,0-.158-.439.726.726,0,0,0-.468-.2c-.123-.014-.479-.021-1.065-.021Zm0,2.316v1.558h1.153a5.7,5.7,0,0,0,.853-.037.776.776,0,0,0,.452-.231.693.693,0,0,0,.174-.5.735.735,0,0,0-.134-.445.765.765,0,0,0-.389-.266,4.47,4.47,0,0,0-1.1-.084Z" transform="translate(3.109 10.333)" fill="#fff"/>
              <path id="Trazado_630878" data-name="Trazado 630878" d="M42.362,122.087v-2.451L40.1,116.262h1.459l1.45,2.306,1.42-2.306h1.435L43.6,119.644v2.443Z" transform="translate(3.565 10.333)" fill="#fff"/>
              <path id="Trazado_630879" data-name="Trazado 630879" d="M55.241,122.087v-5.826h1.211l2.523,3.891v-3.891H60.13v5.826H58.882l-2.485-3.8v3.8Z" transform="translate(4.91 10.333)" fill="#fff"/>
              <path id="Trazado_630880" data-name="Trazado 630880" d="M64.9,119.954l1.2.362a2.547,2.547,0,0,1-.921,1.417,3.033,3.033,0,0,1-3.655-.33,2.927,2.927,0,0,1-.791-2.167,3.075,3.075,0,0,1,.794-2.258,2.8,2.8,0,0,1,2.09-.806,2.653,2.653,0,0,1,1.837.632,2.272,2.272,0,0,1,.632,1.074l-1.233.278a1.221,1.221,0,0,0-.455-.715,1.367,1.367,0,0,0-.844-.262,1.442,1.442,0,0,0-1.112.465,2.188,2.188,0,0,0-.427,1.507,2.338,2.338,0,0,0,.42,1.572,1.4,1.4,0,0,0,1.093.469,1.285,1.285,0,0,0,.854-.3,1.717,1.717,0,0,0,.514-.938" transform="translate(5.399 10.325)" fill="#fff"/>
              <path id="Trazado_630881" data-name="Trazado 630881" d="M74.163,122.087v-5.826h1.211l2.523,3.891v-3.891h1.155v5.826H77.8l-2.485-3.8v3.8Z" transform="translate(6.592 10.333)" fill="#fff"/>
              <path id="Trazado_630882" data-name="Trazado 630882" d="M79.857,116.262h2.275a4.694,4.694,0,0,1,1.173.111,2.1,2.1,0,0,1,.93.536,2.535,2.535,0,0,1,.588.945,4.057,4.057,0,0,1,.2,1.376,3.625,3.625,0,0,1-.189,1.239,2.554,2.554,0,0,1-.66,1.029,2.22,2.22,0,0,1-.874.465,3.987,3.987,0,0,1-1.1.123H79.857Zm1.245.985v3.858h.93a3.592,3.592,0,0,0,.752-.056,1.182,1.182,0,0,0,.5-.242,1.212,1.212,0,0,0,.327-.563,3.611,3.611,0,0,0,.125-1.067,3.3,3.3,0,0,0-.125-1.037,1.321,1.321,0,0,0-.354-.564,1.212,1.212,0,0,0-.576-.274,5.973,5.973,0,0,0-1.021-.056Z" transform="translate(7.098 10.333)" fill="#fff"/>
              <path id="Trazado_630883" data-name="Trazado 630883" d="M57.439,103.924a5.782,5.782,0,0,0,3,1.013c.625,0,.944-.169.944-.506,0-1.148-4.757-.945-4.757-4.116,0-1.756,1.485-2.9,3.863-2.9A4.687,4.687,0,0,1,64.018,98.9L62.6,100.55a3.852,3.852,0,0,0-2.3-.81c-.607,0-.91.186-.91.54,0,.945,4.758.878,4.758,3.948,0,1.687-1.4,3.036-4.151,3.036a6.343,6.343,0,0,1-3.813-1.383Zm1.974-8.638H61.3v3H59.413ZM61.3,109.694H59.412V106.05H61.3Z" transform="translate(4.994 8.469)"/>
              <rect id="Rectángulo_336960" data-name="Rectángulo 336960" width="1.634" height="17.575" transform="matrix(0.531, -0.847, 0.847, 0.531, 57.986, 106.987)"/>
              <path id="Trazado_630884" data-name="Trazado 630884" d="M76.066,98.622h8.968V100.9H76.066Zm0,4.559h8.968v2.28H76.066Z" transform="translate(6.761 8.766)"/>
              <rect id="Rectángulo_336961" data-name="Rectángulo 336961" width="2.441" height="2.166" transform="translate(43.208 104.344)"/>
              <rect id="Rectángulo_336962" data-name="Rectángulo 336962" width="4.401" height="5.255" transform="translate(42.228 107.602)"/>
              <rect id="Rectángulo_336963" data-name="Rectángulo 336963" width="2.201" height="7.56" transform="translate(43.329 110.08)"/>
            </g>
          </g>
        </g>
        <path id="Trazado_630887" data-name="Trazado 630887" d="M-18.354-3.6l.015.044A3.428,3.428,0,0,1-19.369-.787a4.365,4.365,0,0,1-3,.941,4.27,4.27,0,0,1-3.175-1.208,4.3,4.3,0,0,1-1.2-3.164V-6.445a4.4,4.4,0,0,1,1.154-3.16,4.016,4.016,0,0,1,3.051-1.212,4.7,4.7,0,0,1,3.138.945,3.331,3.331,0,0,1,1.08,2.747l-.022.044h-2.41a1.96,1.96,0,0,0-.417-1.406,1.863,1.863,0,0,0-1.37-.425,1.448,1.448,0,0,0-1.282.67,3.169,3.169,0,0,0-.447,1.783v2.241a2.983,2.983,0,0,0,.491,1.794,1.634,1.634,0,0,0,1.406.674,1.566,1.566,0,0,0,1.227-.425A2.13,2.13,0,0,0-20.764-3.6Zm6.965,1.523h-3.171L-15.176,0h-2.607L-14.3-10.664h1.326v.007l.007-.007h1.326L-8.159,0h-2.607Zm-2.6-1.9h2.029l-1-3.311H-13ZM-7.4,0V-10.664H-3.9a5.561,5.561,0,0,1,3.094.736A2.459,2.459,0,0,1,.3-7.734,2.587,2.587,0,0,1-.051-6.383a2.165,2.165,0,0,1-1.1.89,2.217,2.217,0,0,1,1.41.85A2.5,2.5,0,0,1,.718-3.157,2.781,2.781,0,0,1-.33-.8a4.876,4.876,0,0,1-3,.8Zm2.476-4.578V-1.9h1.589a1.9,1.9,0,0,0,1.187-.311,1.142,1.142,0,0,0,.4-.956A1.409,1.409,0,0,0-2.1-4.2a1.634,1.634,0,0,0-1.146-.374H-4.922Zm0-1.641h.974A2.316,2.316,0,0,0-2.615-6.53a1.061,1.061,0,0,0,.439-.927A1.148,1.148,0,0,0-2.6-8.448,2.212,2.212,0,0,0-3.9-8.76H-4.922ZM4.644-1.9H9.221V0H2.168V-10.664H4.644ZM16.78-4.563H13.022V-1.9h4.5V0h-6.98V-10.664h6.987v1.9H13.022v2.292H16.78Zm7.639,1.736a1.063,1.063,0,0,0-.374-.875,4.845,4.845,0,0,0-1.355-.648,10.285,10.285,0,0,1-2.948-1.373,2.472,2.472,0,0,1-.963-2.1A2.573,2.573,0,0,1,19.9-9.99a4.669,4.669,0,0,1,2.849-.828,4.7,4.7,0,0,1,2.937.853,2.766,2.766,0,0,1,1.077,2.406l-.015.044h-2.4a1.345,1.345,0,0,0-.41-1.095A1.905,1.905,0,0,0,22.7-8.95a1.589,1.589,0,0,0-1.062.33,1.026,1.026,0,0,0-.388.813.876.876,0,0,0,.4.751,7.793,7.793,0,0,0,1.49.707,7.943,7.943,0,0,1,2.805,1.34,2.668,2.668,0,0,1,.952,2.168,2.565,2.565,0,0,1-1.1,2.2,4.867,4.867,0,0,1-2.915.795A5.327,5.327,0,0,1,19.816-.7,2.937,2.937,0,0,1,18.6-3.384l.015-.044h2.41a1.66,1.66,0,0,0,.458,1.322,2.119,2.119,0,0,0,1.4.392,1.82,1.82,0,0,0,1.157-.308A.986.986,0,0,0,24.419-2.827Z" transform="translate(61.038 51.981)" fill="#fff"/>
        <path id="Trazado_630888" data-name="Trazado 630888" d="M10.846-4.315l.018.053A4.113,4.113,0,0,1,9.628-.945,5.238,5.238,0,0,1,6.029.185a5.124,5.124,0,0,1-3.81-1.45,5.16,5.16,0,0,1-1.437-3.8V-7.734a5.275,5.275,0,0,1,1.384-3.792,4.819,4.819,0,0,1,3.661-1.455,5.641,5.641,0,0,1,3.766,1.134,4,4,0,0,1,1.3,3.3l-.026.053H7.972a2.352,2.352,0,0,0-.5-1.687,2.235,2.235,0,0,0-1.644-.51,1.738,1.738,0,0,0-1.538.8,3.8,3.8,0,0,0-.536,2.14v2.689a3.579,3.579,0,0,0,.589,2.153A1.961,1.961,0,0,0,6.029-2.1,1.879,1.879,0,0,0,7.5-2.61a2.556,2.556,0,0,0,.453-1.705Zm1.09-.527a5.027,5.027,0,0,1,1.213-3.494,4.317,4.317,0,0,1,3.384-1.349,4.327,4.327,0,0,1,3.393,1.349,5.027,5.027,0,0,1,1.213,3.494v.185a5.023,5.023,0,0,1-1.213,3.5A4.313,4.313,0,0,1,16.55.185a4.346,4.346,0,0,1-3.4-1.345,5.023,5.023,0,0,1-1.213-3.5Zm2.971.185a3.932,3.932,0,0,0,.374,1.876,1.329,1.329,0,0,0,1.27.681A1.313,1.313,0,0,0,17.8-2.786a3.9,3.9,0,0,0,.378-1.872v-.185A3.912,3.912,0,0,0,17.8-6.7a1.324,1.324,0,0,0-1.266-.7,1.305,1.305,0,0,0-1.252.7,3.956,3.956,0,0,0-.374,1.854ZM25.242-9.51l.105,1.257a3.146,3.146,0,0,1,1.129-1.059,3.191,3.191,0,0,1,1.56-.374,2.907,2.907,0,0,1,1.529.387,2.376,2.376,0,0,1,.967,1.178,3.192,3.192,0,0,1,1.129-1.156,3.105,3.105,0,0,1,1.613-.409,2.641,2.641,0,0,1,2.184,1,4.89,4.89,0,0,1,.8,3.072V0H33.275V-5.616a2.47,2.47,0,0,0-.286-1.4,1,1,0,0,0-.857-.382,1.779,1.779,0,0,0-.76.154,1.6,1.6,0,0,0-.558.426q0,.149.009.259t.009.215V0H27.861V-5.616a2.5,2.5,0,0,0-.281-1.406,1.014,1.014,0,0,0-.87-.378,1.714,1.714,0,0,0-.734.154,1.6,1.6,0,0,0-.558.426V0H22.447V-9.51ZM46.758-4.553a5.619,5.619,0,0,1-.967,3.441,3.2,3.2,0,0,1-2.725,1.3,2.7,2.7,0,0,1-1.217-.264,2.71,2.71,0,0,1-.927-.765v4.5H37.951V-9.51h2.8l.088,1.037a2.89,2.89,0,0,1,.945-.9,2.481,2.481,0,0,1,1.261-.316,3.167,3.167,0,0,1,2.738,1.362,6.047,6.047,0,0,1,.971,3.586ZM43.8-4.737a4.49,4.49,0,0,0-.352-1.934A1.173,1.173,0,0,0,42.319-7.4a1.788,1.788,0,0,0-.848.185,1.362,1.362,0,0,0-.549.536v3.973a1.273,1.273,0,0,0,.558.457,2.17,2.17,0,0,0,.857.149,1.168,1.168,0,0,0,1.121-.646A3.949,3.949,0,0,0,43.8-4.553Zm3.876-.105a5.027,5.027,0,0,1,1.213-3.494,4.317,4.317,0,0,1,3.384-1.349,4.327,4.327,0,0,1,3.393,1.349,5.027,5.027,0,0,1,1.213,3.494v.185a5.023,5.023,0,0,1-1.213,3.5A4.313,4.313,0,0,1,52.286.185a4.346,4.346,0,0,1-3.4-1.345,5.023,5.023,0,0,1-1.213-3.5Zm2.971.185a3.932,3.932,0,0,0,.374,1.876,1.329,1.329,0,0,0,1.27.681,1.313,1.313,0,0,0,1.248-.686,3.9,3.9,0,0,0,.378-1.872v-.185A3.912,3.912,0,0,0,53.534-6.7a1.324,1.324,0,0,0-1.266-.7,1.305,1.305,0,0,0-1.252.7,3.956,3.956,0,0,0-.374,1.854ZM60.917-9.51l.114,1.336a3.443,3.443,0,0,1,1.151-1.112,2.979,2.979,0,0,1,1.529-.4,2.681,2.681,0,0,1,2.184.949,4.7,4.7,0,0,1,.787,3.015V0H63.712V-5.73a2.179,2.179,0,0,0-.29-1.288.994.994,0,0,0-.844-.382,2.088,2.088,0,0,0-.853.167,1.7,1.7,0,0,0-.633.475V0H58.131V-9.51ZM72.519.185a4.415,4.415,0,0,1-3.388-1.31A4.657,4.657,0,0,1,67.9-4.438v-.334A5.321,5.321,0,0,1,69.06-8.323,4.106,4.106,0,0,1,72.4-9.686a3.851,3.851,0,0,1,2.984,1.151,4.482,4.482,0,0,1,1.059,3.155v1.556H71l-.018.053a1.847,1.847,0,0,0,.554,1.208,1.934,1.934,0,0,0,1.389.461,6.019,6.019,0,0,0,1.419-.141,8.948,8.948,0,0,0,1.3-.448l.712,1.811A5.436,5.436,0,0,1,74.7-.123,7.626,7.626,0,0,1,72.519.185ZM72.4-7.4a1.226,1.226,0,0,0-1.05.453,2.271,2.271,0,0,0-.391,1.226l.018.044h2.566v-.229a1.976,1.976,0,0,0-.259-1.116A.994.994,0,0,0,72.4-7.4ZM80.438-9.51l.114,1.336A3.443,3.443,0,0,1,81.7-9.286a2.979,2.979,0,0,1,1.529-.4,2.681,2.681,0,0,1,2.184.949A4.7,4.7,0,0,1,86.2-5.722V0H83.232V-5.73a2.179,2.179,0,0,0-.29-1.288A.994.994,0,0,0,82.1-7.4a2.088,2.088,0,0,0-.853.167,1.7,1.7,0,0,0-.633.475V0H77.651V-9.51ZM91.23-11.874V-9.51h1.5v2.057h-1.5v4.359a1.066,1.066,0,0,0,.207.734A.722.722,0,0,0,92-2.136a2.986,2.986,0,0,0,.365-.018,3.158,3.158,0,0,0,.347-.07l.2,2.2A7.171,7.171,0,0,1,92.1.136a6.512,6.512,0,0,1-.853.048A2.969,2.969,0,0,1,89.02-.6a3.453,3.453,0,0,1-.76-2.479V-7.453H86.933V-9.51H88.26v-2.364ZM98.394.185a4.415,4.415,0,0,1-3.388-1.31,4.657,4.657,0,0,1-1.226-3.313v-.334a5.321,5.321,0,0,1,1.156-3.551,4.106,4.106,0,0,1,3.344-1.362,3.851,3.851,0,0,1,2.984,1.151,4.482,4.482,0,0,1,1.059,3.155v1.556H96.873l-.018.053a1.847,1.847,0,0,0,.554,1.208A1.934,1.934,0,0,0,98.8-2.1a6.019,6.019,0,0,0,1.419-.141,8.948,8.948,0,0,0,1.3-.448l.712,1.811a5.436,5.436,0,0,1-1.652.756A7.626,7.626,0,0,1,98.394.185ZM98.279-7.4a1.226,1.226,0,0,0-1.05.453,2.271,2.271,0,0,0-.391,1.226l.018.044h2.566v-.229a1.976,1.976,0,0,0-.259-1.116A.994.994,0,0,0,98.279-7.4ZM.448,15.263a6.047,6.047,0,0,1,.971-3.586,3.167,3.167,0,0,1,2.738-1.362,2.361,2.361,0,0,1,1.191.3,3.15,3.15,0,0,1,.954.866V6.289H9.272V20h-2.6l-.2-1.16a3.2,3.2,0,0,1-1.006,1,2.511,2.511,0,0,1-1.323.347,3.2,3.2,0,0,1-2.725-1.3,5.623,5.623,0,0,1-.967-3.437Zm2.971.185a3.949,3.949,0,0,0,.338,1.806A1.182,1.182,0,0,0,4.9,17.9a1.873,1.873,0,0,0,.822-.171,1.472,1.472,0,0,0,.584-.505V13.382a1.618,1.618,0,0,0-.58-.58,1.593,1.593,0,0,0-.809-.2,1.186,1.186,0,0,0-1.143.729,4.49,4.49,0,0,0-.352,1.934Zm13.034,4.544a3.588,3.588,0,0,1-.286-.677,5.189,5.189,0,0,1-.18-.791,3.634,3.634,0,0,1-.954,1.208,2.3,2.3,0,0,1-1.481.453,3.293,3.293,0,0,1-2.325-.769,2.717,2.717,0,0,1-.831-2.1,2.535,2.535,0,0,1,1.063-2.184,5.513,5.513,0,0,1,3.226-.769h1.222v-.677a1.355,1.355,0,0,0-.29-.932,1.13,1.13,0,0,0-.888-.325,1.071,1.071,0,0,0-.769.242,1,1,0,0,0-.25.751l-2.883-.009-.018-.053A2.481,2.481,0,0,1,11.9,11.189a4.864,4.864,0,0,1,3.028-.875,4.429,4.429,0,0,1,2.861.879,3.037,3.037,0,0,1,1.094,2.514v3.586a7.315,7.315,0,0,0,.127,1.406,7.531,7.531,0,0,0,.382,1.3Zm-2.092-1.925a1.81,1.81,0,0,0,.962-.255,1.459,1.459,0,0,0,.584-.606V15.948h-1.2a1.343,1.343,0,0,0-1.028.343,1.233,1.233,0,0,0-.316.87.841.841,0,0,0,.277.655A1.027,1.027,0,0,0,14.361,18.066Zm8.877-7.576.114,1.336A3.443,3.443,0,0,1,24.5,10.714a2.979,2.979,0,0,1,1.529-.4,2.681,2.681,0,0,1,2.184.949A4.7,4.7,0,0,1,29,14.278V20H26.033V14.27a2.179,2.179,0,0,0-.29-1.288A.994.994,0,0,0,24.9,12.6a2.088,2.088,0,0,0-.853.167,1.7,1.7,0,0,0-.633.475V20H20.452V10.49Zm4.9-4.017a2.12,2.12,0,0,1-.527,1.446,1.68,1.68,0,0,1-1.318.6,3.659,3.659,0,0,1-1.446-.369,3.489,3.489,0,0,0-1.288-.369.57.57,0,0,0-.483.286,1.186,1.186,0,0,0-.193.681l-1.564-.439a2.14,2.14,0,0,1,.523-1.437,1.657,1.657,0,0,1,1.314-.611,4,4,0,0,1,1.384.365,3.987,3.987,0,0,0,1.349.365.591.591,0,0,0,.479-.281,1.126,1.126,0,0,0,.207-.686Zm7.98,13.518a3.588,3.588,0,0,1-.286-.677,5.189,5.189,0,0,1-.18-.791,3.634,3.634,0,0,1-.954,1.208,2.3,2.3,0,0,1-1.481.453,3.293,3.293,0,0,1-2.325-.769,2.717,2.717,0,0,1-.831-2.1,2.535,2.535,0,0,1,1.063-2.184,5.513,5.513,0,0,1,3.226-.769h1.222v-.677a1.355,1.355,0,0,0-.29-.932,1.13,1.13,0,0,0-.888-.325,1.071,1.071,0,0,0-.769.242,1,1,0,0,0-.25.751l-2.883-.009-.018-.053a2.481,2.481,0,0,1,1.085-2.175,4.864,4.864,0,0,1,3.028-.875,4.429,4.429,0,0,1,2.861.879,3.037,3.037,0,0,1,1.094,2.514v3.586a7.315,7.315,0,0,0,.127,1.406A7.531,7.531,0,0,0,39.05,20Zm-2.092-1.925a1.81,1.81,0,0,0,.962-.255,1.459,1.459,0,0,0,.584-.606V15.948h-1.2a1.343,1.343,0,0,0-1.028.343,1.233,1.233,0,0,0-.316.87.841.841,0,0,0,.277.655A1.027,1.027,0,0,0,34.022,18.066Zm5.748-2.8a6.047,6.047,0,0,1,.971-3.586,3.167,3.167,0,0,1,2.738-1.362,2.361,2.361,0,0,1,1.191.3,3.15,3.15,0,0,1,.954.866V6.289h2.971V20h-2.6l-.2-1.16a3.2,3.2,0,0,1-1.006,1,2.511,2.511,0,0,1-1.323.347,3.2,3.2,0,0,1-2.725-1.3,5.623,5.623,0,0,1-.967-3.437Zm2.971.185a3.949,3.949,0,0,0,.338,1.806,1.182,1.182,0,0,0,1.138.646,1.873,1.873,0,0,0,.822-.171,1.472,1.472,0,0,0,.584-.505V13.382a1.618,1.618,0,0,0-.58-.58,1.593,1.593,0,0,0-.809-.2,1.186,1.186,0,0,0-1.143.729,4.49,4.49,0,0,0-.352,1.934Zm7.146-.29A5.027,5.027,0,0,1,51.1,11.664a4.929,4.929,0,0,1,6.776,0,5.027,5.027,0,0,1,1.213,3.494v.185a5.023,5.023,0,0,1-1.213,3.5,4.941,4.941,0,0,1-6.776,0,5.023,5.023,0,0,1-1.213-3.5Zm2.971.185a3.932,3.932,0,0,0,.374,1.876,1.329,1.329,0,0,0,1.27.681,1.313,1.313,0,0,0,1.248-.686,3.9,3.9,0,0,0,.378-1.872v-.185a3.912,3.912,0,0,0-.378-1.859,1.324,1.324,0,0,0-1.266-.7,1.305,1.305,0,0,0-1.252.7,3.956,3.956,0,0,0-.374,1.854Z" transform="translate(167.038 68.981)" fill="#12263f"/>
        <path id="Trazado_630889" data-name="Trazado 630889" d="M4.166,0H1.2V-12.8H4.166ZM9.36-4.386V0H6.39V-12.8h4.887a5.319,5.319,0,0,1,3.612,1.16,3.844,3.844,0,0,1,1.336,3.05,3.831,3.831,0,0,1-1.336,3.045,5.333,5.333,0,0,1-3.612,1.156Zm0-2.285h1.916A1.951,1.951,0,0,0,12.753-7.2a1.894,1.894,0,0,0,.51-1.367,1.974,1.974,0,0,0-.505-1.4,1.921,1.921,0,0,0-1.481-.545H9.36ZM27.694-4.315l.018.053A4.113,4.113,0,0,1,26.477-.945a5.238,5.238,0,0,1-3.6,1.129,5.124,5.124,0,0,1-3.81-1.45,5.16,5.16,0,0,1-1.437-3.8V-7.734a5.275,5.275,0,0,1,1.384-3.792,4.819,4.819,0,0,1,3.661-1.455,5.641,5.641,0,0,1,3.766,1.134,4,4,0,0,1,1.3,3.3l-.026.053H24.82a2.352,2.352,0,0,0-.5-1.687,2.235,2.235,0,0,0-1.644-.51,1.738,1.738,0,0,0-1.538.8,3.8,3.8,0,0,0-.536,2.14v2.689a3.579,3.579,0,0,0,.589,2.153,1.961,1.961,0,0,0,1.688.809,1.879,1.879,0,0,0,1.472-.51A2.556,2.556,0,0,0,24.8-4.315Zm11.127-8.666a6.173,6.173,0,0,1,1.318.127,8.569,8.569,0,0,1,1.292.409l-.5,2.162q-.615-.185-1.063-.277a5.134,5.134,0,0,0-1.028-.092,2.178,2.178,0,0,0-1.749.778,3.49,3.49,0,0,0-.659,2.307v.123a3.375,3.375,0,0,1,1.191-.747,4.47,4.47,0,0,1,1.586-.264,3,3,0,0,1,2.544,1.2,5.034,5.034,0,0,1,.9,3.111A4.152,4.152,0,0,1,41.4-1.037,4.435,4.435,0,0,1,38.171.185,4.456,4.456,0,0,1,34.765-1.2a5.3,5.3,0,0,1-1.3-3.779V-7.55a5.282,5.282,0,0,1,1.5-3.981A5.312,5.312,0,0,1,38.821-12.981Zm-.606,6.794a3.1,3.1,0,0,0-1.081.167,1.626,1.626,0,0,0-.7.475v.571a4.093,4.093,0,0,0,.457,2.131,1.431,1.431,0,0,0,1.283.743,1.284,1.284,0,0,0,1.09-.593,2.445,2.445,0,0,0,.422-1.455,2.451,2.451,0,0,0-.4-1.5A1.269,1.269,0,0,0,38.215-6.187ZM50.616,0H47.646V-10.257H45.07v-2.268l5.546-.457ZM63.334-4.7a5.027,5.027,0,0,1-1.222,3.59,4.225,4.225,0,0,1-3.226,1.3,4.247,4.247,0,0,1-3.243-1.3A5.027,5.027,0,0,1,54.422-4.7V-8.095a5.049,5.049,0,0,1,1.213-3.59,4.219,4.219,0,0,1,3.234-1.3,4.246,4.246,0,0,1,3.234,1.3,5.008,5.008,0,0,1,1.23,3.586ZM60.372-8.3a3.285,3.285,0,0,0-.4-1.784,1.25,1.25,0,0,0-1.1-.615,1.226,1.226,0,0,0-1.1.615A3.376,3.376,0,0,0,57.384-8.3v3.779a3.381,3.381,0,0,0,.391,1.806,1.246,1.246,0,0,0,1.112.611,1.231,1.231,0,0,0,1.094-.611,3.381,3.381,0,0,0,.391-1.806ZM4.166,25H1.2V12.2H4.166ZM9.36,20.614V25H6.39V12.2h4.887a5.319,5.319,0,0,1,3.612,1.16,3.844,3.844,0,0,1,1.336,3.05,3.831,3.831,0,0,1-1.336,3.045,5.333,5.333,0,0,1-3.612,1.156Zm0-2.285h1.916a1.951,1.951,0,0,0,1.477-.532,1.894,1.894,0,0,0,.51-1.367,1.974,1.974,0,0,0-.505-1.4,1.921,1.921,0,0,0-1.481-.545H9.36Zm18.334,2.355.018.053a4.113,4.113,0,0,1-1.235,3.318,5.238,5.238,0,0,1-3.6,1.129,4.959,4.959,0,0,1-5.247-5.247V17.266a5.275,5.275,0,0,1,1.384-3.792,4.819,4.819,0,0,1,3.661-1.455,5.641,5.641,0,0,1,3.766,1.134,4,4,0,0,1,1.3,3.3l-.026.053H24.82a2.352,2.352,0,0,0-.5-1.687,2.235,2.235,0,0,0-1.644-.51,1.738,1.738,0,0,0-1.538.8,3.8,3.8,0,0,0-.536,2.14v2.689a3.579,3.579,0,0,0,.589,2.153,1.961,1.961,0,0,0,1.688.809,1.879,1.879,0,0,0,1.472-.51,2.556,2.556,0,0,0,.453-1.705ZM42.6,25H33.706V23.066l3.938-4.324a8.5,8.5,0,0,0,1.16-1.6,2.72,2.72,0,0,0,.369-1.222,1.9,1.9,0,0,0-.334-1.182,1.266,1.266,0,0,0-1.072-.435,1.225,1.225,0,0,0-1.077.567,2.534,2.534,0,0,0-.382,1.446H33.4l-.018-.053a3.984,3.984,0,0,1,1.169-3.01,4.306,4.306,0,0,1,3.217-1.235,4.671,4.671,0,0,1,3.243,1.033,3.639,3.639,0,0,1,1.143,2.843,3.746,3.746,0,0,1-.633,2.149,26.843,26.843,0,0,1-2.32,2.764l-1.556,1.863.018.044H42.6Zm10.424,0H44.13V23.066l3.938-4.324a8.5,8.5,0,0,0,1.16-1.6,2.72,2.72,0,0,0,.369-1.222,1.9,1.9,0,0,0-.334-1.182A1.266,1.266,0,0,0,48.19,14.3a1.225,1.225,0,0,0-1.077.567,2.534,2.534,0,0,0-.382,1.446H43.822l-.018-.053a3.984,3.984,0,0,1,1.169-3.01,4.306,4.306,0,0,1,3.217-1.235,4.671,4.671,0,0,1,3.243,1.033,3.639,3.639,0,0,1,1.143,2.843,3.746,3.746,0,0,1-.633,2.149,26.843,26.843,0,0,1-2.32,2.764l-1.556,1.863.018.044h4.939Zm10.424,0H54.554V23.066l3.938-4.324a8.5,8.5,0,0,0,1.16-1.6,2.72,2.72,0,0,0,.369-1.222,1.9,1.9,0,0,0-.334-1.182,1.266,1.266,0,0,0-1.072-.435,1.225,1.225,0,0,0-1.077.567,2.534,2.534,0,0,0-.382,1.446H54.246l-.018-.053a3.984,3.984,0,0,1,1.169-3.01,4.306,4.306,0,0,1,3.217-1.235,4.671,4.671,0,0,1,3.243,1.033A3.639,3.639,0,0,1,63,15.895a3.746,3.746,0,0,1-.633,2.149,26.843,26.843,0,0,1-2.32,2.764l-1.556,1.863.018.044h4.939Zm8.016,0H68.493V14.743H65.918V12.476l5.546-.457Zm13.7-7.26h3v2.54h-3v3.437H82.4V20.28H79.392V17.74H82.4V14.4h2.769Zm17.692-3.252a14.8,14.8,0,0,0-2.791,4.276,12.667,12.667,0,0,0-.751,4.557V25H96.346V23.321a11.666,11.666,0,0,1,.932-4.707,15.2,15.2,0,0,1,2.733-4.126H93.6V12.2h9.255Zm5.739,2.874a1.665,1.665,0,0,0,1.23-.431,1.616,1.616,0,0,0,.431-1.2,1.348,1.348,0,0,0-.439-1.015,1.652,1.652,0,0,0-1.187-.417,1.43,1.43,0,0,0-.954.33,1.077,1.077,0,0,0-.391.866h-2.883l-.018-.053a2.834,2.834,0,0,1,1.2-2.479,4.9,4.9,0,0,1,3.045-.949,5.368,5.368,0,0,1,3.335.954,3.2,3.2,0,0,1,1.252,2.7,2.671,2.671,0,0,1-.527,1.6,3.6,3.6,0,0,1-1.433,1.151,3.353,3.353,0,0,1,1.6,1.138,3.024,3.024,0,0,1,.563,1.85,3.26,3.26,0,0,1-1.349,2.764,5.6,5.6,0,0,1-3.441,1.006,5.308,5.308,0,0,1-3.146-.945,3.046,3.046,0,0,1-1.292-2.738l.018-.053H107.1a1.377,1.377,0,0,0,.431,1.037,1.522,1.522,0,0,0,1.1.413,1.939,1.939,0,0,0,1.314-.444,1.4,1.4,0,0,0,.514-1.1,1.714,1.714,0,0,0-.488-1.358,2.024,2.024,0,0,0-1.375-.426h-1.406V17.362ZM115,19.375l.738-7.172h7.5v2.3h-5.089l-.325,2.663a3,3,0,0,1,.918-.413,4.937,4.937,0,0,1,1.217-.176,3.318,3.318,0,0,1,2.747,1.094,4.8,4.8,0,0,1,.962,3.2,4.51,4.51,0,0,1-1.072,3.081,4.257,4.257,0,0,1-3.375,1.226,5.328,5.328,0,0,1-3.177-.962,2.855,2.855,0,0,1-1.3-2.544l.009-.053,2.909-.176a1.364,1.364,0,0,0,.426,1.063,1.616,1.616,0,0,0,1.129.387,1.267,1.267,0,0,0,1.151-.5,2.792,2.792,0,0,0,.325-1.5,3.127,3.127,0,0,0-.378-1.661,1.3,1.3,0,0,0-1.2-.606,1.631,1.631,0,0,0-.954.255,1.326,1.326,0,0,0-.505.642ZM131.739,25h-2.971V14.743h-2.575V12.476l5.546-.457ZM4.166,50H1.2V37.2H4.166ZM9.36,45.614V50H6.39V37.2h4.887a5.319,5.319,0,0,1,3.612,1.16,4.144,4.144,0,0,1,0,6.1,5.333,5.333,0,0,1-3.612,1.156Zm0-2.285h1.916a1.951,1.951,0,0,0,1.477-.532,1.894,1.894,0,0,0,.51-1.367,1.974,1.974,0,0,0-.505-1.4,1.921,1.921,0,0,0-1.481-.545H9.36Zm18.334,2.355.018.053a4.113,4.113,0,0,1-1.235,3.318,5.238,5.238,0,0,1-3.6,1.129,4.959,4.959,0,0,1-5.247-5.247V42.266a5.275,5.275,0,0,1,1.384-3.792,4.819,4.819,0,0,1,3.661-1.455,5.641,5.641,0,0,1,3.766,1.134,4,4,0,0,1,1.3,3.3l-.026.053H24.82a2.352,2.352,0,0,0-.5-1.687,2.235,2.235,0,0,0-1.644-.51,1.738,1.738,0,0,0-1.538.8,3.8,3.8,0,0,0-.536,2.14v2.689a3.579,3.579,0,0,0,.589,2.153,1.961,1.961,0,0,0,1.688.809,1.879,1.879,0,0,0,1.472-.51,2.556,2.556,0,0,0,.453-1.705Zm11.127-8.666a6.173,6.173,0,0,1,1.318.127,8.569,8.569,0,0,1,1.292.409l-.5,2.162q-.615-.185-1.063-.277a5.134,5.134,0,0,0-1.028-.092,2.178,2.178,0,0,0-1.749.778,3.49,3.49,0,0,0-.659,2.307v.123a3.375,3.375,0,0,1,1.191-.747,4.47,4.47,0,0,1,1.586-.264,3,3,0,0,1,2.544,1.2,5.034,5.034,0,0,1,.9,3.111A4.152,4.152,0,0,1,41.4,48.963a4.881,4.881,0,0,1-6.631-.158,5.3,5.3,0,0,1-1.3-3.779V42.45a5.071,5.071,0,0,1,5.353-5.432Zm-.606,6.794a3.1,3.1,0,0,0-1.081.167,1.626,1.626,0,0,0-.7.475v.571a4.093,4.093,0,0,0,.457,2.131,1.431,1.431,0,0,0,1.283.743,1.284,1.284,0,0,0,1.09-.593,2.852,2.852,0,0,0,.018-2.958A1.269,1.269,0,0,0,38.215,43.813ZM52.91,45.3a5.027,5.027,0,0,1-1.222,3.59,4.683,4.683,0,0,1-6.469,0A5.027,5.027,0,0,1,44,45.3V41.905a5.049,5.049,0,0,1,1.213-3.59,4.677,4.677,0,0,1,6.469,0,5.008,5.008,0,0,1,1.23,3.586ZM49.948,41.7a3.285,3.285,0,0,0-.4-1.784,1.25,1.25,0,0,0-1.1-.615,1.226,1.226,0,0,0-1.1.615A3.376,3.376,0,0,0,46.96,41.7v3.779a3.381,3.381,0,0,0,.391,1.806,1.246,1.246,0,0,0,1.112.611,1.231,1.231,0,0,0,1.094-.611,3.381,3.381,0,0,0,.391-1.806ZM63.334,45.3a5.027,5.027,0,0,1-1.222,3.59,4.683,4.683,0,0,1-6.469,0,5.027,5.027,0,0,1-1.222-3.59V41.905a5.049,5.049,0,0,1,1.213-3.59,4.677,4.677,0,0,1,6.469,0,5.008,5.008,0,0,1,1.23,3.586ZM60.372,41.7a3.285,3.285,0,0,0-.4-1.784,1.25,1.25,0,0,0-1.1-.615,1.226,1.226,0,0,0-1.1.615,3.376,3.376,0,0,0-.387,1.784v3.779a3.381,3.381,0,0,0,.391,1.806,1.246,1.246,0,0,0,1.112.611,1.231,1.231,0,0,0,1.094-.611,3.381,3.381,0,0,0,.391-1.806Z" transform="translate(482.038 106.981)" fill="#12263f"/>
        <path id="Trazado_630890" data-name="Trazado 630890" d="M4.166,0H1.2V-12.8H4.166ZM9.36-4.386V0H6.39V-12.8h4.887a5.319,5.319,0,0,1,3.612,1.16,3.844,3.844,0,0,1,1.336,3.05,3.831,3.831,0,0,1-1.336,3.045,5.333,5.333,0,0,1-3.612,1.156Zm0-2.285h1.916A1.951,1.951,0,0,0,12.753-7.2a1.894,1.894,0,0,0,.51-1.367,1.974,1.974,0,0,0-.505-1.4,1.921,1.921,0,0,0-1.481-.545H9.36ZM27.694-4.315l.018.053A4.113,4.113,0,0,1,26.477-.945a5.238,5.238,0,0,1-3.6,1.129,5.124,5.124,0,0,1-3.81-1.45,5.16,5.16,0,0,1-1.437-3.8V-7.734a5.275,5.275,0,0,1,1.384-3.792,4.819,4.819,0,0,1,3.661-1.455,5.641,5.641,0,0,1,3.766,1.134,4,4,0,0,1,1.3,3.3l-.026.053H24.82a2.352,2.352,0,0,0-.5-1.687,2.235,2.235,0,0,0-1.644-.51,1.738,1.738,0,0,0-1.538.8,3.8,3.8,0,0,0-.536,2.14v2.689a3.579,3.579,0,0,0,.589,2.153,1.961,1.961,0,0,0,1.688.809,1.879,1.879,0,0,0,1.472-.51A2.556,2.556,0,0,0,24.8-4.315Zm11.127-8.666a6.173,6.173,0,0,1,1.318.127,8.569,8.569,0,0,1,1.292.409l-.5,2.162q-.615-.185-1.063-.277a5.134,5.134,0,0,0-1.028-.092,2.178,2.178,0,0,0-1.749.778,3.49,3.49,0,0,0-.659,2.307v.123a3.375,3.375,0,0,1,1.191-.747,4.47,4.47,0,0,1,1.586-.264,3,3,0,0,1,2.544,1.2,5.034,5.034,0,0,1,.9,3.111A4.152,4.152,0,0,1,41.4-1.037,4.435,4.435,0,0,1,38.171.185,4.456,4.456,0,0,1,34.765-1.2a5.3,5.3,0,0,1-1.3-3.779V-7.55a5.282,5.282,0,0,1,1.5-3.981A5.312,5.312,0,0,1,38.821-12.981Zm-.606,6.794a3.1,3.1,0,0,0-1.081.167,1.626,1.626,0,0,0-.7.475v.571a4.093,4.093,0,0,0,.457,2.131,1.431,1.431,0,0,0,1.283.743,1.284,1.284,0,0,0,1.09-.593,2.445,2.445,0,0,0,.422-1.455,2.451,2.451,0,0,0-.4-1.5A1.269,1.269,0,0,0,38.215-6.187ZM53.024,0H44.13V-1.934l3.938-4.324a8.5,8.5,0,0,0,1.16-1.6A2.72,2.72,0,0,0,49.6-9.079a1.9,1.9,0,0,0-.334-1.182A1.266,1.266,0,0,0,48.19-10.7a1.225,1.225,0,0,0-1.077.567,2.534,2.534,0,0,0-.382,1.446H43.822L43.8-8.736a3.984,3.984,0,0,1,1.169-3.01,4.306,4.306,0,0,1,3.217-1.235,4.671,4.671,0,0,1,3.243,1.033,3.639,3.639,0,0,1,1.143,2.843,3.746,3.746,0,0,1-.633,2.149,26.843,26.843,0,0,1-2.32,2.764L48.067-2.329l.018.044h4.939Zm10.31-4.7a5.027,5.027,0,0,1-1.222,3.59,4.225,4.225,0,0,1-3.226,1.3,4.247,4.247,0,0,1-3.243-1.3A5.027,5.027,0,0,1,54.422-4.7V-8.095a5.049,5.049,0,0,1,1.213-3.59,4.219,4.219,0,0,1,3.234-1.3,4.246,4.246,0,0,1,3.234,1.3,5.008,5.008,0,0,1,1.23,3.586ZM60.372-8.3a3.285,3.285,0,0,0-.4-1.784,1.25,1.25,0,0,0-1.1-.615,1.226,1.226,0,0,0-1.1.615A3.376,3.376,0,0,0,57.384-8.3v3.779a3.381,3.381,0,0,0,.391,1.806,1.246,1.246,0,0,0,1.112.611,1.231,1.231,0,0,0,1.094-.611,3.381,3.381,0,0,0,.391-1.806ZM4.166,25H1.2V12.2H4.166ZM9.36,20.614V25H6.39V12.2h4.887a5.319,5.319,0,0,1,3.612,1.16,3.844,3.844,0,0,1,1.336,3.05,3.831,3.831,0,0,1-1.336,3.045,5.333,5.333,0,0,1-3.612,1.156Zm0-2.285h1.916a1.951,1.951,0,0,0,1.477-.532,1.894,1.894,0,0,0,.51-1.367,1.974,1.974,0,0,0-.505-1.4,1.921,1.921,0,0,0-1.481-.545H9.36Zm18.334,2.355.018.053a4.113,4.113,0,0,1-1.235,3.318,5.238,5.238,0,0,1-3.6,1.129,4.959,4.959,0,0,1-5.247-5.247V17.266a5.275,5.275,0,0,1,1.384-3.792,4.819,4.819,0,0,1,3.661-1.455,5.641,5.641,0,0,1,3.766,1.134,4,4,0,0,1,1.3,3.3l-.026.053H24.82a2.352,2.352,0,0,0-.5-1.687,2.235,2.235,0,0,0-1.644-.51,1.738,1.738,0,0,0-1.538.8,3.8,3.8,0,0,0-.536,2.14v2.689a3.579,3.579,0,0,0,.589,2.153,1.961,1.961,0,0,0,1.688.809,1.879,1.879,0,0,0,1.472-.51,2.556,2.556,0,0,0,.453-1.705Zm14.889-6.2a14.8,14.8,0,0,0-2.791,4.276,12.667,12.667,0,0,0-.751,4.557V25H36.07V23.321A11.666,11.666,0,0,1,37,18.615a15.2,15.2,0,0,1,2.733-4.126H33.328V12.2h9.255Zm10.424,0a14.8,14.8,0,0,0-2.791,4.276,12.667,12.667,0,0,0-.751,4.557V25H46.494V23.321a11.666,11.666,0,0,1,.932-4.707,15.2,15.2,0,0,1,2.733-4.126H43.752V12.2h9.255ZM61.04,25H58.069V14.743H55.494V12.476l5.546-.457Zm10.424,0H68.493V14.743H65.918V12.476l5.546-.457Zm5.792,1.1h-3l4.368-13.9h3ZM91.424,25H82.529V23.066l3.938-4.324a8.5,8.5,0,0,0,1.16-1.6A2.72,2.72,0,0,0,88,15.921a1.9,1.9,0,0,0-.334-1.182A1.266,1.266,0,0,0,86.59,14.3a1.225,1.225,0,0,0-1.077.567,2.534,2.534,0,0,0-.382,1.446H82.222l-.018-.053a3.984,3.984,0,0,1,1.169-3.01,4.306,4.306,0,0,1,3.217-1.235,4.671,4.671,0,0,1,3.243,1.033,3.639,3.639,0,0,1,1.143,2.843,3.746,3.746,0,0,1-.633,2.149,26.843,26.843,0,0,1-2.32,2.764l-1.556,1.863.018.044h4.939Zm8.016,0H96.469V14.743H93.894V12.476l5.546-.457Z" transform="translate(482.038 12.981)" fill="#12263f"/>
        <path id="Trazado_630886" data-name="Trazado 630886" d="M-13.232-4.386V0H-16.2V-12.8h4.887A5.319,5.319,0,0,1-7.7-11.637a3.844,3.844,0,0,1,1.336,3.05A3.831,3.831,0,0,1-7.7-5.542a5.333,5.333,0,0,1-3.612,1.156Zm0-2.285h1.916A1.951,1.951,0,0,0-9.839-7.2a1.894,1.894,0,0,0,.51-1.367,1.974,1.974,0,0,0-.505-1.4,1.921,1.921,0,0,0-1.481-.545h-1.916ZM5.1-4.315l.018.053A4.113,4.113,0,0,1,3.885-.945,5.238,5.238,0,0,1,.286.185a5.124,5.124,0,0,1-3.81-1.45,5.16,5.16,0,0,1-1.437-3.8V-7.734a5.275,5.275,0,0,1,1.384-3.792A4.819,4.819,0,0,1,.083-12.981,5.641,5.641,0,0,1,3.85-11.848a4,4,0,0,1,1.3,3.3L5.12-8.5H2.228a2.352,2.352,0,0,0-.5-1.687A2.235,2.235,0,0,0,.083-10.7a1.738,1.738,0,0,0-1.538.8,3.8,3.8,0,0,0-.536,2.14v2.689A3.579,3.579,0,0,0-1.4-2.909,1.961,1.961,0,0,0,.286-2.1a1.879,1.879,0,0,0,1.472-.51A2.556,2.556,0,0,0,2.21-4.315ZM6.763,0V-12.8h4.192a6.673,6.673,0,0,1,3.713.883A2.951,2.951,0,0,1,16-9.281a3.1,3.1,0,0,1-.422,1.622A2.6,2.6,0,0,1,14.26-6.592a2.66,2.66,0,0,1,1.692,1.02A3,3,0,0,1,16.5-3.788a3.337,3.337,0,0,1-1.257,2.83,5.851,5.851,0,0,1-3.6.958ZM9.734-5.493v3.208h1.907a2.277,2.277,0,0,0,1.424-.374,1.37,1.37,0,0,0,.475-1.147,1.691,1.691,0,0,0-.417-1.239,1.96,1.96,0,0,0-1.375-.448H9.734Zm0-1.969H10.9a2.779,2.779,0,0,0,1.6-.374,1.274,1.274,0,0,0,.527-1.112,1.377,1.377,0,0,0-.51-1.191,2.654,2.654,0,0,0-1.564-.374H9.734Z" transform="translate(61.038 128.981)" fill="#12263f"/>
        <g id="Grupo_902237" data-name="Grupo 902237" transform="translate(254.038 97.981)">
          <path id="Trazado_630885" data-name="Trazado 630885" d="M-7023.626-10695v21.317h217" transform="translate(7028.126 10729)" fill="none" stroke="#12263f" stroke-width="2"/>
          <path id="Polígono_1" data-name="Polígono 1" d="M5,0l5,8H0Z" transform="translate(0 30)" fill="#12263f"/>
          <path id="Polígono_2" data-name="Polígono 2" d="M5,0l5,8H0Z" transform="translate(188 31) rotate(-90)" fill="#12263f"/>
          <path id="Polígono_3" data-name="Polígono 3" d="M5,0l5,8H0Z" transform="translate(123 10) rotate(-90)" fill="#12263f"/>
        </g>
        <g id="Grupo_902238" data-name="Grupo 902238" transform="translate(197.671 28.981)">
          <path id="Trazado_630885-2" data-name="Trazado 630885" d="M-7023.625-10673.684V-10695h273.367" transform="translate(7028.125 10695.001)" fill="none" stroke="#12263f" stroke-width="2"/>
          <path id="Polígono_1-2" data-name="Polígono 1" d="M5,0l5,8H0Z" transform="translate(10 25.317) rotate(180)" fill="#12263f"/>
        </g>
        <g id="Grupo_902239" data-name="Grupo 902239" transform="translate(118.5 6.961)">
          <path id="Trazado_630885-3" data-name="Trazado 630885" d="M-7023.626-10642.165V-10695h352.538" transform="translate(7028.126 10695.001)" fill="none" stroke="#12263f" stroke-width="2"/>
          <path id="Polígono_1-3" data-name="Polígono 1" d="M5,0l5,8H0Z" transform="translate(10 57.679) rotate(180)" fill="#12263f"/>
        </g>
        <line id="Línea_184" data-name="Línea 184" x2="30" transform="translate(445.538 124.481)" fill="none" stroke="#12263f" stroke-width="2"/>
        <line id="Línea_185" data-name="Línea 185" x2="95" transform="translate(380.538 102.661)" fill="none" stroke="#12263f" stroke-width="2"/>
      </g>
    </g>
    <text id="Aplica_a_cables_y_conectores." data-name="Aplica a cables y conectores." transform="translate(1062 832)" fill="#12263f" font-size="14" font-family="Roboto-Regular, Roboto"><tspan x="0" y="13">Aplica a cables y conectores.</tspan></text>
    <text id="Aplica_para_componentes." data-name="Aplica para componentes." transform="translate(1062 857)" fill="#12263f" font-size="14" font-family="Roboto-Regular, Roboto"><tspan x="0" y="13">Aplica para componentes.</tspan></text>
    <text id="Aceptabilidad_del_ensamble_de_componentes._" data-name="Aceptabilidad del ensamble de componentes. " transform="translate(1066 926)" fill="#12263f" font-size="14" font-family="Roboto-Regular, Roboto"><tspan x="0" y="13">Aceptabilidad del ensamble de componentes. </tspan></text>
    <text id="Define_los_criterios_de_aceptación_de_calidad_y_rechazo_de_circuitos_impresos." data-name="Define los criterios de aceptación de calidad y rechazo de circuitos impresos." transform="translate(1066 978)" fill="#12263f" font-size="14" font-family="Roboto-Regular, Roboto"><tspan x="0" y="13">Define los criterios de aceptación de calidad y </tspan><tspan x="0" y="31">rechazo de circuitos impresos.</tspan></text>
    <text id="Refieren_al_diseño_de_placas_de_circuito_impreso." data-name="Refieren al diseño de placas de circuito impreso." transform="translate(1066 951)" fill="#12263f" font-size="14" font-family="Roboto-Regular, Roboto"><tspan x="0" y="13">Refieren al diseño de placas de circuito impreso.</tspan></text>
    <line id="Línea_186" data-name="Línea 186" x2="72" transform="translate(983.654 840.5)" fill="none" stroke="#12263f" stroke-width="2"/>
    <line id="Línea_187" data-name="Línea 187" x2="38" transform="translate(1017.893 865.5)" fill="none" stroke="#12263f" stroke-width="2"/>
    <line id="Línea_188" data-name="Línea 188" x2="76" transform="translate(979.625 934.5)" fill="none" stroke="#12263f" stroke-width="2"/>
    <line id="Línea_189" data-name="Línea 189" x2="6" transform="translate(1050.103 959.5)" fill="none" stroke="#12263f" stroke-width="2"/>
    <line id="Línea_190" data-name="Línea 190" x2="76" transform="translate(979.625 987)" fill="none" stroke="#12263f" stroke-width="2"/>
  </g>
</svg>
