<svg xmlns="http://www.w3.org/2000/svg" xmlns:xlink="http://www.w3.org/1999/xlink" width="1273" height="672.68" viewBox="0 0 1273 672.68">
  <defs>
    <linearGradient id="linear-gradient" x1="0.362" y1="0.536" x2="1.672" y2="1.552" gradientUnits="objectBoundingBox">
      <stop offset="0" stop-color="#3c0061"/>
      <stop offset="1" stop-color="#b3009d"/>
    </linearGradient>
    <filter id="Rectángulo_336769" x="0" y="0" width="1273" height="672.68" filterUnits="userSpaceOnUse">
      <feOffset input="SourceAlpha"/>
      <feGaussianBlur stdDeviation="5.5" result="blur"/>
      <feFlood flood-opacity="0.161"/>
      <feComposite operator="in" in2="blur"/>
      <feComposite in="SourceGraphic"/>
    </filter>
    <filter id="Rectángulo_336767" x="0" y="0" width="1273" height="672.68" filterUnits="userSpaceOnUse">
      <feOffset input="SourceAlpha"/>
      <feGaussianBlur stdDeviation="5.5" result="blur-2"/>
      <feFlood flood-opacity="0.161"/>
      <feComposite operator="in" in2="blur-2"/>
      <feComposite in="SourceGraphic"/>
    </filter>
    <clipPath id="clip-path">
      <g transform="matrix(1, 0, 0, 1, 0, 0)" filter="url(#Rectángulo_336769)">
        <rect id="Rectángulo_336769-2" data-name="Rectángulo 336769" width="1240" height="639.68" rx="19" fill="url(#linear-gradient)"/>
      </g>
    </clipPath>
    <clipPath id="clip-path-2">
      <rect id="Rectángulo_336759" data-name="Rectángulo 336759" width="1179.713" height="773.072" fill="#ffd947"/>
    </clipPath>
  </defs>
  <g id="Grupo_902469" data-name="Grupo 902469" transform="translate(-163.5 -1759.727)">
    <g id="Grupo_902468" data-name="Grupo 902468">
      <g id="Grupo_902047" data-name="Grupo 902047" transform="translate(-105 48)">
        <g id="Grupo_902046" data-name="Grupo 902046" transform="translate(285 1728.227)">
          <g id="Grupo_902045" data-name="Grupo 902045">
            <g transform="matrix(1, 0, 0, 1, -16.5, -16.5)" filter="url(#Rectángulo_336767)">
              <rect id="Rectángulo_336767-2" data-name="Rectángulo 336767" width="1240" height="639.68" rx="19" transform="translate(16.5 16.5)" fill="#3c0061"/>
            </g>
            <g id="Enmascarar_grupo_901925" data-name="Enmascarar grupo 901925" opacity="0.093" clip-path="url(#clip-path)">
              <g id="Grupo_902001" data-name="Grupo 902001" transform="translate(29.498 17.841)" clip-path="url(#clip-path-2)">
                <path id="Trazado_629969" data-name="Trazado 629969" d="M216.791,10.567V42.259H0V69.2H127.312V65.648H4.983V45.808H221.774V10.567c2.993-.74,5.155-2.741,5.155-5.122C226.93,2.439,223.5,0,219.283,0s-7.644,2.439-7.644,5.445c0,2.382,2.16,4.385,5.153,5.122" transform="translate(77.328 0)" fill="#ffd947"/>
                <path id="Trazado_629970" data-name="Trazado 629970" d="M15.291,5.445C15.291,2.438,11.869,0,7.647,0S0,2.438,0,5.445C0,7.746,2.011,9.7,4.844,10.5V79.137L83.61,126.868H191.28v-3.55H87.019V36.3c2.5-.9,4.237-2.719,4.237-4.85,0-3.006-3.422-5.443-7.644-5.443s-7.647,2.437-7.647,5.443c0,2.622,2.6,4.808,6.071,5.326v84.474L47.6,100.388V23.8c2.993-.738,5.153-2.741,5.153-5.122,0-3.006-3.422-5.443-7.644-5.443s-7.647,2.437-7.647,5.443c0,2.382,2.162,4.385,5.155,5.122V97.369L9.83,77.5V10.635c3.15-.672,5.461-2.728,5.461-5.19" transform="translate(18.286 149.311)" fill="#ffd947"/>
                <path id="Trazado_629971" data-name="Trazado 629971" d="M14.841,7.219H193.232V3.671H14.841C13.8,1.54,10.992,0,7.647,0,3.425,0,0,2.439,0,5.445s3.425,5.443,7.647,5.443c3.345,0,6.158-1.538,7.194-3.669" transform="translate(11.408 295.855)" fill="#ffd947"/>
                <path id="Trazado_629972" data-name="Trazado 629972" d="M10.871,287.192V96.025L132.634,3.548h58.047V0h-60.2L5.888,94.621V286.828C2.517,287.4,0,289.539,0,292.111c0,3.006,3.425,5.445,7.647,5.445s7.644-2.439,7.644-5.445c0-2.182-1.815-4.052-4.42-4.919" transform="translate(20.528 325.253)" fill="#ffd947"/>
                <path id="Trazado_629973" data-name="Trazado 629973" d="M10.138,260.167V77.3L104.007,3.548h58.021V0H101.8L5.155,75.931V260.167C2.162,260.9,0,262.907,0,265.289s2.162,4.385,5.155,5.123v.32H7.639l.008,0,.008,0h2.484v-.32c2.993-.738,5.153-2.741,5.153-5.123s-2.16-4.385-5.153-5.122" transform="translate(49.181 353.318)" fill="#ffd947"/>
                <path id="Trazado_629974" data-name="Trazado 629974" d="M134.717,275.181V152.569h-28.4c-.8-2.4-3.808-4.185-7.42-4.185s-6.618,1.789-7.418,4.185H47.51V3.548H169.6V0H42.527V156.117H91.986c1.216,1.86,3.844,3.154,6.914,3.154s5.7-1.294,6.914-3.154h23.92v70.965H5.153v90.676C2.162,318.5,0,320.5,0,322.882c0,3.006,3.422,5.443,7.644,5.443s7.647-2.437,7.647-5.443c0-2.382-2.162-4.385-5.155-5.124V230.63h119.6v44.551c-2.993.738-5.153,2.741-5.153,5.122,0,3.006,3.422,5.445,7.644,5.445s7.644-2.438,7.644-5.445c0-2.382-2.16-4.384-5.153-5.122" transform="translate(80.57 444.746)" fill="#ffd947"/>
                <path id="Trazado_629975" data-name="Trazado 629975" d="M10.136,87.13V0H5.153V87.13C2.16,87.868,0,89.87,0,92.252,0,95.258,3.422,97.7,7.644,97.7s7.644-2.438,7.644-5.444c0-2.382-2.162-4.385-5.153-5.122" transform="translate(628.728 522.805)" fill="#ffd947"/>
                <path id="Trazado_629976" data-name="Trazado 629976" d="M8.7,86.885V0H3.716V87.606C1.5,88.56,0,90.275,0,92.252,0,95.258,3.425,97.7,7.647,97.7s7.644-2.438,7.644-5.444c0-2.75-2.872-5-6.592-5.368" transform="translate(675.014 522.805)" fill="#ffd947"/>
                <path id="Trazado_629977" data-name="Trazado 629977" d="M1164.6,140.834c.738,2.459,3.8,4.3,7.472,4.3,4.222,0,7.644-2.437,7.644-5.443s-3.422-5.443-7.644-5.443a8.306,8.306,0,0,0-6.826,3.035h-80.151l-56.047,39.9h-1.491v1.062l-53.324,37.969H897.992V35.265h179.4V70.747h87.34c.892,2.3,3.823,4,7.341,4,4.222,0,7.644-2.437,7.644-5.443s-3.422-5.445-7.644-5.445c-3.175,0-5.893,1.377-7.05,3.337h-82.648V31.717H893.006V51.233H815.768V10.571c3-.734,5.178-2.741,5.178-5.128C820.946,2.437,817.521,0,813.3,0s-7.644,2.437-7.644,5.443c0,2.374,2.15,4.374,5.13,5.117V54.781h82.221V219.77h76.241l-59.829,42.6H550.165l-72.224-51.427H152.934V76.464H41.255V25.05H210.561c1.219,1.858,3.847,3.154,6.917,3.154,4.222,0,7.644-2.437,7.644-5.443s-3.422-5.443-7.644-5.443c-3.61,0-6.618,1.787-7.42,4.183H36.272v58.51H147.951v61.937H118.626L72.641,109.207H15.077c-.787-2.413-3.805-4.213-7.431-4.213-4.224,0-7.647,2.437-7.647,5.443s3.422,5.445,7.647,5.445c3.052,0,5.667-1.285,6.893-3.127H70.579L116.564,145.5h31.386V214.49H475.876L548.1,265.917h564.165v74.491H1004.22a8.544,8.544,0,0,0-6.564-2.695c-4.222,0-7.647,2.437-7.647,5.443s3.425,5.445,7.647,5.445c3.839,0,6.986-2.021,7.531-4.645h107.082v44.351H1004.85c-1.036-2.131-3.849-3.669-7.194-3.669-4.222,0-7.647,2.437-7.647,5.443s3.425,5.443,7.647,5.443c3.345,0,6.158-1.538,7.194-3.669h107.419v61.688c-3.237.185-5.888,1.79-6.729,3.953H1005.13v88.7h4.983V461.043h95.712c1.155,1.963,3.877,3.343,7.053,3.343,4.222,0,7.644-2.437,7.644-5.443,0-1.845-1.3-3.471-3.271-4.456V262.369H916.463l59.829-42.6h188.581c1.039,2.129,3.852,3.669,7.2,3.669,4.222,0,7.644-2.437,7.644-5.443s-3.422-5.445-7.644-5.445c-3.345,0-6.158,1.54-7.2,3.671h-183.6l49.834-35.481h133.912c1.157,1.957,3.875,3.332,7.047,3.332,4.222,0,7.644-2.437,7.644-5.443s-3.422-5.445-7.644-5.445c-3.52,0-6.454,1.7-7.343,4.006H1036.092l51.061-36.356Z" transform="translate(0 3.217)" fill="#ffd947"/>
                <path id="Trazado_629978" data-name="Trazado 629978" d="M62.462,81.608H5.155v55.2C2.162,137.543,0,139.546,0,141.927c0,3.006,3.425,5.443,7.647,5.443s7.644-2.437,7.644-5.443c0-2.382-2.162-4.385-5.153-5.122V85.156H67.445V0H62.462Z" transform="translate(299.833 519.257)" fill="#ffd947"/>
                <path id="Trazado_629979" data-name="Trazado 629979" d="M17.44,0C7.824,0,0,5.571,0,12.42S7.824,24.837,17.44,24.837s17.44-5.571,17.44-12.418S27.057,0,17.44,0m0,21.29c-6.87,0-12.457-3.98-12.457-8.87S10.57,3.548,17.44,3.548,29.9,7.528,29.9,12.42,24.31,21.29,17.44,21.29" transform="translate(1132.203 263.79)" fill="#ffd947"/>
                <path id="Trazado_629980" data-name="Trazado 629980" d="M0,12.418c0,6.847,7.824,12.418,17.443,12.418s17.44-5.571,17.44-12.418S27.059,0,17.443,0,0,5.571,0,12.418m29.9,0c0,4.892-5.59,8.87-12.457,8.87s-12.46-3.978-12.46-8.87,5.59-8.87,12.46-8.87S29.9,7.526,29.9,12.418" transform="translate(128.081 395.073)" fill="#ffd947"/>
                <path id="Trazado_629981" data-name="Trazado 629981" d="M17.44,24.838c9.616,0,17.44-5.571,17.44-12.42S27.057,0,17.44,0,0,5.571,0,12.418s7.824,12.42,17.44,12.42m0-21.29c6.868,0,12.457,3.98,12.457,8.87s-5.59,8.87-12.457,8.87S4.983,17.31,4.983,12.418s5.587-8.87,12.457-8.87" transform="translate(372.26 6.55)" fill="#ffd947"/>
                <path id="Trazado_629982" data-name="Trazado 629982" d="M17.44,24.838c9.616,0,17.44-5.571,17.44-12.42S27.057,0,17.44,0,0,5.571,0,12.418s7.824,12.42,17.44,12.42m0-21.29c6.87,0,12.457,3.98,12.457,8.87s-5.587,8.87-12.457,8.87S4.983,17.31,4.983,12.418s5.587-8.87,12.457-8.87" transform="translate(471.924 6.55)" fill="#ffd947"/>
                <path id="Trazado_629983" data-name="Trazado 629983" d="M17.44,0C7.824,0,0,5.573,0,12.419S7.824,24.837,17.44,24.837s17.44-5.571,17.44-12.418S27.057,0,17.44,0m0,21.289c-6.87,0-12.457-3.98-12.457-8.87S10.57,3.55,17.44,3.55,29.9,7.528,29.9,12.419s-5.59,8.87-12.457,8.87" transform="translate(133.066 746.339)" fill="#ffd947"/>
                <path id="Trazado_629984" data-name="Trazado 629984" d="M17.44,0C7.824,0,0,5.573,0,12.42S7.824,24.837,17.44,24.837s17.44-5.571,17.44-12.418S27.057,0,17.44,0m0,21.29c-6.87,0-12.457-3.98-12.457-8.87S10.57,3.548,17.44,3.548,29.9,7.528,29.9,12.42s-5.59,8.87-12.457,8.87" transform="translate(245.188 595.542)" fill="#ffd947"/>
                <path id="Trazado_629985" data-name="Trazado 629985" d="M17.44,0C7.824,0,0,5.571,0,12.42S7.824,24.838,17.44,24.838s17.44-5.571,17.44-12.418S27.057,0,17.44,0m0,21.29c-6.87,0-12.457-3.98-12.457-8.87S10.57,3.548,17.44,3.548,29.9,7.528,29.9,12.42,24.31,21.29,17.44,21.29" transform="translate(1132.203 419.909)" fill="#ffd947"/>
              </g>
            </g>
          </g>
        </g>
      </g>
    </g>
  </g>
</svg>
