<svg xmlns="http://www.w3.org/2000/svg" xmlns:xlink="http://www.w3.org/1999/xlink" width="412.451" height="361.23" viewBox="0 0 412.451 361.23">
  <defs>
    <clipPath id="clip-path">
      <rect id="Rectángulo_337089" data-name="Rectángulo 337089" width="309.293" height="360.791" fill="none"/>
    </clipPath>
    <clipPath id="clip-path-2">
      <rect id="Rectángulo_337088" data-name="Rectángulo 337088" width="309.293" height="360.792" fill="none"/>
    </clipPath>
    <clipPath id="clip-path-3">
      <rect id="Rectángulo_337084" data-name="Rectángulo 337084" width="6.651" height="6.21" fill="none"/>
    </clipPath>
    <clipPath id="clip-path-4">
      <rect id="Rectángulo_337085" data-name="Rectángulo 337085" width="7.461" height="6.616" fill="none"/>
    </clipPath>
    <clipPath id="clip-path-5">
      <rect id="Rectángulo_337086" data-name="Rectángulo 337086" width="7.568" height="6.942" fill="none"/>
    </clipPath>
    <clipPath id="clip-path-6">
      <rect id="Rectángulo_337087" data-name="Rectángulo 337087" width="5.41" height="5.97" fill="none"/>
    </clipPath>
  </defs>
  <g id="Grupo_902366" data-name="Grupo 902366" transform="translate(-925.333 -161.77)">
    <rect id="Rectángulo_337090" data-name="Rectángulo 337090" width="398" height="4" transform="translate(925.333 519)" fill="#12263f"/>
    <g id="Grupo_901958" data-name="Grupo 901958" transform="translate(-27)">
      <g id="Grupo_85210" data-name="Grupo 85210" transform="translate(956.433 476.356)">
        <g id="Grupo_85209" data-name="Grupo 85209" transform="translate(0)">
          <g id="Grupo_85180" data-name="Grupo 85180" transform="translate(4.659 10.095)">
            <g id="Grupo_85179" data-name="Grupo 85179">
              <g id="Grupo_85178" data-name="Grupo 85178">
                <g id="Grupo_85177" data-name="Grupo 85177">
                  <g id="Grupo_85176" data-name="Grupo 85176">
                    <g id="Grupo_85175" data-name="Grupo 85175">
                      <g id="Grupo_85174" data-name="Grupo 85174">
                        <path id="Trazado_147494" data-name="Trazado 147494" d="M34.761,422.038v36.11H145.808v-36.11Z" transform="translate(-34.761 -422.038)" fill="#f5f5f5"/>
                      </g>
                    </g>
                  </g>
                </g>
              </g>
            </g>
          </g>
          <g id="Grupo_85187" data-name="Grupo 85187" transform="translate(0)">
            <g id="Grupo_85186" data-name="Grupo 85186">
              <g id="Grupo_85185" data-name="Grupo 85185">
                <g id="Grupo_85184" data-name="Grupo 85184">
                  <g id="Grupo_85183" data-name="Grupo 85183">
                    <g id="Grupo_85182" data-name="Grupo 85182">
                      <g id="Grupo_85181" data-name="Grupo 85181">
                        <path id="Trazado_147495" data-name="Trazado 147495" d="M29.57,410.792v10.1H149.16v-10.1H29.57Z" transform="translate(-29.57 -410.792)" fill="#ebebeb"/>
                      </g>
                    </g>
                  </g>
                </g>
              </g>
            </g>
          </g>
          <g id="Grupo_85194" data-name="Grupo 85194" transform="translate(57.465)">
            <g id="Grupo_85193" data-name="Grupo 85193">
              <g id="Grupo_85192" data-name="Grupo 85192">
                <g id="Grupo_85191" data-name="Grupo 85191">
                  <g id="Grupo_85190" data-name="Grupo 85190">
                    <g id="Grupo_85189" data-name="Grupo 85189">
                      <g id="Grupo_85188" data-name="Grupo 85188">
                        <path id="Trazado_147496" data-name="Trazado 147496" d="M95.912,457h55.912v-36.11h3.883v-10.1H93.582v9.161Z" transform="translate(-93.582 -410.792)" fill="#ebebeb"/>
                      </g>
                    </g>
                  </g>
                </g>
              </g>
            </g>
          </g>
          <g id="Grupo_85201" data-name="Grupo 85201" transform="translate(20.19 15.918)">
            <g id="Grupo_85200" data-name="Grupo 85200">
              <g id="Grupo_85199" data-name="Grupo 85199">
                <g id="Grupo_85198" data-name="Grupo 85198">
                  <g id="Grupo_85197" data-name="Grupo 85197">
                    <g id="Grupo_85196" data-name="Grupo 85196">
                      <g id="Grupo_85195" data-name="Grupo 85195">
                        <rect id="Rectángulo_31829" data-name="Rectángulo 31829" width="22.52" height="5.435" fill="#e0e0e0"/>
                      </g>
                    </g>
                  </g>
                </g>
              </g>
            </g>
          </g>
          <g id="Grupo_85208" data-name="Grupo 85208" transform="translate(17.292 28.149)">
            <g id="Grupo_85207" data-name="Grupo 85207">
              <g id="Grupo_85206" data-name="Grupo 85206">
                <g id="Grupo_85205" data-name="Grupo 85205">
                  <g id="Grupo_85204" data-name="Grupo 85204">
                    <g id="Grupo_85203" data-name="Grupo 85203">
                      <g id="Grupo_85202" data-name="Grupo 85202">
                        <rect id="Rectángulo_31830" data-name="Rectángulo 31830" width="28.917" height="11.478" fill="#fff"/>
                      </g>
                    </g>
                  </g>
                </g>
              </g>
            </g>
          </g>
        </g>
      </g>
      <g id="Grupo_902363" data-name="Grupo 902363" transform="translate(1055.491 161.771)">
        <g id="Grupo_902362" data-name="Grupo 902362" transform="translate(0 0)" clip-path="url(#clip-path)">
          <path id="Trazado_632444" data-name="Trazado 632444" d="M332.207,1286.991l-15.59,57.177h77.318l4.262-12.4,10.95.53,1.614,11.609h68.565l1.259-51.933Z" transform="translate(-245.84 -983.965)"/>
          <g id="Grupo_902361" data-name="Grupo 902361" transform="translate(0 -0.001)">
            <g id="Grupo_902360" data-name="Grupo 902360" clip-path="url(#clip-path-2)">
              <path id="Trazado_632446" data-name="Trazado 632446" d="M191.231,423.421s48.138,6.686,66.877,25.424c24.972,24.972,52.016,116.624,51.167,135.264s-24.77,55.522-64.9,30.166l-.419,24.21L79.389,631.078l.4-70.533S63.08,602.161,42.8,612.971-6.03,598.737,1.125,572.566,39.764,472.507,55.356,455.114s75.214-30.472,75.214-30.472Z" transform="translate(0 -323.724)" fill="#fd70f8"/>
              <path id="Trazado_632447" data-name="Trazado 632447" d="M537.221,11.452s-12.154-6.963-9-10.563,15.26,4.293,18.258,12.737c0,0,7.476-4.654,9.82-.659s-4.437,4.976-6.73,4.631c0,0,10.518,4.409,13.123,18.652s-8.18,22.931-8.18,22.931l-61.194-2.541s-6.324-7.043-2.5-23.394c1.4-5.992,18.376-18.206,18.376-18.206Z" transform="translate(-369.074 0.004)" fill="#3c0061"/>
              <path id="Trazado_632448" data-name="Trazado 632448" d="M786.924,199.377s-4.284-5.125-9.178-.23c-4.337,4.337,0,10.97,4.182,11.983,3.905.947,8.414-3.227,8.414-3.227Z" transform="translate(-663.747 -150.637)" fill="#e27756"/>
              <path id="Trazado_632449" data-name="Trazado 632449" d="M794.2,220.272a.423.423,0,0,1-.362-.2c-1.962-3.228-6.767-4.56-6.815-4.573a.423.423,0,0,1,.22-.816,16.315,16.315,0,0,1,2.835,1.131,11.134,11.134,0,0,1,4.482,3.819.423.423,0,0,1-.361.643" transform="translate(-670.561 -164.12)"/>
              <path id="Trazado_632450" data-name="Trazado 632450" d="M794.146,231.112a.423.423,0,0,1-.268-.75l2.727-2.227a.423.423,0,1,1,.535.655l-2.727,2.227a.42.42,0,0,1-.267.1" transform="translate(-674.886 -174.345)"/>
              <path id="Trazado_632451" data-name="Trazado 632451" d="M490.115,340.285c22.8-.045,33.771,15.125,35.243,22.887,3.933,20.741-65.985,15.689-65.985,15.689s-36.993,5.035-30.6-17.02c6.246-21.555,36.924-21.507,61.344-21.555" transform="translate(-317.004 -260.163)" fill="#fc27f5"/>
              <path id="Trazado_632452" data-name="Trazado 632452" d="M589.043,329.666V289.993H610.3v33.669l-16.846,9.686Z" transform="translate(-439.702 -221.713)" fill="#e27756"/>
              <path id="Trazado_632453" data-name="Trazado 632453" d="M589.043,333.4v11.3c9.536,8.186,21.26-2.7,21.26-2.7v-8.6Z" transform="translate(-439.701 -254.898)"/>
              <path id="Trazado_632454" data-name="Trazado 632454" d="M637.541,536.909a1.331,1.331,0,0,1-1.331-1.331V502.066a1.331,1.331,0,1,1,2.661,0v33.512a1.331,1.331,0,0,1-1.331,1.331" transform="translate(-479.375 -382.835)"/>
              <path id="Trazado_632455" data-name="Trazado 632455" d="M681.509,536.909a1.331,1.331,0,0,1-1.331-1.331V502.066a1.331,1.331,0,1,1,2.661,0v33.512a1.331,1.331,0,0,1-1.331,1.331" transform="translate(-533.695 -382.835)"/>
              <path id="Trazado_632456" data-name="Trazado 632456" d="M507.4,98.322c0-20.014,15.133-36.238,33.8-36.238S575,78.309,575,98.322s-15.133,36.239-33.8,36.239-33.8-16.225-33.8-36.239" transform="translate(-385.179 -47.465)" fill="#e27756"/>
              <path id="Trazado_632457" data-name="Trazado 632457" d="M535.019,206.226s1.017-20.595,17.92-9.148c0,0-3.785,13.774-17.92,9.148" transform="translate(-369.617 -148.026)" fill="#fff"/>
              <path id="Trazado_632458" data-name="Trazado 632458" d="M568.584,159.005c-.257-1.343,2.058-2.915,5.17-3.511s5.844.01,6.1,1.353-2.057,2.915-5.17,3.511-5.844-.01-6.1-1.353" transform="translate(-404.45 -118.707)"/>
              <path id="Trazado_632459" data-name="Trazado 632459" d="M684.174,166.993c.054-1.367,2.665-2.373,5.831-2.248s5.69,1.335,5.635,2.7-2.665,2.373-5.831,2.247-5.69-1.335-5.635-2.7" transform="translate(-547.439 -125.947)"/>
              <path id="Trazado_632460" data-name="Trazado 632460" d="M394.075,948.416c-5.355,7.891-13.163,11.934-17.44,9.031s-3.4-11.652,1.952-19.543,13.015-11.267,17.292-8.364,3.551,10.985-1.8,18.876" transform="translate(-177.399 -709.889)"/>
              <path id="Trazado_632461" data-name="Trazado 632461" d="M945.609,766.787c-5.009-6.491-6.667-13.606-3.7-15.892s9.425,1.121,14.434,7.612,6.667,13.606,3.7,15.892-9.425-1.121-14.434-7.612" transform="translate(-873.648 -573.549)"/>
              <path id="Trazado_632462" data-name="Trazado 632462" d="M638.841,257.307a.423.423,0,0,1-.343-.67l2.7-3.757a.423.423,0,0,1,.642-.052l2.6,2.6a.423.423,0,1,1-.6.6l-2.247-2.252-2.412,3.353a.422.422,0,0,1-.344.176" transform="translate(-485.59 -193.203)"/>
              <path id="Trazado_632463" data-name="Trazado 632463" d="M603.043,297.87a.423.423,0,0,1,.142-.831c5.337.446,9.465-5.2,9.506-5.257a.423.423,0,0,1,.687.493,16.864,16.864,0,0,1-2.9,2.976,10.472,10.472,0,0,1-7.36,2.631.448.448,0,0,1-.071-.012" transform="translate(-446.077 -222.946)"/>
              <path id="Trazado_632464" data-name="Trazado 632464" d="M462.235,189.961s4.284-5.125,9.178-.231c4.337,4.337,0,10.97-4.182,11.983-3.906.947-8.415-3.227-8.415-3.227Z" transform="translate(-271.95 -143.438)" fill="#e27756"/>
              <path id="Trazado_632465" data-name="Trazado 632465" d="M476.017,210.856a.423.423,0,0,1-.361-.643,11.134,11.134,0,0,1,4.482-3.819,16.327,16.327,0,0,1,2.835-1.131.423.423,0,0,1,.221.816c-.048.013-4.853,1.346-6.815,4.573a.422.422,0,0,1-.361.2" transform="translate(-286.192 -156.921)"/>
              <path id="Trazado_632466" data-name="Trazado 632466" d="M490.161,221.7a.422.422,0,0,1-.267-.1l-2.727-2.227a.423.423,0,1,1,.535-.655l2.727,2.227a.423.423,0,0,1-.268.75" transform="translate(-295.958 -167.147)"/>
              <path id="Trazado_632467" data-name="Trazado 632467" d="M428.518,800.75s-2.888-1.922-5.12-7.112c-2.592-6.026-5.044-21.2-17.778-31.5s-11.875,13.7-11.875,13.7L383.2,798.685l36.008,24.01s10.622-6.189,9.307-21.946" transform="translate(-209.564 -580.729)" fill="#e27756"/>
              <path id="Trazado_632468" data-name="Trazado 632468" d="M573.042,50.247s2,12.386,16.585,18.84L588.6,56.748,572.391,42.282s-4.228-6.2-17.163-5.383-25.413,9.58-34.1,15.286c-5.564,3.656-12.637,8.929-4.792,12.083,6.127,2.463,16.84-1.351,21.2-5.708,0,0-8.439,5.493,4.131,6.992,12.421,1.481,21.2-3.635,31.376-15.305" transform="translate(-401.085 -28.153)" fill="#3c0061"/>
              <path id="Trazado_632469" data-name="Trazado 632469" d="M729.2,657.778s2.335-3.285,9.685-16.873c4.434-8.2,12.3-7.945,19.357-9.587s13.759-2.48,21.519,1.728,13.349,9.32,16.541,11.27c2.878,1.758,1.2,7.436-2.008,7.673-4.192.31-10.786-2.367-17.185-8.1-3.293-2.952-5-2.261-10.442-3.921S754.65,658.6,754.65,658.6l-11.444,11.074Z" transform="translate(-660.18 -481.645)" fill="#e27756"/>
              <path id="Trazado_632470" data-name="Trazado 632470" d="M813.228,665.1c4.344-5.005,25.937,1.984,25.937,1.984s7.033,11.637-3.332,19.063-17.07,5.6-22.693,1.713c-7.155-4.947-3.767-9.5-3.767-9.5Z" transform="translate(-722.582 -507.12)" fill="#e27756"/>
              <path id="Trazado_632471" data-name="Trazado 632471" d="M740.32,683.211c2.019,1.094,2.168,1.78,1.424,3.155s-2.1,2.915-4.119,1.821a4.1,4.1,0,0,1-1.73-5.129c.744-1.374,2.406-.94,4.426.154" transform="translate(-606.05 -521.57)"/>
              <path id="Trazado_632472" data-name="Trazado 632472" d="M905.99,717.356a7.342,7.342,0,0,0-2.442,1.52c-.8,1.309-1.66,2.692-2.532,4.048-2.54,3.79-1.989,8.653.6,12.891,4.427,7.236,13.741,10.183,13.763,10.175,1.712-2.37,12.3-14.057,14.147-16.6.625-3.225-1.671-4.968-3.1-8.806-3.043-8.159-14.981-5.263-20.438-3.228" transform="translate(-832.101 -546.762)" fill="#e27756"/>
              <path id="Trazado_632473" data-name="Trazado 632473" d="M816.477,631.553s8.53,1.289,12.241,15.262-11.756,9.523-11.756,9.523l-6.872-19.621Z" transform="translate(-710.737 -482.851)" fill="#e27756"/>
              <path id="Trazado_632474" data-name="Trazado 632474" d="M860.993,639.55s8.427,1.052,11.815,14.285-11.847,9.313-11.847,9.313l-6.4-18.547Z" transform="translate(-765.214 -488.965)" fill="#e27756"/>
              <path id="Trazado_632475" data-name="Trazado 632475" d="M900.171,654.369s9.676-.079,12.9,12.766c1.773,7.076-1.824,8.841-5.415,8.83-3.545-.01-6.473-1.092-8.5-3.738-1.391-1.814-1.154-6.175,2.165-5.85l-5.572-6.963Z" transform="translate(-815.144 -500.295)" fill="#e27756"/>
              <path id="Trazado_632476" data-name="Trazado 632476" d="M943.713,699.3a.363.363,0,0,1-.3-.561,2.7,2.7,0,0,0-.106-2.454,9.047,9.047,0,0,0-3.055-3.728.362.362,0,0,1-.381-.6c.395-.394,1.061.148,1.311.352,1.61,1.31,4.184,4.767,2.837,6.824a.362.362,0,0,1-.3.164" transform="translate(-856.368 -528.927)"/>
              <path id="Trazado_632477" data-name="Trazado 632477" d="M815.659,655.322q-.5,0-1.026-.037a17.547,17.547,0,0,1-3.757-.678.362.362,0,0,1,.221-.69c.063.02,6.33,1.975,9.584-.858,1.8-1.571,2.379-4.349,1.705-8.258-.687-3.984-2.463-9.448-7.029-12.857a12.475,12.475,0,0,0-5.227-2.383.362.362,0,0,1,.092-.719,12.935,12.935,0,0,1,5.533,2.5c4.783,3.549,6.634,9.214,7.345,13.341.72,4.177.065,7.181-1.945,8.93a8.216,8.216,0,0,1-5.5,1.714" transform="translate(-704.762 -480.777)"/>
              <path id="Trazado_632478" data-name="Trazado 632478" d="M858.125,662.064a18.647,18.647,0,0,1-3.895-.416.362.362,0,1,1,.165-.706c.067.016,6.743,1.532,9.777-1.567,1.582-1.616,1.923-4.24,1.012-7.8-1.718-6.709-4.873-10.26-7.218-12.058a11.86,11.86,0,0,0-4.72-2.319.362.362,0,0,1,.115-.716,12.294,12.294,0,0,1,5.007,2.43c2.449,1.866,5.741,5.546,7.517,12.483.978,3.821.575,6.676-1.2,8.485-1.712,1.747-4.36,2.18-6.565,2.18" transform="translate(-757.942 -486.619)"/>
              <path id="Trazado_632479" data-name="Trazado 632479" d="M904.071,672.556h-.032c-3.921-.011-6.8-1.281-8.788-3.88a5.143,5.143,0,0,1-.627-5.05c.426-.791,1.376-1.7,3.486-1.553a.362.362,0,0,1-.052.723,2.656,2.656,0,0,0-2.8,1.173,4.392,4.392,0,0,0,.564,4.266c1.847,2.409,4.534,3.585,8.215,3.6a5.634,5.634,0,0,0,4.541-1.751c1.1-1.4,1.273-3.632.522-6.628-1.633-6.515-5.163-9.783-7.838-11.377a13.691,13.691,0,0,0-5.429-1.916.362.362,0,1,1,.05-.723,14.209,14.209,0,0,1,5.749,2.016c2.792,1.664,6.477,5.067,8.17,11.823.808,3.224.588,5.664-.654,7.251a6.16,6.16,0,0,1-5.081,2.029" transform="translate(-811.533 -496.523)"/>
              <path id="Trazado_632480" data-name="Trazado 632480" d="M882.7,749.97a16.243,16.243,0,0,1-3.189-.335.362.362,0,0,1,.142-.711c4.221.845,7.555.055,9.91-2.348a9.548,9.548,0,0,0,2.3-3.91.362.362,0,0,1,.7.173,10.1,10.1,0,0,1-2.464,4.22,9.931,9.931,0,0,1-7.4,2.911" transform="translate(-790.298 -567.592)"/>
              <path id="Trazado_632481" data-name="Trazado 632481" d="M179.531,615.415a.423.423,0,0,1-.4-.545c.113-.376,11.415-37.72,18.61-48.7a.423.423,0,0,1,.707.464c-7.129,10.879-18.395,48.106-18.508,48.481a.423.423,0,0,1-.4.3" transform="translate(68.61 -432.717)"/>
              <path id="Trazado_632482" data-name="Trazado 632482" d="M166.59,1011.3a.421.421,0,0,1-.191-.046,147.265,147.265,0,0,1-19.133-12.064,81.387,81.387,0,0,1-13.627-12.523c-4.224-5.062-6.636-9.938-7.172-14.5l-10.887-7.689a.423.423,0,0,1,.152-.758,31.833,31.833,0,0,0,10.937-5.236,20.614,20.614,0,0,0,6.545-8.044,21.35,21.35,0,0,0,1.06-13.067.423.423,0,0,1,.642-.44l8.617,5.523c.738-1.083,3.292-4.042,9.719-5.122,4.49-.755,9.972-.43,16.294.964,7.868,1.735,17.079,5.144,27.377,10.132a.423.423,0,1,1-.368.761c-10.187-4.934-19.3-8.312-27.073-10.041-6.205-1.379-11.576-1.717-15.963-1a16.3,16.3,0,0,0-7.554,3.007,7.3,7.3,0,0,0-1.919,2.082.424.424,0,0,1-.605.165l-8.157-5.229a21.766,21.766,0,0,1-1.3,12.624,21.464,21.464,0,0,1-6.821,8.378,32.515,32.515,0,0,1-10.349,5.138l10.3,7.274a.423.423,0,0,1,.177.3c.472,4.443,2.827,9.231,7,14.231a80.522,80.522,0,0,0,13.48,12.386,146.4,146.4,0,0,0,19.018,11.994.423.423,0,0,1-.192.8" transform="translate(84.962 -716.278)"/>
              <path id="Trazado_632483" data-name="Trazado 632483" d="M141.768,937.87a.423.423,0,0,1-.281-.739l8.105-7.207a.423.423,0,0,1,.562.632l-8.105,7.207a.422.422,0,0,1-.281.107" transform="translate(125.717 -710.889)"/>
              <path id="Trazado_632484" data-name="Trazado 632484" d="M562.515,667.227V572.084a4.31,4.31,0,0,0-4.31-4.31H481.7a4.31,4.31,0,0,0-4.31,4.31v95.143a4.31,4.31,0,0,0,4.31,4.31h76.5a4.31,4.31,0,0,0,4.31-4.31" transform="translate(-365.624 -434.089)"/>
              <path id="Trazado_632485" data-name="Trazado 632485" d="M562.515,678.6v-91.64a4.31,4.31,0,0,0-4.31-4.31H481.7a4.31,4.31,0,0,0-4.31,4.31V678.6a4.31,4.31,0,0,0,4.31,4.31h76.5a4.31,4.31,0,0,0,4.31-4.31" transform="translate(-365.624 -445.464)" fill="#7dbcf5"/>
              <path id="Trazado_632486" data-name="Trazado 632486" d="M511.261,617.659v-9.421a2.745,2.745,0,0,0-2.745-2.745H497.578a2.745,2.745,0,0,0-2.745,2.745v9.421a2.745,2.745,0,0,0,2.745,2.745h10.939a2.745,2.745,0,0,0,2.745-2.745" transform="translate(-318.478 -462.928)"/>
              <path id="Trazado_632487" data-name="Trazado 632487" d="M1015.067,816.741a.423.423,0,0,1-.359-.646,22.523,22.523,0,0,0,2.4-7.178c.768-4.247,1.057-11.159-1.921-19.968a.423.423,0,0,1,.053-.376l5.352-7.724a39.77,39.77,0,0,1-9.325-5.144,24.4,24.4,0,0,1-6.466-7.013,16.563,16.563,0,0,1-2.333-8.807L995.722,769a.422.422,0,0,1-.377.17,15.145,15.145,0,0,0-3.928.406,34.619,34.619,0,0,0-10.474,4.312,65.812,65.812,0,0,0-15.056,12.884,134.216,134.216,0,0,0-17.649,26.139.423.423,0,0,1-.746-.4,134.908,134.908,0,0,1,17.818-26.365,66.44,66.44,0,0,1,15.285-13.038c7.934-4.714,13.383-4.838,14.583-4.8l7.462-10.079a.423.423,0,0,1,.76.295,15.745,15.745,0,0,0,2.129,9.724,23.54,23.54,0,0,0,6.235,6.763,38.342,38.342,0,0,0,9.626,5.222.423.423,0,0,1,.213.642l-5.543,8c2.972,8.908,2.664,15.915,1.876,20.236a22.8,22.8,0,0,1-2.507,7.425.422.422,0,0,1-.36.2" transform="translate(-935.461 -579.576)"/>
              <path id="Trazado_632488" data-name="Trazado 632488" d="M338.959,1005.267a.423.423,0,0,1-.179-.806,23.973,23.973,0,0,0,8.44-6.2,15.71,15.71,0,0,0,3.253-6.434,14.622,14.622,0,0,0-.029-7.094.423.423,0,1,1,.806-.256,15.261,15.261,0,0,1,.046,7.546,16.541,16.541,0,0,1-3.424,6.779,24.8,24.8,0,0,1-8.733,6.422.42.42,0,0,1-.179.04" transform="translate(-122.15 -752.455)"/>
              <path id="Trazado_632489" data-name="Trazado 632489" d="M1017.188,571.251a.423.423,0,0,1-.379-.234l-14.377-28.8a.423.423,0,1,1,.757-.378l14.377,28.8a.423.423,0,0,1-.378.612" transform="translate(-944.332 -414.08)"/>
              <path id="Trazado_632490" data-name="Trazado 632490" d="M616.827,771.925c-2.882-3.871-11.66-8.547-17.864-8.547s-8.1,7.294-8.1,12.12,13.24,12.6,19.444,12.6,10.366-11.011,6.52-16.177" transform="translate(-448.135 -583.638)" fill="#dee9ec"/>
              <path id="Trazado_632491" data-name="Trazado 632491" d="M545.429,903.987a56.287,56.287,0,0,1-24.287-7.8c-6.392-3.877-10.054-6.376-12.083-7.867A3.652,3.652,0,0,1,508,883.842a2.894,2.894,0,0,1,3.838-1.474c3.661,1.7,10.561,4.692,15.942,5.784,7.692,1.562,17.646,15.835,17.646,15.835" transform="translate(-355.662 -674.409)" fill="#e27756"/>
              <path id="Trazado_632492" data-name="Trazado 632492" d="M551.925,862.254s-16.7-2.755-28.756-9.927c-6.795-4.044-10.677-6.144-12.621-7.57a3.572,3.572,0,0,1-.711-4.152,3.62,3.62,0,0,1,4.528-1.885c6.195,2.329,20.175,7.465,26.075,8.64,7.692,1.532,11.485,14.894,11.485,14.894" transform="translate(-362.59 -641.067)" fill="#e27756"/>
              <path id="Trazado_632493" data-name="Trazado 632493" d="M555.466,817.79s-17.651-3.48-30.189-11.3c-7.112-4.438-11.116-6.851-13.117-8.383a3.492,3.492,0,0,1-.585-4.2,3.714,3.714,0,0,1,4.649-1.794c6.384,2.588,21.3,8.511,27.6,9.963,8.118,1.873,11.643,15.714,11.643,15.714" transform="translate(-366.522 -605.407)" fill="#e27756"/>
              <path id="Trazado_632494" data-name="Trazado 632494" d="M524.2,787.54s-17.422-3.4-29.8-11.025c-7.359-4.535-11.245-6.912-13.135-8.36a3.08,3.08,0,0,1-.541-3.638,3.958,3.958,0,0,1,4.927-1.932c6.4,2.562,20.9,8.239,27.048,9.642,8.012,1.828,11.5,15.313,11.5,15.313" transform="translate(-328.014 -582.825)" fill="#e27756"/>
              <path id="Trazado_632495" data-name="Trazado 632495" d="M708.713,206.226s-1.017-20.595-17.92-9.148c0,0,3.785,13.774,17.92,9.148" transform="translate(-562.068 -148.026)" fill="#fff"/>
              <path id="Trazado_632496" data-name="Trazado 632496" d="M711.154,203.246a6.745,6.745,0,1,0-13.3,1.605,11.85,11.85,0,0,0,9.357,4.528,6.744,6.744,0,0,0,3.939-6.134" transform="translate(-566.127 -150.233)"/>
              <path id="Trazado_632497" data-name="Trazado 632497" d="M554.285,196.5a6.727,6.727,0,0,0-5.059,2.286,11.721,11.721,0,0,0-1.2,1.934,6.745,6.745,0,0,0,3.452,8.661,11.808,11.808,0,0,0,9.291-4.293,6.744,6.744,0,0,0-6.488-8.588" transform="translate(-380.657 -150.233)"/>
              <path id="Trazado_632498" data-name="Trazado 632498" d="M468.833,458.417l-.066-.011c-.314-.056-32.315-2.984-40.738-19.865l.875-.371c4.283,8.582,14.6,12.245,22.6,15.412a67.513,67.513,0,0,0,17.381,3.941c21.155-1.643,35.271-7.6,43.388-12.32,8.8-5.113,12.646-9.9,12.684-9.949l.779.522c-.157.2-3.96,4.947-12.9,10.148-8.223,4.786-22.521,10.837-43.941,12.489Z" transform="translate(-317.225 -332.771)"/>
              <rect id="Rectángulo_337082" data-name="Rectángulo 337082" width="0.887" height="43.87" transform="matrix(-0.512, -0.859, 0.859, -0.512, 147.395, 116.323)"/>
              <rect id="Rectángulo_337083" data-name="Rectángulo 337083" width="26.207" height="0.887" transform="translate(153.781 112.194) rotate(-140.894)"/>
              <path id="Trazado_632499" data-name="Trazado 632499" d="M463.2,844.018l16.623,6.628,2.052-42.4a76.623,76.623,0,0,1-15.955-3.139c-8.955-2.722-12.135,35.162-2.72,38.915" transform="translate(-280.306 -615.431)" fill="#e27756"/>
              <path id="Trazado_632500" data-name="Trazado 632500" d="M502.95,617.155a2.53,2.53,0,1,0,2.524-2.355,2.444,2.444,0,0,0-2.524,2.355" transform="translate(-317.125 -470.043)" fill="#a3a3a3"/>
              <path id="Trazado_632501" data-name="Trazado 632501" d="M535.977,631.922a2.53,2.53,0,1,0,2.524-2.355,2.444,2.444,0,0,0-2.524,2.355" transform="translate(-357.929 -481.333)" fill="#a3a3a3"/>
              <path id="Trazado_632502" data-name="Trazado 632502" d="M502.95,644.274a2.53,2.53,0,1,0,2.524-2.355,2.444,2.444,0,0,0-2.524,2.355" transform="translate(-317.125 -490.777)" fill="#a3a3a3"/>
              <path id="Trazado_632503" data-name="Trazado 632503" d="M552.415,818.82a.426.426,0,0,1-.089-.009,85.537,85.537,0,0,1-23.991-10.132.423.423,0,0,1,.444-.72A84.658,84.658,0,0,0,552.5,817.984a.423.423,0,0,1-.088.836" transform="translate(-367.894 -617.674)"/>
              <path id="Trazado_632504" data-name="Trazado 632504" d="M579.213,852.1a.425.425,0,0,1-.127-.02,112.47,112.47,0,0,1-25.752-12.531.423.423,0,0,1,.475-.7,111.494,111.494,0,0,0,25.53,12.423.423.423,0,0,1-.127.826" transform="translate(-400.583 -641.28)"/>
              <path id="Trazado_632505" data-name="Trazado 632505" d="M587.781,892.1a.427.427,0,0,1-.124-.018,76.63,76.63,0,0,1-21.977-11.005.423.423,0,0,1,.5-.682A75.757,75.757,0,0,0,587.9,891.269a.423.423,0,0,1-.124.827" transform="translate(-412.06 -673.037)"/>
              <g id="Grupo_902350" data-name="Grupo 902350" transform="translate(146.751 198.908)" style="mix-blend-mode: overlay;isolation: isolate">
                <g id="Grupo_902349" data-name="Grupo 902349" transform="translate(0)">
                  <g id="Grupo_902348" data-name="Grupo 902348" clip-path="url(#clip-path-3)">
                    <path id="Trazado_632506" data-name="Trazado 632506" d="M666.156,850.994a4.119,4.119,0,0,1-2.41-.837c-1.584-1.166-2.124-3.133-1.2-4.383a2.547,2.547,0,0,1,2.079-.989,4.3,4.3,0,0,1,3.994,2.941,2.436,2.436,0,0,1-2.406,3.268h-.054m-1.48-5.364h-.041a1.725,1.725,0,0,0-1.412.645c-.644.875-.185,2.311,1.024,3.2a3.262,3.262,0,0,0,1.949.672,1.6,1.6,0,0,0,1.608-2.185,3.463,3.463,0,0,0-3.129-2.334" transform="translate(-662.093 -844.784)"/>
                  </g>
                </g>
              </g>
              <g id="Grupo_902353" data-name="Grupo 902353" transform="translate(144.518 187.442)" style="mix-blend-mode: overlay;isolation: isolate">
                <g id="Grupo_902352" data-name="Grupo 902352" transform="translate(0)">
                  <g id="Grupo_902351" data-name="Grupo 902351" clip-path="url(#clip-path-4)">
                    <path id="Trazado_632507" data-name="Trazado 632507" d="M672.655,802.7a4.683,4.683,0,0,1-2.32-.65c-1.875-1.083-2.712-3.156-1.865-4.621a2.768,2.768,0,0,1,2.138-1.316,4.542,4.542,0,0,1,2.8.621c1.875,1.083,2.711,3.156,1.865,4.622a2.768,2.768,0,0,1-2.139,1.316,3.837,3.837,0,0,1-.476.029m-1.569-5.771a3.029,3.029,0,0,0-.374.023,1.945,1.945,0,0,0-1.51.9c-.613,1.062.085,2.617,1.556,3.466a3.694,3.694,0,0,0,2.27.514,1.945,1.945,0,0,0,1.51-.9c.613-1.062-.085-2.617-1.556-3.466a3.831,3.831,0,0,0-1.9-.537" transform="translate(-668.139 -796.088)"/>
                  </g>
                </g>
              </g>
              <g id="Grupo_902356" data-name="Grupo 902356" transform="translate(152.206 180.294)" style="mix-blend-mode: overlay;isolation: isolate">
                <g id="Grupo_902355" data-name="Grupo 902355" transform="translate(0)">
                  <g id="Grupo_902354" data-name="Grupo 902354" clip-path="url(#clip-path-5)">
                    <path id="Trazado_632508" data-name="Trazado 632508" d="M639.371,772.669a4.439,4.439,0,0,1-2.21-.611,4.316,4.316,0,0,1-1.908-2.187,3.048,3.048,0,0,1,.16-2.638c.911-1.578,3.178-1.981,5.052-.9a4.317,4.317,0,0,1,1.908,2.187,2.958,2.958,0,0,1-2.364,4.095,3.9,3.9,0,0,1-.638.052m-1.121-6.1a2.35,2.35,0,0,0-2.1,1.087,2.219,2.219,0,0,0-.1,1.918,3.636,3.636,0,0,0,3.826,2.209,2.115,2.115,0,0,0,1.711-2.964,3.471,3.471,0,0,0-1.539-1.752,3.612,3.612,0,0,0-1.793-.5" transform="translate(-635.029 -765.727)"/>
                  </g>
                </g>
              </g>
              <g id="Grupo_902359" data-name="Grupo 902359" transform="translate(151.984 209.571)" style="mix-blend-mode: overlay;isolation: isolate">
                <g id="Grupo_902358" data-name="Grupo 902358" transform="translate(0)">
                  <g id="Grupo_902357" data-name="Grupo 902357" clip-path="url(#clip-path-6)">
                    <path id="Trazado_632509" data-name="Trazado 632509" d="M648.966,890.859a3.523,3.523,0,0,0-3.649-.467,3.713,3.713,0,0,0-.177,1.268c.017-.027.033-.055.052-.081a1.771,1.771,0,0,1,1.471-.668,3.091,3.091,0,0,1,1.8.63,3.043,3.043,0,0,1,1.156,1.609,1.745,1.745,0,0,1-.22,1.527,1.8,1.8,0,0,1-1.564.664q.468.329,1.014.7a2.421,2.421,0,0,0,1.231-.866,2.572,2.572,0,0,0,.355-2.253,3.89,3.89,0,0,0-1.47-2.065" transform="translate(-645.138 -890.072)"/>
                  </g>
                </g>
              </g>
            </g>
          </g>
        </g>
      </g>
      <g id="Plant" transform="translate(1008.948 406.251)">
        <g id="Grupo_85285" data-name="Grupo 85285">
          <g id="Grupo_85274" data-name="Grupo 85274">
            <g id="Grupo_85232" data-name="Grupo 85232" transform="translate(36.021 20.551)">
              <g id="Grupo_85231" data-name="Grupo 85231">
                <g id="Grupo_85230" data-name="Grupo 85230">
                  <path id="Trazado_147502" data-name="Trazado 147502" d="M75.468,411.488s18.271-21.028,25.166-42.058,3.62-18.617,3.62-18.617-9.308,20.428-16.375,30.3-19.65,24.347-19.65,24.347Z" transform="translate(-68.228 -350.73)" fill="#00cca7"/>
                </g>
              </g>
            </g>
            <g id="Grupo_85235" data-name="Grupo 85235" transform="translate(30.564 23.366)">
              <g id="Grupo_85234" data-name="Grupo 85234" transform="translate(0)">
                <g id="Grupo_85233" data-name="Grupo 85233">
                  <path id="Trazado_147503" data-name="Trazado 147503" d="M113.632,354.554a1.065,1.065,0,0,1,1.982.677c-1.114,7.386-3.522,24.721-3.427,35.963.123,14.605,0,20.25,0,20.25h-7.6s1.35-30.192,3.068-39.4A63.217,63.217,0,0,1,113.632,354.554Z" transform="translate(-104.578 -354.009)" fill="#00cca7"/>
                </g>
              </g>
            </g>
            <g id="Grupo_85238" data-name="Grupo 85238" transform="translate(21.773 20.762)">
              <g id="Grupo_85237" data-name="Grupo 85237" transform="translate(0)">
                <g id="Grupo_85236" data-name="Grupo 85236">
                  <path id="Trazado_147504" data-name="Trazado 147504" d="M125.43,408.562a80.55,80.55,0,0,1-6.259-22.705c-.626-5.376.491-12.641,2.153-22.337a60.153,60.153,0,0,0,.961-10.748,1.814,1.814,0,0,0-3.406-.851c-.918,1.637-3.574,7.232-4.249,10.739-1.841,9.573-3.927,14.36-2.332,23.442s7.487,23.073,7.487,23.073Z" transform="translate(-111.731 -350.976)" fill="#00cca7"/>
                </g>
              </g>
            </g>
            <g id="Grupo_85241" data-name="Grupo 85241" transform="translate(0 14.114)">
              <g id="Grupo_85240" data-name="Grupo 85240" transform="translate(7.995 19.876)">
                <g id="Grupo_85239" data-name="Grupo 85239">
                  <path id="Trazado_147505" data-name="Trazado 147505" d="M140.337,382.848s-14.457-28.043-15.459-32.2-4.409-13.747-4.81-13.2-1,5.607,1.6,11.4S135.4,383.7,135.4,383.7h4.936" transform="translate(-119.709 -337.417)" fill="#00cca7"/>
                </g>
              </g>
            </g>
            <g id="Grupo_85245" data-name="Grupo 85245" transform="translate(37.67 21.122)">
              <g id="Grupo_85244" data-name="Grupo 85244">
                <g id="Grupo_85243" data-name="Grupo 85243">
                  <g id="Grupo_85242" data-name="Grupo 85242">
                    <path id="Trazado_147506" data-name="Trazado 147506" d="M68.514,407.306a4.066,4.066,0,0,0,.562-.385c.355-.27.9-.65,1.554-1.187a71.109,71.109,0,0,0,5.391-4.76,90.467,90.467,0,0,0,14.554-18.679,122.388,122.388,0,0,0,9.935-21.52c1.009-2.863,1.745-5.207,2.223-6.835.245-.812.414-1.449.532-1.88a3.984,3.984,0,0,0,.155-.664,4.029,4.029,0,0,0-.238.639q-.228.692-.61,1.855c-.525,1.612-1.3,3.937-2.348,6.782a130.147,130.147,0,0,1-10.018,21.4,94.431,94.431,0,0,1-14.4,18.683c-2.147,2.134-3.985,3.76-5.285,4.846-.64.556-1.163.956-1.5,1.247A4.121,4.121,0,0,0,68.514,407.306Z" transform="translate(-68.513 -351.395)" fill="#263238"/>
                  </g>
                </g>
              </g>
            </g>
            <g id="Grupo_85249" data-name="Grupo 85249" transform="translate(35.456 24.353)">
              <g id="Grupo_85248" data-name="Grupo 85248" transform="translate(0)">
                <g id="Grupo_85247" data-name="Grupo 85247">
                  <g id="Grupo_85246" data-name="Grupo 85246">
                    <path id="Trazado_147507" data-name="Trazado 147507" d="M105.749,387.157a7.191,7.191,0,0,0,.18-1.266c.1-.892.22-2.056.37-3.456.318-2.917.813-6.939,1.521-11.357s1.5-8.394,2.115-11.264c.3-1.376.543-2.52.732-3.4a7.334,7.334,0,0,0,.226-1.258,7.211,7.211,0,0,0-.388,1.217c-.224.791-.521,1.942-.865,3.371-.689,2.856-1.528,6.833-2.242,11.263s-1.16,8.467-1.4,11.4c-.121,1.465-.2,2.651-.234,3.473A7.428,7.428,0,0,0,105.749,387.157Z" transform="translate(-105.731 -355.159)" fill="#263238"/>
                  </g>
                </g>
              </g>
            </g>
            <g id="Grupo_85253" data-name="Grupo 85253" transform="translate(25.874 21.369)">
              <g id="Grupo_85252" data-name="Grupo 85252" transform="translate(0)">
                <g id="Grupo_85251" data-name="Grupo 85251">
                  <g id="Grupo_85250" data-name="Grupo 85250">
                    <path id="Trazado_147508" data-name="Trazado 147508" d="M119.716,351.683a3.151,3.151,0,0,0-.236.548c-.153.405-.352.938-.6,1.6-.265.695-.57,1.551-.86,2.567s-.685,2.153-.975,3.452l-.5,2.027c-.168.707-.288,1.453-.441,2.219-.328,1.531-.531,3.191-.774,4.933a73.656,73.656,0,0,0,.816,22.789c.367,1.72.689,3.361,1.125,4.865.209.754.38,1.49.6,2.182l.64,1.987c.383,1.274.85,2.384,1.22,3.373s.728,1.825,1.042,2.5l.714,1.555a3.061,3.061,0,0,0,.276.529,3.132,3.132,0,0,0-.2-.565l-.64-1.584c-.29-.682-.632-1.521-.972-2.518s-.793-2.106-1.156-3.381l-.611-1.986c-.209-.691-.373-1.426-.573-2.178-.42-1.5-.726-3.136-1.081-4.849a76.131,76.131,0,0,1-.812-22.67c.231-1.734.419-3.388.731-4.914.145-.764.256-1.509.415-2.213s.319-1.379.468-2.024c.27-1.3.635-2.44.911-3.456s.549-1.88.789-2.582c.217-.674.392-1.214.525-1.625A3,3,0,0,0,119.716,351.683Z" transform="translate(-114.815 -351.683)" fill="#263238"/>
                  </g>
                </g>
              </g>
            </g>
            <g id="Grupo_85257" data-name="Grupo 85257" transform="translate(0.725 10.021)">
              <g id="Grupo_85256" data-name="Grupo 85256">
                <g id="Grupo_85255" data-name="Grupo 85255" transform="translate(7.654 21.924)">
                  <g id="Grupo_85254" data-name="Grupo 85254">
                    <path id="Trazado_147509" data-name="Trazado 147509" d="M123.53,338.466a.409.409,0,0,0,.01.118l.054.341c.054.3.122.742.241,1.307.236,1.13.629,2.755,1.24,4.727s1.443,4.286,2.433,6.827,2.132,5.312,3.217,8.26c1.1,2.944,1.95,5.817,2.747,8.424s1.54,4.951,2.264,6.884a44.011,44.011,0,0,0,1.929,4.491c.25.52.475.908.621,1.175l.17.3c.04.067.062.1.066.1a.414.414,0,0,0-.043-.11l-.148-.312c-.13-.275-.34-.669-.575-1.2-.492-1.041-1.154-2.571-1.848-4.509s-1.43-4.278-2.207-6.891-1.628-5.492-2.733-8.444c-1.087-2.955-2.24-5.723-3.237-8.258s-1.852-4.834-2.481-6.794-1.051-3.573-1.317-4.694c-.134-.56-.218-1-.289-1.295l-.079-.336A.388.388,0,0,0,123.53,338.466Z" transform="translate(-122.543 -332.825)" fill="#263238"/>
                  </g>
                </g>
              </g>
            </g>
            <g id="Grupo_85273" data-name="Grupo 85273" transform="translate(31.016)">
              <g id="Grupo_85260" data-name="Grupo 85260" transform="translate(0.009)">
                <g id="Grupo_85259" data-name="Grupo 85259">
                  <g id="Grupo_85258" data-name="Grupo 85258">
                    <path id="Trazado_147510" data-name="Trazado 147510" d="M108.3,327.293a1.727,1.727,0,0,1,2.844,1.761,49.305,49.305,0,0,1-2.521,6.482c-2.758,5.861-10.859,26.89-14.652,38.439s-9.135,33.095-9.135,33.095l-8.1-1.314s7.409-35.4,14.648-48.157C97.208,347.351,103.024,332.54,108.3,327.293Z" transform="translate(-76.743 -326.794)" fill="#00cca7"/>
                  </g>
                </g>
              </g>
              <g id="Grupo_85264" data-name="Grupo 85264" transform="translate(8.1 54.403)">
                <g id="Grupo_85263" data-name="Grupo 85263">
                  <g id="Grupo_85262" data-name="Grupo 85262">
                    <g id="Grupo_85261" data-name="Grupo 85261">
                      <path id="Trazado_147511" data-name="Trazado 147511" d="M106.341,390.158a4.977,4.977,0,0,0-.417.971c-.24.635-.566,1.562-.934,2.718-.745,2.31-1.658,5.537-2.577,9.122s-1.681,6.848-2.213,9.213c-.243,1.12-.447,2.059-.61,2.806a4.983,4.983,0,0,0-.167,1.043,5.058,5.058,0,0,0,.33-1l.742-2.774c.619-2.435,1.433-5.637,2.334-9.177.919-3.581,1.783-6.813,2.453-9.14.32-1.1.588-2.021.8-2.754A5.042,5.042,0,0,0,106.341,390.158Z" transform="translate(-99.415 -390.158)" fill="#263238"/>
                    </g>
                  </g>
                </g>
              </g>
              <g id="Grupo_85268" data-name="Grupo 85268" transform="translate(4.034 0.363)">
                <g id="Grupo_85267" data-name="Grupo 85267">
                  <g id="Grupo_85266" data-name="Grupo 85266">
                    <g id="Grupo_85265" data-name="Grupo 85265">
                      <path id="Trazado_147512" data-name="Trazado 147512" d="M77.836,406.472a.889.889,0,0,0,.046-.215c.024-.168.055-.378.092-.638.085-.56.161-1.391.331-2.452.3-2.128.829-5.193,1.7-8.932A127.815,127.815,0,0,1,83.794,381.3c1.66-4.8,3.744-9.982,6.1-15.346,4.764-10.718,9.523-20.223,12.651-27.252,1.581-3.506,2.8-6.369,3.61-8.363.411-.993.7-1.776.91-2.3l.225-.6a.923.923,0,0,0,.064-.211.815.815,0,0,0-.1.195l-.264.588-.984,2.271c-.853,1.973-2.118,4.814-3.732,8.3-3.2,6.991-8,16.472-12.767,27.2-2.365,5.373-4.441,10.573-6.086,15.391a121.473,121.473,0,0,0-3.712,13,90.386,90.386,0,0,0-1.568,8.977c-.146,1.066-.195,1.9-.252,2.466l-.05.642A.805.805,0,0,0,77.836,406.472Z" transform="translate(-77.831 -327.217)" fill="#263238"/>
                    </g>
                  </g>
                </g>
              </g>
              <g id="Grupo_85272" data-name="Grupo 85272" transform="translate(0 44.936)">
                <g id="Grupo_85271" data-name="Grupo 85271">
                  <g id="Grupo_85270" data-name="Grupo 85270">
                    <g id="Grupo_85269" data-name="Grupo 85269">
                      <path id="Trazado_147513" data-name="Trazado 147513" d="M106.591,413.158a8.585,8.585,0,0,0,.273-1.361c.161-.951.373-2.206.63-3.723.559-3.137,1.411-7.458,2.635-12.162s2.579-8.9,3.631-11.9l1.266-3.557a8.577,8.577,0,0,0,.43-1.319,8.566,8.566,0,0,0-.586,1.258c-.349.822-.837,2.019-1.4,3.515a117.754,117.754,0,0,0-3.761,11.9,124.082,124.082,0,0,0-2.519,12.221c-.23,1.58-.407,2.86-.5,3.749A8.555,8.555,0,0,0,106.591,413.158Z" transform="translate(-106.581 -379.132)" fill="#263238"/>
                    </g>
                  </g>
                </g>
              </g>
            </g>
          </g>
          <g id="Grupo_85284" data-name="Grupo 85284" transform="translate(14.405 77.798)">
            <g id="Grupo_85277" data-name="Grupo 85277" transform="translate(0)">
              <g id="Grupo_85276" data-name="Grupo 85276">
                <g id="Grupo_85275" data-name="Grupo 85275">
                  <rect id="Rectángulo_31831" data-name="Rectángulo 31831" width="31.608" height="38.511" fill="#31024e"/>
                </g>
              </g>
            </g>
            <g id="Grupo_85280" data-name="Grupo 85280" transform="translate(0)" opacity="0.3">
              <g id="Grupo_85279" data-name="Grupo 85279">
                <g id="Grupo_85278" data-name="Grupo 85278">
                  <rect id="Rectángulo_31832" data-name="Rectángulo 31832" width="31.608" height="38.511" fill="#31024e"/>
                </g>
              </g>
            </g>
            <g id="Grupo_85283" data-name="Grupo 85283" transform="translate(10.083)">
              <g id="Grupo_85282" data-name="Grupo 85282">
                <g id="Grupo_85281" data-name="Grupo 85281">
                  <rect id="Rectángulo_31833" data-name="Rectángulo 31833" width="28.043" height="38.511" fill="#31024e"/>
                </g>
              </g>
            </g>
          </g>
        </g>
      </g>
    </g>
  </g>
</svg>
