<svg xmlns="http://www.w3.org/2000/svg" xmlns:xlink="http://www.w3.org/1999/xlink" width="86.982" height="91.517" viewBox="0 0 86.982 91.517">
  <defs>
    <clipPath id="clip-path">
      <rect id="Rectángulo_335785" data-name="Rectángulo 335785" width="68.639" height="46.524" fill="none"/>
    </clipPath>
    <clipPath id="clip-path-2">
      <rect id="Rectángulo_335784" data-name="Rectángulo 335784" width="68.639" height="46.525" fill="none"/>
    </clipPath>
    <clipPath id="clip-path-3">
      <rect id="Rectángulo_335782" data-name="Rectángulo 335782" width="35.075" height="19.947" fill="none"/>
    </clipPath>
  </defs>
  <g id="Grupo_901299" data-name="Grupo 901299" transform="translate(11514.847 12205.771)">
    <g id="Grupo_85951" data-name="Grupo 85951" transform="translate(-11514.847 -12205.771)">
      <g id="Grupo_85950" data-name="Grupo 85950">
        <g id="Grupo_85946" data-name="Grupo 85946" transform="translate(0.13 0.177)">
          <g id="Grupo_85945" data-name="Grupo 85945">
            <path id="Trazado_147626" data-name="Trazado 147626" d="M377.275,135.706l14.437-7.317a43.388,43.388,0,1,0-13.409-7.862l-.022-.011Z" transform="translate(-363.211 -44.366)" fill="#00cca7"/>
          </g>
        </g>
        <g id="Grupo_85949" data-name="Grupo 85949">
          <g id="Grupo_85948" data-name="Grupo 85948">
            <g id="Grupo_85947" data-name="Grupo 85947">
              <path id="Trazado_147627" data-name="Trazado 147627" d="M377.26,135.686c.043-.726.323-5.443.9-15.2a.1.1,0,0,1,.109-.1.117.117,0,0,1,.04.011l.022.011-.112.171a43.763,43.763,0,0,1-6.693-7.175,42.7,42.7,0,0,1-5.743-10.573,43.328,43.328,0,0,1-1.878-6.536q-.269-1.742-.547-3.543a12.093,12.093,0,0,1-.173-1.827q-.047-.924-.1-1.863A43.632,43.632,0,0,1,389.5,47.591a44.415,44.415,0,0,1,19.567-3.352,38.2,38.2,0,0,1,5.124.588,19.72,19.72,0,0,1,2.541.55c.842.216,1.692.417,2.533.649a44.944,44.944,0,0,1,9.627,4.34,39.81,39.81,0,0,1,4.341,2.952,21.352,21.352,0,0,1,2,1.674c.643.584,1.311,1.137,1.927,1.742a44.2,44.2,0,0,1,12.684,26.609,43.634,43.634,0,0,1-23.275,42.89c-1.128.527-2.208,1.121-3.33,1.569l-3.35,1.23c-1.112.36-2.243.6-3.334.892a27.513,27.513,0,0,1-3.261.68,43.143,43.143,0,0,1-21.635-2.137l.084,0-14.485,7.222,14.389-7.412a.109.109,0,0,1,.085-.005,43.173,43.173,0,0,0,21.512,2.024,27.413,27.413,0,0,0,3.234-.688c1.083-.3,2.2-.535,3.306-.9l3.321-1.231c1.11-.447,2.18-1.04,3.3-1.565a42.984,42.984,0,0,0,16.708-60.908,43.915,43.915,0,0,0-6.279-7.94c-.61-.6-1.271-1.145-1.907-1.722a20.891,20.891,0,0,0-1.977-1.656,39.388,39.388,0,0,0-4.295-2.919,44.525,44.525,0,0,0-9.523-4.3c-.833-.23-1.673-.427-2.506-.642a19.306,19.306,0,0,0-2.514-.545,37.67,37.67,0,0,0-5.069-.584A44.011,44.011,0,0,0,389.679,48a43.2,43.2,0,0,0-26.232,41.05q.046.93.091,1.848a12.015,12.015,0,0,0,.166,1.813q.271,1.787.531,3.518a43.213,43.213,0,0,0,1.842,6.494,42.579,42.579,0,0,0,5.661,10.527,43.868,43.868,0,0,0,6.617,7.175.1.1,0,0,1,.012.145.107.107,0,0,1-.124.026l-.022-.011.148-.086C377.658,130.247,377.313,134.96,377.26,135.686Z" transform="translate(-363.066 -44.168)" fill="#00cca7"/>
            </g>
          </g>
        </g>
      </g>
    </g>
    <g id="Grupo_899403" data-name="Grupo 899403" transform="translate(-11505.676 -12186.984)" clip-path="url(#clip-path)">
      <g id="Grupo_899402" data-name="Grupo 899402" transform="translate(0 -0.001)">
        <g id="Grupo_899401" data-name="Grupo 899401" clip-path="url(#clip-path-2)">
          <path id="Trazado_627261" data-name="Trazado 627261" d="M40.349,0V19.949H10.641c-2.376-.02-4.425-2.374-5.368-5.767A15.876,15.876,0,0,1,4.72,9.973C4.72,4.476,7.373.02,10.641.02,10.641,0,40.349,0,40.349,0" transform="translate(8.729 0.001)" fill="#fcd43b"/>
          <path id="Trazado_627262" data-name="Trazado 627262" d="M26.985,9.962c0,5.5-2.65,9.953-5.918,9.953-2.376,0-4.425-2.354-5.368-5.747a15.87,15.87,0,0,1-.553-4.206c0-5.5,2.65-9.956,5.921-9.956s5.918,4.456,5.918,9.956" transform="translate(28.011 0.012)" fill="#343d4f"/>
          <path id="Trazado_627263" data-name="Trazado 627263" d="M20,17.2c-2.02,0-4.274-3.411-4.274-8.306S17.978.584,20,.584,24.269,4,24.269,8.893,22.018,17.2,20,17.2" transform="translate(29.08 1.081)" fill="#566684"/>
          <g id="Grupo_899397" data-name="Grupo 899397" transform="translate(14.002 0.001)" opacity="0.5">
            <g id="Grupo_899396" data-name="Grupo 899396" transform="translate(0 0)">
              <g id="Grupo_899395" data-name="Grupo 899395" clip-path="url(#clip-path-3)">
                <path id="Trazado_627264" data-name="Trazado 627264" d="M34.622,14.181H27.655A15.758,15.758,0,0,1,27.1,9.973c0-5.5,2.65-9.953,5.921-9.953C33.02,0,29.442,0,29.442,0c-3.271.02-5.921,4.476-5.921,9.973a15.876,15.876,0,0,0,.553,4.209H16.018a15.874,15.874,0,0,1-.556-4.209c0-5.5,2.653-9.953,5.921-9.953,0-.02-3.576-.02-3.576-.02-3.271.02-5.924,4.476-5.924,9.973a15.758,15.758,0,0,0,.556,4.209H4.914c.943,3.394,2.992,5.747,5.368,5.747,0,.02,29.708.02,29.708.02-2.376-.02-4.425-2.374-5.368-5.767" transform="translate(-4.914 0)" fill="#404c63"/>
              </g>
            </g>
          </g>
          <path id="Trazado_627265" data-name="Trazado 627265" d="M10.65,9.973c0,5.5,2.653,9.956,5.921,9.956,0,.02-3.582.02-3.582.02-3.268-.02-5.918-4.476-5.918-9.976S9.721.02,12.989.02c0-.02,3.582-.02,3.582-.02C13.3.02,10.65,4.476,10.65,9.973" transform="translate(13.077 0.001)" fill="#343d4f"/>
          <path id="Trazado_627266" data-name="Trazado 627266" d="M14.733,9.973c0,5.5,2.653,9.956,5.921,9.956,0,.02-3.582.02-3.582.02-3.265-.02-5.918-4.476-5.918-9.976S13.807.02,17.072.02c0-.02,3.582-.02,3.582-.02-3.268.02-5.921,4.476-5.921,9.973" transform="translate(20.628 0.001)" fill="#343d4f"/>
          <path id="Trazado_627269" data-name="Trazado 627269" d="M40.349,9.327V29.276H10.641c-2.376-.02-4.425-2.374-5.368-5.767A15.876,15.876,0,0,1,4.72,19.3c0-5.5,2.653-9.953,5.921-9.953,0-.02,29.708-.02,29.708-.02" transform="translate(8.729 17.25)" fill="#566684"/>
          <path id="Trazado_627270" data-name="Trazado 627270" d="M26.985,19.29c0,5.5-2.65,9.953-5.918,9.953-2.376,0-4.425-2.354-5.368-5.747a15.854,15.854,0,0,1-.553-4.206c0-5.5,2.65-9.956,5.921-9.956s5.918,4.459,5.918,9.956" transform="translate(28.011 17.263)" fill="#343d4f"/>
          <path id="Trazado_627271" data-name="Trazado 627271" d="M20,26.527c-2.02,0-4.274-3.411-4.274-8.306S17.978,9.912,20,9.912s4.271,3.414,4.271,8.309S22.018,26.527,20,26.527" transform="translate(29.08 18.332)" fill="#566684"/>
          <g id="Grupo_899400" data-name="Grupo 899400" transform="translate(14.002 26.578)" opacity="0.5">
            <g id="Grupo_899399" data-name="Grupo 899399">
              <g id="Grupo_899398" data-name="Grupo 899398" clip-path="url(#clip-path-3)">
                <path id="Trazado_627272" data-name="Trazado 627272" d="M34.622,23.508H27.655A15.742,15.742,0,0,1,27.1,19.3c0-5.5,2.65-9.953,5.921-9.953,0-.02-3.579-.02-3.579-.02-3.271.02-5.921,4.476-5.921,9.973a15.86,15.86,0,0,0,.553,4.209H16.018a15.858,15.858,0,0,1-.556-4.209c0-5.5,2.653-9.953,5.921-9.953,0-.02-3.576-.02-3.576-.02-3.271.02-5.924,4.476-5.924,9.973a15.742,15.742,0,0,0,.556,4.209H4.914c.943,3.4,2.992,5.747,5.368,5.747,0,.02,29.708.02,29.708.02-2.376-.02-4.425-2.374-5.368-5.767" transform="translate(-4.914 -9.328)" fill="#404c63"/>
              </g>
            </g>
          </g>
          <path id="Trazado_627273" data-name="Trazado 627273" d="M10.65,19.3c0,5.5,2.653,9.956,5.921,9.956,0,.02-3.582.02-3.582.02C9.721,29.256,7.071,24.8,7.071,19.3s2.65-9.953,5.918-9.953c0-.02,3.582-.02,3.582-.02C13.3,9.347,10.65,13.8,10.65,19.3" transform="translate(13.077 17.25)" fill="#343d4f"/>
          <path id="Trazado_627274" data-name="Trazado 627274" d="M14.733,19.3c0,5.5,2.653,9.956,5.921,9.956,0,.02-3.582.02-3.582.02-3.265-.02-5.918-4.476-5.918-9.976s2.653-9.953,5.918-9.953c0-.02,3.582-.02,3.582-.02-3.268.02-5.921,4.476-5.921,9.973" transform="translate(20.628 17.25)" fill="#343d4f"/>
          <g id="Grupo_901298" data-name="Grupo 901298">
            <path id="Trazado_627260" data-name="Trazado 627260" d="M18.587,4.94H.977a.977.977,0,0,1,0-1.955H18.587a.977.977,0,0,1,0,1.955" transform="translate(0 5.521)" fill="#fff"/>
            <path id="Trazado_627267" data-name="Trazado 627267" d="M35.808,4.94H18.2a.977.977,0,0,1,0-1.955H35.808a.977.977,0,0,1,0,1.955" transform="translate(31.854 5.521)" fill="#fff"/>
            <path id="Trazado_627268" data-name="Trazado 627268" d="M18.587,14.268H.977a.977.977,0,1,1,0-1.955H18.587a.977.977,0,0,1,0,1.955" transform="translate(0 22.772)" fill="#fff"/>
            <path id="Trazado_627275" data-name="Trazado 627275" d="M35.808,14.268H18.2a.977.977,0,0,1,0-1.955H35.808a.977.977,0,1,1,0,1.955" transform="translate(31.854 22.772)" fill="#fff"/>
          </g>
        </g>
      </g>
    </g>
  </g>
</svg>
