<svg xmlns="http://www.w3.org/2000/svg" xmlns:xlink="http://www.w3.org/1999/xlink" width="166.031" height="138.685" viewBox="0 0 166.031 138.685">
  <defs>
    <clipPath id="clip-path">
      <rect id="Rectángulo_337096" data-name="Rectángulo 337096" width="133.908" height="100.437" fill="none"/>
    </clipPath>
  </defs>
  <g id="Grupo_902422" data-name="Grupo 902422" transform="translate(2780 9813)">
    <path id="Trazado_630196" data-name="Trazado 630196" d="M15.626,0H150.4a15.626,15.626,0,0,1,15.626,15.626V123.058A15.626,15.626,0,0,1,150.4,138.685H15.626A15.626,15.626,0,0,1,0,123.058V15.626A15.626,15.626,0,0,1,15.626,0Z" transform="translate(-2780 -9813)" fill="#ffd947"/>
    <g id="Grupo_902412" data-name="Grupo 902412" transform="translate(-2764.374 -9793.467)">
      <g id="Grupo_902412-2" data-name="Grupo 902412" transform="translate(0 0)" clip-path="url(#clip-path)">
        <path id="Trazado_632603" data-name="Trazado 632603" d="M133.685,41.41a16.666,16.666,0,0,0-12.626-13.747c-3.228-.79-6.5-.389-9.759-.446a2.273,2.273,0,0,1-1.954-.954,50.177,50.177,0,0,0-18-14.158,10.518,10.518,0,0,1-3-2,40.1,40.1,0,0,0-7.977-6.077C73.76.18,66.831-1.31,59.378,1.333a39.23,39.23,0,0,0-14.24,9.2,5.341,5.341,0,0,1-1.56,1.145A50.145,50.145,0,0,0,24.453,26.439a1.827,1.827,0,0,1-1.647.765q-3.2-.057-6.4-.006A16.758,16.758,0,0,0,.048,43.586C0,48.333-.035,53.083.059,57.831A16.267,16.267,0,0,0,6.39,70.607c3.683,3,7.981,3.9,12.6,3.632a1.537,1.537,0,0,1,1.634.908A45.572,45.572,0,0,0,33.751,89.664C47.717,99.657,63.2,102.6,79.862,98.9c13.535-3.005,24.523-10.125,32.2-21.818,1.409-2.145,2.709-2.953,5.281-2.911a16.477,16.477,0,0,0,16.1-12.764c.105-.426,0-.968.466-1.275v-18.3c-.195-.079-.2-.251-.223-.422M6.336,64.467a12.173,12.173,0,0,1-2.1-6.751c-.027-4.66-.059-9.321,0-13.98A12.533,12.533,0,0,1,16.559,31.38c1.392-.028,2.785,0,4.334,0-7.1,12.5-8.152,25.276-2.964,38.516-3.934.831-9.025-1.553-11.592-5.425m105.334,4.854c-.2.46-.384.781-1.009.767-2.131-.048-4.263-.018-6.458-.018a16.49,16.49,0,0,0,.443-1.832,1.917,1.917,0,0,0-1.514-2.266,1.845,1.845,0,0,0-2.414,1.244,25.573,25.573,0,0,1-4.137,8.072,1.875,1.875,0,0,0,.41,2.691,1.964,1.964,0,0,0,2.816-.177c.759-.887,1.368-1.9,2.045-2.861.215-.3.32-.7.839-.7,2.027.021,4.056.008,6.435.008C99.4,88.284,86.06,95.374,69.561,96.083c-18.534.8-33.624-6.184-44.812-21.82,2.48,0,4.581-.007,6.679.006.435,0,.492.443.685.711.631.885,1.2,1.822,1.879,2.663a2.044,2.044,0,0,0,2.9.4,2,2,0,0,0,.379-2.9,23.592,23.592,0,0,1-3.963-7.722,2.024,2.024,0,0,0-2.541-1.455,2.1,2.1,0,0,0-1.439,2.572c.091.466.26.915.441,1.533-2.269,0-4.463-.021-6.655.014-.537.008-.657-.332-.8-.678-5.567-13.047-4.383-25.513,3.224-37.428a1.2,1.2,0,0,1,1.164-.617c2.395.029,4.791.013,7.186.013.175.393-.191.54-.332.77a2.113,2.113,0,0,0,.415,3.008,2.015,2.015,0,0,0,2.894-.469c1.8-2.183,3.548-4.409,5.316-6.62.462-.578.955-1.136,1.365-1.749A2,2,0,0,0,43.2,23.5a2.045,2.045,0,0,0-2.919.254,2.276,2.276,0,0,0-.414.5c-1.32,2.566-3.416,3.37-6.206,2.963a32,32,0,0,0-4.366-.034A44.829,44.829,0,0,1,37.482,19.9a43.382,43.382,0,0,1,8.065-4.5,6.837,6.837,0,0,0,2.222-1.554A36.7,36.7,0,0,1,59.391,5.8C65.944,2.99,72.135,4.064,78.1,7.562A37.75,37.75,0,0,1,86.027,13.7a8.427,8.427,0,0,0,2.666,1.81,47.081,47.081,0,0,1,15.981,11.679c-2.781,0-5.365,0-7.949,0-.432,0-.565-.352-.776-.612-.744-.91-1.451-1.853-2.222-2.737a2.023,2.023,0,0,0-2.9-.4,2,2,0,0,0-.327,3c2.088,2.678,4.219,5.323,6.348,7.967,1,1.247,2.128,1.487,3.152.728,1.009-.748,1.086-1.916.212-3.221-.088-.13-.171-.265-.349-.54,2.625,0,5.09.02,7.552-.014a1.083,1.083,0,0,1,1.014.65c7.56,11.874,8.772,24.3,3.244,37.312m18.036-11.577A12.526,12.526,0,0,1,115.98,69.993c5.227-13.28,4.185-26.1-2.88-38.528,4.732-.39,9.186-.094,12.778,3.443a12.159,12.159,0,0,1,3.823,8.726c.069,4.7.08,9.408,0,14.111" transform="translate(0 0)"/>
        <path id="Trazado_632604" data-name="Trazado 632604" d="M102,30.153c-2.464.034-4.928.015-7.553.015.178.275.262.408.349.54.874,1.3.8,2.473-.21,3.22-1.026.76-2.149.519-3.152-.727-2.13-2.644-4.261-5.289-6.348-7.969a2,2,0,0,1,.327-3,2.022,2.022,0,0,1,2.9.4c.773.884,1.48,1.825,2.222,2.737.21.26.344.612.777.61,2.584-.006,5.167,0,7.949,0A47.1,47.1,0,0,0,83.279,14.3a8.483,8.483,0,0,1-2.664-1.81,37.822,37.822,0,0,0-7.929-6.134c-5.964-3.5-12.155-4.572-18.708-1.768a36.733,36.733,0,0,0-11.62,8.046,6.839,6.839,0,0,1-2.224,1.553,43.452,43.452,0,0,0-8.064,4.5,44.8,44.8,0,0,0-8.19,7.292,31.8,31.8,0,0,1,4.367.034c2.789.407,4.886-.4,6.206-2.963a2.231,2.231,0,0,1,.412-.5,2.047,2.047,0,0,1,2.921-.254,2,2,0,0,1,.345,2.81c-.41.613-.9,1.171-1.366,1.749-1.766,2.21-3.514,4.436-5.314,6.62a2.015,2.015,0,0,1-2.894.469,2.112,2.112,0,0,1-.415-3.008c.142-.23.508-.377.332-.77-2.395,0-4.791.017-7.187-.014a1.2,1.2,0,0,0-1.163.617C12.516,42.688,11.333,55.154,16.9,68.2c.147.345.268.686.805.678,2.193-.035,4.387-.015,6.655-.015-.181-.617-.349-1.068-.441-1.532a2.1,2.1,0,0,1,1.439-2.572A2.021,2.021,0,0,1,27.9,66.215a23.609,23.609,0,0,0,3.965,7.722,2,2,0,0,1-.38,2.9,2.041,2.041,0,0,1-2.9-.4c-.683-.84-1.247-1.777-1.879-2.661-.192-.268-.251-.71-.685-.713-2.1-.013-4.2-.006-6.679-.006,11.188,15.635,26.278,22.618,44.81,21.821,16.5-.708,29.834-7.8,39.566-21.828-2.379,0-4.408.013-6.437-.008-.519-.006-.623.39-.839.7-.678.957-1.285,1.974-2.045,2.861a1.965,1.965,0,0,1-2.816.177,1.877,1.877,0,0,1-.41-2.691A25.536,25.536,0,0,0,95.3,66.01a1.848,1.848,0,0,1,2.414-1.244,1.922,1.922,0,0,1,1.515,2.267,16.2,16.2,0,0,1-.445,1.832c2.194,0,4.327-.031,6.458.018.626.014.814-.307,1.01-.767,5.529-13.013,4.317-25.438-3.244-37.313a1.091,1.091,0,0,0-1.014-.65M43.937,28.262q4.705-2.933,9.4-5.882,2.323-1.454,4.649-2.9a6.31,6.31,0,0,1,7.135-.015c4.653,2.891,9.291,5.805,13.941,8.7a2.35,2.35,0,0,1,1.316,1.792,2.1,2.1,0,0,1-3.154,1.984c-1.215-.672-2.364-1.465-3.545-2.2-3.465-2.166-6.951-4.3-10.387-6.514a2.834,2.834,0,0,0-3.468.018c-4.428,2.841-8.913,5.592-13.375,8.378a2.476,2.476,0,0,1-2.074.544A2.065,2.065,0,0,1,42.8,30.43a2.086,2.086,0,0,1,1.136-2.169M77.586,77.909a39.2,39.2,0,0,1-16.46,3.513,38.75,38.75,0,0,1-15.516-3.485c-1.411-.637-1.947-1.723-1.453-2.894s1.678-1.568,3.084-.95a34.094,34.094,0,0,0,28.687-.015,2.083,2.083,0,0,1,3,.892c.543,1.155.035,2.313-1.343,2.939M82.5,60.465a35.21,35.21,0,0,1-8.368,4.186,36.993,36.993,0,0,1-20.828,1.125,1.638,1.638,0,0,0-2.106.755,5.268,5.268,0,0,1-4.581,2.327c-2.4.021-4.8-.081-7.187.028a6.056,6.056,0,0,1-5.853-3.392,18.2,18.2,0,0,1-2.225-7.706A23.007,23.007,0,0,1,33.005,46.16c1.345-3.026,3.45-4.8,6.994-4.516a37.775,37.775,0,0,0,5.746,0,6.058,6.058,0,0,1,6.343,3.844,2.773,2.773,0,0,0,2.239,1.647,34.194,34.194,0,0,0,22.6-2.872c.156-.076.309-.161.466-.231a2.08,2.08,0,0,1,2.994.891,2.035,2.035,0,0,1-1.107,2.813A37.212,37.212,0,0,1,67.72,51.61a37.957,37.957,0,0,1-13.636-.269,6.7,6.7,0,0,0,.129,2.365,24.825,24.825,0,0,1-.55,6.88c-.194.814.028,1.045.76,1.2a33.625,33.625,0,0,0,24.513-4.014c.45-.262.875-.57,1.333-.821a2.067,2.067,0,0,1,2.882.56,2.04,2.04,0,0,1-.65,2.957" transform="translate(5.412 1.205)" fill="#eff4fe"/>
        <path id="Trazado_632605" data-name="Trazado 632605" d="M75.159,45.856c-.456.251-.881.558-1.331.822A33.628,33.628,0,0,1,49.313,50.69c-.731-.15-.954-.383-.759-1.2a24.932,24.932,0,0,0,.55-6.88,6.7,6.7,0,0,1-.13-2.365,37.934,37.934,0,0,0,13.638.269,37.216,37.216,0,0,0,11.56-3.872,2.033,2.033,0,0,0,1.107-2.813,2.079,2.079,0,0,0-2.992-.891c-.159.07-.311.156-.466.233a34.2,34.2,0,0,1-22.6,2.87A2.766,2.766,0,0,1,46.979,34.4a6.059,6.059,0,0,0-6.343-3.844,37.975,37.975,0,0,1-5.748,0c-3.542-.286-5.648,1.488-6.992,4.516A22.988,22.988,0,0,0,26.244,46.7a18.21,18.21,0,0,0,2.225,7.7,6.057,6.057,0,0,0,5.854,3.392c2.391-.109,4.791-.007,7.187-.028a5.265,5.265,0,0,0,4.579-2.327,1.639,1.639,0,0,1,2.106-.755,36.993,36.993,0,0,0,20.828-1.125,35.211,35.211,0,0,0,8.368-4.186,2.041,2.041,0,0,0,.651-2.957,2.07,2.07,0,0,0-2.883-.56m-39.994,5.7a7.694,7.694,0,0,1-.426.8c-.946,1.546-1.7,1.577-2.583.006-1.845-3.276-2.055-6.853-1.737-10.491a13.452,13.452,0,0,1,1.758-5.936c.918-1.505,1.6-1.517,2.513,0a16.017,16.017,0,0,1,1.9,7.97,18.386,18.386,0,0,1-1.428,7.653m8.868-1.264c-1,3.158-1.661,3.533-5.091,3.21a24.373,24.373,0,0,0-.006-18.678c3.587-.231,4.214.153,5.192,3.507a20.15,20.15,0,0,1-.1,11.961" transform="translate(10.522 12.298)"/>
        <path id="Trazado_632606" data-name="Trazado 632606" d="M35.945,27.755a2.485,2.485,0,0,0,2.075-.544c4.463-2.786,8.946-5.537,13.374-8.38a2.834,2.834,0,0,1,3.468-.017c3.436,2.214,6.922,4.348,10.389,6.512,1.18.738,2.329,1.531,3.545,2.2a2.1,2.1,0,0,0,3.154-1.985,2.354,2.354,0,0,0-1.316-1.79c-4.649-2.9-9.289-5.811-13.942-8.7a6.308,6.308,0,0,0-7.135.015q-2.325,1.444-4.648,2.9-4.7,2.942-9.4,5.884a2.1,2.1,0,0,0,.435,3.909" transform="translate(13.839 5.622)"/>
        <path id="Trazado_632607" data-name="Trazado 632607" d="M67.154,53.745a34.091,34.091,0,0,1-28.685.015c-1.406-.619-2.593-.222-3.085.95s.043,2.256,1.455,2.894a38.744,38.744,0,0,0,15.516,3.485,39.191,39.191,0,0,0,16.459-3.513c1.379-.626,1.886-1.785,1.343-2.941a2.083,2.083,0,0,0-3-.891" transform="translate(14.184 21.54)"/>
        <path id="Trazado_632608" data-name="Trazado 632608" d="M30.976,34.708a13.437,13.437,0,0,0-1.756,5.936c-.32,3.638-.109,7.215,1.735,10.491.885,1.571,1.637,1.542,2.584,0a7.849,7.849,0,0,0,.425-.8,18.339,18.339,0,0,0,1.428-7.651,16.019,16.019,0,0,0-1.9-7.971c-.912-1.512-1.6-1.5-2.513,0" transform="translate(11.723 13.527)" fill="#fecd4a"/>
        <path id="Trazado_632609" data-name="Trazado 632609" d="M35.254,33.6a24.373,24.373,0,0,1,.006,18.678c3.432.323,4.088-.051,5.091-3.21a20.15,20.15,0,0,0,.1-11.961c-.978-3.354-1.6-3.739-5.192-3.507" transform="translate(14.204 13.517)" fill="#fee37c"/>
      </g>
    </g>
  </g>
</svg>
