<svg xmlns="http://www.w3.org/2000/svg" xmlns:xlink="http://www.w3.org/1999/xlink" width="54.239" height="82.459" viewBox="0 0 54.239 82.459">
  <defs>
    <clipPath id="clip-path">
      <rect id="Rectángulo_335758" data-name="Rectángulo 335758" width="1.612" height="1.346" fill="none"/>
    </clipPath>
    <clipPath id="clip-path-2">
      <rect id="Rectángulo_335759" data-name="Rectángulo 335759" width="1.612" height="1.09" fill="none"/>
    </clipPath>
    <clipPath id="clip-path-3">
      <rect id="Rectángulo_335760" data-name="Rectángulo 335760" width="1.613" height="1.347" fill="none"/>
    </clipPath>
    <clipPath id="clip-path-4">
      <rect id="Rectángulo_335761" data-name="Rectángulo 335761" width="7.883" height="23.507" fill="#078d74"/>
    </clipPath>
    <clipPath id="clip-path-5">
      <rect id="Rectángulo_335762" data-name="Rectángulo 335762" width="7.883" height="11.858" fill="#078d74"/>
    </clipPath>
    <clipPath id="clip-path-6">
      <rect id="Rectángulo_335763" data-name="Rectángulo 335763" width="4.44" height="7.322" fill="none"/>
    </clipPath>
    <clipPath id="clip-path-7">
      <rect id="Rectángulo_335767" data-name="Rectángulo 335767" width="1.916" height="1.345" fill="none"/>
    </clipPath>
    <clipPath id="clip-path-8">
      <rect id="Rectángulo_335768" data-name="Rectángulo 335768" width="1.917" height="1.04" fill="none"/>
    </clipPath>
    <clipPath id="clip-path-10">
      <rect id="Rectángulo_335773" data-name="Rectángulo 335773" width="8.496" height="19.646" fill="none"/>
    </clipPath>
    <clipPath id="clip-path-11">
      <rect id="Rectángulo_335774" data-name="Rectángulo 335774" width="8.496" height="10.954" fill="none"/>
    </clipPath>
    <clipPath id="clip-path-12">
      <rect id="Rectángulo_335775" data-name="Rectángulo 335775" width="8.496" height="10.223" fill="none"/>
    </clipPath>
    <clipPath id="clip-path-13">
      <rect id="Rectángulo_335776" data-name="Rectángulo 335776" width="8.496" height="14.034" fill="none"/>
    </clipPath>
    <clipPath id="clip-path-14">
      <rect id="Rectángulo_335777" data-name="Rectángulo 335777" width="6.179" height="8.815" fill="none"/>
    </clipPath>
    <clipPath id="clip-path-15">
      <rect id="Rectángulo_335778" data-name="Rectángulo 335778" width="7.225" height="5.031" fill="none"/>
    </clipPath>
    <clipPath id="clip-path-16">
      <rect id="Rectángulo_335779" data-name="Rectángulo 335779" width="7.225" height="5.032" fill="none"/>
    </clipPath>
  </defs>
  <g id="Grupo_901947" data-name="Grupo 901947" transform="translate(-11 23.632)">
    <g id="Grupo_902365" data-name="Grupo 902365" transform="translate(11 -23.632)">
      <g id="Grupo_899393" data-name="Grupo 899393" transform="translate(0)">
        <g id="Grupo_902364" data-name="Grupo 902364" transform="translate(0)">
          <path id="Trazado_627203" data-name="Trazado 627203" d="M35.349,25.171V47.114a.806.806,0,0,0,1.612,0V25.171Z" transform="translate(-17.011 22.508)" fill="#9aa3b5"/>
          <path id="Trazado_627204" data-name="Trazado 627204" d="M43.282,25.171V47.114a.807.807,0,0,0,1.614,0V25.171Z" transform="translate(-39.973 22.508)" fill="#9aa3b5"/>
          <path id="Trazado_627205" data-name="Trazado 627205" d="M39.29,22.241V44.184a.806.806,0,1,0,1.612,0V22.241Z" transform="translate(-28.417 19.888)" fill="#9aa3b5"/>
          <path id="Trazado_627206" data-name="Trazado 627206" d="M33.6,23.631c0-1.218,5.207-2.2,11.631-2.2s11.627.987,11.627,2.2-5.205,2.207-11.627,2.207S33.6,24.851,33.6,23.631" transform="translate(-33.603 19.16)" fill="#098972"/>
          <path id="Trazado_627207" data-name="Trazado 627207" d="M34.066,17.723v9.03c0,.678,1.75,1.28,4.442,1.65a47.12,47.12,0,0,0,6.31.388c5.937,0,10.75-.913,10.75-2.038v-9.03c0,1.127-4.813,2.038-10.75,2.038a47.437,47.437,0,0,1-6.31-.388c-2.692-.369-4.442-.972-4.442-1.65" transform="translate(-33.187 15.848)" fill="#00cca7"/>
          <path id="Trazado_627208" data-name="Trazado 627208" d="M33.6,22.59v9.768c0,.97,3.3,1.794,7.884,2.089.947.061,1.949.1,2.989.112.25,0,.5.006.758.006.286,0,.572,0,.854-.006a50.162,50.162,0,0,0,5.853-.4c.578-.078,1.118-.165,1.612-.261,2.048-.4,3.309-.94,3.309-1.54V22.59c0,1.218-5.207,2.207-11.629,2.207-1.313,0-2.572-.042-3.747-.119C36.9,24.384,33.6,23.56,33.6,22.59" transform="translate(-33.602 20.2)" fill="#7de5d2"/>
          <g id="Grupo_899328" data-name="Grupo 899328" transform="translate(18.338 54.1)" opacity="0.5">
            <g id="Grupo_899327" data-name="Grupo 899327" transform="translate(0)">
              <g id="Grupo_899326" data-name="Grupo 899326" clip-path="url(#clip-path)">
                <path id="Trazado_627209" data-name="Trazado 627209" d="M35.349,28.822v1.083c.578-.076,1.118-.163,1.612-.26V28.561c-.493.1-1.034.184-1.612.261" transform="translate(-35.349 -28.56)" fill="#566684"/>
              </g>
            </g>
          </g>
          <g id="Grupo_899331" data-name="Grupo 899331" transform="translate(10.873 54.76)" opacity="0.5">
            <g id="Grupo_899330" data-name="Grupo 899330" transform="translate(0)">
              <g id="Grupo_899329" data-name="Grupo 899329" clip-path="url(#clip-path-2)">
                <path id="Trazado_627210" data-name="Trazado 627210" d="M39.29,28.91V30c.25,0,.5,0,.758,0,.286,0,.572,0,.854-.006V28.91c-.282,0-.568.006-.854.006-.256,0-.508,0-.758-.006" transform="translate(-39.29 -28.908)" fill="#566684"/>
              </g>
            </g>
          </g>
          <g id="Grupo_899334" data-name="Grupo 899334" transform="translate(3.309 54.101)" opacity="0.5">
            <g id="Grupo_899333" data-name="Grupo 899333" transform="translate(0)">
              <g id="Grupo_899332" data-name="Grupo 899332" clip-path="url(#clip-path-3)">
                <path id="Trazado_627211" data-name="Trazado 627211" d="M43.282,28.561v1.085q.742.142,1.614.261V28.822q-.872-.116-1.614-.261" transform="translate(-43.281 -28.561)" fill="#566684"/>
              </g>
            </g>
          </g>
          <path id="Trazado_627212" data-name="Trazado 627212" d="M33.6,7.744v21.42c0,.968,3.3,1.792,7.884,2.087,1.174.076,2.434.117,3.747.117,6.421,0,11.629-.987,11.629-2.2V7.744Z" transform="translate(-33.602 6.925)" fill="#7de5d2"/>
          <path id="Trazado_627213" data-name="Trazado 627213" d="M33.6,8.785c0,.972,3.3,1.794,7.884,2.089,1.174.078,2.434.117,3.747.117,6.421,0,11.629-.987,11.629-2.2S51.654,6.58,45.233,6.58s-11.627.987-11.631,2.2" transform="translate(-33.602 5.884)" fill="#7de5d2"/>
          <path id="Trazado_627214" data-name="Trazado 627214" d="M34.066,8.433a3.9,3.9,0,0,0,.839.373,15.367,15.367,0,0,0,2.345.547,48.054,48.054,0,0,0,7.567.54,47.994,47.994,0,0,0,7.566-.54,15.253,15.253,0,0,0,2.345-.547,3.812,3.812,0,0,0,.839-.373,9.145,9.145,0,0,0-3.184-.919,47.994,47.994,0,0,0-7.566-.54,48.054,48.054,0,0,0-7.567.54,9.162,9.162,0,0,0-3.184.919" transform="translate(-33.187 6.236)" fill="#098972"/>
          <path id="Trazado_627215" data-name="Trazado 627215" d="M34.509,8.454A15.367,15.367,0,0,0,36.854,9a48.02,48.02,0,0,0,7.567.54A48.011,48.011,0,0,0,51.987,9a15.367,15.367,0,0,0,2.345-.547,15.368,15.368,0,0,0-2.345-.547,48.011,48.011,0,0,0-7.566-.54,48.02,48.02,0,0,0-7.567.54,15.367,15.367,0,0,0-2.345.547" transform="translate(-32.791 6.588)" fill="#00cca7"/>
          <g id="Grupo_899337" data-name="Grupo 899337" transform="translate(0 14.669)" opacity="0.4">
            <g id="Grupo_899336" data-name="Grupo 899336">
              <g id="Grupo_899335" data-name="Grupo 899335" clip-path="url(#clip-path-4)">
                <path id="Trazado_627216" data-name="Trazado 627216" d="M41.719,7.744V29.162c0,.3.313.583.879.843a16.667,16.667,0,0,0,4.44,1.012c.794.1,1.654.176,2.565.235V9.833c-4.586-.3-7.884-1.119-7.884-2.089" transform="translate(-41.719 -7.744)" fill="#078d74"/>
              </g>
            </g>
          </g>
          <g id="Grupo_899340" data-name="Grupo 899340" transform="translate(0 42.791)" opacity="0.4">
            <g id="Grupo_899339" data-name="Grupo 899339">
              <g id="Grupo_899338" data-name="Grupo 899338" clip-path="url(#clip-path-5)">
                <path id="Trazado_627217" data-name="Trazado 627217" d="M41.719,22.59v9.768c0,.6,1.262,1.144,3.309,1.542.492.095,1.032.184,1.612.261.9.119,1.9.218,2.963.286v-9.77c-4.586-.294-7.884-1.118-7.884-2.087" transform="translate(-41.719 -22.591)" fill="#078d74"/>
              </g>
            </g>
          </g>
          <g id="Grupo_899343" data-name="Grupo 899343" transform="translate(0.88 36.93)" opacity="0.25">
            <g id="Grupo_899342" data-name="Grupo 899342">
              <g id="Grupo_899341" data-name="Grupo 899341" clip-path="url(#clip-path-6)">
                <path id="Trazado_627218" data-name="Trazado 627218" d="M43.072,19.5v5.671c0,.678,1.75,1.28,4.442,1.65v-6.31A16.685,16.685,0,0,1,43.072,19.5" transform="translate(-43.073 -19.496)" fill="#af5030"/>
              </g>
            </g>
          </g>
          <path id="Trazado_627233" data-name="Trazado 627233" d="M19.323,29.258v26.08a.958.958,0,1,0,1.917,0V29.258Z" transform="translate(29.067 26.163)" fill="#9aa3b5"/>
          <path id="Trazado_627234" data-name="Trazado 627234" d="M28.754,29.258v26.08a.958.958,0,0,0,1.917,0V29.258Z" transform="translate(1.772 26.163)" fill="#9aa3b5"/>
          <path id="Trazado_627235" data-name="Trazado 627235" d="M24.008,25.775V51.857a.958.958,0,0,0,1.917,0V25.775Z" transform="translate(15.508 23.049)" fill="#9aa3b5"/>
          <path id="Trazado_627236" data-name="Trazado 627236" d="M17.247,27.429c0-1.449,6.188-2.622,13.822-2.622s13.824,1.173,13.824,2.622S38.7,30.05,31.069,30.05s-13.822-1.174-13.822-2.622" transform="translate(9.346 22.183)" fill="#9aa3b5"/>
          <path id="Trazado_627237" data-name="Trazado 627237" d="M17.8,20.4V31.14c0,.879,2.476,1.65,6.179,2.074a59.276,59.276,0,0,0,6.6.347c7.056,0,12.777-1.083,12.777-2.421V20.4c0,1.337-5.721,2.423-12.777,2.423a59.278,59.278,0,0,1-6.6-.347c-3.7-.426-6.179-1.2-6.179-2.076" transform="translate(9.84 18.247)" fill="#404c63"/>
          <path id="Trazado_627238" data-name="Trazado 627238" d="M17.247,26.19V37.8c0,.712,1.5,1.358,3.934,1.832.587.116,1.229.218,1.915.311.822.112,1.709.2,2.646.28,1.377.108,2.868.174,4.427.193.3,0,.6.006.9.006.343,0,.68,0,1.017-.006a59.764,59.764,0,0,0,6.956-.474c.689-.093,1.33-.2,1.917-.311,2.432-.474,3.932-1.119,3.932-1.832V26.19c0,1.449-6.188,2.622-13.822,2.622-1.889,0-3.688-.072-5.328-.2-4.989-.394-8.5-1.328-8.5-2.419" transform="translate(9.346 23.42)" fill="#566684"/>
          <g id="Grupo_899355" data-name="Grupo 899355" transform="translate(48.39 63.054)" opacity="0.5">
            <g id="Grupo_899354" data-name="Grupo 899354" transform="translate(0)">
              <g id="Grupo_899353" data-name="Grupo 899353" clip-path="url(#clip-path-7)">
                <path id="Trazado_627239" data-name="Trazado 627239" d="M19.323,33.6v1.034c.688-.093,1.328-.2,1.917-.311V33.288c-.587.114-1.229.218-1.917.311" transform="translate(-19.323 -33.287)" fill="#566684"/>
              </g>
            </g>
          </g>
          <g id="Grupo_899358" data-name="Grupo 899358" transform="translate(39.516 63.838)" opacity="0.5">
            <g id="Grupo_899357" data-name="Grupo 899357" transform="translate(0)">
              <g id="Grupo_899356" data-name="Grupo 899356" clip-path="url(#clip-path-8)">
                <path id="Trazado_627240" data-name="Trazado 627240" d="M24.008,33.7v1.034c.3,0,.6.006.9.006.341,0,.68,0,1.015-.006V33.7c-.335,0-.674.006-1.015.006-.3,0-.6,0-.9-.006" transform="translate(-24.008 -33.701)" fill="#566684"/>
              </g>
            </g>
          </g>
          <g id="Grupo_899361" data-name="Grupo 899361" transform="translate(30.526 63.054)" opacity="0.5">
            <g id="Grupo_899360" data-name="Grupo 899360" transform="translate(0)">
              <g id="Grupo_899359" data-name="Grupo 899359" clip-path="url(#clip-path-7)">
                <path id="Trazado_627241" data-name="Trazado 627241" d="M28.754,33.288v1.034c.587.114,1.229.218,1.917.311V33.6c-.688-.093-1.33-.2-1.917-.311" transform="translate(-28.755 -33.287)" fill="#566684"/>
              </g>
            </g>
          </g>
          <path id="Trazado_627242" data-name="Trazado 627242" d="M17.247,1.384V40.4c0,1.089,3.506,2.023,8.5,2.417,1.64.133,3.44.2,5.328.2,7.634,0,13.822-1.173,13.822-2.62V1.384Z" transform="translate(9.346 1.238)" fill="#566684"/>
          <path id="Trazado_627243" data-name="Trazado 627243" d="M17.247,16.423v2.728c0,1,2.921,1.86,7.225,2.3q.617.065,1.271.116c1.64.133,3.44.2,5.328.2,7.634,0,13.822-1.173,13.822-2.622V16.423c0,1.449-6.188,2.622-13.822,2.622-1.889,0-3.688-.072-5.328-.2q-.654-.051-1.271-.117c-4.3-.443-7.225-1.309-7.225-2.3" transform="translate(9.346 14.686)" fill="#404c63"/>
          <path id="Trazado_627244" data-name="Trazado 627244" d="M17.247,10.479v2.728c0,.994,2.921,1.86,7.225,2.3.411.042.835.081,1.271.116,1.64.131,3.44.2,5.328.2,7.634,0,13.822-1.174,13.822-2.622V10.479c0,1.447-6.188,2.622-13.822,2.622-1.889,0-3.688-.072-5.328-.2q-.654-.051-1.271-.116c-4.3-.443-7.225-1.309-7.225-2.3" transform="translate(9.346 9.371)" fill="#404c63"/>
          <path id="Trazado_627245" data-name="Trazado 627245" d="M17.247,2.622c0,1.089,3.506,2.023,8.5,2.419,1.64.131,3.44.2,5.328.2,7.634,0,13.822-1.174,13.822-2.622S38.7,0,31.071,0,17.247,1.173,17.247,2.622" transform="translate(9.346)" fill="#9aa3b5"/>
          <path id="Trazado_627246" data-name="Trazado 627246" d="M17.8,2.2a4.494,4.494,0,0,0,1,.443,18.382,18.382,0,0,0,2.786.652,57.278,57.278,0,0,0,9,.642A57.235,57.235,0,0,0,39.57,3.3a18.324,18.324,0,0,0,2.786-.652,4.567,4.567,0,0,0,1-.443A10.844,10.844,0,0,0,39.57,1.11,57.236,57.236,0,0,0,30.576.468a57.278,57.278,0,0,0-9,.642A10.825,10.825,0,0,0,17.8,2.2" transform="translate(9.841 0.418)" fill="#566684"/>
          <path id="Trazado_627247" data-name="Trazado 627247" d="M18.325,2.229a18.151,18.151,0,0,0,2.786.652,57.279,57.279,0,0,0,9,.642A57.236,57.236,0,0,0,39.1,2.88a18.094,18.094,0,0,0,2.786-.652,18.375,18.375,0,0,0-2.786-.65A56.99,56.99,0,0,0,30.107.935a57.032,57.032,0,0,0-9,.644,18.433,18.433,0,0,0-2.786.65" transform="translate(10.31 0.836)" fill="#404c63"/>
          <g id="Grupo_899373" data-name="Grupo 899373" transform="translate(26.593 2.622)" opacity="0.5">
            <g id="Grupo_899372" data-name="Grupo 899372">
              <g id="Grupo_899371" data-name="Grupo 899371" clip-path="url(#clip-path-10)">
                <path id="Trazado_627253" data-name="Trazado 627253" d="M27.357,1.384V18.61c0,1.091,3.506,2.025,8.5,2.421V3.8c-4.989-.4-8.5-1.33-8.5-2.419" transform="translate(-27.356 -1.385)" fill="#404c63"/>
              </g>
            </g>
          </g>
          <g id="Grupo_899376" data-name="Grupo 899376" transform="translate(26.593 22.576)" opacity="0.5">
            <g id="Grupo_899375" data-name="Grupo 899375">
              <g id="Grupo_899374" data-name="Grupo 899374" clip-path="url(#clip-path-11)">
                <path id="Trazado_627254" data-name="Trazado 627254" d="M27.357,11.918v8.533c0,1.091,3.506,2.025,8.5,2.421V14.337c-4.989-.394-8.5-1.33-8.5-2.419" transform="translate(-27.356 -11.919)" fill="#404c63"/>
              </g>
            </g>
          </g>
          <g id="Grupo_899379" data-name="Grupo 899379" transform="translate(26.593 33.838)" opacity="0.5">
            <g id="Grupo_899378" data-name="Grupo 899378">
              <g id="Grupo_899377" data-name="Grupo 899377" clip-path="url(#clip-path-12)">
                <path id="Trazado_627255" data-name="Trazado 627255" d="M27.357,17.864v7.8c0,.356.371.693,1.046,1a22.156,22.156,0,0,0,6.179,1.3c.411.042.835.081,1.271.116v-7.8c-4.989-.4-8.5-1.328-8.5-2.419" transform="translate(-27.356 -17.863)" fill="#404c63"/>
              </g>
            </g>
          </g>
          <g id="Grupo_899382" data-name="Grupo 899382" transform="translate(26.593 49.61)" opacity="0.5">
            <g id="Grupo_899381" data-name="Grupo 899381">
              <g id="Grupo_899380" data-name="Grupo 899380" clip-path="url(#clip-path-13)">
                <path id="Trazado_627256" data-name="Trazado 627256" d="M27.357,26.19V37.8c0,.712,1.5,1.358,3.934,1.832.587.116,1.229.218,1.915.311.822.112,1.709.2,2.646.28V28.609c-4.989-.394-8.5-1.328-8.5-2.419" transform="translate(-27.356 -26.191)" fill="#404c63"/>
              </g>
            </g>
          </g>
          <g id="Grupo_899385" data-name="Grupo 899385" transform="translate(27.639 42.645)" opacity="0.5">
            <g id="Grupo_899384" data-name="Grupo 899384" transform="translate(0)">
              <g id="Grupo_899383" data-name="Grupo 899383" clip-path="url(#clip-path-14)">
                <path id="Trazado_627257" data-name="Trazado 627257" d="M28.028,22.513v6.74c0,.881,2.476,1.652,6.179,2.076V23.812a22.087,22.087,0,0,1-6.179-1.3" transform="translate(-28.028 -22.513)" fill="#30394a"/>
              </g>
            </g>
          </g>
          <g id="Grupo_899388" data-name="Grupo 899388" transform="translate(26.593 19.849)" opacity="0.5">
            <g id="Grupo_899387" data-name="Grupo 899387">
              <g id="Grupo_899386" data-name="Grupo 899386" clip-path="url(#clip-path-15)">
                <path id="Trazado_627258" data-name="Trazado 627258" d="M28.028,10.479v2.728c0,.994,2.921,1.86,7.225,2.3V12.782c-4.3-.443-7.225-1.309-7.225-2.3" transform="translate(-28.027 -10.478)" fill="#30394a"/>
              </g>
            </g>
          </g>
          <g id="Grupo_899391" data-name="Grupo 899391" transform="translate(26.593 31.109)" opacity="0.5">
            <g id="Grupo_899390" data-name="Grupo 899390">
              <g id="Grupo_899389" data-name="Grupo 899389" clip-path="url(#clip-path-16)">
                <path id="Trazado_627259" data-name="Trazado 627259" d="M28.028,16.423v2.728c0,1,2.921,1.86,7.225,2.3V18.726c-4.3-.443-7.225-1.309-7.225-2.3" transform="translate(-28.027 -16.424)" fill="#30394a"/>
              </g>
            </g>
          </g>
        </g>
      </g>
    </g>
  </g>
</svg>
