<svg xmlns="http://www.w3.org/2000/svg" xmlns:xlink="http://www.w3.org/1999/xlink" width="291.91" height="505.005" viewBox="0 0 291.91 505.005">
  <defs>
    <clipPath id="clip-path">
      <rect id="Rectángulo_336943" data-name="Rectángulo 336943" width="275.477" height="277.143" fill="none"/>
    </clipPath>
    <clipPath id="clip-path-2">
      <rect id="Rectángulo_336942" data-name="Rectángulo 336942" width="275.478" height="277.141" fill="none"/>
    </clipPath>
    <clipPath id="clip-path-3">
      <rect id="Rectángulo_336939" data-name="Rectángulo 336939" width="114.292" height="7.01" fill="none"/>
    </clipPath>
    <clipPath id="clip-path-5">
      <rect id="Rectángulo_336935" data-name="Rectángulo 336935" width="264.591" height="505.005" fill="none"/>
    </clipPath>
    <clipPath id="clip-path-6">
      <rect id="Rectángulo_336934" data-name="Rectángulo 336934" width="264.589" height="505.005" fill="none"/>
    </clipPath>
    <clipPath id="clip-path-7">
      <rect id="Rectángulo_336931" data-name="Rectángulo 336931" width="96.046" height="129.629" fill="none"/>
    </clipPath>
    <clipPath id="clip-path-8">
      <rect id="Rectángulo_336932" data-name="Rectángulo 336932" width="9.951" height="56.15" fill="none"/>
    </clipPath>
    <clipPath id="clip-path-9">
      <rect id="Rectángulo_336933" data-name="Rectángulo 336933" width="152.546" height="91.877" fill="none"/>
    </clipPath>
  </defs>
  <g id="Grupo_902229" data-name="Grupo 902229" transform="translate(-180 -3839)">
    <path id="Trazado_630856" data-name="Trazado 630856" d="M281.1,106.064S224.217,23.323,169.273,17.193,56.8,34.559,33.529,84.612,28.358,231.709,22.54,280.74,5.088,420.686,45.811,457.46s93.054,16.574,124.325-32.035,81.877-23.126,109.672-67.051,46.541-190,1.293-252.311" transform="translate(163.566 3833.344)" fill="#d9f8f2"/>
    <g id="Grupo_902228" data-name="Grupo 902228" transform="translate(188.028 3839)">
      <g id="Grupo_902227" data-name="Grupo 902227" transform="translate(0 63.298)">
        <g id="Grupo_902226" data-name="Grupo 902226" clip-path="url(#clip-path)">
          <g id="Grupo_902225" data-name="Grupo 902225" transform="translate(0 0.002)">
            <g id="Grupo_902224" data-name="Grupo 902224" clip-path="url(#clip-path-2)">
              <path id="Trazado_630835" data-name="Trazado 630835" d="M218.428,277.141H66.831A66.907,66.907,0,0,1,0,210.313V58.545A58.612,58.612,0,0,1,58.545,0H90.637a.822.822,0,0,1,0,1.645H58.545a56.973,56.973,0,0,0-56.9,56.9V210.313A65.263,65.263,0,0,0,66.831,275.5h151.6a.822.822,0,1,1,0,1.645" transform="translate(0 -0.002)" fill="#acdac2"/>
              <path id="Rectángulo_336936" data-name="Rectángulo 336936" d="M11.565,0h223.2a11.565,11.565,0,0,1,11.565,11.565v223.2a11.566,11.566,0,0,1-11.566,11.566H11.565A11.565,11.565,0,0,1,0,234.769V11.565A11.565,11.565,0,0,1,11.565,0Z" transform="translate(29.145 8.455)" fill="#496a59"/>
              <path id="Rectángulo_336937" data-name="Rectángulo 336937" d="M11.565,0h223.2a11.565,11.565,0,0,1,11.565,11.565v223.2a11.566,11.566,0,0,1-11.566,11.566H11.566A11.566,11.566,0,0,1,0,234.768V11.565A11.565,11.565,0,0,1,11.565,0Z" transform="translate(23.724 8.455)" fill="#618d77"/>
              <path id="Trazado_630836" data-name="Trazado 630836" d="M206.937,242.649H47.061a39.84,39.84,0,0,1-39.8-39.8V42.977a39.84,39.84,0,0,1,39.8-39.8H206.937a39.84,39.84,0,0,1,39.8,39.8V202.853a39.84,39.84,0,0,1-39.8,39.8M47.061,4.826A38.2,38.2,0,0,0,8.91,42.977V202.853A38.2,38.2,0,0,0,47.061,241H206.937a38.2,38.2,0,0,0,38.155-38.151V42.977A38.2,38.2,0,0,0,206.937,4.826Z" transform="translate(19.89 8.707)" fill="#acdac2"/>
              <path id="Trazado_630837" data-name="Trazado 630837" d="M67.742,21.223H8.087a.822.822,0,1,1,0-1.645H67.742a.822.822,0,1,1,0,1.645" transform="translate(19.89 53.598)" fill="#acdac2"/>
              <path id="Trazado_630838" data-name="Trazado 630838" d="M102.235,61.815H60.57a.821.821,0,0,1-.826-.822V4a.822.822,0,1,1,1.645,0V60.171h40.846a.822.822,0,0,1,0,1.645" transform="translate(163.566 8.707)" fill="#acdac2"/>
              <path id="Trazado_630839" data-name="Trazado 630839" d="M245.911,71.257H187.964a.823.823,0,0,1-.826-.822V46.076H8.087a.822.822,0,1,1,0-1.645H187.964a.825.825,0,0,1,.822.826V69.612h57.124a.822.822,0,0,1,0,1.645" transform="translate(19.89 121.64)" fill="#acdac2"/>
              <path id="Trazado_630840" data-name="Trazado 630840" d="M173.486,131.894H151.134l-.235-.221L33.719,22.707V3.4h1.645V21.989L151.781,130.25h21.705Z" transform="translate(92.316 9.309)" fill="#acdac2"/>
              <path id="Trazado_630841" data-name="Trazado 630841" d="M12.634,235.846a.825.825,0,0,1-.822-.822V122.917a.826.826,0,0,1,.822-.826h46.49V4a.822.822,0,0,1,1.645,0V122.917a.822.822,0,0,1-.822.819H13.46V235.024a.826.826,0,0,1-.826.822" transform="translate(32.339 8.707)" fill="#acdac2"/>
              <path id="Trazado_630842" data-name="Trazado 630842" d="M231.851,69.813H110.789a.822.822,0,0,1-.822-.822v-5.7H9.517a.824.824,0,0,1,0-1.648H110.789a.826.826,0,0,1,.822.826v5.7h120.24a.822.822,0,0,1,0,1.645" transform="translate(23.805 168.771)" fill="#acdac2"/>
              <path id="Trazado_630843" data-name="Trazado 630843" d="M113.723,89.5a.839.839,0,0,1-.583-.239L48.566,24.681a.826.826,0,0,1-.243-.583V4a.824.824,0,0,1,1.648,0V23.757l64.335,64.335a.826.826,0,0,1,0,1.166.839.839,0,0,1-.583.239" transform="translate(132.297 8.707)" fill="#acdac2"/>
              <path id="Trazado_630844" data-name="Trazado 630844" d="M69.058,33.246a3.783,3.783,0,1,1,3.783-3.783,3.787,3.787,0,0,1-3.783,3.783m0-5.921A2.138,2.138,0,1,0,71.2,29.464a2.14,2.14,0,0,0-2.138-2.138" transform="translate(178.708 70.307)" fill="#acdac2"/>
              <path id="Trazado_630845" data-name="Trazado 630845" d="M69.626,19.835a3.784,3.784,0,1,1,3.786-3.786,3.79,3.79,0,0,1-3.786,3.786m0-5.924a2.14,2.14,0,1,0,2.138,2.138,2.14,2.14,0,0,0-2.138-2.138" transform="translate(180.263 33.58)" fill="#acdac2"/>
              <path id="Trazado_630846" data-name="Trazado 630846" d="M82.756,101.9H67.681a.825.825,0,0,1-.822-.822V38.16a.822.822,0,0,1,1.645,0v62.1H82.756a.822.822,0,1,1,0,1.645" transform="translate(183.045 102.221)" fill="#acdac2"/>
              <path id="Trazado_630847" data-name="Trazado 630847" d="M13.52,34.486A3.784,3.784,0,1,1,17.3,30.7a3.79,3.79,0,0,1-3.783,3.783m0-5.924A2.14,2.14,0,1,0,15.658,30.7a2.146,2.146,0,0,0-2.138-2.142" transform="translate(26.649 73.691)" fill="#acdac2"/>
              <path id="Trazado_630848" data-name="Trazado 630848" d="M12.171,92.551H10.527V37.441L45.5,3.244l1.147,1.174L12.171,38.133Z" transform="translate(28.82 8.88)" fill="#acdac2"/>
              <path id="Trazado_630849" data-name="Trazado 630849" d="M17.768,34.486A3.784,3.784,0,1,1,21.55,30.7a3.789,3.789,0,0,1-3.783,3.783m0-5.924A2.14,2.14,0,1,0,19.906,30.7a2.143,2.143,0,0,0-2.138-2.142" transform="translate(38.288 73.691)" fill="#acdac2"/>
              <path id="Trazado_630850" data-name="Trazado 630850" d="M16.421,92.551H14.777V37.441l34.974-34.2L50.9,4.418,16.421,38.133Z" transform="translate(40.456 8.88)" fill="#acdac2"/>
              <path id="Trazado_630851" data-name="Trazado 630851" d="M89.129,7.847H34.539a.822.822,0,0,1,0-1.645h54.59a.822.822,0,1,1,0,1.645" transform="translate(92.318 16.978)" fill="#acdac2"/>
              <path id="Trazado_630852" data-name="Trazado 630852" d="M113.129,19.6a.825.825,0,0,1-.822-.822V11.832H50.779a.822.822,0,1,1,0-1.645h62.35a.822.822,0,0,1,.822.822V18.78a.822.822,0,0,1-.822.822" transform="translate(136.76 27.888)" fill="#acdac2"/>
              <path id="Trazado_630853" data-name="Trazado 630853" d="M185.631,190.737H25.758a9.188,9.188,0,0,1-9.187-9.187V21.673a9.185,9.185,0,0,1,9.187-9.187H185.631a9.188,9.188,0,0,1,9.191,9.187V181.549a9.191,9.191,0,0,1-9.191,9.187" transform="translate(45.368 34.182)" fill="#566684"/>
              <path id="Trazado_630854" data-name="Trazado 630854" d="M184.517,189.622H24.641a9.19,9.19,0,0,1-9.187-9.187V20.558a9.188,9.188,0,0,1,9.187-9.187H184.517a9.185,9.185,0,0,1,9.187,9.187V180.434a9.188,9.188,0,0,1-9.187,9.187" transform="translate(42.31 31.129)" fill="#9aa3b5"/>
              <path id="Trazado_630855" data-name="Trazado 630855" d="M179.064,176.718H19.192a1.741,1.741,0,0,1-1.746-1.738V15.1a1.744,1.744,0,0,1,1.746-1.742H179.064a1.744,1.744,0,0,1,1.742,1.742V174.98a1.74,1.74,0,0,1-1.742,1.738M19.577,174.595h159.1V15.493H19.577Z" transform="translate(47.763 36.58)" fill="#566684"/>
              <g id="Grupo_902220" data-name="Grupo 902220" transform="translate(89.743 121.211)" opacity="0.75">
                <g id="Grupo_902219" data-name="Grupo 902219">
                  <g id="Grupo_902218" data-name="Grupo 902218" clip-path="url(#clip-path-3)">
                    <rect id="Rectángulo_336938" data-name="Rectángulo 336938" width="114.294" height="7.012" transform="translate(-0.003 -0.003)" fill="#fff"/>
                  </g>
                </g>
              </g>
              <g id="Grupo_902223" data-name="Grupo 902223" transform="translate(89.743 164.128)" opacity="0.75">
                <g id="Grupo_902222" data-name="Grupo 902222">
                  <g id="Grupo_902221" data-name="Grupo 902221" clip-path="url(#clip-path-3)">
                    <rect id="Rectángulo_336940" data-name="Rectángulo 336940" width="114.294" height="7.012" transform="translate(-0.003 -0.003)" fill="#fff"/>
                  </g>
                </g>
              </g>
            </g>
          </g>
        </g>
      </g>
      <g id="Grupo_902217" data-name="Grupo 902217" transform="translate(5.108)">
        <g id="Grupo_902216" data-name="Grupo 902216" clip-path="url(#clip-path-5)">
          <g id="Grupo_902215" data-name="Grupo 902215">
            <g id="Grupo_902214" data-name="Grupo 902214" clip-path="url(#clip-path-6)">
              <path id="Trazado_630765" data-name="Trazado 630765" d="M37.758,34.082c.035,1.651-7.119,3.667-16.093,4.532-9.045.87-16.509.235-16.664-1.426-.1-1.671,7.084-3.7,16.088-4.567,9.05-.87,16.509-.235,16.664,1.416l.005.045" transform="translate(20.012 129.009)" fill="#55647c"/>
              <path id="Trazado_630766" data-name="Trazado 630766" d="M50.657,41.165S48.4,40.52,17.975,51.4a30.869,30.869,0,0,0,.81-9.425,40.394,40.394,0,0,0-6.829-19.14,26.057,26.057,0,0,0-1.591-2.166s14.7-5.1,29.005-9.77a62.065,62.065,0,0,1,4.147,8.284,141.878,141.878,0,0,1,4.958,14.062c1.391,4.622,2.181,7.919,2.181,7.919" transform="translate(41.491 43.625)" fill="#f6c1af"/>
              <path id="Trazado_630767" data-name="Trazado 630767" d="M4.037,96.977l-2.2,4.818a20.2,20.2,0,0,0-.715,15.048H31.832l.2-.73a21.378,21.378,0,0,0-1.241-14.748L28.9,97.3Z" transform="translate(0 388.163)" fill="#41313b"/>
              <path id="Trazado_630768" data-name="Trazado 630768" d="M165.316,147.014,118.992,155.2S106.9,148.23,90.957,138.124C73.183,126.853,50.631,111.68,34.7,97.9a106.514,106.514,0,0,1-15-15.248l2.576-20.946,1.251-10.12.655-5.353H90.657c1.781,1.706,3.642,3.622,5.568,5.7,9,9.72,19.44,23.137,29.42,36.829,1.756,2.406,3.5,4.828,5.223,7.229,18.63,26.1,34.448,51.017,34.448,51.017" transform="translate(78.852 185.065)" fill="#644f58"/>
              <path id="Trazado_630769" data-name="Trazado 630769" d="M44.926,93.183s-6.313,6.5-6.313,12.567l29.7,26.279H86.348a12.622,12.622,0,0,0,0-10.15c-2.431-5.208-11.326-7.289-14.828-11.826-2.016-6.043-1.931-16.869-1.931-16.869Z" transform="translate(154.553 372.977)" fill="#41313b"/>
              <path id="Trazado_630770" data-name="Trazado 630770" d="M90.462,66.38S72.107,142.85,72.752,197.339a3.952,3.952,0,0,1-3.052,3.9c-6.909,1.6-23.2,4.7-26.364-.775-4.042-6.994-.175-13.322-.34-18.99-1.441-49.506-6.433-50.757-3.882-88.466.47-6.949,5.028-18.44,5.028-18.44Z" transform="translate(153.702 265.694)" fill="#644f58"/>
              <path id="Trazado_630771" data-name="Trazado 630771" d="M92.883,74.561a178.723,178.723,0,0,1-10.11,32.367C68.3,142.552,45.623,176.349,45.623,176.349l-38.8-5.483L29.86,52.3l1.181-6.063H92.883s.255,2.952.46,7.069c.115,2.231.215,4.808.26,7.449.01.655.02,1.321.02,1.981a67.365,67.365,0,0,1-.74,11.826" transform="translate(27.31 185.065)" fill="#644f58"/>
              <path id="Trazado_630772" data-name="Trazado 630772" d="M30.9,71.149s-6.4,3.437-12.061,17.774C1.487,148.45,9.447,143.5.807,200.357c0,0,3.052,1.9,12.366,1.9s12.492-1.571,12.492-1.571C25.71,185.374,69.7,76.632,69.7,76.632Z" transform="translate(3.23 284.783)" fill="#644f58"/>
              <path id="Trazado_630773" data-name="Trazado 630773" d="M138.731,169.367s-21.191,7.589-38.125,7.589c-4.843,0-12.887-.62-21.907-1.511-22.522-2.2-51.127-6.078-51.127-6.078s1.216-3.312,2.791-8.154c2.907-8.925,7.029-23.032,7.029-31.156,0-16.1-18.46-50.156-26.214-63.743a25.643,25.643,0,0,1-1.666-3.492,24.684,24.684,0,0,1-.88-2.636A26.641,26.641,0,0,1,24.3,28.473c.9-.365,1.8-.72,2.7-1.071A270.551,270.551,0,0,1,62.942,16.5c.6-.14,1.181-.275,1.751-.405a25.226,25.226,0,0,1,25.658,9.36c6.433,8.464,14.072,19.745,16.949,28.8,5.318,16.784,16.624,88.847,16.624,88.847l9.905,17.574Z" transform="translate(30.773 61.934)" fill="#7185a5"/>
              <path id="Trazado_630774" data-name="Trazado 630774" d="M40.168,32.273c-15.643,3.5-28.62-5.693-28.62-5.693A272.6,272.6,0,0,1,47.5,15.679c1.836,3.872,5.178,13.8-7.329,16.594" transform="translate(46.222 62.757)" fill="#f6c1af"/>
              <g id="Grupo_902207" data-name="Grupo 902207" transform="translate(40.288 107.753)" opacity="0.5">
                <g id="Grupo_902206" data-name="Grupo 902206">
                  <g id="Grupo_902205" data-name="Grupo 902205" clip-path="url(#clip-path-7)">
                    <path id="Trazado_630775" data-name="Trazado 630775" d="M42.077,134.859a9.866,9.866,0,0,0,8.044,11.911l27.119,4.4c-22.522-2.206-51.127-6.078-51.127-6.078s9.82-26.784,9.82-39.316c0-16.093-18.465-50.151-26.214-63.738a25.643,25.643,0,0,1-1.666-3.492c0-.065,17.484-17,17.484-17S29.325,33.515,33.1,47.318a30.765,30.765,0,0,0,37.625,21.6c10.821-2.9,17.979-4.958,17.979-4.958L58,78.174a16.236,16.236,0,0,0,9.02,30.821l37.084-5.078v10.826L49.471,127.42a9.871,9.871,0,0,0-7.394,7.439" transform="translate(-8.051 -21.541)" fill="#55647c"/>
                  </g>
                </g>
              </g>
              <path id="Trazado_630776" data-name="Trazado 630776" d="M38.567,87.465c-.16-1.7-7.619-2.331-16.669-1.461-9,.865-16.188,2.9-16.088,4.547C2.844,64.458,6.9,49.62,11.508,38.89c4.577-10.646,17.439-20,17.439-20s10.546,9.92,11.491,21.7c1.291,16.043.17,31.747-1.871,46.87" transform="translate(19.203 75.626)" fill="#7185a5"/>
              <g id="Grupo_902210" data-name="Grupo 902210" transform="translate(50.684 97.367)" opacity="0.25">
                <g id="Grupo_902209" data-name="Grupo 902209">
                  <g id="Grupo_902208" data-name="Grupo 902208" clip-path="url(#clip-path-8)">
                    <path id="Trazado_630777" data-name="Trazado 630777" d="M18.812,75.613l-.88-.09a202.139,202.139,0,0,0,.72-37.17c-.625-7.789-5.608-14.828-8.519-18.325l.675-.565c2.982,3.582,8.079,10.786,8.72,18.82a202.953,202.953,0,0,1-.715,37.33" transform="translate(-10.129 -19.463)" fill="#404b5d"/>
                  </g>
                </g>
              </g>
              <path id="Trazado_630778" data-name="Trazado 630778" d="M34.943,33.643c-.105.815-.2,1.511-.285,2.2-1.086,8.449-1.781,16.7-1.141,24.693,0,0-2.917.46-7.294,1.166-4.472.715-10.46,1.7-16.389,2.7-.62-2.972-1.181-5.853-1.691-8.62-1.1-5.933-1.951-11.411-2.591-16.479-.12-.95-.23-1.881-.335-2.8-.1-1.276,6.448-2.927,14.638-3.717,8.214-.785,14.968-.41,15.088.855" transform="translate(20.877 129.597)" fill="#f6c1af"/>
              <path id="Trazado_630779" data-name="Trazado 630779" d="M26.836,3.57s6.573,4.322,3.8,9.18c3.347,2.386,6.749,7.9-.385,11.811s-16.584-3.982-16.584-3.982l.32-14.343Z" transform="translate(54.692 14.289)" fill="#7f452f"/>
              <path id="Trazado_630780" data-name="Trazado 630780" d="M63.376,60.24a1.75,1.75,0,0,1-.785,1.506c-1.386.92-2.386,1.616-3.107,2.131a11.506,11.506,0,0,1-3.647,1.741,10.893,10.893,0,0,1-1.391.29,107.658,107.658,0,0,1-25.118.675,71.858,71.858,0,0,1-7.734-5.823c-.79-.66-1.546-1.331-2.251-1.981l.725-.71,1.026-1.011c-.23-.34-.5-.73-.8-1.161-1.211-1.766-2.907-4.187-4.6-6.443-5.983-7.419-9.51-21.226-5.248-30.711A28.916,28.916,0,0,1,27.672,2.724c1.776-.62,7.039-.21,10.31,1.771,3.412,2.061,7.509,6.6,10.1,16.519.44,1.291,4.362,4.307,7.589,9.265,3.157,4.848,7.354,16.153,7.709,29.961" transform="translate(34.305 9.837)" fill="#f6c1af"/>
              <path id="Trazado_630781" data-name="Trazado 630781" d="M12.183,16.474s2.751,1.576,7.419-1.216a12.88,12.88,0,0,0,1.441-1,8.844,8.844,0,0,0,2.241-2.546,5.088,5.088,0,0,0,.76-2.611,8.424,8.424,0,0,0-5.493-1.676c-3.232,2.511-5.768,5.818-6.368,9.045" transform="translate(48.764 29.67)" fill="#fff"/>
              <path id="Trazado_630782" data-name="Trazado 630782" d="M12.183,16.474A16.676,16.676,0,0,1,16.56,9.856c.755-.725,1.5-1.346,2.161-1.881a7.758,7.758,0,0,1,3.442.375,11.9,11.9,0,0,1,1.881.755,8.424,8.424,0,0,0-5.493-1.676c-3.232,2.511-5.768,5.818-6.368,9.045" transform="translate(48.764 29.67)" fill="#f1a19a"/>
              <path id="Trazado_630783" data-name="Trazado 630783" d="M13.489,12.479a3.477,3.477,0,0,0,4.252,1.391,8.959,8.959,0,0,0,2.236-2.546,3.333,3.333,0,0,0-.39-2.521,3.163,3.163,0,0,0-.73-.85,7.687,7.687,0,0,0-3.442-.37c-.66.535-1.4,1.151-2.161,1.876a3.416,3.416,0,0,0,.235,3.022" transform="translate(52.07 30.069)" fill="#6b3c2a"/>
              <path id="Trazado_630784" data-name="Trazado 630784" d="M13.057,10.043a1.206,1.206,0,1,0,.41-1.656,1.211,1.211,0,0,0-.41,1.656" transform="translate(51.577 32.87)" fill="#fff"/>
              <path id="Trazado_630785" data-name="Trazado 630785" d="M17.04,12.062l.285.24c.22-.07.53-.17.905-.32a17.449,17.449,0,0,0,3.322-1.761c.445-.3.91-.64,1.381-1.026A6.377,6.377,0,0,0,21.112,6.7a8.214,8.214,0,0,0-5.868.225c.07.24.14.485.215.725.085.27.175.545.26.82.2.61.41,1.216.635,1.816.055.15.11.305.165.45l.175.45c.05.15.115.3.175.45Z" transform="translate(61.016 25.077)" fill="#fff"/>
              <path id="Trazado_630786" data-name="Trazado 630786" d="M15.463,7.653a15.639,15.639,0,0,1,1.956-.565,10.136,10.136,0,0,1,2.406-.26A4.562,4.562,0,0,1,20.986,7a8.454,8.454,0,0,1,1.951,2.2,6.341,6.341,0,0,0-1.821-2.491,8.225,8.225,0,0,0-5.873.22c.075.24.145.485.22.725" transform="translate(61.012 25.079)" fill="#f1a19a"/>
              <path id="Trazado_630787" data-name="Trazado 630787" d="M17.254,11.533a17.434,17.434,0,0,0,3.317-1.761,3.055,3.055,0,0,0-.2-1.786A3.022,3.022,0,0,0,18.84,6.38a9.906,9.906,0,0,0-2.406.26,2.812,2.812,0,0,0-.7,3.3,3.084,3.084,0,0,0,1.516,1.591" transform="translate(61.993 25.526)" fill="#6b3c2a"/>
              <path id="Trazado_630788" data-name="Trazado 630788" d="M16.437,8.2a.763.763,0,0,1-.745-.06c-.115-.345-.24-.7-.35-1.046a.769.769,0,0,1,.38-.415A.842.842,0,0,1,16.437,8.2" transform="translate(61.404 26.461)" fill="#fff"/>
              <path id="Trazado_630789" data-name="Trazado 630789" d="M28.784,27.577a3.487,3.487,0,0,1-.415,1.041,5.205,5.205,0,0,1-.67.875,8.383,8.383,0,0,1-1.731,1.356,8.716,8.716,0,0,0,.875-.66,7.009,7.009,0,0,0,.79-.75,4.994,4.994,0,0,0,.63-.885,3.175,3.175,0,0,0,.375-1.006,2.907,2.907,0,0,0-.01-1.061,3.155,3.155,0,0,0-.4-.981,3.491,3.491,0,0,0-.705-.805,2.523,2.523,0,0,0-.43-.3,1.565,1.565,0,0,0-.475-.2,8.989,8.989,0,0,1-.48-.855l-.325-.585-.345-.57c-.235-.375-.48-.745-.48-.745-.425-.615-.59-.855-.77-1.091l-.27-.35c-.275-.35-.555-.7-.555-.7-.1-.115-.2-.225-.29-.335l-.29-.34-.3-.325c-.8-.88-1.641-1.716-2.511-2.531-.8-.755-1.631-1.486-2.461-2.216-.07-.055-.13-.11-.2-.17-.26-.64-.49-1.241-.7-1.851-.115-.35-.235-.705-.345-1.061-.055-.175-.11-.35-.165-.53l-.075-.25c-.085-.27-.16-.545-.24-.82-.065-.245-.13-.49-.2-.73l-.075-.31c-.08-.31-.155-.62-.225-.935s-.14-.63-.2-.945c.075.31.155.625.24.935s.17.62.26.925c.025.1.055.2.085.3.07.245.14.485.22.725.08.275.17.55.26.82.115.36.235.71.355,1.056.085.26.18.51.27.765.06.15.11.305.17.45l.175.45c.05.15.115.3.175.45l.17.42q.143.113.285.24c.81.68,1.611,1.376,2.391,2.091l.33.31.325.31.32.31.315.315.32.315.31.32.31.325.305.33a26.875,26.875,0,0,1,2.241,2.806A22.436,22.436,0,0,1,26.733,24a1.983,1.983,0,0,1,.48.215,2.711,2.711,0,0,1,.455.33,3.531,3.531,0,0,1,.73.86,3.709,3.709,0,0,1,.25.51,3.469,3.469,0,0,1,.15.54,2.938,2.938,0,0,1-.015,1.126" transform="translate(60.548 23.88)" fill="#f1a19a"/>
              <path id="Trazado_630790" data-name="Trazado 630790" d="M22.058,13.441c.715-.3,1.126-.51,1.136-.515a.245.245,0,0,0,.1-.33.251.251,0,0,0-.33-.1,23.882,23.882,0,0,1-6.588,2.046.244.244,0,0,0-.205.28.237.237,0,0,0,.28.2,25.521,25.521,0,0,0,5.608-1.581" transform="translate(64.712 49.907)" fill="#f1a19a"/>
              <path id="Trazado_630791" data-name="Trazado 630791" d="M31.279,42.421c6.643,4.247,12.206,15.608,9.08,16.329-3.532.81-5.763,1.021-4.212,8.79.81,4.087-8.229,6.033-11.741,4.938-6.478-2.011-4.732-7.249-6.118-7.139-3.427.27-5.758-3.247-4.963-8.885s-1.966-6.553-5.5-13.5-6.083-18.315-.8-25.473C12.889,9.559,31.184,3.551,39.538,2.965c5.743-.4,8.559,2.011,11,.55C64.551-4.909,70.274,3.436,67.5,11.5c-2.321,6.754,2.1,10.726-3.5,12.507-7.729,2.456-8.81-3-15.533,2.977s-2.8,7.724-11.816,9.235c-5.348.9-5.373,6.2-5.373,6.2" transform="translate(16.036 0.001)" fill="#a95c3e"/>
              <path id="Trazado_630792" data-name="Trazado 630792" d="M10.407,20.078a33.332,33.332,0,0,0,7.454,4.242,11.884,11.884,0,0,0,3.9-1.686,1.467,1.467,0,0,0,.39-2.026c-.91-1.341-2.546-3.707-4.177-5.878-.34-.455-.68-.9-1.016-1.326A5.6,5.6,0,0,0,9.5,12.164a2.38,2.38,0,0,0-1.051,2.581,29.954,29.954,0,0,0,1.956,5.333" transform="translate(33.541 45.061)" fill="#f6c1af"/>
              <path id="Trazado_630793" data-name="Trazado 630793" d="M15.585,15.131a22.009,22.009,0,0,0-1.376-1.876A14.448,14.448,0,0,0,12.6,11.589c-.235.08-.56.205-.875.325s-.625.27-.94.41c-.62.29-1.236.6-1.841.905.11.4.2.935.305,1.466a14.009,14.009,0,0,0,.41,1.576,16.438,16.438,0,0,0,1.3,2.982c.385.33.805.69,1.251,1.031s.905.655,1.376.961c.47.29.951.575,1.451.825a10.433,10.433,0,0,0,1.531.64,1.813,1.813,0,0,1,.07-1.081,3.443,3.443,0,0,1,.525-1.071,2.113,2.113,0,0,1,.951-.7,2.56,2.56,0,0,1,1.166-.09,2.589,2.589,0,0,0-1.141.15,2,2,0,0,0-.88.71,3.372,3.372,0,0,0-.455,1.046,4.53,4.53,0,0,0-.155,1.131,4.886,4.886,0,0,1-1.726-.51,16.011,16.011,0,0,1-1.5-.81c-.475-.3-.95-.62-1.4-.96s-.89-.705-1.316-1.076a14.287,14.287,0,0,1-1.361-3.082,16.138,16.138,0,0,1-.405-1.611A12.189,12.189,0,0,1,8.726,13.1a12.516,12.516,0,0,1,1.956-1.021c.315-.135.64-.265.961-.39a5.95,5.95,0,0,1,1.016-.285A10.607,10.607,0,0,1,14.3,13.18a17.275,17.275,0,0,1,1.286,1.951" transform="translate(34.927 45.666)" fill="#f1a19a"/>
              <path id="Trazado_630794" data-name="Trazado 630794" d="M22.867,6.177A21.987,21.987,0,0,0,19.01,8.9a16.847,16.847,0,0,0-2.992,3.647c-.81,1.316-1.491,2.646-2.241,3.927a43.127,43.127,0,0,1-2.411,3.732.363.363,0,0,0,.075.515.37.37,0,0,0,.5-.055,41.979,41.979,0,0,0,2.8-3.582c.875-1.236,1.681-2.506,2.551-3.672a14.714,14.714,0,0,1,2.962-3.037,19.645,19.645,0,0,1,3.672-2.131,1.162,1.162,0,1,0-.96-2.116l-.09.045" transform="translate(45.194 24.114)" fill="#6b3c2a"/>
              <path id="Trazado_630795" data-name="Trazado 630795" d="M21.323,6.271a3.9,3.9,0,0,0-.655-.34,5.394,5.394,0,0,0-.675-.235,7.375,7.375,0,0,0-1.4-.23,8.365,8.365,0,0,0-1.416.02c-.12.01-.235.025-.35.045s-.23.035-.345.06c-.23.05-.46.105-.685.17a.958.958,0,0,0-.625,1.186.944.944,0,0,0,1.026.655,5.869,5.869,0,0,0,.66-.12c.2-.035.405-.085.6-.12.4-.085.8-.155,1.206-.23s.815-.13,1.231-.19.85-.11,1.271-.155a.291.291,0,0,0,.28-.315.28.28,0,0,0-.12-.2" transform="translate(60.555 21.794)" fill="#6b3c2a"/>
              <path id="Trazado_630796" data-name="Trazado 630796" d="M45.421,18.97c-.05.445-.105.92-.17,1.416a75.281,75.281,0,0,1-27.71,2.006L15.55,29.11a38.459,38.459,0,0,0-4.377-15,71.543,71.543,0,0,0,7.739,5.818,107.437,107.437,0,0,0,25.118-.67,11.828,11.828,0,0,0,1.391-.29" transform="translate(44.721 56.485)" fill="#f1a19a"/>
              <g id="Grupo_902213" data-name="Grupo 902213" transform="translate(57.172 231.301)" opacity="0.5">
                <g id="Grupo_902212" data-name="Grupo 902212">
                  <g id="Grupo_902211" data-name="Grupo 902211" clip-path="url(#clip-path-9)">
                    <path id="Trazado_630797" data-name="Trazado 630797" d="M163.973,96c-1.721-2.4-3.462-4.823-5.223-7.229L90.214,106.393c-2.987-2.8-6.223-5.833-9.755-9.15,3.907-12.216,4.893-29.551,5.113-34.873a127.489,127.489,0,0,0,43.758-10.43c-1.931-2.081-3.787-3.992-5.568-5.7,0,0-21.191,7.589-38.125,7.589-2.706,0-6.413-.2-10.731-.52-3.4-.255-7.194-.59-11.176-.986-2.311-.23-4.7-.475-7.1-.73-21-2.236-44.023-5.353-44.023-5.353L11.428,52.3a213.409,213.409,0,0,0,43.953,9.41,183.653,183.653,0,0,0,19.81,1.026,66.868,66.868,0,0,1-.745,11.826A158.087,158.087,0,0,1,67.8,97.9c15.933,13.782,38.485,28.95,56.255,40.216-.13-.125-2.021-1.9-28.62-26.829Z" transform="translate(-11.429 -46.236)" fill="#4b3b42"/>
                  </g>
                </g>
              </g>
              <path id="Trazado_630798" data-name="Trazado 630798" d="M34.943,33.643c-.105.815-.2,1.511-.285,2.2-11.791-.5-24.858,2.416-29.105,3.462-.12-.95-.23-1.881-.335-2.8-.1-1.276,6.448-2.927,14.638-3.717,8.214-.785,14.968-.41,15.088.855" transform="translate(20.877 129.597)" fill="#f1a19a"/>
              <path id="Trazado_630799" data-name="Trazado 630799" d="M152.478,219.753,67.088,241.7a4.107,4.107,0,0,1-5.008-2.962l-51.5-200.35a4.115,4.115,0,0,1,2.967-5.013L98.93,11.423a4.117,4.117,0,0,1,5.013,2.967l51.5,200.355a4.113,4.113,0,0,1-2.962,5.008" transform="translate(41.819 45.201)" fill="#dde0e6"/>
              <path id="Trazado_630800" data-name="Trazado 630800" d="M62.861,13.458,38.439,19.731l-1.186-4.592L61.681,8.865a1.09,1.09,0,0,1,1.331.785l.635,2.476a1.092,1.092,0,0,1-.785,1.331" transform="translate(149.11 35.338)" fill="#dde0e6"/>
              <path id="Trazado_630801" data-name="Trazado 630801" d="M58.248,24.117,38.237,29.26a2.081,2.081,0,0,1-2.541-1.5L32.864,16.749a2.088,2.088,0,0,1,1.506-2.541L54.381,9.065a2.083,2.083,0,0,1,2.536,1.5l2.832,11.011a2.085,2.085,0,0,1-1.5,2.541" transform="translate(131.282 36.019)" fill="#dde0e6"/>
              <path id="Trazado_630802" data-name="Trazado 630802" d="M64.928,21.512,40.506,27.79,39.325,23.2,63.748,16.92a1.1,1.1,0,0,1,1.331.785l.635,2.476a1.092,1.092,0,0,1-.785,1.331" transform="translate(157.403 67.585)" fill="#dde0e6"/>
              <path id="Trazado_630803" data-name="Trazado 630803" d="M60.316,32.178l-20.01,5.143a2.091,2.091,0,0,1-2.541-1.5L34.938,24.8a2.083,2.083,0,0,1,1.5-2.541L56.449,17.12a2.082,2.082,0,0,1,2.536,1.506l2.831,11.011a2.091,2.091,0,0,1-1.5,2.541" transform="translate(139.574 68.264)" fill="#dde0e6"/>
              <path id="Trazado_630804" data-name="Trazado 630804" d="M67,29.569,42.577,35.847,41.4,31.255l24.423-6.278a1.1,1.1,0,0,1,1.331.785l.635,2.476A1.092,1.092,0,0,1,67,29.569" transform="translate(165.693 99.834)" fill="#dde0e6"/>
              <path id="Trazado_630805" data-name="Trazado 630805" d="M62.394,40.235,42.383,45.378a2.09,2.09,0,0,1-2.546-1.506L37.005,32.861a2.09,2.09,0,0,1,1.506-2.541l20.011-5.143a2.087,2.087,0,0,1,2.536,1.5L63.89,37.694a2.088,2.088,0,0,1-1.5,2.541" transform="translate(147.857 100.514)" fill="#dde0e6"/>
              <path id="Trazado_630806" data-name="Trazado 630806" d="M69.069,37.628,44.647,43.9l-1.181-4.587,24.423-6.278a1.088,1.088,0,0,1,1.331.785l.635,2.476a1.094,1.094,0,0,1-.785,1.331" transform="translate(173.978 132.082)" fill="#dde0e6"/>
              <path id="Trazado_630807" data-name="Trazado 630807" d="M64.46,48.29,44.449,53.433a2.087,2.087,0,0,1-2.541-1.5L39.077,40.921a2.085,2.085,0,0,1,1.506-2.541l20.011-5.143a2.075,2.075,0,0,1,2.536,1.5l2.831,11.011a2.087,2.087,0,0,1-1.5,2.541" transform="translate(156.146 132.765)" fill="#dde0e6"/>
              <path id="Trazado_630808" data-name="Trazado 630808" d="M71.145,45.682,46.718,51.96l-1.181-4.592L69.965,41.09a1.089,1.089,0,0,1,1.326.785l.64,2.476a1.1,1.1,0,0,1-.785,1.331" transform="translate(182.268 164.328)" fill="#dde0e6"/>
              <path id="Trazado_630809" data-name="Trazado 630809" d="M66.531,56.346,46.52,61.489a2.086,2.086,0,0,1-2.541-1.5L41.148,48.977a2.088,2.088,0,0,1,1.5-2.541l20.011-5.143a2.081,2.081,0,0,1,2.541,1.5L68.032,53.8a2.088,2.088,0,0,1-1.5,2.541" transform="translate(164.435 165.01)" fill="#dde0e6"/>
              <path id="Trazado_630810" data-name="Trazado 630810" d="M73.211,53.739,48.789,60.017l-1.181-4.592,24.423-6.278a1.1,1.1,0,0,1,1.331.785L74,52.408a1.092,1.092,0,0,1-.785,1.331" transform="translate(190.557 196.578)" fill="#dde0e6"/>
              <path id="Trazado_630811" data-name="Trazado 630811" d="M68.6,64.4,48.589,69.545a2.09,2.09,0,0,1-2.541-1.506L43.221,57.029a2.079,2.079,0,0,1,1.5-2.536L64.732,49.35a2.079,2.079,0,0,1,2.536,1.5L70.1,61.861A2.083,2.083,0,0,1,68.6,64.4" transform="translate(172.728 197.26)" fill="#dde0e6"/>
              <path id="Trazado_630812" data-name="Trazado 630812" d="M168.8,238.157l-7.354,1.886L85.96,259.448l-11.4,2.932a4.55,4.55,0,0,1-5.533-3.277L12.2,38a4.541,4.541,0,0,1,3.272-5.533L109.7,8.251a4.538,4.538,0,0,1,5.528,3.267l56.835,221.106a4.546,4.546,0,0,1-3.267,5.533" transform="translate(48.26 32.45)" fill="#404c63"/>
              <path id="Trazado_630813" data-name="Trazado 630813" d="M172.412,237.223l-94.23,24.223a4.546,4.546,0,0,1-5.533-3.267L15.82,37.073a4.54,4.54,0,0,1,3.267-5.533L113.316,7.323a4.54,4.54,0,0,1,5.533,3.267L175.684,231.7a4.541,4.541,0,0,1-3.272,5.528" transform="translate(62.742 28.731)" fill="#566684"/>
              <path id="Trazado_630814" data-name="Trazado 630814" d="M148.775,219.852,76.3,238.482a5.483,5.483,0,0,1-6.669-3.942L18.4,35.2a5.475,5.475,0,0,1,3.942-6.669L94.8,9.9a5.48,5.48,0,0,1,6.668,3.942l51.242,199.345a5.48,5.48,0,0,1-3.937,6.669M22.754,30.143a3.81,3.81,0,0,0-2.741,4.632l51.237,199.35a3.817,3.817,0,0,0,4.637,2.741l72.473-18.63A3.819,3.819,0,0,0,151.1,213.6L99.859,14.254a3.812,3.812,0,0,0-4.637-2.741Z" transform="translate(72.936 38.924)" fill="#404c63"/>
              <path id="Trazado_630815" data-name="Trazado 630815" d="M44.688,18.126,20.261,24.4l-1.176-4.587,24.423-6.278a1.086,1.086,0,0,1,1.326.785l.64,2.476a1.092,1.092,0,0,1-.785,1.331" transform="translate(76.39 54.032)" fill="#dde0e6"/>
              <path id="Trazado_630816" data-name="Trazado 630816" d="M40.078,28.788,20.067,33.931a2.082,2.082,0,0,1-2.541-1.5L14.695,21.42a2.086,2.086,0,0,1,1.5-2.541l20.011-5.143a2.088,2.088,0,0,1,2.541,1.5l2.831,11.011a2.088,2.088,0,0,1-1.5,2.541" transform="translate(58.554 54.715)" fill="#dde0e6"/>
              <path id="Trazado_630817" data-name="Trazado 630817" d="M46.758,26.182,22.336,32.461l-1.181-4.592L45.583,21.59a1.089,1.089,0,0,1,1.326.785l.635,2.476a1.092,1.092,0,0,1-.785,1.331" transform="translate(84.676 86.277)" fill="#dde0e6"/>
              <path id="Trazado_630818" data-name="Trazado 630818" d="M42.146,36.846,22.141,41.989a2.094,2.094,0,0,1-2.546-1.5L16.768,29.477a2.085,2.085,0,0,1,1.5-2.541l20.011-5.143a2.073,2.073,0,0,1,2.536,1.5L43.652,34.3a2.088,2.088,0,0,1-1.506,2.541" transform="translate(66.846 86.959)" fill="#dde0e6"/>
              <path id="Trazado_630819" data-name="Trazado 630819" d="M48.829,34.239,24.407,40.517l-1.181-4.592,24.423-6.278a1.1,1.1,0,0,1,1.331.785l.635,2.476a1.089,1.089,0,0,1-.785,1.331" transform="translate(92.965 118.526)" fill="#dde0e6"/>
              <path id="Trazado_630820" data-name="Trazado 630820" d="M44.22,44.9,24.209,50.045a2.085,2.085,0,0,1-2.541-1.5L18.836,37.534a2.088,2.088,0,0,1,1.506-2.541L40.353,29.85a2.082,2.082,0,0,1,2.536,1.5l2.832,11.011a2.088,2.088,0,0,1-1.5,2.541" transform="translate(75.133 119.208)" fill="#dde0e6"/>
              <path id="Trazado_630821" data-name="Trazado 630821" d="M50.9,42.3,26.482,48.574,25.3,43.982,49.724,37.7a1.1,1.1,0,0,1,1.331.785l.635,2.476A1.094,1.094,0,0,1,50.9,42.3" transform="translate(101.25 150.775)" fill="#dde0e6"/>
              <path id="Trazado_630822" data-name="Trazado 630822" d="M46.287,52.962,26.282,58.105a2.086,2.086,0,0,1-2.541-1.5L20.909,45.589a2.079,2.079,0,0,1,1.5-2.536L42.42,37.9a2.088,2.088,0,0,1,2.541,1.506l2.831,11.011a2.09,2.09,0,0,1-1.506,2.541" transform="translate(83.421 151.455)" fill="#dde0e6"/>
              <path id="Trazado_630823" data-name="Trazado 630823" d="M52.971,50.353,28.549,56.627l-1.181-4.592,24.423-6.273a1.084,1.084,0,0,1,1.326.785l.64,2.476a1.092,1.092,0,0,1-.785,1.331" transform="translate(109.544 183.024)" fill="#dde0e6"/>
              <path id="Trazado_630824" data-name="Trazado 630824" d="M48.362,61.014,28.351,66.157a2.091,2.091,0,0,1-2.541-1.5L22.979,53.646A2.09,2.09,0,0,1,24.484,51.1l20.011-5.143a2.082,2.082,0,0,1,2.536,1.506l2.831,11.011a2.086,2.086,0,0,1-1.5,2.536" transform="translate(91.712 183.704)" fill="#dde0e6"/>
              <path id="Trazado_630825" data-name="Trazado 630825" d="M55.041,58.409,30.619,64.688,29.438,60.1l24.428-6.278a1.086,1.086,0,0,1,1.326.785l.635,2.476a1.092,1.092,0,0,1-.785,1.331" transform="translate(117.829 215.27)" fill="#dde0e6"/>
              <path id="Trazado_630826" data-name="Trazado 630826" d="M50.432,69.073,30.421,74.215a2.081,2.081,0,0,1-2.541-1.5L25.049,61.7a2.088,2.088,0,0,1,1.506-2.541L46.565,54.02a2.079,2.079,0,0,1,2.536,1.5l2.831,11.011a2.084,2.084,0,0,1-1.5,2.541" transform="translate(99.997 215.952)" fill="#dde0e6"/>
              <path id="Trazado_630827" data-name="Trazado 630827" d="M106.834,48.714S57.548,70.521,6.176,51.306c-.065-.5-1.211-10.8,13.162-14.693a27.419,27.419,0,0,1,8.62-.93c13.762.625,27.98,9.9,75.63-.025Z" transform="translate(24.535 142.696)" fill="#f6c1af"/>
              <path id="Trazado_630828" data-name="Trazado 630828" d="M27.253,38.537l20.381-4.587a1.088,1.088,0,0,1,.635,2.076L36.963,40.343,49.4,37.621a1.084,1.084,0,0,1,.575,2.086L38.1,43.67l11.466-2.176a1.09,1.09,0,0,1,.6,2.086L38.8,47.947l10.39-2.676a1.137,1.137,0,0,1,.73,2.146L33.656,54.355l-3.707-8.78Z" transform="translate(109.084 135.775)" fill="#f1a19a"/>
              <path id="Trazado_630829" data-name="Trazado 630829" d="M25.611,39.121s2.8-3.442,9.7-4.267c.155-.02.315-.03.47-.045a8.175,8.175,0,0,1,8.655,7.479,9.061,9.061,0,0,1-6.613,9.66,10.2,10.2,0,0,1-1.8.32,36.843,36.843,0,0,1-7.164-.09Z" transform="translate(102.511 139.233)" fill="#f6c1af"/>
              <path id="Trazado_630830" data-name="Trazado 630830" d="M29.292,35.975a28.422,28.422,0,0,0-8.635.955C6.285,40.832,7.431,51.128,7.5,51.613c-.625-2.972-1.181-5.843-1.7-8.6a27.353,27.353,0,0,1,23.492-7.034" transform="translate(23.215 142.374)" fill="#f1a19a"/>
              <path id="Trazado_630831" data-name="Trazado 630831" d="M42.746,17.2l-3.527,1.266a1.7,1.7,0,0,1-1.441-3.052L41,13.493a1.692,1.692,0,0,1,2.4.735l.305.65a1.691,1.691,0,0,1-.955,2.316" transform="translate(147.904 53.057)" fill="#f6c1af"/>
              <path id="Trazado_630832" data-name="Trazado 630832" d="M43.489,18.316,39.6,19.457a1.833,1.833,0,0,1-1.356-3.387l3.6-1.861a1.83,1.83,0,0,1,2.541.945l.29.72a1.838,1.838,0,0,1-1.186,2.441" transform="translate(149.117 56.053)" fill="#f6c1af"/>
              <path id="Trazado_630833" data-name="Trazado 630833" d="M43.235,19.086,39.4,19.5a1.743,1.743,0,0,1-.7-3.4l3.682-1.136A1.737,1.737,0,0,1,44.6,16.28l.15.725a1.737,1.737,0,0,1-1.516,2.081" transform="translate(150.016 59.6)" fill="#f6c1af"/>
              <path id="Trazado_630834" data-name="Trazado 630834" d="M42.757,19.553,39.27,19.4a1.575,1.575,0,0,1-.165-3.132l3.452-.52a1.574,1.574,0,0,1,1.806,1.481l.04.665a1.582,1.582,0,0,1-1.646,1.661" transform="translate(151.15 62.956)" fill="#f6c1af"/>
            </g>
          </g>
        </g>
      </g>
    </g>
  </g>
</svg>
