<svg xmlns="http://www.w3.org/2000/svg" xmlns:xlink="http://www.w3.org/1999/xlink" width="1240.333" height="274.885" viewBox="0 0 1240.333 274.885">
  <defs>
    <clipPath id="clip-path">
      <rect id="Rectángulo_336770" data-name="Rectángulo 336770" width="1240" height="274" rx="15" fill="#f0dcf0"/>
    </clipPath>
    <clipPath id="clip-path-2">
      <rect id="Rectángulo_336913" data-name="Rectángulo 336913" width="185.38" height="238.554" fill="none"/>
    </clipPath>
    <clipPath id="clip-path-3">
      <rect id="Rectángulo_336912" data-name="Rectángulo 336912" width="185.382" height="238.554" fill="none"/>
    </clipPath>
    <clipPath id="clip-path-4">
      <rect id="Rectángulo_336900" data-name="Rectángulo 336900" width="22.287" height="73.338" fill="none"/>
    </clipPath>
    <clipPath id="clip-path-5">
      <rect id="Rectángulo_336901" data-name="Rectángulo 336901" width="120.288" height="53.347" fill="none"/>
    </clipPath>
    <clipPath id="clip-path-6">
      <rect id="Rectángulo_336902" data-name="Rectángulo 336902" width="25.383" height="13.923" fill="none"/>
    </clipPath>
    <clipPath id="clip-path-7">
      <rect id="Rectángulo_336911" data-name="Rectángulo 336911" width="120.288" height="140.608" fill="none"/>
    </clipPath>
    <clipPath id="clip-path-8">
      <rect id="Rectángulo_336886" data-name="Rectángulo 336886" width="243.372" height="810.317" fill="none"/>
    </clipPath>
    <clipPath id="clip-path-9">
      <rect id="Rectángulo_336885" data-name="Rectángulo 336885" width="243.374" height="810.314" fill="none"/>
    </clipPath>
    <clipPath id="clip-path-10">
      <rect id="Rectángulo_336854" data-name="Rectángulo 336854" width="18.594" height="8.855" fill="none"/>
    </clipPath>
    <clipPath id="clip-path-11">
      <rect id="Rectángulo_336855" data-name="Rectángulo 336855" width="5.041" height="32.604" fill="none"/>
    </clipPath>
    <clipPath id="clip-path-12">
      <rect id="Rectángulo_336856" data-name="Rectángulo 336856" width="18.594" height="8.856" fill="none"/>
    </clipPath>
    <clipPath id="clip-path-14">
      <rect id="Rectángulo_336858" data-name="Rectángulo 336858" width="5.04" height="32.588" fill="none"/>
    </clipPath>
    <clipPath id="clip-path-16">
      <rect id="Rectángulo_336860" data-name="Rectángulo 336860" width="18.594" height="8.864" fill="none"/>
    </clipPath>
    <clipPath id="clip-path-17">
      <rect id="Rectángulo_336861" data-name="Rectángulo 336861" width="5.041" height="32.605" fill="none"/>
    </clipPath>
    <clipPath id="clip-path-20">
      <rect id="Rectángulo_336864" data-name="Rectángulo 336864" width="5.041" height="32.597" fill="none"/>
    </clipPath>
    <clipPath id="clip-path-21">
      <rect id="Rectángulo_336865" data-name="Rectángulo 336865" width="18.594" height="8.848" fill="none"/>
    </clipPath>
    <clipPath id="clip-path-22">
      <rect id="Rectángulo_336893" data-name="Rectángulo 336893" width="324.855" height="696.259" fill="none"/>
    </clipPath>
    <clipPath id="clip-path-23">
      <rect id="Rectángulo_336892" data-name="Rectángulo 336892" width="324.854" height="696.259" fill="none"/>
    </clipPath>
    <clipPath id="clip-path-24">
      <rect id="Rectángulo_336890" data-name="Rectángulo 336890" width="83.485" height="29.931" fill="none"/>
    </clipPath>
    <clipPath id="clip-path-25">
      <rect id="Rectángulo_336891" data-name="Rectángulo 336891" width="117.568" height="125.026" fill="none"/>
    </clipPath>
  </defs>
  <g id="Grupo_902092" data-name="Grupo 902092" transform="translate(-338 -2298)">
    <path id="Trazado_630197" data-name="Trazado 630197" d="M20.114,0H1220.219a20.113,20.113,0,0,1,20.114,20.114V254.771a20.113,20.113,0,0,1-20.114,20.113H20.114A20.113,20.113,0,0,1,0,254.771V20.114A20.114,20.114,0,0,1,20.114,0Z" transform="translate(338 2298)" fill="#3c0061"/>
    <g id="Enmascarar_grupo_901926" data-name="Enmascarar grupo 901926" transform="translate(338 2298)" clip-path="url(#clip-path)">
      <g id="Grupo_902141" data-name="Grupo 902141" transform="translate(999.022 24.229)">
        <g id="Grupo_902155" data-name="Grupo 902155" clip-path="url(#clip-path-2)">
          <g id="Grupo_902154" data-name="Grupo 902154" transform="translate(0 -0.001)">
            <g id="Grupo_902153" data-name="Grupo 902153" clip-path="url(#clip-path-3)">
              <path id="Trazado_630347" data-name="Trazado 630347" d="M4.9,77.569a2.7,2.7,0,0,1-2.707-2.707V26.131h5.42V74.862A2.7,2.7,0,0,1,4.9,77.569" transform="translate(11.746 139.893)" fill="#c2c8d3"/>
              <path id="Trazado_630348" data-name="Trazado 630348" d="M12.882,77.569a2.706,2.706,0,0,1-2.713-2.707V26.131h5.42V74.862a2.7,2.7,0,0,1-2.707,2.707" transform="translate(54.44 139.893)" fill="#c2c8d3"/>
              <path id="Trazado_630349" data-name="Trazado 630349" d="M20.851,77.569a2.7,2.7,0,0,1-2.707-2.707V26.131h5.42V74.862a2.706,2.706,0,0,1-2.713,2.707" transform="translate(97.134 139.893)" fill="#c2c8d3"/>
              <rect id="Rectángulo_336894" data-name="Rectángulo 336894" width="120.297" height="140.609" transform="translate(0 39.773)" fill="#78859d"/>
              <rect id="Rectángulo_336895" data-name="Rectángulo 336895" width="120.291" height="140.609" transform="translate(9.88 39.773)" fill="#9aa3b5"/>
              <rect id="Rectángulo_336896" data-name="Rectángulo 336896" width="9.88" height="13.92" transform="translate(0 113.111)" fill="#fc865e"/>
              <rect id="Rectángulo_336897" data-name="Rectángulo 336897" width="3.107" height="39.766" transform="translate(0 0.006)" fill="#78859d"/>
              <path id="Trazado_630350" data-name="Trazado 630350" d="M.489,39.773h108.13V0H.489Zm54.068-9.111c-4.568,0-8.266-4.829-8.266-10.769,0-5.96,3.7-10.788,8.266-10.788s8.253,4.829,8.253,10.788c0,5.941-3.691,10.769-8.253,10.769" transform="translate(2.618 0.001)" fill="#9aa3b5"/>
              <path id="Trazado_630351" data-name="Trazado 630351" d="M18.558,12.216c0,5.947-3.691,10.769-8.253,10.769a6.241,6.241,0,0,1-1.55-.184c3.812-.953,6.7-5.324,6.7-10.585s-2.884-9.645-6.7-10.591a6.242,6.242,0,0,1,1.55-.191c4.562,0,8.253,4.829,8.253,10.782" transform="translate(46.87 7.678)" fill="#78859d"/>
              <rect id="Rectángulo_336898" data-name="Rectángulo 336898" width="108.13" height="2.281" transform="translate(3.107 37.492)" fill="#78859d"/>
              <rect id="Rectángulo_336899" data-name="Rectángulo 336899" width="120.291" height="13.92" transform="translate(9.88 113.111)" fill="#fdbb86"/>
              <g id="Grupo_902143" data-name="Grupo 902143" transform="translate(107.885 39.772)" opacity="0.25">
                <g id="Grupo_902142" data-name="Grupo 902142">
                  <g id="Grupo_902141-2" data-name="Grupo 902141" clip-path="url(#clip-path-4)">
                    <path id="Trazado_630352" data-name="Trazado 630352" d="M39.268,6.26V79.6H16.98L33.271,6.26Z" transform="translate(-16.981 -6.26)" fill="#78859d"/>
                  </g>
                </g>
              </g>
              <g id="Grupo_902146" data-name="Grupo 902146" transform="translate(9.883 127.033)" opacity="0.25">
                <g id="Grupo_902145" data-name="Grupo 902145">
                  <g id="Grupo_902144" data-name="Grupo 902144" clip-path="url(#clip-path-5)">
                    <path id="Trazado_630353" data-name="Trazado 630353" d="M121.846,19.994V73.338H1.555V55.822H88.5l7.961-35.827Z" transform="translate(-1.558 -19.994)" fill="#78859d"/>
                  </g>
                </g>
              </g>
              <g id="Grupo_902149" data-name="Grupo 902149" transform="translate(104.789 113.11)" opacity="0.5">
                <g id="Grupo_902148" data-name="Grupo 902148">
                  <g id="Grupo_902147" data-name="Grupo 902147" clip-path="url(#clip-path-6)">
                    <path id="Trazado_630354" data-name="Trazado 630354" d="M41.875,17.8v13.92H16.493L19.587,17.8Z" transform="translate(-16.493 -17.803)" fill="#fc865e"/>
                  </g>
                </g>
              </g>
              <rect id="Rectángulo_336903" data-name="Rectángulo 336903" width="5.413" height="3.774" transform="translate(13.946 180.375)" fill="#9aa3b5"/>
              <rect id="Rectángulo_336904" data-name="Rectángulo 336904" width="5.413" height="3.774" transform="translate(64.609 180.375)" fill="#9aa3b5"/>
              <rect id="Rectángulo_336905" data-name="Rectángulo 336905" width="5.413" height="3.774" transform="translate(115.284 180.375)" fill="#9aa3b5"/>
              <path id="Trazado_630355" data-name="Trazado 630355" d="M13.59,80.889a2.713,2.713,0,0,1-2.707-2.707V29.451H16.3V78.182a2.714,2.714,0,0,1-2.713,2.707" transform="translate(58.262 157.666)" fill="#c2c8d3"/>
              <path id="Trazado_630356" data-name="Trazado 630356" d="M21.571,80.889a2.714,2.714,0,0,1-2.713-2.707V29.451h5.42V78.182a2.709,2.709,0,0,1-2.707,2.707" transform="translate(100.956 157.666)" fill="#c2c8d3"/>
              <path id="Trazado_630357" data-name="Trazado 630357" d="M29.541,80.889a2.709,2.709,0,0,1-2.707-2.707V29.451h5.413V78.182a2.709,2.709,0,0,1-2.707,2.707" transform="translate(143.655 157.666)" fill="#c2c8d3"/>
              <rect id="Rectángulo_336906" data-name="Rectángulo 336906" width="120.297" height="140.609" transform="translate(55.205 60.866)" fill="#fc865e"/>
              <rect id="Rectángulo_336907" data-name="Rectángulo 336907" width="120.291" height="140.609" transform="translate(65.091 60.866)" fill="#fdbb86"/>
              <rect id="Rectángulo_336908" data-name="Rectángulo 336908" width="5.413" height="3.768" transform="translate(69.151 201.475)" fill="#9aa3b5"/>
              <rect id="Rectángulo_336909" data-name="Rectángulo 336909" width="5.413" height="3.768" transform="translate(119.82 201.475)" fill="#9aa3b5"/>
              <rect id="Rectángulo_336910" data-name="Rectángulo 336910" width="5.413" height="3.768" transform="translate(170.489 201.475)" fill="#9aa3b5"/>
              <g id="Grupo_902152" data-name="Grupo 902152" transform="translate(65.092 60.868)" opacity="0.25">
                <g id="Grupo_902151" data-name="Grupo 902151">
                  <g id="Grupo_902150" data-name="Grupo 902150" clip-path="url(#clip-path-7)">
                    <path id="Trazado_630358" data-name="Trazado 630358" d="M10.245,123.587H73.323L120.656,9.581h9.88v140.6H10.245Z" transform="translate(-10.245 -9.578)" fill="#fc865e"/>
                  </g>
                </g>
              </g>
            </g>
          </g>
        </g>
      </g>
      <g id="Grupo_902093" data-name="Grupo 902093" transform="translate(848.27 11.216) rotate(90)">
        <g id="Grupo_902131" data-name="Grupo 902131" transform="translate(1.195 12)" clip-path="url(#clip-path-8)">
          <rect id="Rectángulo_336785" data-name="Rectángulo 336785" width="10.265" height="810.323" transform="translate(215.775 -0.006)" fill="#496a59"/>
          <path id="Trazado_630200" data-name="Trazado 630200" d="M23.625,0V251.84H0V612l41.05,39.386V810.323H215.776V0Z" transform="translate(0.001 -0.001)" fill="#618d77"/>
          <rect id="Rectángulo_336786" data-name="Rectángulo 336786" width="17.334" height="14.422" transform="translate(226.04 785.822)" fill="#c2c8d3"/>
          <rect id="Rectángulo_336787" data-name="Rectángulo 336787" width="17.334" height="3.363" transform="translate(226.04 782.451)" fill="#566684"/>
          <rect id="Rectángulo_336788" data-name="Rectángulo 336788" width="17.334" height="14.447" transform="translate(226.04 730.634)" fill="#c2c8d3"/>
          <rect id="Rectángulo_336789" data-name="Rectángulo 336789" width="17.334" height="3.363" transform="translate(226.04 727.271)" fill="#566684"/>
          <rect id="Rectángulo_336790" data-name="Rectángulo 336790" width="17.334" height="14.431" transform="translate(226.04 675.471)" fill="#c2c8d3"/>
          <rect id="Rectángulo_336791" data-name="Rectángulo 336791" width="17.334" height="3.371" transform="translate(226.04 672.099)" fill="#566684"/>
          <rect id="Rectángulo_336792" data-name="Rectángulo 336792" width="17.334" height="14.447" transform="translate(226.04 620.299)" fill="#c2c8d3"/>
          <rect id="Rectángulo_336793" data-name="Rectángulo 336793" width="17.334" height="3.363" transform="translate(226.04 616.936)" fill="#566684"/>
          <rect id="Rectángulo_336794" data-name="Rectángulo 336794" width="17.334" height="14.431" transform="translate(226.04 565.136)" fill="#c2c8d3"/>
          <rect id="Rectángulo_336795" data-name="Rectángulo 336795" width="17.334" height="3.363" transform="translate(226.04 561.765)" fill="#566684"/>
          <rect id="Rectángulo_336796" data-name="Rectángulo 336796" width="17.334" height="14.439" transform="translate(226.04 509.956)" fill="#c2c8d3"/>
          <rect id="Rectángulo_336797" data-name="Rectángulo 336797" width="17.334" height="3.363" transform="translate(226.04 506.593)" fill="#566684"/>
          <rect id="Rectángulo_336798" data-name="Rectángulo 336798" width="17.334" height="14.431" transform="translate(226.04 454.793)" fill="#c2c8d3"/>
          <rect id="Rectángulo_336799" data-name="Rectángulo 336799" width="17.334" height="3.371" transform="translate(226.04 451.422)" fill="#566684"/>
          <rect id="Rectángulo_336800" data-name="Rectángulo 336800" width="17.334" height="14.431" transform="translate(226.04 399.63)" fill="#c2c8d3"/>
          <rect id="Rectángulo_336801" data-name="Rectángulo 336801" width="17.334" height="3.371" transform="translate(226.04 396.259)" fill="#566684"/>
          <rect id="Rectángulo_336802" data-name="Rectángulo 336802" width="17.334" height="14.431" transform="translate(226.04 344.458)" fill="#c2c8d3"/>
          <rect id="Rectángulo_336803" data-name="Rectángulo 336803" width="17.334" height="3.371" transform="translate(226.04 341.079)" fill="#566684"/>
          <rect id="Rectángulo_336804" data-name="Rectángulo 336804" width="17.334" height="14.422" transform="translate(226.04 289.295)" fill="#c2c8d3"/>
          <rect id="Rectángulo_336805" data-name="Rectángulo 336805" width="17.334" height="3.38" transform="translate(226.04 285.907)" fill="#566684"/>
          <rect id="Rectángulo_336806" data-name="Rectángulo 336806" width="17.334" height="14.439" transform="translate(226.04 234.107)" fill="#c2c8d3"/>
          <rect id="Rectángulo_336807" data-name="Rectángulo 336807" width="17.334" height="3.363" transform="translate(226.04 230.744)" fill="#566684"/>
          <rect id="Rectángulo_336808" data-name="Rectángulo 336808" width="17.334" height="14.431" transform="translate(226.04 178.944)" fill="#c2c8d3"/>
          <rect id="Rectángulo_336809" data-name="Rectángulo 336809" width="17.334" height="3.371" transform="translate(226.04 175.573)" fill="#566684"/>
          <rect id="Rectángulo_336810" data-name="Rectángulo 336810" width="17.334" height="14.439" transform="translate(226.04 123.772)" fill="#c2c8d3"/>
          <rect id="Rectángulo_336811" data-name="Rectángulo 336811" width="17.334" height="3.363" transform="translate(226.04 120.409)" fill="#566684"/>
          <rect id="Rectángulo_336812" data-name="Rectángulo 336812" width="17.334" height="14.431" transform="translate(226.04 68.609)" fill="#c2c8d3"/>
          <rect id="Rectángulo_336813" data-name="Rectángulo 336813" width="17.334" height="3.363" transform="translate(226.04 65.238)" fill="#566684"/>
          <rect id="Rectángulo_336814" data-name="Rectángulo 336814" width="17.334" height="14.447" transform="translate(226.04 13.429)" fill="#c2c8d3"/>
          <rect id="Rectángulo_336815" data-name="Rectángulo 336815" width="17.334" height="3.363" transform="translate(226.04 10.066)" fill="#566684"/>
          <rect id="Rectángulo_336816" data-name="Rectángulo 336816" width="28.987" height="90.282" transform="translate(22.294 392.293)" fill="#9aa3b5"/>
          <rect id="Rectángulo_336817" data-name="Rectángulo 336817" width="11.26" height="90.282" transform="translate(51.281 392.293)" fill="#566684"/>
          <g id="Grupo_902130" data-name="Grupo 902130" transform="translate(0 0.003)">
            <g id="Grupo_902129" data-name="Grupo 902129" clip-path="url(#clip-path-9)">
              <path id="Trazado_630201" data-name="Trazado 630201" d="M19.509,57.757v2.267a.994.994,0,0,1-1,1H6.8V56.762H18.514a1,1,0,0,1,1,1" transform="translate(50.101 418.087)" fill="#c2c8d3"/>
              <path id="Trazado_630202" data-name="Trazado 630202" d="M19.509,55.867v2.267a.994.994,0,0,1-1,1H6.8V54.871H18.514a1,1,0,0,1,1,1" transform="translate(50.101 404.158)" fill="#c2c8d3"/>
              <path id="Trazado_630203" data-name="Trazado 630203" d="M19.509,53.977v2.267a.994.994,0,0,1-1,1H6.8V52.981H18.514a.993.993,0,0,1,1,1" transform="translate(50.101 390.237)" fill="#c2c8d3"/>
              <path id="Trazado_630204" data-name="Trazado 630204" d="M19.509,52.085v2.267a.994.994,0,0,1-1,1H6.8V51.09H18.514a.993.993,0,0,1,1,1" transform="translate(50.101 376.309)" fill="#c2c8d3"/>
              <path id="Trazado_630205" data-name="Trazado 630205" d="M19.509,50.195v2.267a1,1,0,0,1-1,1H6.8V49.2H18.514a.993.993,0,0,1,1,1" transform="translate(50.101 362.38)" fill="#c2c8d3"/>
              <path id="Trazado_630206" data-name="Trazado 630206" d="M19.509,48.312v2.267a1,1,0,0,1-1,1H6.8V47.308H18.514a1,1,0,0,1,1,1" transform="translate(50.101 348.452)" fill="#c2c8d3"/>
              <rect id="Rectángulo_336818" data-name="Rectángulo 336818" width="27.891" height="42.171" transform="translate(158.638 133.926)" fill="#9aa3b5"/>
              <rect id="Rectángulo_336819" data-name="Rectángulo 336819" width="17.944" height="32.216" transform="translate(163.607 138.903)" fill="#aeb5c4"/>
              <rect id="Rectángulo_336820" data-name="Rectángulo 336820" width="7.144" height="42.171" transform="translate(186.529 133.926)" fill="#566684"/>
              <rect id="Rectángulo_336821" data-name="Rectángulo 336821" width="27.891" height="42.171" transform="translate(158.638 209.66)" fill="#9aa3b5"/>
              <rect id="Rectángulo_336822" data-name="Rectángulo 336822" width="17.944" height="32.224" transform="translate(163.607 214.621)" fill="#aeb5c4"/>
              <rect id="Rectángulo_336823" data-name="Rectángulo 336823" width="7.144" height="42.171" transform="translate(186.529 209.66)" fill="#566684"/>
              <rect id="Rectángulo_336824" data-name="Rectángulo 336824" width="27.891" height="42.171" transform="translate(158.638 285.378)" fill="#9aa3b5"/>
              <rect id="Rectángulo_336825" data-name="Rectángulo 336825" width="17.944" height="32.216" transform="translate(163.607 290.355)" fill="#aeb5c4"/>
              <rect id="Rectángulo_336826" data-name="Rectángulo 336826" width="7.144" height="42.171" transform="translate(186.529 285.378)" fill="#566684"/>
              <rect id="Rectángulo_336827" data-name="Rectángulo 336827" width="19.408" height="58.066" transform="translate(36.55 25.9)" fill="#9aa3b5"/>
              <rect id="Rectángulo_336828" data-name="Rectángulo 336828" width="13.318" height="51.959" transform="translate(40.582 28.954)" fill="#566684"/>
              <rect id="Rectángulo_336829" data-name="Rectángulo 336829" width="9.997" height="51.959" transform="translate(43.895 28.954)" fill="#414d63"/>
              <rect id="Rectángulo_336830" data-name="Rectángulo 336830" width="7.186" height="58.066" transform="translate(55.958 25.9)" fill="#566684"/>
              <rect id="Rectángulo_336831" data-name="Rectángulo 336831" width="9.729" height="3.288" transform="translate(59.547 75.199)" fill="#c2c8d3"/>
              <rect id="Rectángulo_336832" data-name="Rectángulo 336832" width="9.729" height="3.296" transform="translate(59.547 64.24)" fill="#c2c8d3"/>
              <rect id="Rectángulo_336833" data-name="Rectángulo 336833" width="9.729" height="3.296" transform="translate(59.547 53.281)" fill="#c2c8d3"/>
              <rect id="Rectángulo_336834" data-name="Rectángulo 336834" width="9.729" height="3.296" transform="translate(59.547 42.322)" fill="#c2c8d3"/>
              <rect id="Rectángulo_336835" data-name="Rectángulo 336835" width="9.729" height="3.288" transform="translate(59.547 31.363)" fill="#c2c8d3"/>
              <rect id="Rectángulo_336836" data-name="Rectángulo 336836" width="19.408" height="58.066" transform="translate(97.535 25.9)" fill="#9aa3b5"/>
              <rect id="Rectángulo_336837" data-name="Rectángulo 336837" width="13.31" height="51.959" transform="translate(101.567 28.954)" fill="#566684"/>
              <rect id="Rectángulo_336838" data-name="Rectángulo 336838" width="9.997" height="51.959" transform="translate(104.872 28.954)" fill="#414d63"/>
              <rect id="Rectángulo_336839" data-name="Rectángulo 336839" width="7.178" height="58.066" transform="translate(116.944 25.9)" fill="#566684"/>
              <rect id="Rectángulo_336840" data-name="Rectángulo 336840" width="9.738" height="3.288" transform="translate(120.524 75.199)" fill="#c2c8d3"/>
              <rect id="Rectángulo_336841" data-name="Rectángulo 336841" width="9.738" height="3.296" transform="translate(120.524 64.24)" fill="#c2c8d3"/>
              <rect id="Rectángulo_336842" data-name="Rectángulo 336842" width="9.738" height="3.296" transform="translate(120.524 53.281)" fill="#c2c8d3"/>
              <rect id="Rectángulo_336843" data-name="Rectángulo 336843" width="9.738" height="3.296" transform="translate(120.524 42.322)" fill="#c2c8d3"/>
              <rect id="Rectángulo_336844" data-name="Rectángulo 336844" width="9.738" height="3.288" transform="translate(120.524 31.363)" fill="#c2c8d3"/>
              <rect id="Rectángulo_336845" data-name="Rectángulo 336845" width="19.408" height="58.066" transform="translate(158.512 25.9)" fill="#9aa3b5"/>
              <rect id="Rectángulo_336846" data-name="Rectángulo 336846" width="13.31" height="51.959" transform="translate(162.553 28.954)" fill="#566684"/>
              <rect id="Rectángulo_336847" data-name="Rectángulo 336847" width="9.997" height="51.959" transform="translate(165.858 28.954)" fill="#414d63"/>
              <rect id="Rectángulo_336848" data-name="Rectángulo 336848" width="7.178" height="58.066" transform="translate(177.929 25.9)" fill="#566684"/>
              <rect id="Rectángulo_336849" data-name="Rectángulo 336849" width="9.729" height="3.288" transform="translate(181.51 75.199)" fill="#c2c8d3"/>
              <rect id="Rectángulo_336850" data-name="Rectángulo 336850" width="9.729" height="3.296" transform="translate(181.51 64.24)" fill="#c2c8d3"/>
              <rect id="Rectángulo_336851" data-name="Rectángulo 336851" width="9.729" height="3.296" transform="translate(181.51 53.281)" fill="#c2c8d3"/>
              <rect id="Rectángulo_336852" data-name="Rectángulo 336852" width="9.729" height="3.296" transform="translate(181.51 42.322)" fill="#c2c8d3"/>
              <rect id="Rectángulo_336853" data-name="Rectángulo 336853" width="9.729" height="3.288" transform="translate(181.51 31.363)" fill="#c2c8d3"/>
              <path id="Trazado_630207" data-name="Trazado 630207" d="M11.2,47.3a.657.657,0,0,1,.661.661v1.589a6.681,6.681,0,0,0,.125,1.3,6.832,6.832,0,0,0,6.7,5.521H24.36V57.7H18.689a8.172,8.172,0,0,1-8.157-8.148V47.958A.664.664,0,0,1,11.2,47.3" transform="translate(77.575 348.371)" fill="#9caed1"/>
              <path id="Trazado_630208" data-name="Trazado 630208" d="M9.444,43.757h18.6v27.7c-.017,2.125-2.058,3.982-5.044,4.9a14.494,14.494,0,0,1-4.258.619c-5.12,0-9.278-2.476-9.278-5.521l-.017-27.7" transform="translate(69.561 322.297)" fill="#fdbb86"/>
              <path id="Trazado_630209" data-name="Trazado 630209" d="M18.725,43.1c5.12,0,9.278,2.468,9.278,5.513,0,2.133-2.041,4-5.019,4.911a14.542,14.542,0,0,1-4.258.611c-5.12,0-9.278-2.476-9.278-5.521S13.6,43.1,18.725,43.1" transform="translate(69.583 317.443)" fill="#fda55d"/>
              <path id="Trazado_630210" data-name="Trazado 630210" d="M25.122,47.263c0,1.891-3.187,3.99-7.747,3.99s-7.747-2.1-7.747-3.99,3.179-3.982,7.747-3.982,7.747,2.1,7.747,3.982" transform="translate(70.924 318.79)" fill="#fc8a5e"/>
              <g id="Grupo_902095" data-name="Grupo 902095" transform="translate(79.008 383.658)" opacity="0.75">
                <g id="Grupo_902094" data-name="Grupo 902094">
                  <g id="Grupo_902093-2" data-name="Grupo 902093" clip-path="url(#clip-path-10)">
                    <path id="Trazado_630211" data-name="Trazado 630211" d="M18.739,51.383c5.12,0,9.278-2.476,9.278-5.521l.017,3.33c-.017,3.053-4.174,5.521-9.294,5.521s-9.278-2.468-9.278-5.521l-.017-3.33c.017,3.045,4.174,5.521,9.294,5.521" transform="translate(-9.439 -45.857)" fill="#fda55d"/>
                  </g>
                </g>
              </g>
              <g id="Grupo_902098" data-name="Grupo 902098" transform="translate(92.561 366.053)" opacity="0.5">
                <g id="Grupo_902097" data-name="Grupo 902097">
                  <g id="Grupo_902096" data-name="Grupo 902096" clip-path="url(#clip-path-11)">
                    <path id="Trazado_630212" data-name="Trazado 630212" d="M16.092,43.757l.017,27.7c-.017,2.125-2.058,3.982-5.044,4.9V48.668c2.987-.912,5.028-2.777,5.028-4.911" transform="translate(-11.067 -43.756)" fill="#fda55d"/>
                  </g>
                </g>
              </g>
              <g id="Grupo_902101" data-name="Grupo 902101" transform="translate(79.008 372.809)" opacity="0.75">
                <g id="Grupo_902100" data-name="Grupo 902100">
                  <g id="Grupo_902099" data-name="Grupo 902099" clip-path="url(#clip-path-12)">
                    <path id="Trazado_630213" data-name="Trazado 630213" d="M18.739,50.086c5.12,0,9.278-2.468,9.278-5.521l.017,3.33c-.017,3.062-4.174,5.521-9.294,5.521s-9.278-2.46-9.278-5.521l-.017-3.33c.017,3.053,4.174,5.521,9.294,5.521" transform="translate(-9.439 -44.561)" fill="#fda55d"/>
                  </g>
                </g>
              </g>
              <path id="Trazado_630214" data-name="Trazado 630214" d="M18.739,51.443c5.12,0,9.278-2.468,9.278-5.521l.017,3.33c-.017,3.062-4.174,5.521-9.294,5.521s-9.278-2.46-9.278-5.521l-.017-3.33c.017,3.053,4.174,5.521,9.294,5.521" transform="translate(69.569 338.243)" fill="#fee4cf"/>
              <path id="Trazado_630215" data-name="Trazado 630215" d="M18.739,50.139c5.12,0,9.278-2.468,9.278-5.513l.017,3.33c-.017,3.053-4.174,5.513-9.294,5.513s-9.278-2.46-9.278-5.513l-.017-3.33c.017,3.045,4.174,5.513,9.294,5.513" transform="translate(69.569 328.697)" fill="#fee4cf"/>
              <path id="Trazado_630216" data-name="Trazado 630216" d="M18.7,42.593h5.672v1.33H18.7A6.862,6.862,0,0,0,13,46.977a7.634,7.634,0,0,0-.728,1.456,6.859,6.859,0,0,0-.4,2.326v1.573a.662.662,0,0,1-.661.661.671.671,0,0,1-.678-.661V50.758a8.154,8.154,0,0,1,.368-2.409,7.171,7.171,0,0,1,.644-1.514A8.179,8.179,0,0,1,18.7,42.593" transform="translate(77.575 313.723)" fill="#9caed1"/>
              <path id="Trazado_630217" data-name="Trazado 630217" d="M14.314,51.1a.657.657,0,0,1,.661.661v1.581A6.872,6.872,0,0,0,21.8,60.17h5.672V61.5H21.8a8.164,8.164,0,0,1-8.039-6.8,8.08,8.08,0,0,1-.109-1.355V51.763a.657.657,0,0,1,.661-.661" transform="translate(100.563 376.397)" fill="#9caed1"/>
              <path id="Trazado_630218" data-name="Trazado 630218" d="M12.564,47.563h18.6v27.69c-.017,2.125-2.05,3.982-5.044,4.9a14.782,14.782,0,0,1-4.258.611c-5.12,0-9.278-2.468-9.278-5.513l-.017-27.69" transform="translate(92.542 350.33)" fill="#fdbb86"/>
              <path id="Trazado_630219" data-name="Trazado 630219" d="M21.845,46.9c5.12,0,9.278,2.468,9.278,5.521,0,2.125-2.033,3.982-5.019,4.9a14.545,14.545,0,0,1-4.258.6c-5.12,0-9.277-2.468-9.277-5.5,0-3.053,4.158-5.521,9.277-5.521" transform="translate(92.564 345.462)" fill="#fda55d"/>
              <path id="Trazado_630220" data-name="Trazado 630220" d="M28.243,51.076c0,1.882-3.179,3.974-7.747,3.974s-7.747-2.091-7.747-3.974c0-1.9,3.179-3.99,7.747-3.99s7.747,2.091,7.747,3.99" transform="translate(93.912 346.817)" fill="#fc8a5e"/>
              <g id="Grupo_902104" data-name="Grupo 902104" transform="translate(105.109 415.486)" opacity="0.75">
                <g id="Grupo_902103" data-name="Grupo 902103">
                  <g id="Grupo_902102" data-name="Grupo 902102" clip-path="url(#clip-path-12)">
                    <path id="Trazado_630221" data-name="Trazado 630221" d="M21.859,55.179c5.12,0,9.278-2.476,9.278-5.513L31.153,53c-.017,3.062-4.174,5.521-9.294,5.521S12.582,56.057,12.582,53l-.017-3.33c.017,3.037,4.174,5.513,9.294,5.513" transform="translate(-12.56 -49.666)" fill="#fda55d"/>
                  </g>
                </g>
              </g>
              <g id="Grupo_902107" data-name="Grupo 902107" transform="translate(118.664 397.889)" opacity="0.5">
                <g id="Grupo_902106" data-name="Grupo 902106">
                  <g id="Grupo_902105" data-name="Grupo 902105" clip-path="url(#clip-path-14)">
                    <path id="Trazado_630222" data-name="Trazado 630222" d="M19.2,47.563l.017,27.69c-.017,2.125-2.05,3.982-5.036,4.9V52.465c2.987-.92,5.019-2.777,5.019-4.9" transform="translate(-14.182 -47.559)" fill="#fda55d"/>
                  </g>
                </g>
              </g>
              <g id="Grupo_902110" data-name="Grupo 902110" transform="translate(105.109 404.638)" opacity="0.75">
                <g id="Grupo_902109" data-name="Grupo 902109">
                  <g id="Grupo_902108" data-name="Grupo 902108" clip-path="url(#clip-path-12)">
                    <path id="Trazado_630223" data-name="Trazado 630223" d="M21.859,53.882c5.12,0,9.278-2.468,9.278-5.513l.017,3.33c-.017,3.053-4.174,5.521-9.294,5.521s-9.277-2.468-9.277-5.521l-.017-3.33c.017,3.045,4.174,5.513,9.294,5.513" transform="translate(-12.56 -48.371)" fill="#fda55d"/>
                  </g>
                </g>
              </g>
              <path id="Trazado_630224" data-name="Trazado 630224" d="M21.859,55.248c5.12,0,9.278-2.476,9.278-5.521l.017,3.338c-.017,3.053-4.174,5.513-9.294,5.513s-9.277-2.459-9.277-5.513l-.017-3.338c.017,3.045,4.174,5.521,9.294,5.521" transform="translate(92.549 366.27)" fill="#fee4cf"/>
              <path id="Trazado_630225" data-name="Trazado 630225" d="M21.859,53.951c5.12,0,9.278-2.468,9.278-5.521l.017,3.338c-.017,3.053-4.174,5.513-9.294,5.513s-9.277-2.46-9.277-5.513l-.017-3.338c.017,3.053,4.174,5.521,9.294,5.521" transform="translate(92.549 356.716)" fill="#fee4cf"/>
              <path id="Trazado_630226" data-name="Trazado 630226" d="M21.81,46.4h5.672v1.322H21.81a6.837,6.837,0,0,0-5.689,3.053,6.994,6.994,0,0,0-.736,1.456,6.859,6.859,0,0,0-.4,2.326v1.581a.665.665,0,0,1-1.33,0V54.556a8.109,8.109,0,0,1,.36-2.409,7.85,7.85,0,0,1,.644-1.514A8.155,8.155,0,0,1,21.81,46.4" transform="translate(100.563 341.757)" fill="#9caed1"/>
              <path id="Trazado_630227" data-name="Trazado 630227" d="M11.2,54.711a.655.655,0,0,1,.661.653v1.589a6.824,6.824,0,0,0,6.826,6.826H24.36V65.1H18.689a8.172,8.172,0,0,1-8.157-8.148V55.364a.662.662,0,0,1,.669-.653" transform="translate(77.575 402.98)" fill="#9caed1"/>
              <path id="Trazado_630228" data-name="Trazado 630228" d="M9.444,51.17h18.6v27.7C28.024,81,25.983,82.851,23,83.771a14.222,14.222,0,0,1-4.258.619c-5.12,0-9.278-2.468-9.278-5.521l-.017-27.7" transform="translate(69.561 376.898)" fill="#fdbb86"/>
              <path id="Trazado_630229" data-name="Trazado 630229" d="M18.725,50.511c5.12,0,9.278,2.476,9.278,5.513,0,2.142-2.041,4-5.019,4.911a14.267,14.267,0,0,1-4.258.611c-5.12,0-9.278-2.468-9.278-5.521,0-3.037,4.158-5.513,9.278-5.513" transform="translate(69.583 372.044)" fill="#fda55d"/>
              <path id="Trazado_630230" data-name="Trazado 630230" d="M25.122,54.676c0,1.9-3.187,3.99-7.747,3.99s-7.747-2.091-7.747-3.99c0-1.882,3.179-3.982,7.747-3.982s7.747,2.1,7.747,3.982" transform="translate(70.924 373.392)" fill="#fc8a5e"/>
              <g id="Grupo_902113" data-name="Grupo 902113" transform="translate(79.008 445.673)" opacity="0.75">
                <g id="Grupo_902112" data-name="Grupo 902112">
                  <g id="Grupo_902111" data-name="Grupo 902111" clip-path="url(#clip-path-16)">
                    <path id="Trazado_630231" data-name="Trazado 630231" d="M18.739,58.8c5.12,0,9.278-2.476,9.278-5.521l.017,3.338c-.017,3.053-4.174,5.521-9.294,5.521s-9.278-2.468-9.278-5.521l-.017-3.338c.017,3.045,4.174,5.521,9.294,5.521" transform="translate(-9.439 -53.27)" fill="#fda55d"/>
                  </g>
                </g>
              </g>
              <g id="Grupo_902116" data-name="Grupo 902116" transform="translate(92.561 428.067)" opacity="0.5">
                <g id="Grupo_902115" data-name="Grupo 902115">
                  <g id="Grupo_902114" data-name="Grupo 902114" clip-path="url(#clip-path-17)">
                    <path id="Trazado_630232" data-name="Trazado 630232" d="M16.092,51.17l.017,27.7c-.017,2.133-2.058,3.982-5.044,4.9V56.081c2.987-.912,5.028-2.769,5.028-4.911" transform="translate(-11.067 -51.169)" fill="#fda55d"/>
                  </g>
                </g>
              </g>
              <g id="Grupo_902119" data-name="Grupo 902119" transform="translate(79.008 434.832)" opacity="0.75">
                <g id="Grupo_902118" data-name="Grupo 902118">
                  <g id="Grupo_902117" data-name="Grupo 902117" clip-path="url(#clip-path-12)">
                    <path id="Trazado_630233" data-name="Trazado 630233" d="M18.739,57.492c5.12,0,9.278-2.468,9.278-5.513l.017,3.33c-.017,3.053-4.174,5.521-9.294,5.521s-9.278-2.468-9.278-5.521l-.017-3.33c.017,3.045,4.174,5.513,9.294,5.513" transform="translate(-9.439 -51.975)" fill="#fda55d"/>
                  </g>
                </g>
              </g>
              <path id="Trazado_630234" data-name="Trazado 630234" d="M18.739,58.857c5.12,0,9.278-2.476,9.278-5.521l.017,3.33c-.017,3.062-4.174,5.521-9.294,5.521s-9.278-2.46-9.278-5.521l-.017-3.33c.017,3.045,4.174,5.521,9.294,5.521" transform="translate(69.569 392.852)" fill="#fee4cf"/>
              <path id="Trazado_630235" data-name="Trazado 630235" d="M18.739,57.56c5.12,0,9.278-2.468,9.278-5.521l.017,3.33c-.017,3.062-4.174,5.521-9.294,5.521s-9.278-2.46-9.278-5.521l-.017-3.33c.017,3.053,4.174,5.521,9.294,5.521" transform="translate(69.569 383.299)" fill="#fee4cf"/>
              <path id="Trazado_630236" data-name="Trazado 630236" d="M18.7,50.007h5.672v1.33H18.7A6.841,6.841,0,0,0,13,54.391a7.174,7.174,0,0,0-.728,1.456,6.846,6.846,0,0,0-.4,2.317v1.581a.662.662,0,0,1-.661.661.671.671,0,0,1-.678-.661V58.164a8.2,8.2,0,0,1,.368-2.409,7.292,7.292,0,0,1,.644-1.506A8.162,8.162,0,0,1,18.7,50.007" transform="translate(77.575 368.332)" fill="#9caed1"/>
              <path id="Trazado_630237" data-name="Trazado 630237" d="M11.2,84.658a.664.664,0,0,1,.661.669v1.589a6.68,6.68,0,0,0,.125,1.3,6.831,6.831,0,0,0,6.7,5.521H24.36v1.33H18.689a8.164,8.164,0,0,1-8.039-6.8,8.058,8.058,0,0,1-.117-1.347V85.327a.671.671,0,0,1,.669-.669" transform="translate(77.575 623.559)" fill="#9caed1"/>
              <path id="Trazado_630238" data-name="Trazado 630238" d="M9.444,81.119h18.6v27.7c-.017,2.125-2.058,3.982-5.044,4.894a14.494,14.494,0,0,1-4.258.619c-5.12,0-9.278-2.468-9.278-5.513l-.017-27.7" transform="translate(69.561 597.492)" fill="#fdbb86"/>
              <path id="Trazado_630239" data-name="Trazado 630239" d="M18.725,80.459c5.12,0,9.278,2.468,9.278,5.521,0,2.133-2.041,3.99-5.019,4.9a14.542,14.542,0,0,1-4.258.611c-5.12,0-9.278-2.468-9.278-5.513s4.158-5.521,9.278-5.521" transform="translate(69.583 592.631)" fill="#fda55d"/>
              <path id="Trazado_630240" data-name="Trazado 630240" d="M25.122,84.632c0,1.882-3.187,3.99-7.747,3.99s-7.747-2.108-7.747-3.99,3.179-3.99,7.747-3.99,7.747,2.1,7.747,3.99" transform="translate(70.924 593.979)" fill="#fc8a5e"/>
              <g id="Grupo_902122" data-name="Grupo 902122" transform="translate(79.008 696.21)" opacity="0.75">
                <g id="Grupo_902121" data-name="Grupo 902121">
                  <g id="Grupo_902120" data-name="Grupo 902120" clip-path="url(#clip-path-12)">
                    <path id="Trazado_630241" data-name="Trazado 630241" d="M18.739,88.744c5.12,0,9.278-2.468,9.278-5.521l.017,3.33c-.017,3.062-4.174,5.53-9.294,5.53s-9.278-2.468-9.278-5.53l-.017-3.33c.017,3.053,4.174,5.521,9.294,5.521" transform="translate(-9.439 -83.221)" fill="#fda55d"/>
                  </g>
                </g>
              </g>
              <g id="Grupo_902125" data-name="Grupo 902125" transform="translate(92.561 678.613)" opacity="0.5">
                <g id="Grupo_902124" data-name="Grupo 902124">
                  <g id="Grupo_902123" data-name="Grupo 902123" clip-path="url(#clip-path-20)">
                    <path id="Trazado_630242" data-name="Trazado 630242" d="M16.092,81.119l.017,27.7c-.017,2.125-2.058,3.982-5.044,4.894V86.021c2.987-.912,5.028-2.769,5.028-4.9" transform="translate(-11.067 -81.121)" fill="#fda55d"/>
                  </g>
                </g>
              </g>
              <g id="Grupo_902128" data-name="Grupo 902128" transform="translate(79.008 685.369)" opacity="0.75">
                <g id="Grupo_902127" data-name="Grupo 902127">
                  <g id="Grupo_902126" data-name="Grupo 902126" clip-path="url(#clip-path-21)">
                    <path id="Trazado_630243" data-name="Trazado 630243" d="M18.739,87.44c5.12,0,9.278-2.468,9.278-5.513l.017,3.329c-.017,3.054-4.174,5.513-9.294,5.513s-9.278-2.46-9.278-5.513l-.017-3.329c.017,3.045,4.174,5.513,9.294,5.513" transform="translate(-9.439 -81.925)" fill="#fda55d"/>
                  </g>
                </g>
              </g>
              <path id="Trazado_630244" data-name="Trazado 630244" d="M18.739,88.8c5.12,0,9.278-2.468,9.278-5.513l.017,3.338c-.017,3.045-4.174,5.5-9.294,5.5s-9.278-2.46-9.278-5.5l-.017-3.338c.017,3.045,4.174,5.513,9.294,5.513" transform="translate(69.569 613.439)" fill="#fee4cf"/>
              <path id="Trazado_630245" data-name="Trazado 630245" d="M18.739,87.509c5.12,0,9.278-2.476,9.278-5.521l.017,3.338c-.017,3.037-4.174,5.521-9.294,5.521s-9.278-2.485-9.278-5.521l-.017-3.338c.017,3.045,4.174,5.521,9.294,5.521" transform="translate(69.569 603.893)" fill="#fee4cf"/>
              <path id="Trazado_630246" data-name="Trazado 630246" d="M18.7,79.955h5.672v1.33H18.7A6.862,6.862,0,0,0,13,84.339a7.817,7.817,0,0,0-.728,1.447,6.9,6.9,0,0,0-.4,2.326v1.581a.669.669,0,0,1-.661.669.678.678,0,0,1-.678-.669V88.112A8.239,8.239,0,0,1,10.9,85.7a7.7,7.7,0,0,1,.644-1.506A8.162,8.162,0,0,1,18.7,79.955" transform="translate(77.575 588.919)" fill="#9caed1"/>
              <rect id="Rectángulo_336866" data-name="Rectángulo 336866" width="1.389" height="810.314" transform="translate(134.118)" fill="#acdac2"/>
              <rect id="Rectángulo_336867" data-name="Rectángulo 336867" width="1.389" height="810.314" transform="translate(139.146)" fill="#acdac2"/>
              <rect id="Rectángulo_336868" data-name="Rectángulo 336868" width="1.389" height="810.314" transform="translate(144.165)" fill="#acdac2"/>
              <rect id="Rectángulo_336869" data-name="Rectángulo 336869" width="1.397" height="810.314" transform="translate(149.185)" fill="#acdac2"/>
              <rect id="Rectángulo_336870" data-name="Rectángulo 336870" width="1.389" height="810.314" transform="translate(154.221)" fill="#acdac2"/>
              <path id="Trazado_630247" data-name="Trazado 630247" d="M0,67.779l49.148,55.975h85.664a.694.694,0,1,1,0,1.389H48.839a.722.722,0,0,1-.535-.234L0,69.887Z" transform="translate(0 499.234)" fill="#acdac2"/>
              <path id="Trazado_630248" data-name="Trazado 630248" d="M0,66.608l49.148,55.975h85.664a.7.7,0,0,1,0,1.4H48.839a.7.7,0,0,1-.535-.243L0,68.725Z" transform="translate(0 490.609)" fill="#acdac2"/>
              <path id="Trazado_630249" data-name="Trazado 630249" d="M0,65.438l49.148,55.983h85.664a.7.7,0,0,1,0,1.4H48.839a.7.7,0,0,1-.535-.243L0,67.563Z" transform="translate(0 481.991)" fill="#acdac2"/>
              <path id="Trazado_630250" data-name="Trazado 630250" d="M0,64.268l49.148,55.975h85.664a.7.7,0,0,1,0,1.4H48.839a.722.722,0,0,1-.535-.234L0,66.385Z" transform="translate(0 473.374)" fill="#acdac2"/>
              <path id="Trazado_630251" data-name="Trazado 630251" d="M.922,96.6H50.438c2.468,0,4.476-6.91,4.476-15.451s-2.008-15.443-4.476-15.443H.922Z" transform="translate(6.791 483.973)" fill="#9aa3b5"/>
              <path id="Trazado_630252" data-name="Trazado 630252" d="M2.824,65.707h3.9c2.468,0,4.476,6.918,4.476,15.451S9.19,96.6,6.722,96.6h-3.9c2.468,0,4.467-6.918,4.467-15.443s-2-15.451-4.467-15.451" transform="translate(20.801 483.973)" fill="#566684"/>
              <path id="Trazado_630253" data-name="Trazado 630253" d="M4.407,65.707h3.9c2.468,0,4.476,6.918,4.476,15.451S10.773,96.6,8.305,96.6h-3.9c2.468,0,4.476-6.918,4.476-15.443S6.875,65.707,4.407,65.707" transform="translate(32.46 483.973)" fill="#566684"/>
              <path id="Trazado_630254" data-name="Trazado 630254" d="M4.863,65.707c2.476,0,4.476,6.91,4.476,15.451S7.339,96.6,4.863,96.6.387,89.691.387,81.158s2-15.451,4.476-15.451" transform="translate(2.851 483.973)" fill="#aeb5c4"/>
              <path id="Trazado_630255" data-name="Trazado 630255" d="M0,35.191,46.187,71.464h88.626a.694.694,0,1,1,0,1.389H45.953a.7.7,0,0,1-.427-.151L0,36.948Z" transform="translate(0 259.202)" fill="#acdac2"/>
              <path id="Trazado_630256" data-name="Trazado 630256" d="M0,34.42,46.187,70.694h88.626a.694.694,0,1,1,0,1.389H45.953a.7.7,0,0,1-.427-.151L0,36.185Z" transform="translate(0 253.523)" fill="#acdac2"/>
              <path id="Trazado_630257" data-name="Trazado 630257" d="M68.875,10.208a.746.746,0,0,1,.151.443.639.639,0,0,1-.268.535l-58.5,46.831V737H8.86V57.675a.736.736,0,0,1,.268-.561L67.9,10.108a.7.7,0,0,1,.979.1" transform="translate(65.26 73.312)" fill="#acdac2"/>
              <path id="Trazado_630258" data-name="Trazado 630258" d="M4.958,63.424H54.474c2.476,0,4.476-6.918,4.476-15.46,0-8.525-2-15.435-4.476-15.435H4.958Z" transform="translate(36.519 239.602)" fill="#9aa3b5"/>
              <path id="Trazado_630259" data-name="Trazado 630259" d="M6.86,32.529h3.9c2.468,0,4.476,6.91,4.476,15.443s-2.008,15.443-4.476,15.443H6.86c2.468,0,4.476-6.91,4.476-15.443S9.328,32.529,6.86,32.529" transform="translate(50.528 239.595)" fill="#566684"/>
              <path id="Trazado_630260" data-name="Trazado 630260" d="M8.444,32.529h3.89c2.476,0,4.476,6.91,4.476,15.443s-2,15.443-4.476,15.443H8.444c2.468,0,4.467-6.91,4.467-15.443s-2-15.443-4.467-15.443" transform="translate(62.196 239.595)" fill="#566684"/>
              <path id="Trazado_630261" data-name="Trazado 630261" d="M8.9,32.529c2.476,0,4.476,6.91,4.476,15.443s-2,15.451-4.476,15.451S4.423,56.5,4.423,47.972,6.431,32.529,8.9,32.529" transform="translate(32.578 239.595)" fill="#aeb5c4"/>
              <path id="Trazado_630262" data-name="Trazado 630262" d="M4.958,56.631H54.474c2.476,0,4.476-6.927,4.476-15.46s-2-15.435-4.476-15.435H4.958Z" transform="translate(36.519 189.567)" fill="#9aa3b5"/>
              <path id="Trazado_630263" data-name="Trazado 630263" d="M6.86,25.736h3.9c2.468,0,4.476,6.91,4.476,15.443s-2.008,15.443-4.476,15.443H6.86c2.468,0,4.476-6.918,4.476-15.443S9.328,25.736,6.86,25.736" transform="translate(50.528 189.56)" fill="#566684"/>
              <path id="Trazado_630264" data-name="Trazado 630264" d="M8.444,25.736h3.89c2.476,0,4.476,6.91,4.476,15.443s-2,15.443-4.476,15.443H8.444c2.468,0,4.467-6.918,4.467-15.443s-2-15.443-4.467-15.443" transform="translate(62.196 189.56)" fill="#566684"/>
              <path id="Trazado_630265" data-name="Trazado 630265" d="M8.9,25.736c2.476,0,4.476,6.91,4.476,15.443S11.375,56.63,8.9,56.63,4.423,49.7,4.423,41.179,6.431,25.736,8.9,25.736" transform="translate(32.578 189.56)" fill="#aeb5c4"/>
              <path id="Trazado_630266" data-name="Trazado 630266" d="M4.958,49.837H54.474c2.476,0,4.476-6.918,4.476-15.451s-2-15.443-4.476-15.443H4.958Z" transform="translate(36.519 139.525)" fill="#9aa3b5"/>
              <path id="Trazado_630267" data-name="Trazado 630267" d="M6.86,18.942h3.9c2.468,0,4.476,6.918,4.476,15.451s-2.008,15.435-4.476,15.435H6.86c2.468,0,4.476-6.91,4.476-15.435S9.328,18.942,6.86,18.942" transform="translate(50.528 139.518)" fill="#566684"/>
              <path id="Trazado_630268" data-name="Trazado 630268" d="M8.444,18.942h3.89c2.476,0,4.476,6.918,4.476,15.451s-2,15.435-4.476,15.435H8.444c2.468,0,4.467-6.91,4.467-15.435s-2-15.451-4.467-15.451" transform="translate(62.196 139.518)" fill="#566684"/>
              <path id="Trazado_630269" data-name="Trazado 630269" d="M8.9,18.942c2.476,0,4.476,6.918,4.476,15.451s-2,15.443-4.476,15.443S4.423,42.918,4.423,34.393,6.431,18.942,8.9,18.942" transform="translate(32.578 139.518)" fill="#aeb5c4"/>
              <path id="Trazado_630270" data-name="Trazado 630270" d="M19.129,41.954H71.908a.7.7,0,0,1,.694.694V501.3H71.214V43.351H19.129a.7.7,0,0,1,0-1.4" transform="translate(135.786 309.016)" fill="#acdac2"/>
              <path id="Trazado_630271" data-name="Trazado 630271" d="M19.129,43.022H64.572a.693.693,0,0,1,.694.694V493.437H63.877V44.411H19.129a.694.694,0,0,1,0-1.389" transform="translate(135.786 316.883)" fill="#acdac2"/>
              <path id="Trazado_630272" data-name="Trazado 630272" d="M80.684,14.687a.693.693,0,0,1-.694.694H19.129a.694.694,0,0,1,0-1.389H79.99a.693.693,0,0,1,.694.694" transform="translate(135.786 103.065)" fill="#acdac2"/>
              <path id="Trazado_630273" data-name="Trazado 630273" d="M80.684,13.9a.693.693,0,0,1-.694.694H19.129a.693.693,0,0,1-.694-.694.7.7,0,0,1,.694-.7H79.99a.7.7,0,0,1,.694.7" transform="translate(135.786 97.231)" fill="#acdac2"/>
              <rect id="Rectángulo_336871" data-name="Rectángulo 336871" width="46.572" height="145.044" transform="translate(111.071 630.511)" fill="#9aa3b5"/>
              <rect id="Rectángulo_336872" data-name="Rectángulo 336872" width="18.07" height="145.044" transform="translate(157.642 630.511)" fill="#566684"/>
              <path id="Trazado_630274" data-name="Trazado 630274" d="M40.336,94.644a3.429,3.429,0,0,1-3.43,3.43H21.739a1.821,1.821,0,0,1-1.815-1.824v-3.2a1.816,1.816,0,0,1,1.815-1.824H36.906a3.427,3.427,0,0,1,3.43,3.422" transform="translate(146.753 671.907)" fill="#c2c8d3"/>
              <path id="Trazado_630275" data-name="Trazado 630275" d="M40.336,91.614a3.435,3.435,0,0,1-3.43,3.43H21.739a1.823,1.823,0,0,1-1.815-1.832v-3.2a1.823,1.823,0,0,1,1.815-1.832H36.906a3.429,3.429,0,0,1,3.43,3.43" transform="translate(146.753 649.531)" fill="#c2c8d3"/>
              <path id="Trazado_630276" data-name="Trazado 630276" d="M40.336,88.577a3.429,3.429,0,0,1-3.43,3.43H21.739a1.823,1.823,0,0,1-1.815-1.832v-3.2a1.821,1.821,0,0,1,1.815-1.824H36.906a3.429,3.429,0,0,1,3.43,3.43" transform="translate(146.753 627.161)" fill="#c2c8d3"/>
              <path id="Trazado_630277" data-name="Trazado 630277" d="M40.336,85.54a3.433,3.433,0,0,1-3.43,3.422H21.739a1.821,1.821,0,0,1-1.815-1.824v-3.2a1.821,1.821,0,0,1,1.815-1.824H36.906a3.429,3.429,0,0,1,3.43,3.43" transform="translate(146.753 604.792)" fill="#c2c8d3"/>
              <path id="Trazado_630278" data-name="Trazado 630278" d="M40.336,82.5a3.427,3.427,0,0,1-3.43,3.422H21.739a1.814,1.814,0,0,1-1.815-1.815V80.9a1.821,1.821,0,0,1,1.815-1.824H36.906a3.429,3.429,0,0,1,3.43,3.43" transform="translate(146.753 582.415)" fill="#c2c8d3"/>
              <path id="Trazado_630279" data-name="Trazado 630279" d="M40.336,79.463a3.429,3.429,0,0,1-3.43,3.43H21.739a1.821,1.821,0,0,1-1.815-1.824v-3.2a1.823,1.823,0,0,1,1.815-1.832H36.906a3.429,3.429,0,0,1,3.43,3.43" transform="translate(146.753 560.03)" fill="#c2c8d3"/>
              <rect id="Rectángulo_336873" data-name="Rectángulo 336873" width="27.205" height="81.398" transform="translate(149.645 372.322)" fill="#9aa3b5"/>
              <rect id="Rectángulo_336874" data-name="Rectángulo 336874" width="18.655" height="72.848" transform="translate(155.3 376.597)" fill="#566684"/>
              <rect id="Rectángulo_336875" data-name="Rectángulo 336875" width="14.012" height="72.848" transform="translate(159.943 376.597)" fill="#414d63"/>
              <rect id="Rectángulo_336876" data-name="Rectángulo 336876" width="10.072" height="81.398" transform="translate(176.85 372.322)" fill="#566684"/>
              <rect id="Rectángulo_336877" data-name="Rectángulo 336877" width="13.644" height="4.609" transform="translate(181.878 441.447)" fill="#c2c8d3"/>
              <rect id="Rectángulo_336878" data-name="Rectángulo 336878" width="13.644" height="4.618" transform="translate(181.878 426.071)" fill="#c2c8d3"/>
              <rect id="Rectángulo_336879" data-name="Rectángulo 336879" width="13.644" height="4.609" transform="translate(181.878 410.712)" fill="#c2c8d3"/>
              <rect id="Rectángulo_336880" data-name="Rectángulo 336880" width="13.644" height="4.609" transform="translate(181.878 395.344)" fill="#c2c8d3"/>
              <rect id="Rectángulo_336881" data-name="Rectángulo 336881" width="13.644" height="4.609" transform="translate(181.878 379.977)" fill="#c2c8d3"/>
              <rect id="Rectángulo_336882" data-name="Rectángulo 336882" width="27.899" height="42.171" transform="translate(96.69 522.954)" fill="#9aa3b5"/>
              <rect id="Rectángulo_336883" data-name="Rectángulo 336883" width="17.928" height="32.225" transform="translate(101.685 527.932)" fill="#aeb5c4"/>
              <rect id="Rectángulo_336884" data-name="Rectángulo 336884" width="7.144" height="42.171" transform="translate(124.59 522.954)" fill="#566684"/>
            </g>
          </g>
        </g>
      </g>
      <g id="Grupo_902132" data-name="Grupo 902132" transform="translate(701.166 12.411)">
        <g id="Grupo_902140" data-name="Grupo 902140" clip-path="url(#clip-path-22)">
          <g id="Grupo_902139" data-name="Grupo 902139">
            <g id="Grupo_902138" data-name="Grupo 902138" clip-path="url(#clip-path-23)">
              <path id="Trazado_630280" data-name="Trazado 630280" d="M25.274,145.518s57.305,7.411,97.892-1.876c-29.5-81.91-34.4-86.132-34.4-86.132L51.709,78.061,43.286,91Z" transform="translate(144.082 327.852)" fill="#9caed1"/>
              <path id="Trazado_630281" data-name="Trazado 630281" d="M53.966,99.228S47.359,112.114,22.438,117.5A9.027,9.027,0,0,0,15.711,129.5c.255.67.429,1.086.429,1.086H88.857l.154-.57a39.043,39.043,0,0,0-3.324-28.887Z" transform="translate(86.222 565.678)" fill="#332630"/>
              <path id="Trazado_630282" data-name="Trazado 630282" d="M73.83,56.742,63.021,57.4l-3.391.194L32.714,59.208l-2.272.141c.188-.422.362-.838.536-1.266a68.632,68.632,0,0,0,3.766-13.375c.2-1.106.389-2.211.549-3.31a139.084,139.084,0,0,0,1.019-28.539s22.917-5.642,31.655,0A162.071,162.071,0,0,0,70.379,43.8c.509,2.754,1.045,5.059,1.534,6.922a47.112,47.112,0,0,0,1.916,6.024" transform="translate(173.543 59.008)" fill="#fdb0a8"/>
              <path id="Trazado_630283" data-name="Trazado 630283" d="M46.839,99.685c-4.382,15.673-8.657,11.184-11.257,20.417-1.467,5.213.5,7.873.5,7.873h50.2s1.675-3.216-.161-8.8c-.925-2.821-3.35-8.148-12.035-19.486Z" transform="translate(199.744 568.283)" fill="#332630"/>
              <path id="Trazado_630284" data-name="Trazado 630284" d="M73.3,254.348c-1.059,6.875,3.84,7.833-1.628,10.9s-23.593,7.458-27.252,0c-1.93-3.933.663-6.037.945-9.053,7.3-77.736-6.62-152.7-8.6-161.871A55.684,55.684,0,0,1,35.48,84.269c-.034-1.26-.013-2.365.034-3.324a21.191,21.191,0,0,1,.63-4.422s37.042-12.2,50.611-1.447a21.036,21.036,0,0,1,2.151,4.081A47.228,47.228,0,0,1,90.681,84.4c4.624,16.417,6.674,48.648-1.769,86.38-7.552,33.765-13.04,66.981-15.613,83.566" transform="translate(202.17 402.725)" fill="#566684"/>
              <path id="Trazado_630285" data-name="Trazado 630285" d="M34.011,52.235S16.729,104.716,23.4,218.656H73.2s19.01-40.687,34.985-157.294C71.7,33.051,34.011,52.235,34.011,52.235" transform="translate(124.657 261.57)" fill="#404c63"/>
              <path id="Trazado_630286" data-name="Trazado 630286" d="M29.283,71.667s3.384,115.327-4.389,168.116c-.978,6.627-5.676,7.9-3.484,16.571s28.1,8.095,33.135,4.778c9.173-6.031-.281-10.018,2.164-22.9,3.92-20.558,11.2-55.757,22.649-99.936,12.4-47.857-.268-66.633-.268-66.633Z" transform="translate(118.771 408.559)" fill="#404c63"/>
              <path id="Trazado_630287" data-name="Trazado 630287" d="M29.071,52.877s23.674,87.687,41.974,158a31.773,31.773,0,0,0,36.017,23.346,19.308,19.308,0,0,0,16.109-18.715c1.059-60.18,15.506-119.958-2.788-165.543-41.612-9.75-91.312,2.908-91.312,2.908" transform="translate(165.728 263.829)" fill="#566684"/>
              <path id="Trazado_630288" data-name="Trazado 630288" d="M82.066,17.663S53.414,62.672,21.35,94.89A17.429,17.429,0,0,0,20.3,118.309c.08.087.154.181.228.268a12.95,12.95,0,0,0,16.3,2.881c17.616-10.031,58.665-35.414,64.294-57.03-2.466-35.7-19.057-46.765-19.057-46.765" transform="translate(92.818 100.693)" fill="#d6d9ed"/>
              <path id="Trazado_630289" data-name="Trazado 630289" d="M140.4,151.811c-.958,40.232,6.929,40.9,10.715,75.243-24.471,10.493-127.436,0-127.436,0,1.682-24.7,16.893-43.763,17.167-82.132.322-44.7-18.595-78.607-.951-113.3,0,0,9.642-9.8,31.373-14.246.161-.034.335-.074.516-.107.5-.1,1-.188,1.508-.288a123.6,123.6,0,0,1,35.635-.911l2.4.281a191.574,191.574,0,0,1,31.567,6.815c26.683,56.2-1.313,79.089-2.493,128.648" transform="translate(134.989 86.737)" fill="#d6d9ed"/>
              <path id="Trazado_630290" data-name="Trazado 630290" d="M35.532,47.411a55.611,55.611,0,0,0-20.424,7.746c.134-13.14.382-26.884.382-40.52H33.361s.791,16.229,2.171,32.774" transform="translate(86.128 83.442)" fill="#fdcfbf"/>
              <path id="Trazado_630291" data-name="Trazado 630291" d="M73.751,22.991c-1.668,2.741-4.912,4.985-8.892,6.674-1.293.536-2.667,1.032-4.081,1.467-9.468,2.881-21.081,3.129-26.227.348a13.686,13.686,0,0,1-1.736-1.126,6.76,6.76,0,0,1-2.432-3.23c-1.541-4.764,4.168-9.756,4.168-9.756.168-.034.342-.074.523-.1.5-.1,1-.194,1.508-.288a123.349,123.349,0,0,1,35.635-.911c.8.094,1.595.181,2.4.281a7.972,7.972,0,0,1-.864,6.64" transform="translate(171.706 86.741)" fill="#fdb0a8"/>
              <path id="Trazado_630292" data-name="Trazado 630292" d="M42.547,19.5c-.469.054-.938.121-1.394.181a55.491,55.491,0,0,0-20.424,7.753,53.118,53.118,0,0,0-6.607,4.7c6.326,50.879,10.681,64.026,10.942,64.8,3.337,11.686,9.039,17.435,18.7,14.085C63.245,104.232,54.89,77.49,42.547,19.5" transform="translate(80.507 111.171)" fill="#d6d9ed"/>
              <path id="Trazado_630293" data-name="Trazado 630293" d="M22.134,70.97c-.3-.107-.369-.288-.288-.442,4.054-8.436,2.238-22.877-2.292-44.962a.318.318,0,1,1,.623-.127C24.727,47.658,26.55,62.2,22.415,70.8a.321.321,0,0,1-.281.168" transform="translate(111.44 143.562)" fill="#9caed1"/>
              <path id="Trazado_630294" data-name="Trazado 630294" d="M190.54,393.542a99.023,99.023,0,0,1-14.487,5.381c-19.07,5.495-42.128,6.7-62.451,1.856q-2.171-.513-4.315-1.126c-.543-2.446-1.119-4.711-1.736-6.868-.369-1.313-.751-2.58-1.139-3.833C99.852,368.14,89.8,351.843,76.3,251.62c-.677,70.841,4.349,102.723,6.821,146.754-19.546,2.278-44.58.429-62.123-9.488-1.367-85.83,12.959-153.267,30.442-222.071,7.1-34.67-17.549-98.24,3.578-130.31,12.443-10.44,20.846-14.1,34.63-17.945,0,0-.8,1.253-2.057,3.592-1.233,2.3-2.9,5.622-4.684,9.864-8.691,20.6-21.891,53.238-6.3,109.987,2.218-35.44,23.868-82.018,36.687-105.98.228-.436.469-.851.683-1.273,3.759-6.808,6.473-18.266,9.79-20.391,14.782,3.417,26.167,5.615,34.683,11.2S176,66.37,173,90.452c-2.446,19.6-18.508,41.337-12.839,87.211,1.508,12.262,5.227,24.766,9.569,41.733,8.121,31.742,18.454,79.136,20.705,169.952.04,1.394.074,2.781.1,4.195" transform="translate(119.184 81.852)" fill="#d6d9ed"/>
              <path id="Trazado_630295" data-name="Trazado 630295" d="M27.662,82.133a.59.59,0,0,1-.576-.509c-2.62-22.066-4.624-45.049,1.87-62.351a.588.588,0,0,1,.75-.342.579.579,0,0,1,.335.75c-6.406,17.054-4.4,39.883-1.8,61.795a.573.573,0,0,1-.5.65l-.074.007" transform="translate(140.254 107.721)" fill="#9caed1"/>
              <path id="Trazado_630296" data-name="Trazado 630296" d="M55.054,14.007s-16.216,4.342-21.335,24.5a83.859,83.859,0,0,0,3.913,7.545l-10.52,7.827S30.583,121.494,41.231,144C36.319,99.583,28,69.65,53.728,23.871c1.146-8.034,1.327-9.864,1.327-9.864" transform="translate(154.56 79.851)" fill="#eff0f8"/>
              <path id="Trazado_630297" data-name="Trazado 630297" d="M76.076,13.719s11.391,5.528,4.3,28.251L69.764,48.764,71.291,58.1s-36.131,50.96-41.8,87.546c-3.685-39.6,25.282-91.56,46.584-131.925" transform="translate(166.305 78.209)" fill="#eff0f8"/>
              <path id="Trazado_630298" data-name="Trazado 630298" d="M31.157,33.407c-.328,4.563-.556,9.12-.757,13.69s-.4,9.133-.509,13.7c-.268,9.133-.456,18.266-.429,27.413q-.04,13.71.328,27.413c.208,9.14.616,18.266,1.052,27.4-.295-4.557-.657-9.12-.9-13.683-.221-4.563-.462-9.133-.6-13.71-.348-9.133-.442-18.28-.469-27.426l.047-6.862L29.04,74.5c.1-4.577.2-9.147.4-13.71q.271-6.855.677-13.7c.295-4.57.623-9.12,1.039-13.676" transform="translate(164.633 190.446)" fill="#9caed1"/>
              <path id="Trazado_630299" data-name="Trazado 630299" d="M73.917,55.9,35.126,49.47a2.11,2.11,0,0,1-1.749-2.426l3.4-20.484a2.112,2.112,0,0,1,2.432-1.742L78,31.244a2.123,2.123,0,0,1,1.742,2.439l-3.4,20.471A2.113,2.113,0,0,1,73.917,55.9" transform="translate(190.115 141.315)" fill="#eff0f8"/>
              <path id="Trazado_630300" data-name="Trazado 630300" d="M49,32.374l-12.055-1.99a1.106,1.106,0,0,1-.911-1.266l.583-3.545a1.111,1.111,0,0,1,1.273-.9l12.061,2a1.1,1.1,0,0,1,.9,1.273l-.59,3.531a1.088,1.088,0,0,1-1.266.9" transform="translate(205.325 140.54)" fill="#9caed1"/>
              <path id="Trazado_630301" data-name="Trazado 630301" d="M69.3,35.539,35.429,29.93A1.511,1.511,0,0,1,34.2,28.188l.221-1.34a1.505,1.505,0,0,1,1.736-1.24l33.866,5.609a1.5,1.5,0,0,1,1.233,1.736l-.221,1.34A1.5,1.5,0,0,1,69.3,35.539" transform="translate(194.823 145.865)" fill="#d6d9ed"/>
              <path id="Trazado_630302" data-name="Trazado 630302" d="M69.071,36.973,35.2,31.358a1.5,1.5,0,0,1-1.24-1.736l.221-1.34a1.522,1.522,0,0,1,1.735-1.246l33.859,5.615a1.522,1.522,0,0,1,1.253,1.729L70.8,35.727a1.514,1.514,0,0,1-1.729,1.246" transform="translate(193.466 154.02)" fill="#d6d9ed"/>
              <path id="Trazado_630303" data-name="Trazado 630303" d="M83.436,69.016a77.708,77.708,0,0,1-7.465,12.128A137.264,137.264,0,0,1,45.5,91.4a14.859,14.859,0,0,1-6.949-.214c-1.092-.315-2.6-.7-4.67-1.2a2.241,2.241,0,0,1-1.608-1.461c-5.642-16.752-5.582-32.191-3.927-39.394,1.689-7.384,5.079-12.732,5.039-14.48-1.26-13.053,1.662-20.3,4.858-24.284a13.028,13.028,0,0,1,6.419-4.63c.02.127.04.261.067.4a11.073,11.073,0,0,0,.684,2.379s.563-6.64,2.968-6.842C58.019.869,70.724,9.4,77.6,15.363c-.1,2.58-1.106,10.527-1.005,13.247a29.021,29.021,0,0,0,5.9,3.551s2.774,11.981.489,21.376c.911.724.73.911,1.836,1.025-1.3,4.3-2.493,8.912-3.143,11.519A2.4,2.4,0,0,0,83.389,69Z" transform="translate(156.044 9.236)" fill="#fdcfbf"/>
              <path id="Trazado_630304" data-name="Trazado 630304" d="M57.466,22.349s-5.086-5.562-7.894-8.034c-3.665-1.427-12.933-3.679-19.225-4.831a9.763,9.763,0,0,1,1.983-4.268c1.012.168,1.99.342,2.948.536l.174,1.863,1.608-1.481A43.83,43.83,0,0,1,51.61,12.09a31.143,31.143,0,0,1,5.857,10.259" transform="translate(173.008 29.73)" fill="#6d4853"/>
              <path id="Trazado_630305" data-name="Trazado 630305" d="M28.393,5.865a23.493,23.493,0,0,1,7.043-.637A7.489,7.489,0,0,1,36,8.465s-5.508-.248-7.666.389a6.4,6.4,0,0,1,.054-2.989" transform="translate(160.576 29.468)" fill="#6d4853"/>
              <path id="Trazado_630306" data-name="Trazado 630306" d="M70.71,40.658c-1.782,7.451-6.62,15.553-6.62,15.553-6.506-1.534-10.2-.637-10.2-.637-1.266,1.99-2.848,6.513-4.3,11.358a8.63,8.63,0,0,1-4.181-1.374c2.781-11.465,1.34-25.966,1.34-25.966a36.387,36.387,0,0,1-7.2-4.335c-.121-3.324.134-10.681.261-13.83.288-.63.576-1.307.844-2.017a38.531,38.531,0,0,0,2.03-7.994A57.638,57.638,0,0,0,33.581.46c5.28.657,18.943,2.774,27.775,7.907,5.588,7.13,6.2,13.542,7.579,21.1-.871,5.381-1.226,6.674-1.226,6.674Z" transform="translate(191.438 2.622)" fill="#6d4853"/>
              <path id="Trazado_630307" data-name="Trazado 630307" d="M35.546,6.3c.8.362,1.608.65,2.406.965.8.288,1.615.576,2.426.858s1.628.549,2.446.831,1.628.549,2.446.858A20.6,20.6,0,0,1,42.7,9.388c-.851-.208-1.689-.436-2.506-.717a19.478,19.478,0,0,1-2.412-1.005A11.389,11.389,0,0,1,35.546,6.3" transform="translate(202.64 35.909)" fill="#52363e"/>
              <path id="Trazado_630308" data-name="Trazado 630308" d="M48,14.735s-2.62,3.109-9.448,1.816a16.454,16.454,0,0,1-2.171-.563,11.328,11.328,0,0,1-3.813-2.071,6.616,6.616,0,0,1-2.064-2.8A10.8,10.8,0,0,1,36.37,6.681c4.985,1.595,9.5,4.449,11.633,8.054" transform="translate(173.914 38.087)" fill="#fff"/>
              <path id="Trazado_630309" data-name="Trazado 630309" d="M48,14.735a21.311,21.311,0,0,0-8.175-6.011c-1.22-.543-2.385-.958-3.417-1.313a9.972,9.972,0,0,0-3.974,1.963,15.378,15.378,0,0,0-1.93,1.742A10.8,10.8,0,0,1,36.37,6.681c4.985,1.595,9.5,4.449,11.633,8.054" transform="translate(173.914 38.087)" fill="#fdb0a8"/>
              <path id="Trazado_630310" data-name="Trazado 630310" d="M36.756,12.645a2.166,2.166,0,0,0,1.166,1.923,4.544,4.544,0,0,1-2.68.8A11.329,11.329,0,0,1,31.428,13.3a4.354,4.354,0,0,1-.643-3.21,3.965,3.965,0,0,1,.509-1.333,10.1,10.1,0,0,1,3.96-1.97c1.039.362,2.2.771,3.438,1.313a4.464,4.464,0,0,1,1.112,2.54,2.234,2.234,0,0,0-.878-.181,2.173,2.173,0,0,0-2.171,2.184" transform="translate(175.056 38.703)" fill="#5f3737"/>
              <path id="Trazado_630311" data-name="Trazado 630311" d="M36.556,13.316c-.08.134-.154.275-.235.409-.295.013-.717.034-1.233.013a22.064,22.064,0,0,1-4.764-.643c-.663-.174-1.38-.375-2.111-.63a8.134,8.134,0,0,1,1.092-3.793,10.493,10.493,0,0,1,7.15-2.312l.06.958c.02.369.034.737.047,1.106.027.824.047,1.648.04,2.459V11.5l-.013.616c0,.208-.007.409-.013.616Z" transform="translate(160.842 36.223)" fill="#fff"/>
              <path id="Trazado_630312" data-name="Trazado 630312" d="M36.516,7.325a21.591,21.591,0,0,0-2.6.181,13.217,13.217,0,0,0-3,.75,5.554,5.554,0,0,0-1.32.717,10.789,10.789,0,0,0-1.38,3.5,8.152,8.152,0,0,1,1.092-3.8,10.515,10.515,0,0,1,7.15-2.312l.06.965" transform="translate(160.842 36.223)" fill="#fdb0a8"/>
              <path id="Trazado_630313" data-name="Trazado 630313" d="M34.333,12.021a3.317,3.317,0,0,1-.57.744A22.637,22.637,0,0,1,29,12.114a4.018,4.018,0,0,1,.59-4.845,13.244,13.244,0,0,1,3-.744,3.324,3.324,0,0,1,2.064,2.1,1.743,1.743,0,0,0-.322,3.391" transform="translate(162.167 37.203)" fill="#5f3737"/>
              <path id="Trazado_630314" data-name="Trazado 630314" d="M36.376,15.785c-.858,1.581-1.534,2.834-2.164,4.094-.683,1.36-1.327,2.741-1.9,4.141l-.221.529-.2.536c-.067.174-.127.348-.194.529l-.188.536c-.181.549-.342,1.086-.342,1.086-.121.369-.214.73-.308,1.1-.147.549-.268,1.1-.268,1.1-.127.556-.228,1.112-.228,1.112-.054.281-.188,1.126-.188,1.126-.054.382-.087.744-.134,1.126a6.145,6.145,0,0,0-.556.556,3.593,3.593,0,0,0-.389.556,4.132,4.132,0,0,0-.482,1.273,3.792,3.792,0,0,0-.047,1.347,3.446,3.446,0,0,0,.456,1.28,4.264,4.264,0,0,0,.884,1.045,6.237,6.237,0,0,0,1.153.784,9.277,9.277,0,0,0,1.273.556,9.778,9.778,0,0,0,1.354.4,10.615,10.615,0,0,1-2.68-.864,6.233,6.233,0,0,1-1.2-.757,4.494,4.494,0,0,1-.945-1.065,3.587,3.587,0,0,1-.516-1.347,4.071,4.071,0,0,1,.02-1.434,4.535,4.535,0,0,1,.489-1.36,4.041,4.041,0,0,1,.4-.6,2.493,2.493,0,0,1,.489-.469,28.928,28.928,0,0,1,.777-4.463,35.637,35.637,0,0,1,1.461-4.349l.221-.529.228-.523.228-.529.241-.523.248-.523.248-.509.255-.516.268-.509q.925-1.809,1.943-3.572c.08-.141.154-.281.235-.415l.02-.583c.007-.208.013-.409.013-.616l.013-.61v-.623c.007-.811-.013-1.635-.04-2.459-.013-.369-.027-.737-.047-1.1L36,8.789c-.013-.141-.02-.268-.027-.4-.02-.409-.06-.817-.094-1.226s-.08-.817-.127-1.233c.067.415.127.817.181,1.233l.141,1.22.04.409c.033.322.06.643.087.965.027.362.054.724.074,1.092.054.817.087,1.642.107,2.466s.007,1.648-.007,2.473" transform="translate(161.297 33.794)" fill="#fdb0a8"/>
              <path id="Trazado_630315" data-name="Trazado 630315" d="M31.193,13.679c-.992-.04-1.568-.121-1.581-.121a.311.311,0,1,1,.08-.616,30.445,30.445,0,0,0,8.818-.449.324.324,0,0,1,.375.248.328.328,0,0,1-.261.375,32.624,32.624,0,0,1-7.431.563" transform="translate(167.271 71.186)" fill="#fdb0a8"/>
              <path id="Trazado_630316" data-name="Trazado 630316" d="M74.818,18.749a40.985,40.985,0,0,1-2.158,8.483c-.288.757-.583,1.474-.9,2.131A15.125,15.125,0,0,1,68,34.764c1.005-6.48-.429-8.068-.429-8.068S64.405,34.8,59.44,37.725C60.706,28.264,61,24.639,57.021,22.374c-.6,4.945-2.144,5.9-4.764,8.637a66.46,66.46,0,0,0-8-15.037c-3.96-5.314-7.411-7.123-9.287-6.821-3.069.509-3.84,8.865-3.84,8.865a14.15,14.15,0,0,1-.885-3.082,4.766,4.766,0,0,1-.087-.509,27.857,27.857,0,0,1-.114-6.734S39.766.007,42.038,0a12.371,12.371,0,0,1,7.746,3.19S52.156.637,54.521.717c2.5.241,6.439,2.513,10.641,6.413a62.361,62.361,0,0,1,9.656,11.619" transform="translate(170.404)" fill="#7a525f"/>
              <path id="Trazado_630317" data-name="Trazado 630317" d="M48.918,13.276c-2.928-.5-5.508.824-7.25,1.588a35.219,35.219,0,0,0-4.59,2.359A38.062,38.062,0,0,0,29.7,23.287C29.5,12.231,32.709,9.41,37.125,6.669,31.7,6,26.772,11.119,26.772,11.119a17.136,17.136,0,0,1,8.115-9.133c6.151-3.076,12.946.965,12.946.965a27.267,27.267,0,0,0,.107,6.734c.02.174.047.335.08.509a14.447,14.447,0,0,0,.9,3.082" transform="translate(152.622 4.735)" fill="#7a525f"/>
              <path id="Trazado_630318" data-name="Trazado 630318" d="M28.317,1.8a4.5,4.5,0,0,1,1.555-.087,6.954,6.954,0,0,1,1.534.328A6.292,6.292,0,0,1,34.013,3.7c-.489-.188-.938-.4-1.4-.59s-.931-.355-1.394-.516S30.274,2.3,29.8,2.155s-.972-.241-1.481-.355" transform="translate(161.429 9.604)" fill="#6d4853"/>
              <path id="Trazado_630319" data-name="Trazado 630319" d="M43.2,8.207c-9.073-2.915-13.127,2.044-13.127,2.044S30.834,1.9,33.91,1.392c1.876-.295,5.327,1.5,9.294,6.815" transform="translate(171.463 7.761)" fill="#6d4853"/>
              <path id="Trazado_630320" data-name="Trazado 630320" d="M53.51,21.635a55.164,55.164,0,0,1-9.18,10.849,19.441,19.441,0,0,1-7.029-.4,2.425,2.425,0,0,1-1.762-2.942c.65-2.613,1.843-7.217,3.143-11.519,1.2-3.967,2.486-7.679,3.525-9.307,0,0,3.029-.737,8.356.529.811.188,1.669.422,2.573.717a47.526,47.526,0,0,1,.375,12.075" transform="translate(202.179 46.177)" fill="#fdcfbf"/>
              <path id="Trazado_630321" data-name="Trazado 630321" d="M38.909,16.128a26.245,26.245,0,0,1,.885-3.766,20.8,20.8,0,0,1,1.427-3.605,6.1,6.1,0,0,1,1.856-.221c.576,0,1.146.027,1.722.054,1.139.067,2.278.161,3.417.3a10.678,10.678,0,0,1,.811,2.875,26.76,26.76,0,0,1,.295,2.741,23.614,23.614,0,0,1-.013,2.754A26.6,26.6,0,0,1,48.987,20c-.476.9-.952,1.722-1.461,2.506s-1.059,1.555-1.635,2.292a27.947,27.947,0,0,1-1.863,2.111,17.69,17.69,0,0,1-2.138,1.856c-.482-.663-.8-1.233-1.159-1.749a5.367,5.367,0,0,0-1.3-1.367,3.255,3.255,0,0,0-1.769-.6,4.143,4.143,0,0,0-1.863.409,4.065,4.065,0,0,1,1.863-.529,3.528,3.528,0,0,1,1.89.536,5.8,5.8,0,0,1,1.427,1.374,8.178,8.178,0,0,1,.978,1.715,23.365,23.365,0,0,1,1.756-1.95c.63-.67,1.213-1.387,1.782-2.117S46.588,23,47.084,22.226s.945-1.581,1.394-2.4a30,30,0,0,0,.288-5.294c-.04-.9-.134-1.8-.261-2.687a19.77,19.77,0,0,0-.563-2.62,26.186,26.186,0,0,1-3.169-.194c-.576-.04-1.139-.074-1.7-.1a8.507,8.507,0,0,0-1.662.08c-.5,1.032-.992,2.211-1.427,3.417a33.808,33.808,0,0,0-1.072,3.7" transform="translate(204.088 48.662)" fill="#fdb0a8"/>
              <path id="Trazado_630322" data-name="Trazado 630322" d="M35.274,9.085a10.854,10.854,0,0,0-.06-1.756,13.162,13.162,0,0,0-.838-3.35c-.2-.549-.449-1.086-.67-1.648a6.584,6.584,0,0,1,1.086,1.454,7.336,7.336,0,0,1,.677,1.7,6.685,6.685,0,0,1,.2,1.816,4.491,4.491,0,0,1-.4,1.782" transform="translate(192.151 13.289)" fill="#52363e"/>
              <path id="Trazado_630323" data-name="Trazado 630323" d="M49.271,15.85S38.309,32.944,40.044,48.074c4.248,37.062,19.828,68.033,29.993,85.542,16.142,2.546,27.56-7.337,27.56-7.337S86.36,58.574,71.25,33.688C62.144,22.169,49.271,15.85,49.271,15.85" transform="translate(227.223 90.358)" fill="#d6d9ed"/>
              <path id="Trazado_630324" data-name="Trazado 630324" d="M55.656,105.206A200.679,200.679,0,0,1,40,48.377c-1.722-15.063,9.16-32.258,9.274-32.425a.309.309,0,0,1,.429-.1.318.318,0,0,1,.1.436c-.114.174-10.875,17.181-9.18,32.016a204.141,204.141,0,0,0,15.392,56.474.308.308,0,0,1-.174.4.281.281,0,0,1-.181.027" transform="translate(226.957 90.088)" fill="#9caed1"/>
              <path id="Trazado_630325" data-name="Trazado 630325" d="M130.738,140.967l-78.2,14.052-6.929-38.583L42.241,97.68,32.13,41.379l78.2-14.052,11.787,65.614,5.374,29.932Z" transform="translate(183.164 155.791)" fill="#566684"/>
              <rect id="Rectángulo_336887" data-name="Rectángulo 336887" width="49.606" height="3.646" transform="translate(235.016 222.558) rotate(-10.184)" fill="#404c63"/>
              <rect id="Rectángulo_336888" data-name="Rectángulo 336888" width="49.607" height="3.649" transform="matrix(0.984, -0.177, 0.177, 0.984, 236.811, 232.573)" fill="#404c63"/>
              <path id="Trazado_630326" data-name="Trazado 630326" d="M85.081,38.478,36.259,47.25l-.65-3.592,48.822-8.765Z" transform="translate(202.999 198.921)" fill="#fff"/>
              <path id="Trazado_630327" data-name="Trazado 630327" d="M36.286,47.591l-.7-3.907,49.137-8.818.7,3.9Zm-.335-3.645.59,3.283,48.514-8.718-.59-3.283Z" transform="translate(202.846 198.764)"/>
              <rect id="Rectángulo_336889" data-name="Rectángulo 336889" width="17.084" height="115.454" transform="translate(198.499 200.182) rotate(-10.164)" fill="#404c63"/>
              <path id="Trazado_630328" data-name="Trazado 630328" d="M39.731,37.127a4.455,4.455,0,1,1-5.166-3.6,4.454,4.454,0,0,1,5.166,3.6" transform="translate(176.101 190.734)" fill="#566684"/>
              <path id="Trazado_630329" data-name="Trazado 630329" d="M37.7,36.383a3.349,3.349,0,1,1-3.886-2.707A3.35,3.35,0,0,1,37.7,36.383" transform="translate(177.045 191.672)" fill="#404c63"/>
              <path id="Trazado_630330" data-name="Trazado 630330" d="M43.37,76.66l-4.195.744a.4.4,0,0,1-.469-.328L31.49,36.9a.4.4,0,0,1,.322-.469L36,35.684a.4.4,0,0,1,.482.328L43.7,76.184a.423.423,0,0,1-.328.476" transform="translate(179.478 203.38)" fill="#566684"/>
              <g id="Grupo_902134" data-name="Grupo 902134" transform="translate(227.165 248.733)" opacity="0.25">
                <g id="Grupo_902133" data-name="Grupo 902133">
                  <g id="Grupo_902132-2" data-name="Grupo 902132" clip-path="url(#clip-path-24)">
                    <path id="Trazado_630331" data-name="Trazado 630331" d="M117.386,67.052l-9.9-19.372L35.509,60.613,33.9,51.393,52.8,46.91l.61,2.138s29.2-2.359,58.592-11.927Z" transform="translate(-33.902 -37.119)" fill="#404c63"/>
                  </g>
                </g>
              </g>
              <path id="Trazado_630332" data-name="Trazado 630332" d="M58.51,46.214l-2.03,11.15-4.3.724L34.709,60.975a1.387,1.387,0,0,1-1.427-.784,1.319,1.319,0,0,1,.784-1.756l14.2-4.865-16.028,3.6a1.25,1.25,0,0,1-1.32-.637,1.179,1.179,0,0,1,.657-1.6l14.661-5.367-16.8,3.176a1.263,1.263,0,0,1-1.367-.817,1.2,1.2,0,0,1,.777-1.508l17.013-5.434-16.424,3.25a1.311,1.311,0,0,1-1.447-.9,1.252,1.252,0,0,1,.8-1.481l25.765-8.778Z" transform="translate(159.346 211.311)" fill="#fdb0a8"/>
              <path id="Trazado_630333" data-name="Trazado 630333" d="M55.232,53.364,43.68,58.43a7.677,7.677,0,0,1-7.15-.462,7.948,7.948,0,0,1-2.251-2.2l-2.305-3.431A7.665,7.665,0,0,1,33.441,42.18a22.4,22.4,0,0,1,12.785-5.126l4.275-.288,2.647,9.281Z" transform="translate(174.9 209.595)" fill="#fdcfbf"/>
              <path id="Trazado_630334" data-name="Trazado 630334" d="M135.937,36.034s.838,15.975-6.044,20.337c-9.817,6.218-21.335,11.063-32.827,14.8A370.457,370.457,0,0,1,38.621,84.547l-5.488-20.2C86.713,52.5,94.09,39.384,115.861,32.63c10.956-3.391,20.076,3.4,20.076,3.4" transform="translate(188.884 180.61)" fill="#d6d9ed"/>
              <path id="Trazado_630335" data-name="Trazado 630335" d="M42.372,43.134a.31.31,0,0,1-.275-.161.318.318,0,0,1,.127-.436l1.179-.63c6.768-3.639,12.611-6.774,20.283-9.153a26.9,26.9,0,0,1,13.562-.322.315.315,0,0,1,.241.375.308.308,0,0,1-.369.241,26.307,26.307,0,0,0-13.254.308c-7.612,2.365-13.428,5.481-20.163,9.1l-1.179.637a.311.311,0,0,1-.154.04" transform="translate(239.758 180.867)" fill="#9caed1"/>
              <path id="Trazado_630336" data-name="Trazado 630336" d="M90.679,77.155c-28.063,6.929-48.788,1.863-55.194-.134-.04-1.26-.02-2.365.034-3.324A128.784,128.784,0,0,0,88.9,71.915a46.614,46.614,0,0,1,1.776,5.24" transform="translate(202.172 409.972)" fill="#404c63"/>
              <path id="Trazado_630337" data-name="Trazado 630337" d="M119.509,214.909c-3-116.875-26.173-161.087-26.173-161.087L33.35,56.717,98.8,44.957c8.121,31.742,18.454,79.136,20.705,169.952" transform="translate(190.121 256.29)" fill="#9caed1"/>
              <path id="Trazado_630338" data-name="Trazado 630338" d="M16.962,23.4a2.8,2.8,0,0,1,.616,3.92L13.645,32.7a28.343,28.343,0,0,0-2.808,4.751A28.833,28.833,0,0,0,19.93,72.92L39.249,87.011l-3.31,4.536L16.62,77.449A34.376,34.376,0,0,1,9.115,29.4l3.933-5.387a2.791,2.791,0,0,1,3.913-.61" transform="translate(14.351 130.309)" fill="#9caed1"/>
              <path id="Trazado_630339" data-name="Trazado 630339" d="M71.634,4.262l63.343,46.209L66.14,144.811c-5.562,7.5-17.784,8.557-30.743,3.672A61.864,61.864,0,0,1,20.749,140.5C3.293,127.764-4.721,109.015,2.857,98.636,2.8,98.589,71.634,4.262,71.634,4.262" transform="translate(-0.003 24.297)" fill="#fdbb86"/>
              <path id="Trazado_630340" data-name="Trazado 630340" d="M58.456,14.226c17.456,12.738,25.47,31.48,17.891,41.867-5.495,7.538-17.724,8.6-30.683,3.719a61.97,61.97,0,0,1-14.641-7.987C13.567,39.092,5.553,20.337,13.131,9.957S41,1.494,58.456,14.226" transform="translate(58.567 18.642)" fill="#fda55d"/>
              <path id="Trazado_630341" data-name="Trazado 630341" d="M65.6,46.769c-4.677,6.426-20.739,5.669-36.278-5.682S8.158,14.692,12.842,8.279,33.581,2.61,49.12,13.962,70.281,40.356,65.6,46.769" transform="translate(64.083 24.146)" fill="#fc8a5e"/>
              <g id="Grupo_902137" data-name="Grupo 902137" transform="translate(17.408 50.732)" opacity="0.5">
                <g id="Grupo_902136" data-name="Grupo 902136">
                  <g id="Grupo_902135" data-name="Grupo 902135" clip-path="url(#clip-path-25)">
                    <path id="Trazado_630342" data-name="Trazado 630342" d="M89.416,35.292,73.267,57.432a62.246,62.246,0,0,1-14.641-7.994C41.17,36.7,33.162,17.957,40.734,7.571,40.681,7.538,32.378,18.9,32.378,18.9c-7.518,10.426.5,29.169,17.951,41.913A61.99,61.99,0,0,0,64.971,68.8L46.3,94.373a62.062,62.062,0,0,1-14.635-7.987C14.206,73.648,6.2,54.9,13.777,44.519c-.06-.04-8.356,11.324-8.356,11.324C-2.1,66.27,5.91,85.012,23.373,97.75a62.116,62.116,0,0,0,14.635,7.994L20.585,129.626c12.959,4.885,25.175,3.826,30.683-3.712.06.034,68.9-94.3,68.9-94.3-5.562,7.5-17.784,8.564-30.75,3.679" transform="translate(-2.6 -7.571)" fill="#fda55d"/>
                  </g>
                </g>
              </g>
              <path id="Trazado_630343" data-name="Trazado 630343" d="M31.362,55.376C48.817,68.114,69.114,70.03,76.693,59.644c.054.047-8.242,11.411-8.242,11.411-7.632,10.339-27.929,8.43-45.384-4.309S-2.4,35.26,5.175,24.88c-.06-.047,8.229-11.411,8.229-11.411-7.512,10.426.5,29.175,17.958,41.907" transform="translate(13.205 76.784)" fill="#fee4cf"/>
              <path id="Trazado_630344" data-name="Trazado 630344" d="M35.386,49.863C52.842,62.6,73.138,64.511,80.7,54.131c.067.04-8.235,11.411-8.235,11.411-7.625,10.339-27.922,8.43-45.384-4.315S1.621,29.747,9.2,19.367c-.06-.047,8.229-11.411,8.229-11.411-7.512,10.426.5,29.169,17.958,41.907" transform="translate(36.145 45.355)" fill="#fee4cf"/>
              <path id="Trazado_630345" data-name="Trazado 630345" d="M67.766,11.334l19.318,14.1-3.3,4.523L64.462,15.864a28.788,28.788,0,0,0-40.218,6.279l-3.933,5.394a2.805,2.805,0,1,1-4.53-3.31l3.927-5.387a34.527,34.527,0,0,1,7.2-7.284A33.493,33.493,0,0,1,32.861,8a34.387,34.387,0,0,1,34.9,3.337" transform="translate(86.869 26.968)" fill="#9caed1"/>
              <path id="Trazado_630346" data-name="Trazado 630346" d="M41.62,23.769l-9.287-8.557a8.182,8.182,0,0,0-6.218-2.151,9.511,9.511,0,0,0-6.54,3.411l-5.729,6.9a.827.827,0,0,0,.322,1.287,7.259,7.259,0,0,0,7.451-1.233l.375-.328a3.9,3.9,0,0,1,4.784-.235,9.083,9.083,0,0,1,3.84,7.471l-.047,6.607,8.476-7.391Z" transform="translate(77.869 74.311)" fill="#fdcfbf"/>
            </g>
          </g>
        </g>
      </g>
    </g>
  </g>
</svg>
