<svg xmlns="http://www.w3.org/2000/svg" xmlns:xlink="http://www.w3.org/1999/xlink" width="166.03" height="138.684" viewBox="0 0 166.03 138.684">
  <defs>
    <clipPath id="clip-path">
      <rect id="Rectángulo_337099" data-name="Rectángulo 337099" width="102.56" height="117.215" fill="none"/>
    </clipPath>
  </defs>
  <g id="Grupo_902044" data-name="Grupo 902044" transform="translate(-180 -1905)">
    <path id="Trazado_630196" data-name="Trazado 630196" d="M15.626,0H150.4A15.626,15.626,0,0,1,166.03,15.626V123.058A15.626,15.626,0,0,1,150.4,138.684H15.626A15.626,15.626,0,0,1,0,123.058V15.626A15.626,15.626,0,0,1,15.626,0Z" transform="translate(180 1905)" fill="#ffd947"/>
    <g id="Grupo_902415" data-name="Grupo 902415" transform="translate(211.253 1914.765)">
      <g id="Grupo_902415-2" data-name="Grupo 902415" transform="translate(0 0)" clip-path="url(#clip-path)">
        <path id="Trazado_632655" data-name="Trazado 632655" d="M101.351,100.938a1.722,1.722,0,0,1,1.209,1.845c-.023,2.322.03,4.647-.03,6.967A7.515,7.515,0,0,1,96.3,117c-.079.014-.135.138-.2.212H6.41c-.389-.338-.909-.312-1.36-.484a7.784,7.784,0,0,1-5.041-7.344c-.018-6.636,0-13.27-.007-19.906C0,81.689,3.971,76.565,10.763,73.281c3.96-1.915,8.243-2.613,12.5-3.436,4.817-.932,9.634-1.877,14.458-2.774.743-.138.994-.421.957-1.174-.061-1.332.252-2.744-.095-3.983s-1.85-1.679-2.774-2.562A20.186,20.186,0,0,1,29.5,47.244c-.1-.717-.293-1.092-1.125-1.237a5.142,5.142,0,0,1-4.149-4.694c-.086-1.253-.063-2.516-.04-3.773a1.305,1.305,0,0,0-.727-1.36,4.771,4.771,0,0,1-2.462-4.9,4.708,4.708,0,0,1,3.442-4.258c.787-.251.932-.624.915-1.36A24.014,24.014,0,0,1,30.2,10.169,24.649,24.649,0,0,1,49.886.028C55.788-.2,61.346.871,66.259,4.3c7.307,5.1,10.924,12.185,10.992,21.073.009.955.186,1.4,1.183,1.751a4.683,4.683,0,0,1,3.191,4.344,4.749,4.749,0,0,1-2.38,4.628,1.51,1.51,0,0,0-.829,1.526,20.844,20.844,0,0,1-.126,4.22,5.213,5.213,0,0,1-4.167,4.184,1.032,1.032,0,0,0-1.006,1.057,20.309,20.309,0,0,1-8.634,14.088A1.2,1.2,0,0,0,63.9,62.3c.039,1.181.07,2.367-.007,3.545-.051.766.223,1.057.941,1.192,4.074.768,8.15,1.535,12.212,2.362,4.465.908,9.03,1.432,13.277,3.224,4.337,1.831,8.118,4.349,10.386,8.67a15.5,15.5,0,0,1,1.794,6.785c.075,2.476.025,4.955.053,7.435a1.7,1.7,0,0,1-1.2,1.845c-1.67.357-2.5-.266-2.569-2.04-.075-1.936-.046-3.878-.018-5.816.084-5.586-2.523-9.559-7.293-12.236A14.1,14.1,0,0,0,88.8,76.018,29.569,29.569,0,0,0,82.975,74.4c-.5-.095-.95-.114-.937.58.054,2.967-.191,5.942.138,8.9A14.307,14.307,0,0,0,83.9,89.292a22.485,22.485,0,0,1,2.714,11.534c-.054,3.731-.019,7.463-.009,11.194.005,1.325.1,1.409,1.442,1.421,1.98.018,3.96-.019,5.939.014a4.7,4.7,0,0,0,3.14-.768,3.95,3.95,0,0,0,1.61-3.242c.028-1.859.005-3.718.011-5.578a7.7,7.7,0,0,1,.065-1.363,1.8,1.8,0,0,1,2.537-1.567" transform="translate(0 0)"/>
        <path id="Trazado_632656" data-name="Trazado 632656" d="M50.8,43.25c6.781,2.443,10.118,7.614,10.1,13.314-.007,2.017,0,4.034.012,6.052.007,1.747.533,2.26,2.234,2.211a3.533,3.533,0,0,0-.007,3.573c-1.719-.005-2.22.485-2.227,2.217-.009,1.933,0,3.866-.005,5.8-.011,3.224-1.852,4.955-5.08,4.787-.477-.554-.331-1.23-.331-1.863-.011-8.04.012-16.079-.019-24.12a16.753,16.753,0,0,0-1.365-6.9,11.358,11.358,0,0,0-2.49-3.661c-.4-.377-.92-.725-.82-1.411" transform="translate(38.21 32.537)" fill="#a7d2d7"/>
        <path id="Trazado_632657" data-name="Trazado 632657" d="M46.775,45.458a14.81,14.81,0,0,1-8.066,1.591A18.713,18.713,0,0,1,23.9,38.982a16.374,16.374,0,0,1-3-8.975c-.068-1.733-.541-2.189-2.32-2.218-2.232-.037-2.777-.564-2.755-2.783.011-.98-.422-2.241.195-2.865s1.884-.175,2.863-.2c1.256-.035,2.518-.054,3.773,0a1.852,1.852,0,0,0,2.187-1.661,3.977,3.977,0,0,1,3.364,0,1.885,1.885,0,0,0,1.407,1.659,3.319,3.319,0,0,0,1.246.079c7.13.005,14.26.014,21.392-.011.787,0,1.274.184,1.246,1.041-.128,3.992.1,8.01-.51,11.966a18.256,18.256,0,0,1-4.432,9.031,7.244,7.244,0,0,1-1.786,1.411" transform="translate(11.805 14.977)" fill="#ba5d4c"/>
        <path id="Trazado_632658" data-name="Trazado 632658" d="M26.215,82.89c-4.651,0-9.3-.019-13.95.019-.81.007-1.018-.228-1.011-1.022.025-2.425-.011-2.425,2.444-2.425q6.976,0,13.95,0c2.269,0,3.243-1.016,3.233-3.3-.009-1.526.011-3.051.011-4.575,0-2.5-.8-3.415-3.328-3.442-4.381-.046-8.763.026-13.146.046-.762,0-1.526-.047-2.287-.009s-.89-.291-.82-.967a15.492,15.492,0,0,1,1.863-6.3,22.416,22.416,0,0,0,2.734-12.317c-.053-1.828-.028-3.659-.077-5.486-.018-.657.209-.922.878-1.03,1.651-.268,3.293-.608,4.924-.974a.847.847,0,0,1,1.027.436C27.8,49,32.983,56.439,38.082,63.934a18.59,18.59,0,0,1,3.037,10.491c.028,2.516-.025,5.033.026,7.549.016.785-.259.936-.98.932-4.651-.03-9.3-.016-13.95-.016" transform="translate(8.466 30.892)" fill="#fe9738"/>
        <path id="Trazado_632659" data-name="Trazado 632659" d="M45.17,82.877c-4.612,0-9.222-.021-13.834.019-.827.007-1.12-.166-1.085-1.053.138-3.5-.217-7.016.245-10.507a18.789,18.789,0,0,1,3.326-8.292Q41.2,52.381,48.568,41.711a1.1,1.1,0,0,1,1.384-.569c1.549.384,3.124.678,4.7.922.683.105.867.38.859,1.03-.039,2.439-.014,4.88-.04,7.319A19.833,19.833,0,0,0,58.03,60.586a17.32,17.32,0,0,1,2,6.384c.109.838-.019,1.2-1.018,1.193-5.029-.053-10.06-.028-15.091-.023-2.588,0-3.475.909-3.477,3.531,0,1.6-.025,3.2.007,4.8a2.731,2.731,0,0,0,3,2.97c5.183.012,10.367.023,15.55-.014.82-.005,1.111.152,1.09,1.046-.053,2.4-.005,2.4-2.348,2.4H45.17" transform="translate(22.756 30.905)" fill="#fe8609"/>
        <path id="Trazado_632660" data-name="Trazado 632660" d="M19.429,47.459a19.591,19.591,0,0,1-2.537,11.53c-1.672,2.909-2.013,6.191-2.059,9.5-.056,4.193.263,8.383.077,12.578-.033.764-.2,1.027-1.011,1.006-2.36-.058-4.724-.018-7.088-.021-3.07,0-4.831-1.749-4.833-4.8,0-6.212.119-12.429-.033-18.637-.17-6.876,3.038-11.39,9.149-14.124a31.383,31.383,0,0,1,7.391-2.26c.7-.123,1.015-.07.967.783-.081,1.444-.023,2.9-.023,4.446" transform="translate(1.458 31.733)" fill="#ddebf0"/>
        <path id="Trazado_632661" data-name="Trazado 632661" d="M46.654,4.527q.021,2.168.04,4.339a2.8,2.8,0,0,0,2.01,2.97,8.438,8.438,0,0,0,4.826.263,1.674,1.674,0,0,1,.652.775,24.74,24.74,0,0,1,2.457,10.608c.026,1.451-.107,1.535-1.561,1.535q-18.7,0-37.4,0a2.508,2.508,0,0,1-1.127-.089,19.8,19.8,0,0,1,1.871-10.745A19.042,19.042,0,0,1,21.6,9.309c1.326,3.163,6.294,4.134,8.772,1.775a2.492,2.492,0,0,0,.773-1.949c-.018-1.715.058-3.435-.03-5.145-.046-.913.3-1.256,1.127-1.467,2.036-.519,2.027-.552,2.027,1.537q0,5.031,0,10.062a2.693,2.693,0,0,0,1.985,2.965,7.194,7.194,0,0,0,5.353.011,2.89,2.89,0,0,0,2.034-2.968c-.018-3.809.026-7.619.046-11.428a3.829,3.829,0,0,1,2.963,1.826" transform="translate(12.356 1.677)" fill="#fe9738"/>
        <path id="Trazado_632662" data-name="Trazado 632662" d="M53.952,44.087a17.928,17.928,0,0,1,3.687,5.01,16.734,16.734,0,0,1,1.316,6.3c.061,8.881.023,17.761.023,26.642-2.36.014-4.719-.009-7.078.058-.794.023-.727-.408-.725-.916.012-4.111,0-8.224.037-12.334a21.648,21.648,0,0,0-2.748-11.266A14.254,14.254,0,0,1,46.626,50.6c-.04-2.776-.009-5.553-.009-8.462a27.5,27.5,0,0,1,7.335,1.949" transform="translate(35.061 31.701)" fill="#ddebf0"/>
        <path id="Trazado_632663" data-name="Trazado 632663" d="M29.542,22.3H26.178c-.359-1.432-.764-1.772-2.2-1.777-2.671-.012-5.339,0-8.008-.007-1.318-.005-2.027-.584-2.045-1.624-.016-1.057.683-1.672,1.989-1.672q24.881-.008,49.765,0c1.281,0,2.05.624,2.066,1.623.018,1.039-.773,1.673-2.131,1.673q-16.819.005-33.635,0c-1.673,0-2.048.282-2.434,1.78" transform="translate(10.473 12.955)" fill="#fe8609"/>
        <path id="Trazado_632664" data-name="Trazado 632664" d="M40.8,44.6A21.523,21.523,0,0,0,45.41,38.14a17.148,17.148,0,0,0,1.575-6.711c.016-1.593-.007-3.182.158-4.782.147-1.444-.042-2.933.067-4.4.054-.75-.226-.994-.976-.985-2.783.035-5.565.014-8.35.014q-6.519,0-13.041-.007c-.4,0-.845.138-1.2-.189Q40,21.071,56.351,21.053c.72,0,.929.245.894.927-.047.913.014,1.831-.019,2.746a2.094,2.094,0,0,1-2.236,2.215c-.152.007-.3,0-.457,0-1.968.025-2.388.407-2.471,2.422A16.1,16.1,0,0,1,50.6,35.434a17.764,17.764,0,0,1-9.156,9.016.892.892,0,0,1-.648.147" transform="translate(17.784 15.839)" fill="#a34f3e"/>
        <path id="Trazado_632665" data-name="Trazado 632665" d="M37.328,47.456a25.816,25.816,0,0,1-3.378,2.119,1.249,1.249,0,0,1-1.379.012,29.31,29.31,0,0,1-5.97-4.172c-1.749-1.649-2.844-3.533-2.558-6.047.109-.978-.321-2.4.182-2.847.589-.52,1.745.435,2.669.7a24.079,24.079,0,0,0,10.169.64c.61.033.594.541.6.918.075,2.578.061,5.155.014,7.733a1.669,1.669,0,0,1-.352.944" transform="translate(18.036 27.359)" fill="#ba5d4c"/>
        <path id="Trazado_632666" data-name="Trazado 632666" d="M32.356,61.475c-1.847-4.018-4.579-7.258-6.9-10.771-.13-.195-.55-.5.035-.675,2.264-.678,4.046-2.234,6.07-3.345a1.363,1.363,0,0,1,1.537,0c2.029,1.106,3.822,2.635,6.07,3.35.633.2.105.552-.035.762q-1.6,2.36-3.249,4.693a30.983,30.983,0,0,0-3.533,5.982" transform="translate(18.953 34.944)" fill="#ddebf0"/>
        <path id="Trazado_632667" data-name="Trazado 632667" d="M16.5,21.966q19.09-.008,38.183-.018c1.554,0,1.577,0,1.549-1.521A25.445,25.445,0,0,0,53.7,9.782a6.2,6.2,0,0,1-.23-.641c1.277-.562,2.509-1.167,2.581-2.981a21.3,21.3,0,0,1,4.989,10.272c.268,1.428.266,2.883.407,4.321.112,1.153-.333,1.39-1.405,1.36-2.667-.077-5.337-.021-8.006-.021q-17.161,0-34.32-.007c-.407,0-.836.137-1.221-.119" transform="translate(12.411 4.635)" fill="#fe8609"/>
        <path id="Trazado_632668" data-name="Trazado 632668" d="M19.413,63c-2.36,0-4.722-.03-7.083.018-.766.014-1.116-.149-1.025-.988.121-1.123-.468-2.592.242-3.3.655-.65,2.106-.173,3.2-.179,3.922-.019,7.845.016,11.767-.026.8-.009,1.069.2,1,1.008a14.119,14.119,0,0,0,0,2.509c.082.85-.266.988-1.025.973-2.36-.047-4.722-.018-7.083-.018" transform="translate(8.418 43.925)" fill="#fef056"/>
        <path id="Trazado_632669" data-name="Trazado 632669" d="M46.169,62.934c-2.437,0-4.877-.021-7.314.014-.645.009-.869-.179-.834-.832.051-.951.042-1.906,0-2.858-.025-.6.193-.789.785-.787q7.373.029,14.742,0c.571,0,.71.205.69.731a28.234,28.234,0,0,0,0,2.856c.044.7-.156.909-.874.894-2.4-.047-4.8-.018-7.2-.018" transform="translate(28.6 43.988)" fill="#fef056"/>
        <path id="Trazado_632670" data-name="Trazado 632670" d="M31.3,49.111a35.128,35.128,0,0,0,4.708-3.347,13.136,13.136,0,0,0,3.831-5.041c.177-.454.338-.673.9-.527.992.258,2.01.421,3.021.591.573.1.855.224.417.848-1.908,2.707-3.738,5.471-5.691,8.145-1.44,1.966-2.567,2.11-4.651.86-.813-.489-1.626-.981-2.534-1.528" transform="translate(23.547 30.206)" fill="#8db9c4"/>
        <path id="Trazado_632671" data-name="Trazado 632671" d="M32.861,49.113c-1.305.766-2.5,1.489-3.715,2.169a1.965,1.965,0,0,1-1.961-.152,5.217,5.217,0,0,1-1.808-1.71c-1.773-2.567-3.527-5.148-5.329-7.694-.47-.666-.338-.859.417-.973,1.088-.163,2.236-.748,3.226-.534,1.055.226,1.076,1.726,1.712,2.583a23.571,23.571,0,0,0,6.485,5.688c.284.18.566.363.973.624" transform="translate(14.876 30.221)" fill="#8db9c4"/>
        <path id="Trazado_632672" data-name="Trazado 632672" d="M31.709,47.46q.005-4.274.007-8.548c0-.366.1-.773-.273-1.048A31.43,31.43,0,0,0,36.1,36.47c.633-.28.711.012.706.529-.012,1.405.042,2.812-.03,4.213A6.211,6.211,0,0,1,34.609,45.1a13.367,13.367,0,0,1-2.9,2.36" transform="translate(23.654 27.355)" fill="#a34f3e"/>
        <path id="Trazado_632673" data-name="Trazado 632673" d="M28.578,8.047c0-1.751.028-3.5-.014-5.252-.016-.654.2-.825.834-.825,1.679-.005,1.679-.037,1.679,1.693,0,3.2-.042,6.4.025,9.592.021,1.036-.5,1.093-1.26,1.086-.727-.005-1.337.033-1.286-1.043.084-1.747.023-3.5.023-5.252" transform="translate(21.48 1.482)" fill="#fca85b"/>
        <path id="Trazado_632674" data-name="Trazado 632674" d="M35.658,3.488a8.438,8.438,0,0,1,2.154,1.249,4.6,4.6,0,0,1,.286,2.9c-.6.531-1.355.294-2.048.224-.477-.046-.384-.475-.394-.8,0-.114,0-.228,0-.342V3.488" transform="translate(26.822 2.625)" fill="#fb9638"/>
        <path id="Trazado_632675" data-name="Trazado 632675" d="M23.965,3.544c0,1.274.049,2.509-.016,3.739-.047.92-.845.55-1.328.577-.466.025-1.081.205-1.171-.659-.219-2.1.23-2.816,2.515-3.657" transform="translate(16.1 2.667)" fill="#fba75b"/>
        <path id="Trazado_632676" data-name="Trazado 632676" d="M34.948,4.516A15.6,15.6,0,0,0,31.985,2.69c.019-.138.018-.391.063-.4a4.739,4.739,0,0,1,2.7.543c.51.209.17.885.237,1.348a1.3,1.3,0,0,1-.035.335" transform="translate(24.062 1.687)" fill="#fa850a"/>
      </g>
    </g>
  </g>
</svg>
