<svg xmlns="http://www.w3.org/2000/svg" xmlns:xlink="http://www.w3.org/1999/xlink" width="166.031" height="138.685" viewBox="0 0 166.031 138.685">
  <defs>
    <clipPath id="clip-path">
      <rect id="Rectángulo_337098" data-name="Rectángulo 337098" width="102" height="101" transform="translate(-0.206 0.468)" fill="none"/>
    </clipPath>
  </defs>
  <g id="Grupo_902424" data-name="Grupo 902424" transform="translate(3309 9301)">
    <path id="Trazado_630196" data-name="Trazado 630196" d="M15.626,0H150.4a15.626,15.626,0,0,1,15.626,15.626V123.058A15.626,15.626,0,0,1,150.4,138.685H15.626A15.626,15.626,0,0,1,0,123.058V15.626A15.626,15.626,0,0,1,15.626,0Z" transform="translate(-3309 -9301)" fill="#ffd947"/>
    <g id="Grupo_902414" data-name="Grupo 902414" transform="translate(-3275.794 -9281.468)">
      <g id="Grupo_902414-2" data-name="Grupo 902414" transform="translate(0 0)" clip-path="url(#clip-path)">
        <path id="Trazado_632636" data-name="Trazado 632636" d="M101.7,38.135c-.848,2-2.382,2.626-4.5,2.566-9.165-.258-18.308-.78-27.409-1.914a.778.778,0,0,0-.9.371,3.318,3.318,0,0,1-2.948,1.529q-3.227.02-6.453,0A3.115,3.115,0,0,1,56.8,39.462a2.235,2.235,0,0,0-1.629-.925c-.682-.117-1.363-.255-2.034-.43-.432-.113-.589-.028-.585.441.018,1.853.013,3.707,0,5.56a.862.862,0,0,0,.41.73,3.408,3.408,0,0,1,1.283,2.871c-.02,2.119,0,4.236-.008,6.355a3.3,3.3,0,0,1-2.85,3.5c-.511.1-.535.3-.535.7q.012,8.935,0,17.872a.987.987,0,0,0,.414.914,3.266,3.266,0,0,1,1.288,2.77c.005,6.123.024,12.246-.009,18.368a3.345,3.345,0,0,1-3.594,3.508q-22.687.008-45.373,0A3.367,3.367,0,0,1,.016,98.146C0,94.737-.012,91.328.017,87.92A11.905,11.905,0,0,1,11.6,76.273c.364-.007.731-.028,1.092,0a5.478,5.478,0,0,0,5.737-3.041A3.754,3.754,0,0,1,21.392,71.3c.577-.069.672-.313.669-.825q-.026-6.057,0-12.113c0-.491-.057-.707-.642-.813a3.275,3.275,0,0,1-2.746-3.382c-.018-2.217,0-4.434-.007-6.651a3.144,3.144,0,0,1,1.2-2.6,1.209,1.209,0,0,0,.477-1.1q-.014-8.191,0-16.383a1.273,1.273,0,0,0-.511-1.183,2.571,2.571,0,0,1-1.119-2.024c-.008-3.332-.419-6.705.488-9.976C21.373,6.424,26.513,1.771,34.467.209c.181-.035.41.045.5-.209h6.554a3.144,3.144,0,0,1,1.891.964,1.665,1.665,0,0,0,1.341.531q5.312.008,10.623,0a1.187,1.187,0,0,0,1-.341A3.462,3.462,0,0,1,58.6,0h8.343a3.128,3.128,0,0,1,2.639,2.231,1.151,1.151,0,0,0,1.272.844c1.388-.009,2.775,0,4.163,0q11.3,0,22.6,0a4.4,4.4,0,0,1,2.816.74A3.17,3.17,0,0,1,101.7,5.958Z" transform="translate(-0.13 0)"/>
        <path id="Trazado_632637" data-name="Trazado 632637" d="M76.992,35.386c-2.812.086-5.614-.128-8.418-.275-5.245-.274-10.472-.785-15.7-1.328-.941-.1-1.368-.289-1.359-1.423.065-8.695.035-17.389.035-26.084,0-.363.026-.726.039-1.088a1.758,1.758,0,0,1,.971-.1q11.713-.008,23.426,0c1.2,0,1.315.081,1.316,1.281q.026,13.9.005,27.8a1.743,1.743,0,0,1-.317,1.221" transform="translate(17.83 1.768)" fill="#fedfb1"/>
        <path id="Trazado_632638" data-name="Trazado 632638" d="M49.834,18.857c0,4.7-.019,9.4.018,14.093.007.848-.22.989-1.017.8-2.387-.564-2.39-.533-2.4-3a12.254,12.254,0,0,0-.085-1.877,1.555,1.555,0,0,0-1.587-1.363,1.622,1.622,0,0,0-1.671,1.39,6.543,6.543,0,0,0-.071,1.184c-.005,3.937-.019,7.875.011,11.811.005.689-.189.889-.885.886q-11.86-.034-23.72,0c-.655,0-.85-.187-.843-.832.027-2.78.046-5.559-.009-8.337-.018-.854.26-1.044,1.063-1.022A24.621,24.621,0,0,0,34.058,28.1,24.546,24.546,0,0,0,44.723,8.044c.042-1.157.036-2.317-.005-3.473-.022-.593.129-.823.763-.794a33.1,33.1,0,0,0,3.373,0c.782-.045,1,.2,1,.99-.035,4.7-.018,9.4-.018,14.093" transform="translate(5.998 1.314)" fill="#9d9d9d"/>
        <path id="Trazado_632639" data-name="Trazado 632639" d="M2.549,72.088a25.4,25.4,0,0,1,.111-4.552A8.413,8.413,0,0,1,11.032,60.4a12.01,12.01,0,0,0,5.339-.781c.368-.179.631.045.9.225.937.62,1.861,1.26,2.809,1.861a1.7,1.7,0,1,0,1.84-2.84c-.653-.452-1.318-.885-1.987-1.311-.332-.21-.4-.375-.192-.784a2.33,2.33,0,0,1,2.495-1.5c1.413.113,2.843.009,4.266.032,1.088.016,1.425.363,1.434,1.434.011,1.653,0,3.307.005,4.962.008,1.326.655,2.085,1.738,2.063,1.051-.02,1.629-.738,1.647-2.039.018-1.338.018-1.339,1.376-1.336l12.1.027a1.544,1.544,0,0,1,.329,1.208c.013,3.075.019,6.15,0,9.225-.008,1.27-.108,1.349-1.35,1.349q-20.136,0-40.273,0a1.632,1.632,0,0,1-.967-.1" transform="translate(0.743 19.265)" fill="#02a8f3"/>
        <path id="Trazado_632640" data-name="Trazado 632640" d="M37.524,61.324c-3.765.011-7.529.015-11.295.042-.471,0-.588-.139-.618-.61a4.46,4.46,0,0,0-4.746-4.5c-2.005-.034-2.009-.034-2.005-2.073q.012-5.648.032-11.295a1.463,1.463,0,0,1,.87-.1q8.428-.006,16.854,0c1.083,0,1.219.094,1.225,1.167.027,5.419.018,10.839,0,16.258a1.411,1.411,0,0,1-.321,1.11" transform="translate(6.445 14.913)" fill="#fedfb1"/>
        <path id="Trazado_632641" data-name="Trazado 632641" d="M23.111,22.36c-1.653.65-3.388.414-5.094.449-1.662.034-1.666.007-1.662-1.668.007-2.8-.139-5.608.805-8.339,2.108-6.1,8.227-10.484,14.465-10.27a.774.774,0,0,1,.271.616c.058,3.442.19,6.89-1.03,10.206a17.19,17.19,0,0,1-6.177,8.2,7.849,7.849,0,0,1-1.579.805" transform="translate(5.571 0.881)" fill="#607c8a"/>
        <path id="Trazado_632642" data-name="Trazado 632642" d="M44.017,14.03c0-3.537.023-7.076-.02-10.614-.008-.763.225-.944.951-.922,1.717.053,3.438.032,5.157.008.5-.007.695.127.693.664-.016,7.142.009,14.285-.027,21.427a3.375,3.375,0,1,1-6.747-.147c-.019-3.471-.005-6.944-.007-10.415" transform="translate(15.209 0.869)" fill="#7e8d93"/>
        <path id="Trazado_632643" data-name="Trazado 632643" d="M44.81,73.758q-20.751.008-41.5.028c-.585,0-.792-.131-.8-.765-.042-2.634-.066-2.634,2.6-2.634H43.527c.43,0,.859.015,1.289.022a3.923,3.923,0,0,1-.007,3.349" transform="translate(0.74 24.539)" fill="#5f7c8a"/>
        <path id="Trazado_632644" data-name="Trazado 632644" d="M25.287,41.956c-2.678,0-5.358-.019-8.036.015-.653.008-.933-.108-.909-.847.055-1.752.035-3.506.008-5.258-.008-.518.147-.678.67-.677,5.49.018,10.981-.009,16.469.026a3.371,3.371,0,0,1-.067,6.732c-2.711.034-5.423.008-8.135.009" transform="translate(5.567 12.268)" fill="#7f8d93"/>
        <path id="Trazado_632645" data-name="Trazado 632645" d="M41.362,6.789a21.416,21.416,0,0,1-7.308,17A20.613,20.613,0,0,1,21.52,29.1c-1.021.073-2.046.084-3.067.15-.618.04-.875-.16-.894-.832-.07-2.544-.093-2.569,2.6-2.67a17.894,17.894,0,0,0,12.309-5.4,18.436,18.436,0,0,0,5.5-13.088c.011-.4-.019-.8.009-1.191.053-.715-.343-1.749.179-2.074.775-.48,1.858-.144,2.811-.148.444,0,.382.372.384.659.007.761,0,1.523,0,2.283" transform="translate(5.985 1.303)" fill="#545c60"/>
        <path id="Trazado_632646" data-name="Trazado 632646" d="M76.972,35.42c0-9.666-.015-19.331.016-29,.005-.935-.212-1.231-1.189-1.227-8.076.04-16.153.026-24.228.026.21-.409.585-.19.871-.19,9-.008,18,.009,27-.016.761,0,.916.212.914.937q-.038,14.345,0,28.689c0,.724-.139,1.024-.916.927-.815-.1-1.645-.1-2.468-.148" transform="translate(17.849 1.734)" fill="#dec39b"/>
        <path id="Trazado_632647" data-name="Trazado 632647" d="M37.515,61.359c0-5.817-.011-11.635.022-17.451,0-.785-.22-1.007-1-1-5.883.032-11.767.02-17.649.022.206-.418.583-.192.864-.192,6.742-.011,13.484.009,20.224-.015.723,0,.943.151.939.913q-.055,8.476-.005,16.954c0,.645-.16.867-.816.819-.855-.063-1.715-.035-2.575-.046" transform="translate(6.454 14.877)" fill="#dec39b"/>
        <path id="Trazado_632648" data-name="Trazado 632648" d="M21.364,22.368a19.623,19.623,0,0,0,5.895-5.763A17.567,17.567,0,0,0,29.875,8c.085-1.815.008-3.637,0-5.458.927-.011,1.853-.015,2.778-.036.4-.008.622.115.614.56-.045,2.9.263,5.833-.607,8.666a15.122,15.122,0,0,1-10.709,10.6,2.588,2.588,0,0,1-.591.038" transform="translate(7.318 0.873)" fill="#36464e"/>
        <path id="Trazado_632649" data-name="Trazado 632649" d="M2.537,70.766q20.691.008,41.38.028c.674,0,.924-.175.916-.887-.038-3.6-.028-7.211-.035-10.816.927-.009,1.853,0,2.777-.038.522-.023.685.174.682.685q-.022,5.26,0,10.522c0,.6-.259.709-.778.7-1.157-.018-2.316.019-3.473.019q-20.2,0-40.4-.011c-.353,0-.785.214-1.072-.2" transform="translate(0.755 20.587)" fill="#0377bb"/>
        <path id="Trazado_632650" data-name="Trazado 632650" d="M47.327,29.185c-.859,0-1.718-.026-2.576.009-.568.023-.746-.2-.736-.75.027-1.519.016-3.038,0-4.558,0-.461.057-.685.6-.441a6.448,6.448,0,0,0,5.55-.009c.494-.227.632-.1.626.419-.02,1.552-.023,3.1,0,4.657.008.522-.186.7-.7.681-.924-.028-1.849-.008-2.774-.008" transform="translate(15.215 8.133)" fill="#535b5f"/>
        <path id="Trazado_632651" data-name="Trazado 632651" d="M33.291,41.952A7.3,7.3,0,0,0,33.3,35.2c1.871,0,3.617.012,5.362-.008.512-.007.595.241.592.672-.013,1.817-.009,3.635,0,5.451,0,.365-.035.645-.514.642-1.772-.013-3.546-.005-5.447-.005" transform="translate(11.476 12.27)" fill="#545c60"/>
        <path id="Trazado_632652" data-name="Trazado 632652" d="M33.871,73.76q0-1.675.007-3.349c.82,0,1.643.031,2.46-.023.707-.047.972.15.971.917-.007,2.473.026,2.473-2.454,2.472-.328,0-.655-.011-.983-.018" transform="translate(11.679 24.537)" fill="#37464e"/>
        <path id="Trazado_632653" data-name="Trazado 632653" d="M27.248,7.941a1.728,1.728,0,0,1-1.663,1.732,1.76,1.76,0,0,1-1.7-1.719,1.659,1.659,0,0,1,1.637-1.64,1.607,1.607,0,0,1,1.726,1.628" transform="translate(8.197 2.201)" fill="#010101"/>
        <path id="Trazado_632654" data-name="Trazado 632654" d="M23.5,13.011A1.778,1.778,0,0,1,21.766,14.7a1.655,1.655,0,0,1-1.617-1.755,1.59,1.59,0,0,1,1.637-1.609A1.706,1.706,0,0,1,23.5,13.011" transform="translate(6.895 3.951)" fill="#010101"/>
      </g>
    </g>
  </g>
</svg>
