<svg xmlns="http://www.w3.org/2000/svg" xmlns:xlink="http://www.w3.org/1999/xlink" width="164.285" height="137.227" viewBox="0 0 164.285 137.227">
  <defs>
    <clipPath id="clip-path">
      <rect id="Rectángulo_337097" data-name="Rectángulo 337097" width="102.534" height="102.553" fill="none"/>
    </clipPath>
  </defs>
  <g id="Grupo_902423" data-name="Grupo 902423" transform="translate(2188 9781.999)">
    <g id="Grupo_902042" data-name="Grupo 902042" transform="translate(-2188 -9781.999)">
      <path id="Trazado_630196" data-name="Trazado 630196" d="M15.462,0H148.823a15.462,15.462,0,0,1,15.462,15.462v106.3a15.462,15.462,0,0,1-15.462,15.462H15.462A15.462,15.462,0,0,1,0,121.764V15.462A15.462,15.462,0,0,1,15.462,0Z" transform="translate(0 0)" fill="#ffd947"/>
      <g id="Grupo_902413" data-name="Grupo 902413" transform="translate(30.925 17.393)">
        <g id="Grupo_902413-2" data-name="Grupo 902413" transform="translate(0 0)" clip-path="url(#clip-path)">
          <path id="Trazado_632610" data-name="Trazado 632610" d="M37.856,0c.183.328.537.188.8.273a6.589,6.589,0,0,1,4.6,6.344c.015,5.57,0,11.14,0,16.71v1.159l.16.008c.353-3.27.734-6.54,1.051-9.813.348-3.6,2.337-5.965,5.624-6.585a6.55,6.55,0,0,1,7.6,6.193c0,.663-.221.818-.8.7a1.78,1.78,0,0,0-1.07.048c-.92.193-1.362-.087-1.66-.981-.59-1.763-1.8-2.664-3.374-2.505A3.267,3.267,0,0,0,48,14.743q-.9,8.405-1.835,16.809a2.3,2.3,0,0,1-2.6,2.39,16.355,16.355,0,0,1-1.9-.023,1.894,1.894,0,0,1-1.874-1.853,11.737,11.737,0,0,1-.03-1.3q0-11.61,0-23.222A6.021,6.021,0,0,0,39.6,5.756a3.063,3.063,0,0,0-3.1-2.2,2.917,2.917,0,0,0-2.538,2.786c-.032.4-.019.8-.019,1.2q0,11.61,0,23.222a10.088,10.088,0,0,1-.04,1.4,1.835,1.835,0,0,1-1.671,1.721,11.047,11.047,0,0,1-2.8,0,2.011,2.011,0,0,1-1.87-2.016c-.363-3.08-.679-6.165-1.021-9.248q-.441-3.977-.867-7.956c-.271-2.531-2.376-3.79-4.493-2.771a2.8,2.8,0,0,0-1.607,3.142c.571,4.6,1.1,9.207,1.651,13.811.484,4.075.976,8.147,1.449,12.223a36.345,36.345,0,0,1,.048,3.9c.012,1.518.036,1.528,1.417,1.018a21.575,21.575,0,0,1,4.84-1.231c1.515-.185,1.721.008,1.741,1.59,0,.2.008.4,0,.6-.047,1.169-.21,1.365-1.355,1.584a23.635,23.635,0,0,0-5.711,1.73A9.438,9.438,0,0,1,21.1,51.3a3.024,3.024,0,0,1-2.018-1.354c-1.758-2.047-3.5-4.107-5.272-6.141-1.684-1.935-3.235-3.987-5.081-5.774a3.049,3.049,0,1,0-4.343,4.28C7.115,45.8,9.865,49.279,12.6,52.77c.514.657,1,1.338,1.534,1.976a2.033,2.033,0,0,1,.539,1.468c-.288,4.134,1.792,7.191,4.51,9.957,1.168,1.19,2.309,2.413,3.546,3.526a9.065,9.065,0,0,1,2.929,5.859c.108.871.49,1.109,1.3,1.1,3.9-.037,7.8.019,11.705-.036,1.023-.019,2.044-.026,3.066,0,.562-.051,1.125-.027,1.687-.022,1.614.015,1.784.2,1.749,1.869.047.925.1,1.836-1.164,2.04-.418.067-.407.488-.41.815-.022,2.395-.008,4.79-.011,7.185,0,.621.254.917.889.913.8-.006,1.6-.009,2.4.006a2.024,2.024,0,0,1,1.248.257,1.461,1.461,0,0,1-.009,1.669c-.069,1.586-.069,1.586-1.639,1.586q-10.955,0-21.911,0c-3.387,0-5.319-1.94-5.321-5.336,0-1.9-.01-3.8,0-5.7a4.668,4.668,0,0,1,2.6-4.4.845.845,0,0,0,.537-1.009,6.816,6.816,0,0,0-2-4.228,70.534,70.534,0,0,1-6.089-6.486,13.272,13.272,0,0,1-3.029-8.38,2.225,2.225,0,0,0-.547-1.43c-2.728-3.452-5.419-6.931-8.152-10.377A12.064,12.064,0,0,1,0,41.26v-2.4a6.133,6.133,0,0,1,4.756-5.2,6.51,6.51,0,0,1,7,2.063c2.283,2.522,4.443,5.153,6.665,7.73a1.21,1.21,0,0,0,.5.419,15.809,15.809,0,0,0-.038-2.757c-1.063-8.6-2.041-17.221-3.086-25.829a6.717,6.717,0,0,1,5.726-7.466,6.816,6.816,0,0,1,7.687,5.2,70.111,70.111,0,0,1,1.023,9.236,8.331,8.331,0,0,1,.08,1.745c0,.056.223-.122.1-.074-.012.006-.021-.015-.028-.059a28.937,28.937,0,0,1-.21-3.678c-.013-4.538-.038-9.076.008-13.614A6.642,6.642,0,0,1,33.392.694,7.4,7.4,0,0,1,35.652,0Z" transform="translate(0 0)"/>
          <path id="Trazado_632611" data-name="Trazado 632611" d="M59.131,16.808c.114-.961-.057-1.933.135-2.894a6.429,6.429,0,0,1,6.852-5.283,6.534,6.534,0,0,1,5.854,6.414c.034,5.607.011,11.216.012,16.824a3.4,3.4,0,0,0,.149,1.207l.65-5.748c.19-1.69.34-3.387.576-5.07a6.594,6.594,0,0,1,7.406-5.592,6.49,6.49,0,0,1,5.577,7.382c-.36,2.875-.648,5.759-.8,8.672.293-1.165.541-2.342.886-3.49a6.574,6.574,0,0,1,12.486-.165,6.781,6.781,0,0,1,.037,3.841q-3,12.48-5.988,24.961a5.814,5.814,0,0,0-.146,1.384c0,5.474.012,10.949,0,16.423-.008,2.525-.466,4.99-2.252,6.858a3.387,3.387,0,0,0-.964,2.716.8.8,0,0,0,.534.816,4.689,4.689,0,0,1,2.683,4.448q.025,3.054,0,6.108a4.779,4.779,0,0,1-4.941,4.918q-17.474.015-34.951,0a4.792,4.792,0,0,1-4.97-4.989c-.013-2.07-.019-4.138-.028-6.207-.46-.917.057-1.687.439-2.43a4.534,4.534,0,0,1,1.95-1.939.879.879,0,0,0,.493-1.06,6.3,6.3,0,0,0-1.912-3.834,31.566,31.566,0,0,1-3.518-3.658,26.8,26.8,0,0,1-3.135-3.63,11.873,11.873,0,0,1-2.37-6.178,5.679,5.679,0,0,0-1.651-4.134c-1.052-1.4-2.117-2.789-3.246-4.128-1.624-2.152-3.321-4.248-4.983-6.37a7.284,7.284,0,0,1-1.529-3.843,6.938,6.938,0,0,1,.674-3.33,6.846,6.846,0,0,1,11.276-1.534c2.35,2.5,4.488,5.2,6.729,7.8a2.012,2.012,0,0,0,.538.518A23.742,23.742,0,0,0,47.637,50c-.8-6.347-1.491-12.708-2.285-19.058-.3-2.38-.584-4.764-.841-7.148a6.732,6.732,0,0,1,6.617-7.444c.421,0,.881-.09,1.2.316a7.354,7.354,0,0,1,3.881,2.147,3.691,3.691,0,0,1,1.7,2.673,45.336,45.336,0,0,1,.715,5.706,12.514,12.514,0,0,1,.218,2.071c.05,1.257.228,2.506.22,3.177-.032-.728-.159-2.042-.194-3.362-.064-3.581-.018-7.159-.027-10.738a2.373,2.373,0,0,1,.286-1.534" transform="translate(3.326 1.006)"/>
          <path id="Trazado_632612" data-name="Trazado 632612" d="M53.643,17.339a6.554,6.554,0,0,0-7.534,5.539,21.816,21.816,0,0,0,.443,5.271c.743,6.526,1.532,13.047,2.316,19.569a29.882,29.882,0,0,1,.353,6.139c-.36-.057-.494-.386-.688-.612-2.111-2.453-4.314-4.836-6.294-7.392-3.163-4.081-8.987-3.889-11.591.7-.715-.21-1.515.025-2.184-.422C28.3,44.525,28.3,44.5,26.7,44.749a23.687,23.687,0,0,0-5.37,1.523c-.265.108-.508.344-.882.222-.01-.212-.041-.439-.03-.662.246-4.63-.569-9.178-1.085-13.746-.663-5.864-1.408-11.719-2.092-17.58a3.206,3.206,0,0,1,2.843-3.6,3.237,3.237,0,0,1,3.744,2.669c.461,3.436.8,6.888,1.186,10.335.286,2.586.546,5.174.838,7.758a1.662,1.662,0,0,0,1.878,1.643c.7.012,1.4.016,2.1,0a1.627,1.627,0,0,0,1.8-1.8c.019-1.068,0-2.136,0-3.2q0-10.915,0-21.828c0-2.129,1.314-3.619,3.166-3.609a3.39,3.39,0,0,1,3.239,3.6q.008,12.316,0,24.632c0,1.708.5,2.2,2.195,2.207.567,0,1.135.009,1.7,0a1.663,1.663,0,0,0,1.876-1.646c.49-4.407.956-8.818,1.439-13.227.178-1.624.321-3.255.58-4.866a3.222,3.222,0,0,1,3.251-2.691,3.157,3.157,0,0,1,3.282,2.64c.1.86.495.942,1.145.966a2.65,2.65,0,0,1,1.37.17c-.8-.048-1.032.414-1.011,1.109a4.182,4.182,0,0,1-.232,1.573" transform="translate(2.014 0.336)" fill="#adaad5"/>
          <path id="Trazado_632613" data-name="Trazado 632613" d="M43.869,70.129c1.4,1.416,2.829,2.806,4.188,4.259a6.308,6.308,0,0,1,1.378,3.868c.035.334-.185.459-.434.584a4.869,4.869,0,0,0-2.751,4.311H43.1l-.034-1.6a1.4,1.4,0,0,1-.3-.927c-.015-3.215-.044-6.429.015-9.642a1.485,1.485,0,0,1,.1-.485c.21-.434.589-.424.984-.371" transform="translate(4.998 8.197)" fill="#887aac"/>
          <path id="Trazado_632614" data-name="Trazado 632614" d="M55.69,28.378c-.223-2.05-.464-4.1-.667-6.15A7.474,7.474,0,0,0,53.3,17.956c.68-.178.934-.872,1.474-1.219a4.355,4.355,0,0,1,1.445-.789q0,6.214,0,12.429c-.154.172.057.56-.224.586-.421.04-.124-.428-.312-.586" transform="translate(6.233 1.865)" fill="#adaad5"/>
          <path id="Trazado_632615" data-name="Trazado 632615" d="M31.689,46.254a8.047,8.047,0,0,0,1.828,4.009C35.1,52.22,36.6,54.237,38.134,56.23a3.144,3.144,0,0,1,.317,1.545c0,4.557,0,9.114-.008,13.671a1.872,1.872,0,0,1-.314,1.421c-4.069.011-8.138.01-12.207.046-.582.006-.752-.225-.79-.739a9.558,9.558,0,0,0-3.258-6.627,54.967,54.967,0,0,1-5.223-5.518A10.6,10.6,0,0,1,14.1,52.747a3.325,3.325,0,0,0-.82-2.273Q8.5,44.443,3.764,38.366a3.063,3.063,0,0,1-.346-3.935c.936-.351,1.666.208,2.419.582A8.651,8.651,0,0,1,8.3,37.464q4.339,5.04,8.623,10.126c.472.56.886.713,1.531.332a6.916,6.916,0,0,1,2.232-.833c.921-.052,1.564-.789,2.423-1a16.769,16.769,0,0,1,5.489-.709,5,5,0,0,1,3.089.871" transform="translate(0.334 4.013)" fill="#978ec3"/>
          <path id="Trazado_632616" data-name="Trazado 632616" d="M20.63,47.247c-.921.453-1.85.89-2.759,1.368-.423.224-.621-.05-.83-.295q-3.106-3.632-6.2-7.275C9.463,39.428,8.1,37.794,6.7,36.2A5.26,5.26,0,0,0,3.36,34.588a3.336,3.336,0,0,1,5.51-.3c2.763,3.166,5.479,6.374,8.215,9.564.738.861,1.482,1.717,2.212,2.585a2.1,2.1,0,0,0,1.334.81" transform="translate(0.393 3.856)" fill="#bebedd"/>
          <path id="Trazado_632617" data-name="Trazado 632617" d="M43.55,70.343q-.007,5.613-.013,11.226c-1.363-.007-2.726-.04-4.088-.007-.566.013-.732-.154-.726-.723.028-2.726.011-5.453.015-8.18,0-.344-.109-.824.494-.715,1.058.192,1.242-.352,1.111-1.22a1.771,1.771,0,0,1,.029-.4,3.667,3.667,0,0,1,3.179.015" transform="translate(4.528 8.182)" fill="#978ec3"/>
          <path id="Trazado_632618" data-name="Trazado 632618" d="M34.437,70.573q0-8.318,0-16.638a47.3,47.3,0,0,1,3.194,4.051,4.153,4.153,0,0,1,.327,1.652c-.008,3.171,0,6.341-.009,9.512a1.849,1.849,0,0,1-.323,1.422H34.437" transform="translate(4.027 6.307)" fill="#bebedd"/>
          <path id="Trazado_632619" data-name="Trazado 632619" d="M24.892,76.543c0,1.366-.026,2.732.012,4.1.016.569-.159.76-.729.728-.8-.045-1.6.01-2.4-.018a1.579,1.579,0,0,1-1.685-1.7q-.037-3.1,0-6.2a1.571,1.571,0,0,1,1.771-1.7c.985.01,2.265-.424,2.868.2.474.489.142,1.765.157,2.692.011.633,0,1.266,0,1.9" transform="translate(2.347 8.374)" fill="#887aac"/>
          <path id="Trazado_632620" data-name="Trazado 632620" d="M37.3,70.149l0-12.586a5.04,5.04,0,0,1,1.712,3.62c.069,3.584,1.876,6.442,4.222,9.007.427.467.848.937,1.271,1.406-.208.288-.522.15-.789.2l-3.18-.015c-.083-1.6-.083-1.595-1.744-1.6-.5,0-1-.02-1.5-.031" transform="translate(4.361 6.731)" fill="#adaad5"/>
          <path id="Trazado_632621" data-name="Trazado 632621" d="M30.464,76.568c0,1.368-.021,2.738.01,4.106.012.514-.127.671-.665.688-2.551.076-2.55.095-2.55-2.4,0-2.169.018-4.339-.012-6.508-.008-.557.136-.728.716-.739,2.5-.046,2.5-.067,2.5,2.448v2.4" transform="translate(3.186 8.384)" fill="#978ec3"/>
          <path id="Trazado_632622" data-name="Trazado 632622" d="M36.2,76.607c0,1.334-.021,2.667.01,4,.013.538-.108.742-.7.755C33,81.42,33,81.443,33,78.921c0-2.133.018-4.267-.012-6.4-.008-.581.106-.8.757-.808,2.459-.022,2.459-.05,2.459,2.392v2.5" transform="translate(3.857 8.385)" fill="#887bac"/>
          <path id="Trazado_632623" data-name="Trazado 632623" d="M29.569,45.406a13.873,13.873,0,0,0-7.746-.1c-.293.071-.571.213-.832-.057a20.759,20.759,0,0,1,5.427-1.779c1.575-.323,1.577-.308,1.606-1.856.724.16,1.585-.389,2.184.422a8.777,8.777,0,0,0-.639,3.375" transform="translate(2.454 4.861)" fill="#bdbddc"/>
          <path id="Trazado_632624" data-name="Trazado 632624" d="M67.93,62.947a2.292,2.292,0,0,1,.346-.184c1.713-.573,1.713-.572.983-2.274A12.115,12.115,0,0,0,56.3,53.213a24.408,24.408,0,0,0-6.432,1.764c-.646.279-.793.155-.762-.519.264-5.8-.895-11.489-1.493-17.22-.493-4.708-1.127-9.4-1.673-14.1a3.208,3.208,0,0,1,2.82-3.619,3.245,3.245,0,0,1,3.781,2.742c.45,3.4.792,6.822,1.169,10.235.286,2.586.547,5.174.835,7.758A1.668,1.668,0,0,0,56.4,41.918q1.05.02,2.1,0c1.253-.025,1.823-.636,1.824-1.974q.007-8.159,0-16.319c0-2.9-.006-5.807,0-8.71a3.223,3.223,0,0,1,3.133-3.438,3.369,3.369,0,0,1,3.269,3.471q.015,12.364,0,24.73c0,1.765.481,2.241,2.258,2.243.5,0,1,0,1.5,0,1.374-.012,1.894-.52,2.043-1.908.614-5.737,1.221-11.473,1.87-17.205.293-2.587,2.464-3.971,4.7-3.075a3.16,3.16,0,0,1,2.016,3.346c-.546,5.105-1.12,10.209-1.682,15.313-.061.563-.132,1.127-.162,1.693a1.588,1.588,0,0,0,1.637,1.834c.034,0,.067,0,.1,0,3.5.134,3.5.133,4.312-3.292q1-4.227,2.025-8.451a3.022,3.022,0,0,1,2.4-2.5,3.814,3.814,0,0,1,1.185,3.89c-.469,2.425-1.126,4.808-1.7,7.211-1.44,6.073-2.919,12.135-4.354,18.208a9.746,9.746,0,0,0-.246,2.281c.006,5.374-.006,10.747.01,16.121a11.813,11.813,0,0,1-.564,3.544,4.824,4.824,0,0,1-1.651,2.686,2.192,2.192,0,0,0-1.007,2.2,1.616,1.616,0,0,1-.285,1.33H68.336a2.18,2.18,0,0,1-.314-1.622q-.015-8.694,0-17.387c0-1.066.006-2.131-.088-3.194" transform="translate(5.368 1.342)" fill="#bebedd"/>
          <path id="Trazado_632625" data-name="Trazado 632625" d="M66.819,81.478c-4.07.011-8.139.01-12.209.046-.579.006-.767-.212-.785-.736a9.717,9.717,0,0,0-.467-2.447A7.547,7.547,0,0,0,51.4,75.026c-1.951-1.916-3.873-3.861-5.682-5.919a11.019,11.019,0,0,1-2.931-7.949,2.775,2.775,0,0,0-.691-1.914q-4.837-6.124-9.645-12.268a3.059,3.059,0,0,1-.342-3.934.876.876,0,0,1,.856-.07,5.433,5.433,0,0,1,2.866,1.735c3.236,3.855,6.553,7.64,9.784,11.5a1.035,1.035,0,0,0,1.531.332,6.777,6.777,0,0,1,2.232-.832c.919-.059,1.564-.786,2.421-1a22.027,22.027,0,0,1,5.012-.746c5.254.1,8.738,3.495,10.153,8.009a4.894,4.894,0,0,1,.142,1.487q0,8.3,0,16.591a1.93,1.93,0,0,1-.286,1.431" transform="translate(3.689 5.016)" fill="#adaad5"/>
          <path id="Trazado_632626" data-name="Trazado 632626" d="M77.466,83.47c0-.3,0-.6,0-.9.01-1.119-.066-2.026,1.166-2.927,1.62-1.186,1.989-3.336,2.018-5.331.064-4.436.117-8.877-.011-13.312A36.652,36.652,0,0,1,81.91,50.961c1.761-7.046,3.4-14.122,5.094-21.184.346-1.435-.327-2.592-.93-3.78a3.172,3.172,0,0,1,4.1,3.743q-3.049,12.867-6.148,25.723a6.234,6.234,0,0,0-.147,1.483q0,8.6,0,17.205a7.07,7.07,0,0,1-.915,3.534,2.06,2.06,0,0,1-1.27,1.16,1.452,1.452,0,0,0-1.023,1.548c0,.833-.027,1.668.008,2.5.02.483-.137.642-.619.619-.865-.042-1.732-.031-2.6-.042" transform="translate(9.058 3.023)" fill="#adaad5"/>
          <path id="Trazado_632627" data-name="Trazado 632627" d="M64.7,80.456c0-5.861-.057-11.721.02-17.579A9.216,9.216,0,0,0,62.112,56.6c-2.85-3.309-6.569-3.8-10.629-3.077-.585.1-1.167.529-1.8.159,3.088-1.456,6.282-2.471,9.743-1.878a8.383,8.383,0,0,1,6.566,5.657c.35.889.666,1.146,1.5.789.657.16.4.7.4,1.073q.02,10.565.008,21.13H64.7" transform="translate(5.809 6.038)" fill="#d0d0e7"/>
          <path id="Trazado_632628" data-name="Trazado 632628" d="M49.323,55.856c-.921.452-1.852.888-2.761,1.365-.424.223-.623-.051-.832-.3-1.679-1.969-3.344-3.949-5.024-5.919-1.787-2.1-3.564-4.2-5.385-6.267a5.159,5.159,0,0,0-3.267-1.545,3.336,3.336,0,0,1,5.51-.3c2.762,3.168,5.477,6.375,8.213,9.565.738.861,1.483,1.717,2.214,2.585a2.111,2.111,0,0,0,1.332.81" transform="translate(3.748 4.863)" fill="#d0d0e7"/>
          <path id="Trazado_632629" data-name="Trazado 632629" d="M53.584,85.153c0,1.366-.027,2.732.012,4.1.017.574-.168.755-.733.724-.8-.044-1.6.01-2.4-.017a1.578,1.578,0,0,1-1.681-1.7q-.035-3.1,0-6.2a1.567,1.567,0,0,1,1.675-1.7c1-.021,2.251-.332,2.913.146s.151,1.8.2,2.75c.036.631.007,1.265.007,1.9" transform="translate(5.702 9.382)" fill="#887aac"/>
          <path id="Trazado_632630" data-name="Trazado 632630" d="M83.724,85.162c0,1,.015,2,0,3a1.617,1.617,0,0,1-1.8,1.786c-.961.009-2.213.322-2.8-.156-.624-.507-.173-1.809-.189-2.762-.032-1.965.009-3.932-.021-5.9-.008-.57.077-.861.746-.806.762.063,1.532,0,2.3.018a1.625,1.625,0,0,1,1.77,1.821c.016,1,0,2,0,3" transform="translate(9.212 9.391)" fill="#978ec3"/>
          <path id="Trazado_632631" data-name="Trazado 632631" d="M55.952,85.08c0-1.33.036-2.662-.016-3.99-.025-.636.189-.764.786-.767,2.434-.013,2.434-.035,2.434,2.395,0,2.161-.026,4.324.016,6.484.012.633-.188.764-.785.766-2.435.013-2.435.035-2.435-2.394V85.08" transform="translate(6.54 9.392)" fill="#978ec3"/>
          <path id="Trazado_632632" data-name="Trazado 632632" d="M64.894,85.215c0,1.334-.021,2.667.01,4,.013.538-.108.742-.7.755-2.511.057-2.51.08-2.51-2.442,0-2.133.018-4.267-.012-6.4-.008-.581.106-.8.757-.808,2.459-.022,2.459-.05,2.459,2.392v2.5" transform="translate(7.212 9.391)" fill="#887bac"/>
          <path id="Trazado_632633" data-name="Trazado 632633" d="M70.633,85.218c0,1.335-.023,2.672.011,4.005.013.545-.122.735-.708.746-2.509.049-2.507.071-2.507-2.441,0-2.137.02-4.273-.013-6.41-.009-.59.116-.794.761-.8,2.457-.015,2.457-.041,2.457,2.392v2.5" transform="translate(7.882 9.392)" fill="#978ec3"/>
          <path id="Trazado_632634" data-name="Trazado 632634" d="M76.371,85.195c0,1.334-.035,2.668.016,4,.023.636-.192.77-.791.774-2.429.018-2.429.04-2.429-2.42,0-2.133.027-4.268-.016-6.4-.013-.67.2-.823.841-.823,2.379,0,2.379-.023,2.379,2.37v2.5" transform="translate(8.553 9.392)" fill="#887bac"/>
          <path id="Trazado_632635" data-name="Trazado 632635" d="M55.44,27.077c.179.383.357.453.536,0v4.2l-.106.008q-.214-2.1-.43-4.2" transform="translate(6.482 3.166)" fill="#8e86b6"/>
        </g>
      </g>
    </g>
  </g>
</svg>
