<svg xmlns="http://www.w3.org/2000/svg" xmlns:xlink="http://www.w3.org/1999/xlink" width="59.425" height="49.637" viewBox="0 0 59.425 49.637">
  <defs>
    <clipPath id="clip-path">
      <rect id="Rectángulo_337100" data-name="Rectángulo 337100" width="36.483" height="36.481" transform="translate(0 0)" fill="none"/>
    </clipPath>
  </defs>
  <g id="Grupo_902073" data-name="Grupo 902073" transform="translate(0 0)">
    <path id="Trazado_630195" data-name="Trazado 630195" d="M5.593,0H53.832a5.593,5.593,0,0,1,5.593,5.593V44.044a5.593,5.593,0,0,1-5.593,5.593H5.593A5.593,5.593,0,0,1,0,44.044V5.593A5.593,5.593,0,0,1,5.593,0Z" transform="translate(0 0)" fill="#00cca7"/>
    <g id="Grupo_902416" data-name="Grupo 902416" transform="translate(11 7)">
      <g id="Grupo_902416-2" data-name="Grupo 902416" transform="translate(0 0)" clip-path="url(#clip-path)">
        <path id="Trazado_632677" data-name="Trazado 632677" d="M4.307,0H25.164a1.236,1.236,0,0,1,1.1,1.44q0,5.568,0,11.137c0,.107,0,.213,0,.32.008.381.016.4.412.38A9.112,9.112,0,0,1,33.19,15.26c.4.335.45.551.26.948-.378.364-.611.384-1.018.056A7.846,7.846,0,0,0,22,16.786a7.781,7.781,0,0,0-.465,10.663,7.653,7.653,0,0,0,4.284,2.562,7.965,7.965,0,0,0,3.178.024,7.265,7.265,0,0,0,3.381-1.562,7.846,7.846,0,0,0,1.69-10.359c-.064-.1-.137-.194-.191-.3a.72.72,0,0,1,.1-.914.647.647,0,0,1,.947.232A9.2,9.2,0,0,1,36.3,20.068c.119.422.1.862.187,1.287v1.993a7.269,7.269,0,0,1-.7,2.734,8.943,8.943,0,0,1-7.876,5.351c-.416.028-.829,0-1.244-.007-.379,0-.391.005-.4.4,0,.237,0,.474,0,.711a1.378,1.378,0,0,1-1.359,1.442c-.484.04-.972.007-1.458.015-.417.006-.448.036-.455.442,0,.261.011.522-.009.782a1.263,1.263,0,0,1-1.348,1.261q-10.175,0-20.35,0C.431,36.479,0,36.025,0,35.136q0-8.663,0-17.326,0-4.589,0-9.179c0-.491.079-.61.482-.751a.655.655,0,0,1,.723.658,5.393,5.393,0,0,1,.013.6q0,12.645,0,25.291c0,.829,0,.829.819.829H21c.71,0,.71,0,.706-.708,0-.542-.014-.556-.559-.556-2.253,0-4.506,0-6.759,0-.583,0-.776-.129-.961-.6.005-.415.137-.561.606-.672,3.234-.012,6.469,0,9.7-.005.285,0,.569-.017.853-.015.26,0,.4-.113.392-.384,0-.047,0,.012,0-.036.056-1.1.056-1.1-.99-1.512a8.087,8.087,0,0,1-1.234-.633,1.758,1.758,0,0,0-1.008-.273q-7.119.01-14.237,0a3.278,3.278,0,0,1-.639-.03.655.655,0,0,1-.587-.688c.018-.34.243-.539.649-.569.166-.012.332-.007.5-.007q6.425,0,12.849,0a.843.843,0,0,0,.469-.063c-.316-.364-.573-.759-.9-1.1-.14-.148-.357-.1-.545-.1q-2.242,0-4.485,0H7.349a2.384,2.384,0,0,1-.532-.03.655.655,0,0,1-.534-.662.636.636,0,0,1,.572-.585,3.592,3.592,0,0,1,.533-.016h11c.1,0,.19,0,.285,0,.4-.009.422-.038.29-.4-.316-.867-.316-.867-1.229-.867H7.41a2.924,2.924,0,0,1-.568-.026.64.64,0,0,1-.566-.63.648.648,0,0,1,.612-.625,4.191,4.191,0,0,1,.5-.012H17.707q.2,0,.392,0c.219,0,.336-.087.292-.327a3.158,3.158,0,0,1-.031-.5c-.01-.411-.035-.44-.455-.441q-2.563-.005-5.125,0H7.3a2.381,2.381,0,0,1-.5-.025.64.64,0,0,1-.523-.594.615.615,0,0,1,.444-.617,1.891,1.891,0,0,1,.635-.056H17.892c.566,0,.566,0,.7-.552.177-.717.177-.717-.558-.717H7.359a3.015,3.015,0,0,1-.533-.02.632.632,0,0,1-.542-.574.65.65,0,0,1,.46-.648,2.007,2.007,0,0,1,.636-.05c3.761,0,7.522-.007,11.283.009a.859.859,0,0,0,.928-.533,3.723,3.723,0,0,1,.338-.544c.083-.128.051-.2-.105-.2-.095,0-.19,0-.285,0H7.366a3.4,3.4,0,0,1-.569-.021.56.56,0,0,1-.51-.513.626.626,0,0,1,.375-.663,1.632,1.632,0,0,1,.7-.1c4.354,0,8.709-.007,13.062.008a1.8,1.8,0,0,0,1.318-.474,7.405,7.405,0,0,1,2.311-1.377,4.09,4.09,0,0,1,.531-.2.494.494,0,0,0,.4-.572c-.011-1.008,0-2.016,0-3.024q0-4.127,0-8.254c0-.13,0-.261-.007-.391a.264.264,0,0,0-.288-.288c-.225-.007-.45-.012-.676-.009-1.341.012-2.681,0-4.022.005q-7.243,0-14.486,0H5.146c-.619,0-.648.032-.652.635,0,.059,0,.119,0,.178v29.9c0,.806,0,.807.8.807q3.221,0,6.442,0c.357,0,.7.029.834.447.043.555-.181.822-.742.842-.688.024-1.376.007-2.064.007q-2.4,0-4.8,0A1.548,1.548,0,0,1,3.2,32.221q0-13.877,0-27.754c0-.722,0-.723-.713-.723-.273,0-.546-.008-.818,0-.371.016-.436.076-.443.446-.014.688.005,1.376-.009,2.064-.01.508-.164.695-.624.806C.127,6.977,0,6.839,0,6.375c0-.83,0-1.66,0-2.491A1.3,1.3,0,0,1,1.348,2.466c.474-.027.949,0,1.423-.01.4-.005.427-.036.434-.423,0-.225-.006-.451,0-.676A1.3,1.3,0,0,1,4.307,0" transform="translate(0 0)"/>
        <path id="Trazado_632678" data-name="Trazado 632678" d="M21.9,35.45a.652.652,0,0,0-.7-.369c-2.313.007-4.626,0-6.94,0-.453,0-.481-.028-.481-.487q0-15.391,0-30.782c0-.281.022-.475.391-.475q9.573.011,19.146.006a1,1,0,0,1,.106.011c.208.114.181.318.183.5.008.676,0,1.351,0,2.027q0,4.871,0,9.742a.976.976,0,0,1-.116.651,9.161,9.161,0,0,0-2.733,1.76.619.619,0,0,1-.491.135H16.605a2.049,2.049,0,0,0-.424.026.522.522,0,0,0,.048,1.029,3.2,3.2,0,0,0,.391.011H29.653a13.982,13.982,0,0,0-.85,1.4c-.078.154-.235.08-.353.08q-5.036.007-10.072,0c-.688,0-1.376-.008-2.064,0a.516.516,0,0,0-.55.528c0,.321.209.519.576.534.095,0,.19,0,.285,0H24.17c1.281,0,2.562.007,3.843-.005.268,0,.325.053.229.312a2.827,2.827,0,0,0-.2.825c-.016.338-.181.358-.452.357q-5.5-.011-11,0a2.7,2.7,0,0,0-.355.008.516.516,0,0,0-.472.564.5.5,0,0,0,.506.493c.106.009.213,0,.32,0,3.642,0,7.284,0,10.926-.008.3,0,.385.073.364.367a3.54,3.54,0,0,0,.047.779c.039.26,0,.362-.308.36-2.693-.014-5.386-.008-8.078-.008q-1.548,0-3.1,0c-.452,0-.686.187-.683.536s.239.531.692.531q5.676,0,11.353-.007c.272,0,.391.064.459.337.1.385.258.753.4,1.159H16.583a2.879,2.879,0,0,0-.356.006.484.484,0,0,0-.459.461.5.5,0,0,0,.344.557,1.171,1.171,0,0,0,.457.043q6.193,0,12.385,0a.515.515,0,0,1,.515.27,9.473,9.473,0,0,0,.971,1.215H16.628a3.479,3.479,0,0,0-.391.01.481.481,0,0,0-.47.487.492.492,0,0,0,.44.552,2.013,2.013,0,0,0,.39.017q7.367,0,14.733,0a1.113,1.113,0,0,1,.694.2,10.571,10.571,0,0,0,1.4.759.445.445,0,0,1,.183.435c.007.415.012.829,0,1.244-.012.378-.055.412-.445.412H23.778a1.284,1.284,0,0,0-.388.02c-.247.093-.491.187-.493.514-.425.2-.833.144-.991-.143" transform="translate(-9.4 -2.278)" fill="#f9f6f7"/>
        <path id="Trazado_632679" data-name="Trazado 632679" d="M70.906,61.029a6.158,6.158,0,0,1-2.465.121,7.931,7.931,0,0,1-.219-15.722,6.871,6.871,0,0,1,2.68.083,7.26,7.26,0,0,1,3.333,2.563,8.179,8.179,0,0,1,1.727,4.414,8.431,8.431,0,0,1-1.807,6.092,8.562,8.562,0,0,1-2.311,2.033,5.591,5.591,0,0,1-.938.416" transform="translate(-41.898 -30.918)" fill="#6ce699"/>
        <path id="Trazado_632680" data-name="Trazado 632680" d="M13.5,40.968c.148.222.375.125.573.141.139.01.279,0,.419,0,.143.469.263.56.763.56,2.408,0,4.816.005,7.224-.006.276,0,.375.065.347.347a5.218,5.218,0,0,0,0,.782c.014.269-.082.409-.367.382-.059-.005-.118,0-.178,0H2.63c-.535,0-.535,0-.535-.533V16.521c0-.572-.135-.732-.641-.762a2.739,2.739,0,0,0,.072-.985c.461-.112.568-.243.569-.707,0-.747.01-1.494,0-2.241-.005-.3.111-.4.4-.4.533.012,1.067.01,1.6,0,.17,0,.239.049.221.22a2.734,2.734,0,0,0,0,.284V40.069c0,1.125.473,1.6,1.593,1.6q3.45,0,6.9,0c.53,0,.7-.174.693-.7" transform="translate(-0.992 -7.796)" fill="#e6e1e5"/>
        <path id="Trazado_632681" data-name="Trazado 632681" d="M91.2,61.4a12.908,12.908,0,0,0,1.935-1.237,8.243,8.243,0,0,0,2.9-4.868,8.327,8.327,0,0,0-1.6-6.827A8.008,8.008,0,0,0,91.69,46.16c-.167-.087-.328-.184-.492-.275a7.278,7.278,0,0,1,3.458,1.594.632.632,0,0,0,.888.054l.657.713a.655.655,0,0,0,0,.9A7.93,7.93,0,0,1,91.79,61.292a1.6,1.6,0,0,1-.588.111" transform="translate(-62.194 -31.292)" fill="#00d7a1"/>
        <path id="Trazado_632682" data-name="Trazado 632682" d="M75.615,16.291V3.78a.674.674,0,0,0-.07-.412c.26,0,.521-.005.782-.012.21-.006.307.093.3.3,0,.071,0,.142,0,.214q0,5.873,0,11.745c0,.246-.038.392-.315.441a4.765,4.765,0,0,0-.7.236" transform="translate(-51.52 -2.288)" fill="#efedef"/>
        <path id="Trazado_632683" data-name="Trazado 632683" d="M43.985,98.6c.125-.1.274-.055.411-.056q4.586,0,9.173,0c.592,0,.534.061.518-.54a5.5,5.5,0,0,0-.065-1.515c.3.1.6.2.906.294a.222.222,0,0,1,.181.254q-.014.622,0,1.244c0,.25-.118.336-.35.329s-.474,0-.711,0L43.985,98.6" transform="translate(-29.996 -65.803)" fill="#efedef"/>
        <path id="Trazado_632684" data-name="Trazado 632684" d="M31.626,11.659q-2.756,0-5.513,0a1.261,1.261,0,0,1-1.4-1.41c0-.522,0-1.043,0-1.565A1.24,1.24,0,0,1,26,7.378q5.6-.005,11.2,0a1.245,1.245,0,0,1,1.3,1.268q.028.871,0,1.743a1.247,1.247,0,0,1-1.329,1.269q-2.775.006-5.549,0" transform="translate(-16.854 -5.03)"/>
        <path id="Trazado_632685" data-name="Trazado 632685" d="M28.4,35.046H20.818a1.641,1.641,0,0,1-.388-.027.49.49,0,0,1-.412-.573.484.484,0,0,1,.493-.464c.094-.007.19,0,.284,0H36.022a2.61,2.61,0,0,1,.32.008.489.489,0,0,1,.452.472.5.5,0,0,1-.33.535,1.1,1.1,0,0,1-.455.053H28.4" transform="translate(-13.648 -23.171)"/>
        <path id="Trazado_632686" data-name="Trazado 632686" d="M28.418,27.008h-7.65a.958.958,0,0,1-.454-.058.5.5,0,0,1-.3-.551.49.49,0,0,1,.433-.449,2.029,2.029,0,0,1,.355-.01H36c.545,0,.8.171.8.529s-.266.539-.8.539H28.418" transform="translate(-13.645 -17.688)"/>
        <path id="Trazado_632687" data-name="Trazado 632687" d="M28.384,41.981h7.648c.508,0,.769.183.769.532s-.263.536-.768.536q-7.631,0-15.262,0a1.439,1.439,0,0,1-.387-.035.479.479,0,0,1-.371-.534.471.471,0,0,1,.4-.473,2.145,2.145,0,0,1,.425-.024h7.542" transform="translate(-13.648 -28.629)" fill="#010101"/>
        <path id="Trazado_632688" data-name="Trazado 632688" d="M70.392,59.3a1.664,1.664,0,0,1,1.243.519c.363.359.734.71,1.078,1.085.186.2.294.208.494,0q1.872-1.9,3.771-3.777a1.709,1.709,0,0,1,2.857.653,1.586,1.586,0,0,1-.368,1.714q-2.662,2.7-5.359,5.359a1.653,1.653,0,0,1-2.293,0q-1.375-1.316-2.692-2.692a1.618,1.618,0,0,1-.307-1.85A1.679,1.679,0,0,1,70.392,59.3" transform="translate(-46.821 -38.608)"/>
        <path id="Trazado_632689" data-name="Trazado 632689" d="M38.862,12.855c-.746.005-1.493.014-2.24.015-2.7,0-5.406-.005-8.109.008-.352,0-.492-.086-.466-.456a9.985,9.985,0,0,0,0-1.279c-.019-.331.1-.426.425-.424,2.964.011,5.928.006,8.892.007.486,0,.972.007,1.458.011a.341.341,0,0,1,.157.3c.019.525.02,1.051,0,1.576a.318.318,0,0,1-.117.246" transform="translate(-19.125 -7.309)" fill="#6ce699"/>
        <path id="Trazado_632690" data-name="Trazado 632690" d="M61.973,12.864a14.817,14.817,0,0,0-.04-2.119c1.053-.032.877-.087.892.828.005.308-.011.616,0,.923s-.1.416-.4.385c-.152-.016-.307-.012-.46-.017" transform="translate(-42.236 -7.318)" fill="#00d6a0"/>
        <path id="Trazado_632691" data-name="Trazado 632691" d="M81.175,60.643a.765.765,0,0,1-.235.5Q78.361,63.72,75.784,66.3a.646.646,0,0,1-1.027,0q-1.238-1.225-2.464-2.463a.654.654,0,0,1-.055-.977.666.666,0,0,1,.978.051c.533.523,1.055,1.057,1.586,1.581a.562.562,0,0,0,.942-.008q2.077-2.071,4.15-4.146a1.535,1.535,0,0,1,.323-.273.652.652,0,0,1,.957.581" transform="translate(-49.131 -40.906)" fill="#f9f6f7"/>
      </g>
    </g>
  </g>
</svg>
