<svg xmlns="http://www.w3.org/2000/svg" xmlns:xlink="http://www.w3.org/1999/xlink" width="166.031" height="138.685" viewBox="0 0 166.031 138.685">
  <defs>
    <clipPath id="clip-path">
      <rect id="Rectángulo_337094" data-name="Rectángulo 337094" width="87.533" height="109.954" fill="none"/>
    </clipPath>
  </defs>
  <g id="Grupo_902035" data-name="Grupo 902035" transform="translate(-180 -1905.001)">
    <path id="Trazado_630194" data-name="Trazado 630194" d="M15.626,0H150.4a15.626,15.626,0,0,1,15.626,15.626V123.058A15.626,15.626,0,0,1,150.4,138.685H15.626A15.626,15.626,0,0,1,0,123.058V15.626A15.626,15.626,0,0,1,15.626,0Z" transform="translate(180 1905)" fill="#ffd947"/>
    <g id="Grupo_902409" data-name="Grupo 902409" transform="translate(218.273 1919.365)">
      <g id="Grupo_902409-2" data-name="Grupo 902409" transform="translate(0 0)" clip-path="url(#clip-path)">
        <path id="Trazado_632572" data-name="Trazado 632572" d="M43.367,109.954a8.782,8.782,0,0,0-2.451-.541A23.891,23.891,0,0,1,22.134,85.9c-.013-3.361-.025-6.722.015-10.083.009-.736-.214-.876-.9-.818-2.6.218-5.2.421-7.807.546a4.95,4.95,0,0,0-4.452,2.816,4.621,4.621,0,0,1-5.6,2.389A4.548,4.548,0,0,1,.216,77.417a12,12,0,0,1-.139-3.734c.046-.922.8-1.263,1.588-1.486,1.072-.1,1.441.2,1.834,1.479.06.748,0,1.5.05,2.248a1.358,1.358,0,0,0,1.064,1.425c.676.148,1.07-.27,1.365-.8a8.414,8.414,0,0,1,7.306-4.488c4.27-.284,8.538-.582,12.81-.835a8.784,8.784,0,0,0,4.775-1.362A6.63,6.63,0,0,0,30.74,59a7.288,7.288,0,0,0-4.146-1.254c-2.669-.158-5.338-.337-8.006-.5-2.169-.136-4.353-.181-6.5-.5a7.985,7.985,0,0,1-5.745-3.731c-.058-.09-.111-.183-.167-.275-.372-.612-.719-1.352-1.607-1.125-.956.246-1.013,1.092-1.015,1.9-.009,3.75,0,7.5,0,11.247a14.036,14.036,0,0,1-.038,1.713c-.153,1.238-.813,1.707-2.061,1.485A1.694,1.694,0,0,1,.038,66.1c0-4.47-.019-8.94.011-13.409A4.679,4.679,0,0,1,3.66,48.08a4.566,4.566,0,0,1,5.254,2.341,5.149,5.149,0,0,0,4.707,2.957c2.535.1,5.067.3,7.594.531.777.07.937-.143.934-.893-.03-6.615-.022-13.231-.013-19.846C22.157,18.577,30.93,6.122,44.812,1.713,56.72-2.07,67.5.485,76.941,8.663a1.819,1.819,0,0,1,.485,2.554c-.491.942-1.3.754-2.1.586C73.7,10.65,72.247,9.261,70.561,8.166a29.183,29.183,0,0,0-34.466,2.279A28.853,28.853,0,0,0,25.8,30.052a42.869,42.869,0,0,0-.16,4.387q-.014,8.953,0,17.906c0,1.384.006,1.377,1.371,1.572a11.836,11.836,0,0,1,3.457.686,1.78,1.78,0,0,0,2.442-.484,10.056,10.056,0,0,1,6.917-2.42c1.9.031,3.79-.032,5.684.014A14.65,14.65,0,0,0,56.27,47.721a8.246,8.246,0,0,0,.2-11.9A13.7,13.7,0,0,0,46.43,31.718c-3.25-.087-6.5-.019-9.755-.018-1.653,0-1.74.076-2,1.67-.045.281-.059.569-.115.85-.149.982-.291,1.964-.365,2.957a1.933,1.933,0,0,1-2.121,2.007,2.072,2.072,0,0,1-1.646-2.409,26.081,26.081,0,0,1,1.77-8.467A26.332,26.332,0,0,1,41.771,15.8c7.065-4.941,14.705-6.076,22.636-2.447,6.355,2.907,10.258,8.113,12.069,14.81a27.359,27.359,0,0,1-10.66,29.461,9.227,9.227,0,0,0-4.135,8.021c0,4.005-.084,8.013.02,12.016A15.868,15.868,0,0,1,49.713,92.908a15.65,15.65,0,0,1-16.344-6.184c-.953-1.371-.715-2.457.689-3.154a2.275,2.275,0,0,1,2.478,1.077,13.568,13.568,0,0,0,2.731,2.7,10.705,10.705,0,0,0,6.922,2.139,11.823,11.823,0,0,0,11.7-11.582c.013-3.9.048-7.8-.008-11.7a13.58,13.58,0,0,1,6.163-12.017A22.424,22.424,0,0,0,73.4,38.058c.864-6.941-.908-13.149-6.013-18.14A16.492,16.492,0,0,0,57.07,15.179a19.505,19.505,0,0,0-14.406,4.687,22.031,22.031,0,0,0-5.645,7.078c-.444.891-.413.94.584.942,2.825.007,5.65-.019,8.474.007a18.513,18.513,0,0,1,10.364,2.979c3.823,2.556,6.235,6.056,6.281,10.747.051,5.09-2.694,8.685-6.846,11.286a16.9,16.9,0,0,1-6.191,2.324c-1.285.216-1.3.238-1.3,1.595-.008,3.29.056,6.581-.019,9.869-.085,3.733-1.661,6.6-5.146,8.241a6.592,6.592,0,0,1-2.163.595,23.454,23.454,0,0,1-6.932-.1,3.6,3.6,0,0,1-1.434-.7,2.1,2.1,0,0,0-2.543-.318,13.616,13.616,0,0,1-3.58.616c-.592.072-.943.265-.93.907.086,4.177-.336,8.375.2,12.529A20.1,20.1,0,0,0,41.66,105.951c.208.05.418.091.627.144a19.857,19.857,0,0,0,17.138-4.781,18.944,18.944,0,0,0,6.7-12.8,34.254,34.254,0,0,0-.232-9.835A24.572,24.572,0,0,1,68.811,60.8,27.576,27.576,0,0,1,74.3,54.518a29.349,29.349,0,0,0,5.736-7.032,29.121,29.121,0,0,0-.271-29.932,3.06,3.06,0,0,1-.606-1.691c.021-.654.183-1.212.937-1.361,1.307-.363,1.771-.184,2.493.959A32.67,32.67,0,0,1,76.644,57.1a21.425,21.425,0,0,0-7.637,13.458,28.647,28.647,0,0,0,.391,7.989c1.131,8.036.63,15.79-4.788,22.439a23.163,23.163,0,0,1-15.977,8.78c-.147.015-.279.027-.331.193Z" transform="translate(0 0)"/>
        <path id="Trazado_632573" data-name="Trazado 632573" d="M3.057,65.817a1.885,1.885,0,0,0-1.616-1.5c-.065-1.412.313-2.847-.216-4.235,1.38-.148,1.8-.6,1.805-1.978.007-4.213.013-8.425,0-12.637,0-.954.089-1.85,1.167-2.135,1.037-.275,1.524.446,1.974,1.241a7.71,7.71,0,0,0,6.593,4.094q7.423.488,14.842,1.024a5.343,5.343,0,0,1,3.124,1.228c1.143,2.254.7,4.48-.332,6.574-1.622,3.277-4.433,4.742-8.029,4.981-3.873.258-7.752.426-11.616.8-.319.031-.641.039-.961.038a6.891,6.891,0,0,0-5.722,2.374c-.193.231-.546,1.167-1.008.131" transform="translate(0.223 7.883)" fill="#fdc065"/>
        <path id="Trazado_632574" data-name="Trazado 632574" d="M68.841,9.876a2,2,0,0,0,2.068-.389,35.626,35.626,0,0,0,2.669,3.289c-.9,1-.949,1.487-.248,2.656,7.639,12.759,5.393,27.955-5.69,37.85-6.052,5.4-8.959,12.055-8.473,20.163a24.4,24.4,0,0,0,.33,2.549c.839,5.055,1.123,10.1-.527,15.053a20.6,20.6,0,0,1-22.809,13.7,1.807,1.807,0,0,1-.391-.157c.1-.624.614-.479,1-.5A21.9,21.9,0,0,0,56.622,86.858a31.231,31.231,0,0,0-.006-12.465,23.021,23.021,0,0,1,.336-11.037,22.515,22.515,0,0,1,7.065-11.036,30.229,30.229,0,0,0,10.539-19.67,30.292,30.292,0,0,0-4.437-20.119c-.32-.519-.7-1-1.03-1.5-.222-.34-.585-.679-.248-1.151" transform="translate(6.516 1.728)" fill="#feaf9d"/>
        <path id="Trazado_632575" data-name="Trazado 632575" d="M71.457,11.093c.071.69.624,1.09.965,1.62a31.245,31.245,0,0,1,1.611,32.072,31.808,31.808,0,0,1-7.592,9.3,20.683,20.683,0,0,0-5.689,7.928A22.846,22.846,0,0,0,59,71.593a37.2,37.2,0,0,0,.684,4.846,36,36,0,0,1,.219,9.042,21.575,21.575,0,0,1-2.386,8.246,21.931,21.931,0,0,1-11.508,10.348,18.644,18.644,0,0,1-7.048,1.508.645.645,0,0,0-.572.222,18.815,18.815,0,0,1-10.369-5.166,20.255,20.255,0,0,1-6.562-15.19c-.024-3.433.009-6.867-.018-10.3,0-.638.089-.932.838-.953a11.835,11.835,0,0,0,5.1-1.031.506.506,0,0,1,.729.129,5.844,5.844,0,0,0,2.13,1.4,3.823,3.823,0,0,1,.482,2.16c.119,1.635.07,3.279.251,4.915.065.579.105,1.264-.721,1.455-1.287.863-1.427,1.577-.556,2.834a15.36,15.36,0,0,0,15.735,6.154A15.6,15.6,0,0,0,57.288,79.9a19.84,19.84,0,0,0,.255-3.416q0-5.9,0-11.8A8.885,8.885,0,0,1,61.453,57.1c8.47-6.141,12.306-14.5,11.68-24.9a22.537,22.537,0,0,0-16.5-20.468,21.189,21.189,0,0,0-17.424,3c-7.763,5.088-11.743,12.438-12.4,21.647a1.774,1.774,0,0,0,1.3,2.061c.632.126.709.614.736,1.135.164,3.091.418,6.178.447,9.277.012,1.175.287,2.335.214,3.517a2.433,2.433,0,0,1-.339,1.428,1.6,1.6,0,0,1-2.5.67,10.278,10.278,0,0,0-4.5-.792c-.536-.026-.726-.154-.723-.731.028-7.3-.115-14.6.069-21.887A29.439,29.439,0,0,1,47.835,2.96a29.1,29.1,0,0,1,23.622,8.133" transform="translate(3.9 0.511)" fill="#fecdbe"/>
        <path id="Trazado_632576" data-name="Trazado 632576" d="M28.89,81.451c.736-.576.465-1.4.378-2.076-.277-2.147-.116-4.314-.39-6.455a29.421,29.421,0,0,0,6.2.123A8.134,8.134,0,0,0,42.763,64.7q.06-5.417-.012-10.835c-.012-.844.267-1.052,1.063-1.161A16.1,16.1,0,0,0,53.98,47.5c4.769-5.326,4.165-12.762-1.4-17.493a17.317,17.317,0,0,0-11.363-4.054c-3.429-.046-6.861-.009-10.31-.009,2.487-6.722,10.8-14.4,20.933-13.307a20.319,20.319,0,0,1,10.7,12.783c2.613,8.512.843,16.328-4.348,23.426a21.072,21.072,0,0,1-5.226,5.038,10.432,10.432,0,0,0-4.947,9.513c.11,3.931.1,7.869,0,11.8a14.249,14.249,0,0,1-5.841,11.539,10.734,10.734,0,0,1-1.292.754A11.5,11.5,0,0,1,31.034,82.5a2.082,2.082,0,0,0-2.144-1.044" transform="translate(5.261 2.282)" fill="#feaf9d"/>
        <path id="Trazado_632577" data-name="Trazado 632577" d="M28.132,49.093c-.144-3.934-.247-7.871-.462-11.8-.051-.914-.2-1.831-.171-2.752a.981.981,0,0,0-.426-.8c1.416-.1,1.832-.551,1.934-1.97.069-.943.209-1.882.317-2.824a2.283,2.283,0,0,1,1.234-.271c2.639,0,5.288-.148,7.915.035a14.654,14.654,0,0,1,11.8,6.547A10.029,10.029,0,0,1,51.811,41.9a1.646,1.646,0,0,1-.287.8,13.434,13.434,0,0,1-7.614,3.878,51.567,51.567,0,0,1-8.534.19,10.865,10.865,0,0,0-7.243,2.332" transform="translate(4.932 5.213)" fill="#feaf9d"/>
        <path id="Trazado_632578" data-name="Trazado 632578" d="M39.044,87.471c.828-.988,1.987-1.588,2.881-2.518a13.94,13.94,0,0,0,3.963-9.636c.1-4.25.031-8.5.021-12.757a9.979,9.979,0,0,1,4.557-8.571A25.3,25.3,0,0,0,61.139,37.261,23.117,23.117,0,0,0,56.8,18.5a19.765,19.765,0,0,0-5.914-5.148,2.125,2.125,0,0,1-.891-.739,17.339,17.339,0,0,1,12.874,7.551c5.252,7.294,5.248,17.754.083,25.738a23.07,23.07,0,0,1-6.332,6.617,12.132,12.132,0,0,0-5.511,10.752q.048,5.953,0,11.907a12.24,12.24,0,0,1-10.248,12.2,5.445,5.445,0,0,1-1.81.085" transform="translate(7.113 2.299)" fill="#fea68e"/>
        <path id="Trazado_632579" data-name="Trazado 632579" d="M39.514,53.174c0,1.715.014,3.432,0,5.147a5.032,5.032,0,0,1-5.306,5.325q-1.929.016-3.86,0a1.279,1.279,0,0,1-1.151-.458c-.267-.45.284-.655.5-.93a10.136,10.136,0,0,0,.085-12.432c-.586-.761-.389-1.136.194-1.637a5.888,5.888,0,0,1,3.719-1.451c1.679-.059,3.36.006,5.04-.031.605-.013.806.174.8.787-.034,1.9-.013,3.789-.013,5.684" transform="translate(5.305 8.508)" fill="#c4715a"/>
        <path id="Trazado_632580" data-name="Trazado 632580" d="M51.177,43.071c-.019-1.987.13-3.961-.76-5.875a12.561,12.561,0,0,0-5.16-5.635,16.228,16.228,0,0,0-8.994-2.222c-2.425.083-4.856,0-7.285-.015.437-2.717.439-2.747,3.141-2.71,3.708.053,7.436-.3,11.122.189,4.4.579,8.019,2.538,9.981,6.749,1.519,3.259.528,7.567-2.045,9.52" transform="translate(5.279 4.835)" fill="#fea68f"/>
        <path id="Trazado_632581" data-name="Trazado 632581" d="M2.78,64.638c.15.017.173.473.448.092,1.692-2.341,4.09-2.868,6.838-2.944,3.718-.1,7.423-.592,11.14-.774a10.909,10.909,0,0,0,5.782-1.531,8.674,8.674,0,0,0,3.826-7.017,12.967,12.967,0,0,0-.364-2.726,6.9,6.9,0,0,1-3.05,12.52c-4.128.346-8.265.579-12.4.864a34.876,34.876,0,0,0-3.522.281,7.564,7.564,0,0,0-5.617,4.035c-.42.78-.9,1.439-1.888,1.212-1.026-.234-1.267-1.029-1.224-1.978.031-.677.02-1.356.028-2.035" transform="translate(0.5 9.061)" fill="#fcb341"/>
      </g>
    </g>
  </g>
</svg>
