<svg xmlns="http://www.w3.org/2000/svg" xmlns:xlink="http://www.w3.org/1999/xlink" width="166.031" height="138.685" viewBox="0 0 166.031 138.685">
  <defs>
    <clipPath id="clip-path">
      <rect id="Rectángulo_337095" data-name="Rectángulo 337095" width="104.823" height="104.923" fill="none"/>
    </clipPath>
  </defs>
  <g id="Grupo_902036" data-name="Grupo 902036" transform="translate(0 0)">
    <path id="Trazado_630195" data-name="Trazado 630195" d="M15.626,0H150.4a15.626,15.626,0,0,1,15.626,15.626V123.059A15.626,15.626,0,0,1,150.4,138.685H15.626A15.626,15.626,0,0,1,0,123.059V15.626A15.626,15.626,0,0,1,15.626,0Z" transform="translate(0 0)" fill="#ffd947"/>
    <g id="Grupo_902410" data-name="Grupo 902410" transform="translate(31.253 17.579)">
      <g id="Grupo_902410-2" data-name="Grupo 902410" transform="translate(0 0)" clip-path="url(#clip-path)">
        <path id="Trazado_632582" data-name="Trazado 632582" d="M84.677,103.394a1.5,1.5,0,0,1-1.269,1.052A23.587,23.587,0,0,1,71.1,103.72c-5.658-2.058-8.03-6.4-6.715-12.256.164-.732.368-1.454.515-2.187a3.127,3.127,0,1,0-6.112-1.326c-.286,1.192-.51,2.4-.885,3.568-1.457,4.52-5.138,7.208-9.991,6.745-8.55-.816-15-5.117-19.3-12.568a7.74,7.74,0,0,1-.969-2.887.869.869,0,0,0-.891-.895,6.832,6.832,0,0,1-1.386-.34,4.437,4.437,0,0,1-3.114-5.431c.314-1.4.591-2.8.944-4.184.116-.454.06-.656-.376-.855-4.493-2.054-8.976-4.131-13.989-4.6-.78-.073-1.566-.1-2.35-.115a6.179,6.179,0,0,1-6.32-5.512,10.716,10.716,0,0,1-.074-1.982,5.283,5.283,0,0,1,3.263-5.014A2.017,2.017,0,0,0,4.624,51.74c-.059-2.8-.068-5.6-.01-8.394A39.568,39.568,0,0,1,8.849,26.307c.627-1.257,1.1-1.471,2.453-1.257,1.183.778,1.4,1.43.8,2.762a42.381,42.381,0,0,0-3.478,11.3A33.1,33.1,0,0,0,8.263,44.3c.035,2.351.007,4.7.009,7.056,0,1.608.007,1.61,1.57,1.614,2.182.008,4.363-.013,6.545.009,1.672-.03,3.343-.005,5.014-.013,1.4-.008,1.424-.027,1.424-1.438q0-15.861,0-31.719c0-1.466,0-2.933,0-4.4,0-.269.083-.632-.159-.764-.321-.175-.559.168-.777.357a43.48,43.48,0,0,0-5.394,5.722c-1,1.17-1.62,1.29-2.857.553a1.776,1.776,0,0,1-.179-2.5,39.676,39.676,0,0,1,7.622-7.816,3.384,3.384,0,0,1,3.13-.426,1.827,1.827,0,0,0,1.627-.293A37.767,37.767,0,0,1,37.072,5.165c.665-.183,1.005-.485.969-1.2a2.2,2.2,0,0,1,1.488-2.219A18.114,18.114,0,0,1,45.88,0h4.509c1.347.415,2.785.449,4.1.988.786.321,1.575.636,2.372.93a2.018,2.018,0,0,1,1.492,2.359c-.09.636.19.879.773,1.029a39.262,39.262,0,0,1,11.96,5.372c.333.219.589.439,1.085.207a3.261,3.261,0,0,1,3.7.575A43.427,43.427,0,0,1,89.943,32.252a44.508,44.508,0,0,1,1.973,13.41c0,2.39.016,4.78,0,7.17a.835.835,0,0,0,.648.948A6.241,6.241,0,0,1,96.518,61.1a6.068,6.068,0,0,1-6.241,5.234c-5.873.018-11.072,2.217-16.465,4.825l6.924,1.582q7.174,1.635,14.347,3.27a5.451,5.451,0,0,1,4.5,4.576c.1.54.411.651.818.726a7,7,0,0,1,2.133.677,4.042,4.042,0,0,1,2.191,4.358c-.576,2.939-1.21,5.874-1.978,8.769A4.2,4.2,0,0,1,97.66,98c-1.385-.369-2.385-.346-3.221,1.026a7.384,7.384,0,0,1-2.382,2.065c-1.167.775-1.571.735-2.564-.256-.712-.638-.455-1.28.026-1.884a7.8,7.8,0,0,1,1.416-1.171,7.225,7.225,0,0,0,2.7-4.208c.82-3.555,1.616-7.114,2.441-10.668.537-2.311-.1-3.291-2.429-3.787-2.2-.467-4.375-1.05-6.586-1.468-7.21-1.7-14.439-3.3-21.66-4.946q-14.128-3.21-28.257-6.414c-2.258-.51-3.083-.038-3.634,2.2-.881,3.579-1.608,7.2-2.493,10.773a7.766,7.766,0,0,0,1.66,6.723A22.268,22.268,0,0,0,45.8,94.652a10.056,10.056,0,0,0,3.146.331,6.232,6.232,0,0,0,5.868-4.874c.336-1.147.514-2.335.867-3.476a5.97,5.97,0,0,1,5.8-4.5,6.376,6.376,0,0,1,6.592,8.283,17.968,17.968,0,0,0-.617,4.444A5.312,5.312,0,0,0,69.8,99.289c2.283,1.669,4.937,2.056,7.644,2.27.442.035.888-.013,1.333,0a17.718,17.718,0,0,0,3.214-.308c.3-.026.6-.091.9-.1,1.494-.039,1.932.514,1.78,2.244" transform="translate(0.022 0)"/>
        <path id="Trazado_632583" data-name="Trazado 632583" d="M0,45.107a.479.479,0,0,1,.177-.018q0,1.043,0,2.084c-.06-.008-.12-.013-.18-.017Z" transform="translate(0 13.704)" fill="#8e8e8e"/>
        <path id="Trazado_632584" data-name="Trazado 632584" d="M66.354,85.349c0-1.7-.572-2.193-2.258-1.918a17.683,17.683,0,0,1-3.744.334c0-.333.271-.352.493-.408a12.065,12.065,0,0,0,4.626-2.539A9.164,9.164,0,0,0,68.8,75.225c.489-2.545,1.11-5.067,1.717-7.588a4.179,4.179,0,0,0,.175-1.21c.012-.1.02-.224.094-.279a1.948,1.948,0,0,0,.6-2.648,3.906,3.906,0,0,0-2.062-3.426c-.263-.15-.7-.222-.559-.711,2.588.57,5.186,1.1,7.76,1.726a2.292,2.292,0,0,1,1.7,2.766c-.915,4.217-1.849,8.433-2.884,12.622a7.069,7.069,0,0,1-3.4,4.061,1.649,1.649,0,0,0-.764,2.251,15.177,15.177,0,0,1-3.652,1.433,1.379,1.379,0,0,0-1.164,1.127" transform="translate(18.345 18.044)" fill="#81e1f4"/>
        <path id="Trazado_632585" data-name="Trazado 632585" d="M81.987,69.082c.321.229.211.518.141.827-.669,2.94-1.291,5.893-2,8.823-.777,3.23-3.058,5.2-5.827,6.727a8.541,8.541,0,0,1-2.73,1.022,16.2,16.2,0,0,1-7.567-1.4,6.394,6.394,0,0,1-3.827-7.718c.207-1,.468-1.99.669-2.993a5.9,5.9,0,0,0-4.756-7.078A5.835,5.835,0,0,0,48.8,71.535c-.291,1.085-.5,2.192-.8,3.273-1.012,3.619-3.712,5.555-7.446,5.079a21.848,21.848,0,0,1-15.6-9.631,7.914,7.914,0,0,1-1.2-6.9C24.7,59.8,25.406,56.186,26.244,52.6a2.438,2.438,0,0,1,3.244-2.071q25.161,5.715,50.32,11.442a.677.677,0,0,1,.172.1c.4.571,1.153.627,1.622,1.144a3.959,3.959,0,0,1,1.2,3.08c-1.27-.507-2.2.243-3.167.858-4.061,2.582-8.145,5.126-12.222,7.68a9.924,9.924,0,0,0-1.429.99,1.127,1.127,0,0,0-.284,1.557,1.193,1.193,0,0,0,1.6.5,10.2,10.2,0,0,0,1.6-.914c3.885-2.476,7.806-4.9,11.7-7.363.421-.266.814-.647,1.389-.527" transform="translate(7.125 15.328)" fill="#98edfe"/>
        <path id="Trazado_632586" data-name="Trazado 632586" d="M84.534,50.536l-5.3,1.283a40.319,40.319,0,0,0-11.588,3.329c-.82.411-1.541,1.157-2.595.97-3.557-.785-7.117-1.558-10.672-2.36-6.014-1.357-12.021-2.749-18.038-4.091a5.181,5.181,0,0,0-5.559,1.946,1.263,1.263,0,0,1-1.618.5,4.567,4.567,0,0,0-3.759.3,3.831,3.831,0,0,0-1.813,2.011c-.227.634-.475.626-1.014.362a45.756,45.756,0,0,0-11.4-4.107,33.933,33.933,0,0,0-5.594-.546,3.155,3.155,0,0,1-3.179-3.209,3.273,3.273,0,0,1,2.8-3.557A3.288,3.288,0,0,1,6.325,43.3q38.779,0,77.556,0c1.687,0,2.238.425,2.661,2.05.559,2.142-.321,4.417-2.008,5.186" transform="translate(0.729 13.157)" fill="#fee545"/>
        <path id="Trazado_632587" data-name="Trazado 632587" d="M44.783,28.782c0-7.133.025-14.265-.026-21.4-.008-1.061.3-1.037,1.127-.782a39.173,39.173,0,0,1,10.376,4.959,1.306,1.306,0,0,1,.657,1.239q-.02,18.84.014,37.678c0,.715-.181.914-.9.9q-5.119-.057-10.239,0c-.789.009-1.017-.185-1.013-1,.034-7.2.02-14.4.02-21.6Z" transform="translate(13.604 1.962)" fill="#feb838"/>
        <path id="Trazado_632588" data-name="Trazado 632588" d="M32.238,28.879c0,7.165-.013,14.331.018,21.5,0,.8-.193,1.025-1.005,1.014-3.411-.048-6.824-.04-10.236,0-.7.008-.913-.16-.911-.891q.029-18.834-.008-37.67a1.3,1.3,0,0,1,.648-1.24A39.191,39.191,0,0,1,31.408,6.533c.734-.219.832-.038.831.645-.021,7.233-.013,14.467-.013,21.7Z" transform="translate(6.108 1.959)" fill="#feb838"/>
        <path id="Trazado_632589" data-name="Trazado 632589" d="M38.931,52.555c-2.184.016-4.368.02-6.551.056-.52.008-.657-.216-.609-.674.017-.17,0-.342,0-.512q-.008-23.252-.038-46.5A1.329,1.329,0,0,1,32.807,3.4,16.894,16.894,0,0,1,38.1,2.391a1.2,1.2,0,0,1,1.146,1.4c-.008.306.007.614.007.921q0,22.984-.005,45.966a2.74,2.74,0,0,1-.317,1.875" transform="translate(9.647 0.726)" fill="#fee545"/>
        <path id="Trazado_632590" data-name="Trazado 632590" d="M37.448,52.562q0-24.316.013-48.633A1.408,1.408,0,0,0,36.617,2.4a16.722,16.722,0,0,1,6.622,1.044A1.219,1.219,0,0,1,44.2,4.827q-.033,20.647-.005,41.291c0,1.879-.023,3.757.013,5.634.013.635-.116.9-.825.874-1.977-.064-3.958-.048-5.937-.064" transform="translate(11.13 0.719)" fill="#f4d50c"/>
        <path id="Trazado_632591" data-name="Trazado 632591" d="M12.492,17.459a37.087,37.087,0,0,1,6.259-6.582c.142-.12.287-.368.5-.2.1.08.117.3.138.458a3.928,3.928,0,0,1,.007.511q.006,18.7.031,37.394c0,.816-.142,1.124-1.037,1.082-1.908-.089-3.821-.053-5.732-.069a1.977,1.977,0,0,1-.34-1.454q-.01-14.863-.009-29.728c0-.485.142-.939.179-1.412" transform="translate(3.743 3.228)" fill="#f4d50c"/>
        <path id="Trazado_632592" data-name="Trazado 632592" d="M56.459,16.714V10.433a36.368,36.368,0,0,1,5.26,5.01,40.017,40.017,0,0,1,9.966,26c.059,2.627.014,5.258.029,7.886,0,.476.026.861-.662.844-2.012-.051-4.025-.046-6.039-.061a1.872,1.872,0,0,1-.286-1.367c-.007-2.253,0-4.505,0-6.757a41.358,41.358,0,0,0-7.567-23.916,4.732,4.732,0,0,1-.7-1.354" transform="translate(17.161 3.171)" fill="#f4d50c"/>
        <path id="Trazado_632593" data-name="Trazado 632593" d="M14.4,15.865c.288.363.159.789.16,1.185q.014,15.7.01,31.409c-2.622.016-5.245.027-7.867.052-.391,0-.634-.051-.632-.541.005-6.7-.359-13.433,1.9-19.925a54.567,54.567,0,0,1,2.081-5.2c.539-1.147.421-1.563-.591-2.348q1.285-2.054,2.571-4.106a1.621,1.621,0,0,0,2.363-.525" transform="translate(1.839 4.822)" fill="#fee545"/>
        <path id="Trazado_632594" data-name="Trazado 632594" d="M56.468,15.25a39.092,39.092,0,0,1,6.7,12.974,40.859,40.859,0,0,1,1.678,8.667c.333,3.918.068,7.836.177,11.751-2.661.017-5.323.017-7.983.06-.748.012-.6-.472-.6-.889q-.008-8.448-.008-16.9.008-7.832.033-15.666" transform="translate(17.153 4.635)" fill="#fee545"/>
        <path id="Trazado_632595" data-name="Trazado 632595" d="M83.88,50.551a5.032,5.032,0,0,0,1.517-5.7,2.032,2.032,0,0,0-2.144-1.462q-38.737.053-77.474.025c-.409,0-.818-.018-1.227-.029a1.613,1.613,0,0,1,1-.128q41.478,0,82.957.008A3.49,3.49,0,0,1,92,48.11a3.035,3.035,0,0,1-3.03,2.02,41.546,41.546,0,0,0-5.091.421" transform="translate(1.384 13.142)" fill="#f4d50c"/>
        <path id="Trazado_632596" data-name="Trazado 632596" d="M19.327,61.225c.164-.712.377-1.636.589-2.562.409-1.786.782-3.583,1.241-5.357a1.853,1.853,0,0,1,2.88-.7c.185.192.055.387.016.566-.692,3.116-1.4,6.229-2.093,9.343-.09.4-.27.553-.713.485-1.354-.206-1.91-.632-1.921-1.776" transform="translate(5.875 15.861)" fill="#365cc9"/>
        <path id="Trazado_632597" data-name="Trazado 632597" d="M79.1,66.517c-.417,1.852-.885,3.939-1.356,6.026-.134.6-.244,1.2-.415,1.786a1.837,1.837,0,0,1-2.867.718c-.213-.211-.115-.446-.065-.668.691-3.047,1.4-6.092,2.08-9.141.119-.529.287-.715.891-.545.879.246,1.792.347,1.733,1.823" transform="translate(22.593 19.646)" fill="#365cc9"/>
        <path id="Trazado_632598" data-name="Trazado 632598" d="M50.447,54.129a62.378,62.378,0,0,1,6.52-2.87,25.689,25.689,0,0,1,7.662-1.429,114.758,114.758,0,0,0-11.046,4.748c-1.039.506-2.1-.211-3.136-.449" transform="translate(15.334 15.146)" fill="#f4d50c"/>
        <path id="Trazado_632599" data-name="Trazado 632599" d="M72.245,65.482,58.92,73.808c-.288.18-.576.361-.868.535-1,.6-1.827.477-2.309-.325a1.555,1.555,0,0,1,.669-2.252c1.115-.72,2.242-1.421,3.364-2.128,3.656-2.3,7.324-4.59,10.965-6.918a1.769,1.769,0,0,1,2.325-.017c.7,1.385.595,1.728-.82,2.779" transform="translate(16.867 18.929)"/>
        <path id="Trazado_632600" data-name="Trazado 632600" d="M45.523,57.525a1.386,1.386,0,0,1-.75,1.254q-7.391,4.659-14.795,9.3a1.457,1.457,0,0,1-2.148-.379,1.551,1.551,0,0,1,.532-2.214q7.384-4.671,14.792-9.3a1.508,1.508,0,0,1,2.368,1.342" transform="translate(8.38 16.996)"/>
        <path id="Trazado_632601" data-name="Trazado 632601" d="M34.72,54.238A1.618,1.618,0,0,1,36.17,55.3a1.287,1.287,0,0,1-.408,1.652c-2.165,1.406-4.334,2.807-6.556,4.121a1.358,1.358,0,0,1-1.912-.665,1.28,1.28,0,0,1,.346-1.891c2.133-1.391,4.3-2.729,6.465-4.076a2.472,2.472,0,0,1,.615-.2" transform="translate(8.215 16.486)"/>
        <path id="Trazado_632602" data-name="Trazado 632602" d="M62.6,60.623a1.513,1.513,0,0,1,1.483,1,1.234,1.234,0,0,1-.368,1.648c-2.187,1.43-4.4,2.826-6.644,4.162-.735.438-1.4.016-1.822-.644a1.278,1.278,0,0,1,.289-1.9c2.155-1.419,4.357-2.771,6.547-4.135a1.542,1.542,0,0,1,.514-.126" transform="translate(16.706 18.427)"/>
      </g>
    </g>
  </g>
</svg>
