<svg xmlns="http://www.w3.org/2000/svg" xmlns:xlink="http://www.w3.org/1999/xlink" width="85" height="71" viewBox="0 0 85 71">
  <defs>
    <clipPath id="clip-path">
      <rect id="Rectángulo_337091" data-name="Rectángulo 337091" width="40.606" height="50.752" fill="none"/>
    </clipPath>
  </defs>
  <g id="Grupo_902466" data-name="Grupo 902466" transform="translate(-443 -4071)">
    <g id="Grupo_902006" data-name="Grupo 902006" transform="translate(263 2166)">
      <path id="Trazado_632512" data-name="Trazado 632512" d="M8,0H77a8,8,0,0,1,8,8V63a8,8,0,0,1-8,8H8a8,8,0,0,1-8-8V8A8,8,0,0,1,8,0Z" transform="translate(180 1905)" fill="#fff"/>
      <g id="Grupo_902406" data-name="Grupo 902406" transform="translate(202 1915)">
        <g id="Grupo_902406-2" data-name="Grupo 902406" transform="translate(0 0)" clip-path="url(#clip-path)">
          <path id="Trazado_632513" data-name="Trazado 632513" d="M32.395,0a1.13,1.13,0,0,1,.593,1.287c-.041.315.059.437.394.409a1.8,1.8,0,0,1,1.355.5c.563.485,1.134.96,1.7,1.441A1.715,1.715,0,0,1,36.069,6.7c.685.55,1.325,1.12,1.1,2.123a1.71,1.71,0,0,1-1.061,1.23c.074.214.278.3.43.433a1.7,1.7,0,0,1-1.047,3.052c-.817.047-.817.047-.817.875s0,.823.827.823,1.652-.009,2.477,0a2.536,2.536,0,0,1,2.625,2.519,2.571,2.571,0,0,1-2.654,2.554c-.725.009-.725.009-.725.718q0,12.065-.011,24.13c0,.436.1.547.539.54a2.537,2.537,0,1,1,.474,5.05c-.132.008-.264.005-.4.005H2.752A2.538,2.538,0,1,1,2.37,45.69c1.006-.048,1.006-.048,1.006-1.046V20.96c0-.648,0-.648-.643-.652A2.55,2.55,0,0,1,.042,18.18a2.486,2.486,0,0,1,2.25-2.921c1.054-.057,2.113-.035,3.17-.018.352.006.513-.056.472-.451-.039-.376.116-.828-.045-1.121-.188-.343-.685-.083-1.044-.153a1.66,1.66,0,0,1-1.362-1.149,1.615,1.615,0,0,1,.423-1.731c.185-.187.394-.348.631-.554A1.745,1.745,0,0,1,3.4,8.441c-.009-.807.54-1.273,1.156-1.731A1.744,1.744,0,0,1,3.416,4.859a1.621,1.621,0,0,1,.606-1.1c.593-.5,1.188-1,1.769-1.513a1.923,1.923,0,0,1,1.481-.556c.291.025.374-.085.345-.357A1.163,1.163,0,0,1,8.208,0h.5a.889.889,0,0,1,.72,1.023c-.009.37.111.539.506.548a1.942,1.942,0,0,1,1.168.49c.617.5,1.226,1.006,1.818,1.533a1.762,1.762,0,0,1,.011,2.895c-.264.228-.215.319.016.508a1.8,1.8,0,0,1-.064,2.929c-.347.228-.061.334.081.466a1.833,1.833,0,0,1,.244,2.652,2.256,2.256,0,0,1-1.46.648c-.211.038-.527-.073-.591.232A1.986,1.986,0,0,0,11.18,15c.05.14.218.132.349.132,1.883.005,3.766,0,5.65,0,.3,0,.419-.142.411-.426,0-.1,0-.2,0-.3,0-.54.051-.662-.633-.735a1.827,1.827,0,0,1-1.834-2.024,1.8,1.8,0,0,1,.669-1.23c.221-.191.238-.324,0-.549A1.778,1.778,0,0,1,15.752,7.1c.237-.243.32-.382,0-.654a1.738,1.738,0,0,1-.123-2.594,20.871,20.871,0,0,1,2.246-1.943,1.564,1.564,0,0,1,.964-.344c.314,0,.428-.137.451-.447C19.326.628,19.432.157,20,0H20.6c.55.146.677.6.708,1.066.023.354.146.5.5.5a1.482,1.482,0,0,1,.915.337,21.023,21.023,0,0,1,2.245,1.942,1.728,1.728,0,0,1-.113,2.59c-.305.261-.29.422-.011.651A1.81,1.81,0,0,1,24.79,9.9c-.256.177-.2.329,0,.5a1.828,1.828,0,0,1-1.017,3.263c-.786.138-.769.138-.769.954,0,.385.137.524.523.519,1.354-.015,2.708-.006,4.062-.006.462,0,.925-.016,1.387,0,.39.017.551-.146.511-.526a1.425,1.425,0,0,1,0-.149c.007-.738-.022-.735-.679-.791a1.978,1.978,0,0,1-1.377-.594,1.787,1.787,0,0,1,.157-2.606c.288-.251.355-.379.026-.67a1.736,1.736,0,0,1,.05-2.784c.285-.241.22-.338-.017-.55A1.787,1.787,0,0,1,27.693,3.6c.592-.5,1.17-1.02,1.775-1.506a2.1,2.1,0,0,1,1.257-.526c.347-.01.459-.168.452-.493C31.165.553,31.317.128,31.9,0Z" transform="translate(0 0)"/>
          <path id="Trazado_632514" data-name="Trazado 632514" d="M18.162,64.519a.9.9,0,0,0-.791.833,5.369,5.369,0,0,1-1.951.138.718.718,0,0,1-.563-.137c-.184-.667-.381-.82-1.086-.821-1.156,0-2.312-.021-3.467.009-.429.011-.557-.093-.553-.54.022-2.839.011-5.68.011-8.519,0-5.267.007-10.534-.011-15.8,0-.449.122-.566.551-.537a16.563,16.563,0,0,0,1.683,0c.269-.009.34.086.329.34-.018.429-.013.859,0,1.287a.843.843,0,1,0,1.683-.011c.009-.413.024-.827,0-1.238-.022-.319.1-.38.393-.379q4.68.015,9.361,0c.335,0,.425.107.406.423a11.073,11.073,0,0,0,0,1.238.821.821,0,0,0,.832.861.811.811,0,0,0,.852-.837c.029-.444.022-.891.009-1.337-.008-.25.065-.345.331-.345q4.755.012,9.51,0c.284,0,.322.119.315.354-.013.429-.012.859,0,1.288a.814.814,0,0,0,.808.876.824.824,0,0,0,.873-.866,8.688,8.688,0,0,0,0-1.138c-.039-.406.081-.586.5-.51a3.31,3.31,0,0,0,.394.024,1.248,1.248,0,0,1,.161.9q.006,10.725,0,21.451c0,.792.012,1.585-.006,2.378-.013.533-.075.584-.61.584q-9.685,0-19.37,0a2.152,2.152,0,0,0-.591.027" transform="translate(-4.696 -18.846)" fill="#fe9701"/>
          <path id="Trazado_632515" data-name="Trazado 632515" d="M11.729,89.7h2.514c.171.7.395.868,1.152.868H37.919c.231,0,.461.013.692.02a1.121,1.121,0,0,1-.094,1.662q-7.527,0-15.054.007-9.409,0-18.818,0c-.132,0-.264,0-.4,0a.9.9,0,0,1-.994-.869.88.88,0,0,1,.983-.818c2.13,0,4.259,0,6.388,0,.7,0,.937-.188,1.1-.867" transform="translate(-1.567 -43.198)" fill="#607c8a"/>
          <path id="Trazado_632516" data-name="Trazado 632516" d="M3.829,34.268a.774.774,0,0,1-.539-.934.807.807,0,0,1,.9-.679c.264.008.528,0,.793,0H37.933c.231,0,.461.015.692.022a1.039,1.039,0,0,1,.316.947c-.045.523-.23.683-.758.683q-16.983,0-33.965,0a.778.778,0,0,1-.389-.04" transform="translate(-1.574 -15.725)" fill="#607c8a"/>
          <path id="Trazado_632517" data-name="Trazado 632517" d="M25.974,64.532c.176-.139.382-.074.574-.074q9.606-.005,19.213.007c.481,0,.642-.092.641-.617q-.029-12.33-.014-24.66c.445-.007.891,0,1.336-.025.277-.015.328.114.325.355-.01.776,0,1.552,0,2.328q0,11.047.009,22.094c0,.452-.074.616-.581.615q-10.527-.026-21.054-.009c-.148,0-.3-.01-.445-.015" transform="translate(-12.508 -18.859)" fill="#f47b00"/>
          <path id="Trazado_632518" data-name="Trazado 632518" d="M9.84,21.195c.614-.523,1.2-1.021,1.789-1.526a.7.7,0,0,1,.5-.171,5.564,5.564,0,0,0,1.135-.009c1.5-.293,2.21.861,3.126,1.707Z" transform="translate(-4.739 -9.362)" fill="#d64215"/>
          <path id="Trazado_632519" data-name="Trazado 632519" d="M39.265,21.184H32.683c.665-.559,1.3-1.113,1.961-1.635.182-.145.452-.023.677-.059a3.687,3.687,0,0,1,3.637,1.316c.091.108.257.148.306.378" transform="translate(-15.739 -9.355)" fill="#d64215"/>
          <path id="Trazado_632520" data-name="Trazado 632520" d="M9.776,14.68c.654-.554,1.248-1.051,1.834-1.559a.605.605,0,0,1,.449-.16,2.718,2.718,0,0,0,.643,0c1.621-.328,2.7.545,3.682,1.633-.4.09-5.707.172-6.609.089" transform="translate(-4.708 -6.206)" fill="#fd5622"/>
          <path id="Trazado_632521" data-name="Trazado 632521" d="M62.2,14.74H55.484c.677-.57,1.32-1.119,1.973-1.656a.532.532,0,0,1,.284-.049c.165-.007.33,0,.5,0,2.222,0,2.222,0,3.96,1.707" transform="translate(-26.719 -6.275)" fill="#fd5622"/>
          <path id="Trazado_632522" data-name="Trazado 632522" d="M55.539,21.2c.617-.526,1.218-1.034,1.815-1.548a.645.645,0,0,1,.458-.143c.346,0,.693-.012,1.037,0,.49.022,1.049-.175,1.456.086a9,9,0,0,1,1.77,1.6Z" transform="translate(-26.745 -9.371)" fill="#d64215"/>
          <path id="Trazado_632523" data-name="Trazado 632523" d="M32.719,14.687c.619-.525,1.224-1.05,1.844-1.557a7.431,7.431,0,0,1,3.034.033c.572.469,1.134.952,1.811,1.524Z" transform="translate(-15.756 -6.255)" fill="#fd5622"/>
          <path id="Trazado_632524" data-name="Trazado 632524" d="M62.253,8.212H55.494c.666-.564,1.3-1.1,1.932-1.637a.46.46,0,0,1,.33-.063c.741,0,1.483,0,2.225-.005a.684.684,0,0,1,.485.191c.549.472,1.105.937,1.788,1.513" transform="translate(-26.724 -3.133)" fill="#fd9701"/>
          <path id="Trazado_632525" data-name="Trazado 632525" d="M16.42,8.174h-6.6c.435-.375.873-.7,1.248-1.088a2.425,2.425,0,0,1,1.711-.651,3.459,3.459,0,0,1,3.152,1.184,4.508,4.508,0,0,0,.517.446l-.03.109" transform="translate(-4.729 -3.089)" fill="#fd9701"/>
          <path id="Trazado_632526" data-name="Trazado 632526" d="M32.67,8.133c.668-.563,1.3-1.1,1.939-1.633.1-.082.22-.054.333-.056a3.873,3.873,0,0,0,.74-.008c1.6-.343,2.6.618,3.646,1.7Z" transform="translate(-15.733 -3.066)" fill="#fd9701"/>
          <path id="Trazado_632527" data-name="Trazado 632527" d="M4.349,34.28H38.3c1.008,0,1.2-.248.943-1.258-.028-.111-.063-.221-.094-.332.347,0,.694-.018,1.04-.008a.9.9,0,0,1,.826.719.841.841,0,0,1-.621.9,5.3,5.3,0,0,1-1.526.074q-17.024.013-34.048.005c-.16,0-.334.041-.468-.1" transform="translate(-2.094 -15.737)" fill="#37464e"/>
          <path id="Trazado_632528" data-name="Trazado 632528" d="M38.353,26.143c.866,0,.866,0,.866.868,0,.148-.007.3,0,.443.015.27-.1.389-.377.382-1.672-.041-1.341.287-1.383-1.393-.007-.26.089-.352.354-.306a3.181,3.181,0,0,0,.54.006" transform="translate(-18.038 -12.581)" fill="#35454d"/>
          <path id="Trazado_632529" data-name="Trazado 632529" d="M14.684,26.978c.015-.939-.124-.8.812-.812.874-.007.874,0,.874.849a3.145,3.145,0,0,0,0,.4c.044.346-.1.489-.444.444a2.659,2.659,0,0,0-.346,0c-.9,0-.9,0-.9-.874" transform="translate(-7.071 -12.599)" fill="#37464e"/>
          <path id="Trazado_632530" data-name="Trazado 632530" d="M61.2,27.838c-.946-.015-.808.125-.816-.807-.008-.88,0-.88.892-.88a1.574,1.574,0,0,0,.247,0c.429-.069.622.093.547.538a1.825,1.825,0,0,0,0,.3c0,.854,0,.854-.868.854" transform="translate(-29.075 -12.585)" fill="#37474f"/>
          <path id="Trazado_632531" data-name="Trazado 632531" d="M71.27,93.068a1.61,1.61,0,0,0,.094-1.662c.345,0,.69-.024,1.034-.011a.838.838,0,1,1,0,1.676c-.376.019-.755,0-1.133,0" transform="translate(-34.321 -44.01)" fill="#37474e"/>
          <path id="Trazado_632532" data-name="Trazado 632532" d="M28.111,66.766c-2.791,0-5.582-.006-8.372,0a3.124,3.124,0,0,1-3.016-1.7,3.2,3.2,0,0,1,.243-3.462q4.24-6.364,8.479-12.727a3.113,3.113,0,0,1,5.414-.031q4.283,6.394,8.541,12.8a3.245,3.245,0,0,1-1.142,4.757,3.373,3.373,0,0,1-1.576.354q-4.285,0-8.57,0" transform="translate(-7.861 -22.773)"/>
          <path id="Trazado_632533" data-name="Trazado 632533" d="M29.709,66.638c-2.774,0-5.548-.006-8.321,0a1.588,1.588,0,0,1-1.594-.771,1.638,1.638,0,0,1,.19-1.807Q24.2,57.75,28.4,51.422a1.463,1.463,0,0,1,2.692.008Q35.3,57.751,39.5,64.073a1.635,1.635,0,0,1,.177,1.808,1.494,1.494,0,0,1-1.452.758q-4.26-.005-8.52,0" transform="translate(-9.439 -24.337)" fill="#fedb00"/>
          <path id="Trazado_632534" data-name="Trazado 632534" d="M34.986,62.913c.919,0,1.741,0,2.564,0,.9.006,1.263.649.8,1.43q-1.161,1.956-2.34,3.9c-.337.558-.828.725-1.273.446s-.514-.747-.186-1.3c.537-.9,1.08-1.8,1.671-2.79-.856,0-1.637-.008-2.417,0a1.029,1.029,0,0,1-1.03-.44c-.24-.407-.058-.752.156-1.1.785-1.3,1.559-2.6,2.34-3.9a.87.87,0,0,1,1.24-.42c.446.27.525.748.2,1.294-.554.932-1.114,1.862-1.724,2.879" transform="translate(-15.728 -28.226)"/>
        </g>
      </g>
    </g>
  </g>
</svg>
