<svg xmlns="http://www.w3.org/2000/svg" xmlns:xlink="http://www.w3.org/1999/xlink" width="85" height="71" viewBox="0 0 85 71">
  <defs>
    <clipPath id="clip-path">
      <rect id="Rectángulo_337092" data-name="Rectángulo 337092" width="55.867" height="55.89" fill="none"/>
    </clipPath>
  </defs>
  <g id="Grupo_902467" data-name="Grupo 902467" transform="translate(-758 -4071)">
    <g id="Grupo_902007" data-name="Grupo 902007" transform="translate(578 2166)">
      <path id="Trazado_632510" data-name="Trazado 632510" d="M8,0H77a8,8,0,0,1,8,8V63a8,8,0,0,1-8,8H8a8,8,0,0,1-8-8V8A8,8,0,0,1,8,0Z" transform="translate(180 1905)" fill="#fff"/>
      <g id="Grupo_902407" data-name="Grupo 902407" transform="translate(195 1913)">
        <g id="Grupo_902407-2" data-name="Grupo 902407" transform="translate(0 0)" clip-path="url(#clip-path)">
          <path id="Trazado_632535" data-name="Trazado 632535" d="M39.2,3.867a20.317,20.317,0,0,0,1.915.989c.086.34-.206.476-.384.648a.455.455,0,0,0,0,.775c.572.55,1.129,1.115,1.686,1.681.5.508.5.573.025,1.086-.6.655-.6,1,.018,1.629.761.772,1.514,1.553,2.3,2.3a4.336,4.336,0,0,0,4.529,1.174c.219-.069.447-.158.66.028a15.589,15.589,0,0,1,1.431,3.8,25.56,25.56,0,0,1,.958,8.689,27.215,27.215,0,0,1-18.1,24.2,26.177,26.177,0,0,1-6.75,1.432A27.248,27.248,0,0,1,17.1,51.153c-.131-.04-.267-.048-.4-.089a6.469,6.469,0,0,1-1.531-1.4.4.4,0,0,1,0-.578c.12-.153.265-.284.387-.435a.807.807,0,0,0,.01-1.2,29.754,29.754,0,0,0-2.98-2.937,4.154,4.154,0,0,0-4.165-.713c-.893.315-.9.3-1.413-.468a25.122,25.122,0,0,1-4.174-11.6A25.909,25.909,0,0,1,8.613,12.357a25.662,25.662,0,0,1,7.739-6.418,26.08,26.08,0,0,1,9.695-3.071,25.787,25.787,0,0,1,11.788,1.4c.728.261.725.268,1.212-.326a.253.253,0,0,1,.153-.075" transform="translate(-0.986 -0.988)" fill="#fedd55"/>
          <path id="Trazado_632536" data-name="Trazado 632536" d="M24.776,57.391c.654.166,1.308.33,1.961.5a25.472,25.472,0,0,0,7.986.78A27.053,27.053,0,0,0,58.848,40.392a26.349,26.349,0,0,0,1.324-6.444,26.915,26.915,0,0,0-2.219-13.229.555.555,0,0,1-.024-.113c.11-.312.3-.307.536-.139a1.514,1.514,0,0,1,.331.4,26.066,26.066,0,0,1,1.732,26.09A26.258,26.258,0,0,1,39.686,61.5a25.584,25.584,0,0,1-11.284-1.3c-.624-.216-1.21-.548-1.682.219l-1.93-.913c-.118-.239.087-.352.21-.471.552-.536.61-.569-.021-1.163-.124-.117-.33-.233-.2-.472" transform="translate(-9.056 -7.452)" fill="#eabe00"/>
          <path id="Trazado_632537" data-name="Trazado 632537" d="M15.72,49.94c.247.416.916.645.88,1.075-.03.364-.558.688-.866,1.031-.222.253-.4.24-.628-.03a9.139,9.139,0,0,0-.787-.754,9.5,9.5,0,0,1-1.118-1,.584.584,0,0,0-.766-.183c-1.017.881-1.016.881-.11,1.788.494.494.977,1,1.486,1.476.226.212.3.355.019.577-.376.3-.647.929-1.06.913-.346-.014-.674-.572-1-.9-.443-.435-.891-.866-1.313-1.321-.217-.235-.349-.253-.594-.015-.926.9-1.174.887-2.1-.034-.728-.727-1.463-1.446-2.181-2.182a4.538,4.538,0,0,1-.594-5.893c.2-.3.113-.465-.051-.7A26.85,26.85,0,0,1,.153,30.924,27.32,27.32,0,0,1,6.147,10.5,27.32,27.32,0,0,1,24.136.281a27.461,27.461,0,0,1,13.608,1.5c.782.287.78.292.472,1.092-.387.933-.387.933-1.247.618A26.046,26.046,0,0,0,2.423,22.665a25.458,25.458,0,0,0,3.86,19.814c.238.362.4.456.852.276a4.384,4.384,0,0,1,4.9.926c.9.827,1.741,1.715,2.6,2.584a.96.96,0,0,1,.011,1.562c-.529.555-.532.558.029,1.11.344.339.7.668,1.049,1" transform="translate(0 0)"/>
          <path id="Trazado_632538" data-name="Trazado 632538" d="M27.755,53.648c.4-.844.4-.844,1.305-.517a26.04,26.04,0,0,0,34.387-18.8A25.318,25.318,0,0,0,59.6,14.039c-.158-.238-.293-.557-.636-.2a4.544,4.544,0,0,1-4.42-.44,28.121,28.121,0,0,1-3.418-3.3c-.377-.383-.273-.921.238-1.369.422-.37.478-.609.014-1.008-.657-.567-1.232-1.228-1.86-1.831-.228-.218-.279-.366-.015-.595a10.145,10.145,0,0,0,.718-.749c.217-.235.393-.256.626.021a11.09,11.09,0,0,0,.9.872,7.922,7.922,0,0,1,1.012.9.563.563,0,0,0,.75.179c1.026-.888,1.026-.888.084-1.828-.494-.494-.976-1-1.487-1.474-.229-.212-.2-.327.005-.536,1.033-1.072,1.026-1.078,2.065-.039.453.453.919.892,1.353,1.362.214.231.361.231.547-.005a2.681,2.681,0,0,1,.287-.289.943.943,0,0,1,1.48-.023c.915.894,1.836,1.786,2.71,2.72A4.518,4.518,0,0,1,61.037,12a.665.665,0,0,0,.029.9A27.382,27.382,0,0,1,65.942,29.66a27.957,27.957,0,0,1-37.586,25.2c-.915-.333-.916-.332-.6-1.208" transform="translate(-10.092 -0.689)"/>
          <path id="Trazado_632539" data-name="Trazado 632539" d="M19.62,78.823c.193-.361.392-.41.685-.072.378.438.8.841,1.2,1.259a12.369,12.369,0,0,1-1.883-1.187" transform="translate(-7.183 -28.748)" fill="#dfb707"/>
          <path id="Trazado_632540" data-name="Trazado 632540" d="M67.48,8.592c-.187.352-.382.409-.669.074-.344-.4-.727-.771-1.093-1.155A9.658,9.658,0,0,1,67.48,8.592" transform="translate(-24.06 -2.75)" fill="#f1d355"/>
          <path id="Trazado_632541" data-name="Trazado 632541" d="M33.78,51.574a17.692,17.692,0,1,1,17.757-17.5,17.7,17.7,0,0,1-17.757,17.5" transform="translate(-5.912 -5.927)"/>
          <path id="Trazado_632542" data-name="Trazado 632542" d="M9.491,72.568a2.664,2.664,0,0,1,1.618-2.541,2.634,2.634,0,0,1,3.028.458c.65.58,1.233,1.235,1.866,1.835.24.229.168.361-.031.557-1.131,1.118-2.258,2.24-3.369,3.377-.237.242-.372.228-.6-.009-.559-.591-1.152-1.152-1.719-1.736a2.677,2.677,0,0,1-.8-1.94" transform="translate(-3.475 -25.534)" fill="#57a3fe"/>
          <path id="Trazado_632543" data-name="Trazado 632543" d="M74.783,11.769a2.668,2.668,0,0,1-1.623,2.537,2.635,2.635,0,0,1-3.027-.462c-.65-.581-1.237-1.231-1.864-1.838-.2-.19-.207-.316,0-.515Q70,9.776,71.72,8.036c.2-.206.319-.187.51.012.59.617,1.209,1.205,1.8,1.822a2.647,2.647,0,0,1,.755,1.9" transform="translate(-24.938 -2.889)" fill="#57a3fe"/>
          <path id="Trazado_632544" data-name="Trazado 632544" d="M24.9,47.171a15.077,15.077,0,0,1-5.2-7.848A15.815,15.815,0,0,1,32.042,19.386,15.5,15.5,0,0,1,44.3,22.217c.14.1.264.224.4.337a14.885,14.885,0,0,1,2.349,6.679,16.165,16.165,0,0,1-1.347,8.85,16.527,16.527,0,0,1-8.743,8.675,16.278,16.278,0,0,1-7.481,1.374,10.947,10.947,0,0,1-4.57-.96" transform="translate(-6.983 -6.996)" fill="#46f7fe"/>
          <path id="Trazado_632545" data-name="Trazado 632545" d="M28.271,49.159c.925.182,1.824.466,2.762.616a16.664,16.664,0,0,0,6.264-.221,16.283,16.283,0,0,0,8.813-5.159,16.533,16.533,0,0,0,4.061-8.632,16.868,16.868,0,0,0-1.646-10.235c-.158-.326-.465-.584-.462-.986a15.166,15.166,0,0,1,5.46,8.157A15.8,15.8,0,0,1,40.417,52.621a15.5,15.5,0,0,1-11.993-3.294,1.294,1.294,0,0,1-.153-.168" transform="translate(-10.35 -8.985)" fill="#00e6ef"/>
          <path id="Trazado_632546" data-name="Trazado 632546" d="M41.237,31.974c0,.969.02,1.94-.01,2.908-.011.394.073.53.5.52,1.3-.03,2.6-.014,3.9-.01,1.081,0,1.462.622.974,1.6q-2.668,5.349-5.348,10.693c-.3.6-.71.857-1.17.712-.577-.181-.714-.624-.709-1.185.016-1.919,0-3.839.015-5.758,0-.367-.077-.493-.47-.486-1.318.027-2.636.014-3.955.009-1.011,0-1.422-.634-.979-1.525q2.7-5.428,5.415-10.85a.943.943,0,0,1,1.108-.634.964.964,0,0,1,.74,1.1c-.016.969,0,1.939,0,2.908" transform="translate(-12.375 -10.229)"/>
          <path id="Trazado_632547" data-name="Trazado 632547" d="M40.775,35.98c0,1.017,0,2.034,0,3.051,0,.829.331,1.154,1.166,1.156,1.254,0,2.509,0,3.844,0l-3.047,6.1-.1-.022c0-1.016,0-2.032,0-3.049,0-.832-.33-1.159-1.162-1.161-1.255,0-2.51,0-3.848,0l3.046-6.094.1.023" transform="translate(-13.775 -13.164)" fill="#fedd55"/>
        </g>
      </g>
    </g>
  </g>
</svg>
